G04 Layer_Physical_Order=2*
G04 Layer_Color=16711680*
%FSLAX25Y25*%
%MOIN*%
G70*
G01*
G75*
G04:AMPARAMS|DCode=13|XSize=39.37mil|YSize=49.21mil|CornerRadius=9.84mil|HoleSize=0mil|Usage=FLASHONLY|Rotation=0.000|XOffset=0mil|YOffset=0mil|HoleType=Round|Shape=RoundedRectangle|*
%AMROUNDEDRECTD13*
21,1,0.03937,0.02953,0,0,0.0*
21,1,0.01969,0.04921,0,0,0.0*
1,1,0.01969,0.00984,-0.01476*
1,1,0.01969,-0.00984,-0.01476*
1,1,0.01969,-0.00984,0.01476*
1,1,0.01969,0.00984,0.01476*
%
%ADD13ROUNDEDRECTD13*%
%ADD22C,0.01969*%
%ADD23C,0.01575*%
%ADD25C,0.02000*%
%ADD26C,0.02756*%
%ADD27C,0.10630*%
%ADD28R,0.05512X0.05512*%
%ADD29C,0.05906*%
%ADD30C,0.07874*%
%ADD31R,0.07874X0.07874*%
%ADD32C,0.03150*%
%ADD33C,0.02756*%
%ADD34C,0.03937*%
%ADD35C,0.70079*%
%ADD36R,0.20079X0.09843*%
G04:AMPARAMS|DCode=37|XSize=31.5mil|YSize=35.43mil|CornerRadius=7.87mil|HoleSize=0mil|Usage=FLASHONLY|Rotation=180.000|XOffset=0mil|YOffset=0mil|HoleType=Round|Shape=RoundedRectangle|*
%AMROUNDEDRECTD37*
21,1,0.03150,0.01969,0,0,180.0*
21,1,0.01575,0.03543,0,0,180.0*
1,1,0.01575,-0.00787,0.00984*
1,1,0.01575,0.00787,0.00984*
1,1,0.01575,0.00787,-0.00984*
1,1,0.01575,-0.00787,-0.00984*
%
%ADD37ROUNDEDRECTD37*%
%ADD38C,0.02362*%
G36*
X73928Y147789D02*
X74152Y146410D01*
X73878Y146200D01*
X73405Y145584D01*
X73107Y144865D01*
X73006Y144095D01*
X73107Y143324D01*
X73405Y142605D01*
X73878Y141989D01*
X74495Y141515D01*
X75213Y141218D01*
X75984Y141116D01*
X76755Y141218D01*
X77473Y141515D01*
X77696Y141686D01*
X85616D01*
X113198Y114104D01*
X113980Y113582D01*
X114902Y113399D01*
X115816D01*
X115928Y113127D01*
X116780Y112016D01*
Y109598D01*
X115928Y108487D01*
X115393Y107195D01*
X115210Y105807D01*
X115393Y104420D01*
X115928Y103127D01*
X116780Y102016D01*
Y99598D01*
X115928Y98488D01*
X115393Y97195D01*
X115210Y95807D01*
X115393Y94420D01*
X115928Y93127D01*
X116780Y92016D01*
X116954Y91883D01*
X117001Y89542D01*
X116980Y89503D01*
X116921Y89457D01*
X116100Y88388D01*
X115585Y87143D01*
X115499Y86496D01*
X120571D01*
Y85807D01*
X121260D01*
Y80735D01*
X121907Y80821D01*
X123152Y81336D01*
X124016Y81999D01*
X124864Y81816D01*
X125984Y81221D01*
Y1969D01*
X116324D01*
X115571Y3787D01*
X118670Y6886D01*
X119275Y6966D01*
X119993Y7263D01*
X120610Y7737D01*
X121083Y8353D01*
X121381Y9072D01*
X121482Y9843D01*
X121381Y10613D01*
X121083Y11332D01*
X120610Y11948D01*
X119993Y12422D01*
X119275Y12719D01*
X118504Y12821D01*
X117733Y12719D01*
X117015Y12422D01*
X116398Y11948D01*
X115925Y11332D01*
X115627Y10613D01*
X115548Y10008D01*
X110897Y5357D01*
X49441D01*
X49137Y5807D01*
X50181Y7776D01*
X63189D01*
Y7972D01*
X66240D01*
Y11909D01*
X67618D01*
Y7972D01*
X70669D01*
Y7776D01*
X94685D01*
X94685Y7776D01*
X96653Y7956D01*
X97295Y7690D01*
X98425Y7541D01*
X99556Y7690D01*
X100609Y8127D01*
X101514Y8821D01*
X102208Y9725D01*
X102644Y10779D01*
X102793Y11909D01*
X102644Y13040D01*
X102208Y14094D01*
X101578Y14914D01*
X101639Y15301D01*
X102291Y16883D01*
X104331D01*
X105252Y17066D01*
X106034Y17588D01*
X110364Y21919D01*
X110887Y22700D01*
X111070Y23622D01*
Y23800D01*
X111349Y23986D01*
X111871Y24767D01*
X112054Y25689D01*
Y28642D01*
X111871Y29563D01*
X111349Y30345D01*
X111070Y30531D01*
Y33248D01*
X111349Y33435D01*
X111871Y34216D01*
X112054Y35138D01*
Y38091D01*
X111871Y39012D01*
X111349Y39794D01*
X111070Y39980D01*
Y43091D01*
X111349Y43277D01*
X111871Y44059D01*
X112054Y44980D01*
Y46443D01*
X113908Y48297D01*
X114430Y49078D01*
X114613Y50000D01*
Y56083D01*
X114892Y56269D01*
X115414Y57051D01*
X115597Y57972D01*
Y60925D01*
X115414Y61847D01*
X114892Y62628D01*
X114772Y64637D01*
X114784Y64653D01*
X115082Y65371D01*
X115183Y66142D01*
X115082Y66913D01*
X114784Y67631D01*
X114311Y68248D01*
X113694Y68721D01*
X112976Y69019D01*
X112205Y69120D01*
X111434Y69019D01*
X110716Y68721D01*
X110099Y68248D01*
X109625Y67631D01*
X109328Y66913D01*
X109227Y66142D01*
X109328Y65371D01*
X109625Y64653D01*
X109637Y64637D01*
X109584Y63744D01*
X107564Y62937D01*
X106538Y63892D01*
Y66142D01*
X106370Y66987D01*
X105892Y67703D01*
X104964Y68631D01*
Y102756D01*
X104796Y103601D01*
X104317Y104317D01*
X92720Y115914D01*
X92641Y116519D01*
X92343Y117237D01*
X91870Y117854D01*
X91253Y118327D01*
X90535Y118625D01*
X89764Y118726D01*
X88993Y118625D01*
X88822Y118554D01*
X87325Y119257D01*
X86853Y119718D01*
Y130704D01*
X87225Y131188D01*
X87522Y131906D01*
X87624Y132677D01*
X87522Y133448D01*
X87225Y134166D01*
X86752Y134783D01*
X86135Y135256D01*
X85417Y135554D01*
X84646Y135655D01*
X83875Y135554D01*
X83157Y135256D01*
X82540Y134783D01*
X82066Y134166D01*
X81769Y133448D01*
X81667Y132677D01*
X81769Y131906D01*
X82066Y131188D01*
X82438Y130704D01*
Y112992D01*
X82606Y112147D01*
X83084Y111431D01*
X87260Y107255D01*
X87149Y106304D01*
X86648Y105083D01*
X86306Y104941D01*
X85689Y104468D01*
X85216Y103851D01*
X84918Y103133D01*
X84817Y102362D01*
X84918Y101591D01*
X85216Y100873D01*
X85689Y100256D01*
X86306Y99783D01*
X87024Y99485D01*
X87629Y99406D01*
X91493Y95542D01*
Y58789D01*
X86842Y54137D01*
X86237Y54058D01*
X85519Y53760D01*
X84902Y53287D01*
X84429Y52670D01*
X84131Y51952D01*
X84030Y51181D01*
X84131Y50410D01*
X84429Y49692D01*
X84800Y49208D01*
Y43307D01*
X84968Y42462D01*
X85447Y41746D01*
X92140Y35053D01*
X92856Y34574D01*
X93701Y34406D01*
X97540D01*
X97578Y34216D01*
X98100Y33435D01*
X98882Y32913D01*
X98979Y32893D01*
Y30961D01*
X98882Y30867D01*
X98882Y30867D01*
X98100Y30345D01*
X97643Y29661D01*
X97554Y29574D01*
X95086D01*
X94994Y29711D01*
X94278Y30189D01*
X93433Y30357D01*
X91858D01*
X91013Y30189D01*
X90297Y29711D01*
X89819Y28995D01*
X89650Y28150D01*
Y26181D01*
X89819Y25336D01*
X90297Y24620D01*
X91013Y24141D01*
X91858Y23973D01*
X93433D01*
X94278Y24141D01*
X94994Y24620D01*
X95086Y24757D01*
X97088D01*
X98092Y23668D01*
X97414Y21700D01*
X78346D01*
X77425Y21517D01*
X76643Y20994D01*
X74925Y19276D01*
X73085Y21116D01*
X72550Y21527D01*
X71928Y21784D01*
X71260Y21872D01*
X42764D01*
X42621Y21966D01*
X41557Y23498D01*
X41486Y23841D01*
X41561Y24409D01*
X41516Y24754D01*
X42283Y26000D01*
X42959Y26673D01*
X64468D01*
Y29581D01*
X66437Y30157D01*
X71132Y25462D01*
X71913Y24940D01*
X72835Y24757D01*
X82206D01*
X82297Y24620D01*
X83013Y24141D01*
X83858Y23973D01*
X85433D01*
X86278Y24141D01*
X86994Y24620D01*
X87473Y25336D01*
X87641Y26181D01*
Y28150D01*
X87473Y28995D01*
X87054Y29621D01*
Y32934D01*
X87225Y33157D01*
X87522Y33875D01*
X87624Y34646D01*
X87522Y35416D01*
X87225Y36135D01*
X86752Y36752D01*
X86135Y37225D01*
X85417Y37522D01*
X84646Y37624D01*
X83875Y37522D01*
X83157Y37225D01*
X82540Y36752D01*
X82066Y36135D01*
X81769Y35416D01*
X81667Y34646D01*
X81769Y33875D01*
X82066Y33157D01*
X82237Y32934D01*
Y29621D01*
X82206Y29574D01*
X73832D01*
X68731Y34675D01*
X67949Y35198D01*
X67028Y35381D01*
X64468D01*
Y39272D01*
X41634D01*
Y38754D01*
X39815Y38000D01*
X37923Y39892D01*
X37142Y40414D01*
X36220Y40598D01*
X28557D01*
X26222Y42932D01*
X26587Y43924D01*
X26870Y44267D01*
Y46555D01*
X24582D01*
X24239Y46272D01*
X23247Y45907D01*
X14613Y54541D01*
Y97428D01*
X37907Y120721D01*
X41634D01*
Y116831D01*
X64468D01*
Y129429D01*
X41634D01*
Y125538D01*
X36909D01*
X35988Y125355D01*
X35206Y124833D01*
X24666Y114293D01*
X22846Y115256D01*
X22858Y115354D01*
X22764Y116074D01*
X22486Y116744D01*
X22044Y117320D01*
X21469Y117762D01*
X20798Y118039D01*
X20768Y118043D01*
Y115354D01*
X20079D01*
Y114665D01*
X17390D01*
X17394Y114635D01*
X17672Y113964D01*
X18113Y113389D01*
X18689Y112947D01*
X19359Y112669D01*
X20079Y112575D01*
X20177Y112588D01*
X21140Y110767D01*
X11657Y101283D01*
X9688Y102099D01*
Y104597D01*
X14160Y109069D01*
X14638Y109785D01*
X14806Y110630D01*
Y116802D01*
X33985Y135981D01*
X40157D01*
X41002Y136149D01*
X41719Y136628D01*
X42686Y137595D01*
X43290Y137674D01*
X44009Y137972D01*
X44626Y138445D01*
X45099Y139062D01*
X45396Y139780D01*
X45498Y140551D01*
X45396Y141322D01*
X45099Y142040D01*
X44965Y142214D01*
X44984Y142975D01*
X45156Y143869D01*
X45439Y144514D01*
X45798Y144754D01*
X48918Y147874D01*
X49196Y147911D01*
X49914Y148208D01*
X50137Y148379D01*
X73628D01*
X73928Y147789D01*
D02*
G37*
%LPC*%
G36*
X68405Y140091D02*
Y138091D01*
X70406D01*
X70402Y138121D01*
X70124Y138791D01*
X69682Y139367D01*
X69106Y139809D01*
X68436Y140086D01*
X68405Y140091D01*
D02*
G37*
G36*
X67028D02*
X66997Y140086D01*
X66327Y139809D01*
X65751Y139367D01*
X65309Y138791D01*
X65032Y138121D01*
X65028Y138091D01*
X67028D01*
Y140091D01*
D02*
G37*
G36*
X54232D02*
Y138091D01*
X56232D01*
X56228Y138121D01*
X55951Y138791D01*
X55509Y139367D01*
X54933Y139809D01*
X54263Y140086D01*
X54232Y140091D01*
D02*
G37*
G36*
X52854D02*
X52824Y140086D01*
X52153Y139809D01*
X51578Y139367D01*
X51136Y138791D01*
X50858Y138121D01*
X50854Y138091D01*
X52854D01*
Y140091D01*
D02*
G37*
G36*
X70406Y136713D02*
X68405D01*
Y134713D01*
X68436Y134717D01*
X69106Y134994D01*
X69682Y135436D01*
X70124Y136012D01*
X70402Y136682D01*
X70406Y136713D01*
D02*
G37*
G36*
X67028D02*
X65028D01*
X65032Y136682D01*
X65309Y136012D01*
X65751Y135436D01*
X66327Y134994D01*
X66997Y134717D01*
X67028Y134713D01*
Y136713D01*
D02*
G37*
G36*
X56232D02*
X54232D01*
Y134713D01*
X54263Y134717D01*
X54933Y134994D01*
X55509Y135436D01*
X55951Y136012D01*
X56228Y136682D01*
X56232Y136713D01*
D02*
G37*
G36*
X52854D02*
X50854D01*
X50858Y136682D01*
X51136Y136012D01*
X51578Y135436D01*
X52153Y134994D01*
X52824Y134717D01*
X52854Y134713D01*
Y136713D01*
D02*
G37*
G36*
X19390Y118043D02*
X19359Y118039D01*
X18689Y117762D01*
X18113Y117320D01*
X17672Y116744D01*
X17394Y116074D01*
X17390Y116043D01*
X19390D01*
Y118043D01*
D02*
G37*
G36*
X119882Y85118D02*
X115499D01*
X115585Y84471D01*
X116100Y83226D01*
X116921Y82157D01*
X117990Y81336D01*
X119235Y80821D01*
X119882Y80735D01*
Y85118D01*
D02*
G37*
G36*
X53740Y114281D02*
Y78740D01*
X89281D01*
X89141Y81606D01*
X88618Y85126D01*
X87754Y88578D01*
X86555Y91929D01*
X85033Y95146D01*
X83204Y98198D01*
X81084Y101057D01*
X78694Y103694D01*
X76057Y106084D01*
X73198Y108204D01*
X70146Y110033D01*
X66929Y111555D01*
X63578Y112754D01*
X60126Y113619D01*
X56606Y114141D01*
X53740Y114281D01*
D02*
G37*
G36*
X52362D02*
X49497Y114141D01*
X45976Y113619D01*
X42524Y112754D01*
X39173Y111555D01*
X35956Y110033D01*
X32904Y108204D01*
X30045Y106084D01*
X27409Y103694D01*
X25019Y101057D01*
X22899Y98198D01*
X21069Y95146D01*
X19547Y91929D01*
X18349Y88578D01*
X17484Y85126D01*
X16962Y81606D01*
X16821Y78740D01*
X52362D01*
Y114281D01*
D02*
G37*
G36*
X30044Y46555D02*
X28248D01*
Y44760D01*
X28850Y45009D01*
X29384Y45419D01*
X29794Y45954D01*
X30044Y46555D01*
D02*
G37*
G36*
X89281Y77362D02*
X53740D01*
Y41821D01*
X56606Y41962D01*
X60126Y42484D01*
X63578Y43349D01*
X66929Y44548D01*
X70146Y46069D01*
X73198Y47899D01*
X76057Y50019D01*
X78694Y52409D01*
X81084Y55045D01*
X83204Y57904D01*
X85033Y60956D01*
X86555Y64174D01*
X87754Y67524D01*
X88618Y70976D01*
X89141Y74497D01*
X89281Y77362D01*
D02*
G37*
G36*
X52362D02*
X16821D01*
X16962Y74497D01*
X17484Y70976D01*
X18349Y67524D01*
X19547Y64174D01*
X21069Y60956D01*
X22899Y57904D01*
X25019Y55045D01*
X27409Y52409D01*
X28155Y51732D01*
X27731Y50374D01*
X27357Y49799D01*
X26891Y49737D01*
X26269Y49479D01*
X25734Y49069D01*
X25324Y48535D01*
X25074Y47933D01*
X30560D01*
X30956Y48286D01*
X31871Y48665D01*
X32904Y47899D01*
X35956Y46069D01*
X39173Y44548D01*
X42524Y43349D01*
X45976Y42484D01*
X49497Y41962D01*
X52362Y41821D01*
Y77362D01*
D02*
G37*
%LPD*%
D13*
X100787Y36614D02*
D03*
X108661D02*
D03*
X100787Y46457D02*
D03*
X108661D02*
D03*
X100787Y27165D02*
D03*
X108661D02*
D03*
X104331Y59449D02*
D03*
X112205D02*
D03*
X9843Y33858D02*
D03*
X17717D02*
D03*
X9843Y24803D02*
D03*
X17717D02*
D03*
D22*
X27559Y38189D02*
X36220D01*
X12205Y53543D02*
X27559Y38189D01*
X12205Y53543D02*
Y98425D01*
X36909Y123130D01*
X114902Y115807D02*
X120571D01*
X86614Y144095D02*
X114902Y115807D01*
X75984Y144095D02*
X86614D01*
X4724Y112598D02*
Y115354D01*
X3150Y111024D02*
X4724Y112598D01*
X113563Y125807D02*
X120571D01*
X88583Y150787D02*
X113563Y125807D01*
X4724Y115354D02*
Y118898D01*
X48425Y150787D02*
X88583D01*
X4724Y118898D02*
X32283Y146457D01*
X44094D01*
X48425Y150787D01*
X112205Y50000D02*
Y59449D01*
X108661Y46457D02*
X112205Y50000D01*
X108661Y36614D02*
Y46457D01*
X112205Y59449D02*
Y66142D01*
X108661Y27165D02*
Y36614D01*
X78346Y19291D02*
X104331D01*
X108661Y23622D01*
Y27165D01*
X67028Y32972D02*
X72835Y27165D01*
X53051Y32972D02*
X67028D01*
X72835Y27165D02*
X84646D01*
X92646D02*
X100787D01*
X84646D02*
Y34646D01*
X74803Y15748D02*
X78346Y19291D01*
X41437Y32972D02*
X53051D01*
X36220Y38189D02*
X41437Y32972D01*
X9843Y24803D02*
Y33858D01*
Y24803D02*
X9843Y24803D01*
X3150Y27953D02*
Y111024D01*
Y27953D02*
X6299Y24803D01*
X9843D01*
X9843Y16142D02*
Y24803D01*
Y16142D02*
X13386Y12598D01*
X16535D01*
X36909Y123130D02*
X53051D01*
D23*
X84646Y112992D02*
Y132677D01*
X102756Y67716D02*
Y102756D01*
X89764Y115748D02*
X102756Y102756D01*
Y67716D02*
X104331Y66142D01*
Y59449D02*
Y66142D01*
X87795Y102362D02*
X93701Y96457D01*
Y57874D02*
Y96457D01*
X87008Y51181D02*
X93701Y57874D01*
X7480Y105512D02*
X12598Y110630D01*
X7480Y49213D02*
Y105512D01*
Y49213D02*
X13780Y42913D01*
X92520Y46457D02*
X100787D01*
X87008Y43307D02*
Y51181D01*
Y43307D02*
X93701Y36614D01*
X100787D01*
X92520Y46457D02*
X97638Y51575D01*
X87795Y102362D02*
Y102362D01*
X97638Y51575D02*
Y100000D01*
X84646Y112992D02*
X97638Y100000D01*
X43307Y7087D02*
Y11909D01*
X33071Y138189D02*
X40157D01*
X42520Y140551D01*
X13780Y40945D02*
Y42913D01*
X29134Y29134D02*
X33858D01*
X24409Y33858D02*
X29134Y29134D01*
X17717Y33858D02*
X24409D01*
X17717Y24803D02*
X25197D01*
X25591Y24409D01*
X38583D01*
X43307Y7087D02*
X47244Y3150D01*
X111811D01*
X118504Y9843D01*
X12598Y117717D02*
X33071Y138189D01*
X12598Y110630D02*
Y117717D01*
D25*
X25591Y51575D02*
X27559Y49606D01*
Y47244D02*
Y49606D01*
D26*
X74803Y11909D02*
Y15748D01*
D27*
X114173Y145866D02*
D03*
X11811D02*
D03*
D28*
X90551Y11909D02*
D03*
X82677D02*
D03*
X74803D02*
D03*
X66929D02*
D03*
X59055D02*
D03*
X51181D02*
D03*
X43307D02*
D03*
X35433D02*
D03*
X27559D02*
D03*
D29*
X98425D02*
D03*
D30*
X120571Y105807D02*
D03*
Y115807D02*
D03*
Y95807D02*
D03*
Y85807D02*
D03*
D31*
Y125807D02*
D03*
D32*
X84646Y132677D02*
D03*
X53543Y137402D02*
D03*
X67716D02*
D03*
X20079Y115354D02*
D03*
X87008Y51181D02*
D03*
X92520Y46457D02*
D03*
X89764Y115748D02*
D03*
X87795Y102362D02*
D03*
X118504Y9843D02*
D03*
X75984Y144095D02*
D03*
X4724Y115354D02*
D03*
X42520Y140551D02*
D03*
X48425Y150787D02*
D03*
X112205Y66142D02*
D03*
X84646Y34646D02*
D03*
X33858Y29134D02*
D03*
X13780Y40945D02*
D03*
X38583Y24409D02*
D03*
D33*
X27559Y47244D02*
D03*
D34*
X16535Y12598D02*
D03*
D35*
X53051Y78051D02*
D03*
D36*
Y32972D02*
D03*
Y123130D02*
D03*
D37*
X92646Y27165D02*
D03*
X84646D02*
D03*
D38*
X66929Y6693D02*
Y11909D01*
X120571Y77067D02*
Y85807D01*
X74803Y15748D02*
Y15748D01*
X71260Y19291D02*
X74803Y15748D01*
X16535Y12598D02*
X23228Y19291D01*
X71260D01*
M02*
