G04 Layer_Physical_Order=1*
G04 Layer_Color=255*
%FSLAX25Y25*%
%MOIN*%
G70*
G01*
G75*
G04:AMPARAMS|DCode=10|XSize=94.49mil|YSize=94.49mil|CornerRadius=11.81mil|HoleSize=0mil|Usage=FLASHONLY|Rotation=90.000|XOffset=0mil|YOffset=0mil|HoleType=Round|Shape=RoundedRectangle|*
%AMROUNDEDRECTD10*
21,1,0.09449,0.07087,0,0,90.0*
21,1,0.07087,0.09449,0,0,90.0*
1,1,0.02362,0.03543,0.03543*
1,1,0.02362,0.03543,-0.03543*
1,1,0.02362,-0.03543,-0.03543*
1,1,0.02362,-0.03543,0.03543*
%
%ADD10ROUNDEDRECTD10*%
G04:AMPARAMS|DCode=11|XSize=39.37mil|YSize=49.21mil|CornerRadius=9.84mil|HoleSize=0mil|Usage=FLASHONLY|Rotation=270.000|XOffset=0mil|YOffset=0mil|HoleType=Round|Shape=RoundedRectangle|*
%AMROUNDEDRECTD11*
21,1,0.03937,0.02953,0,0,270.0*
21,1,0.01969,0.04921,0,0,270.0*
1,1,0.01969,-0.01476,-0.00984*
1,1,0.01969,-0.01476,0.00984*
1,1,0.01969,0.01476,0.00984*
1,1,0.01969,0.01476,-0.00984*
%
%ADD11ROUNDEDRECTD11*%
G04:AMPARAMS|DCode=12|XSize=39.37mil|YSize=62.99mil|CornerRadius=9.84mil|HoleSize=0mil|Usage=FLASHONLY|Rotation=0.000|XOffset=0mil|YOffset=0mil|HoleType=Round|Shape=RoundedRectangle|*
%AMROUNDEDRECTD12*
21,1,0.03937,0.04331,0,0,0.0*
21,1,0.01969,0.06299,0,0,0.0*
1,1,0.01969,0.00984,-0.02165*
1,1,0.01969,-0.00984,-0.02165*
1,1,0.01969,-0.00984,0.02165*
1,1,0.01969,0.00984,0.02165*
%
%ADD12ROUNDEDRECTD12*%
G04:AMPARAMS|DCode=13|XSize=39.37mil|YSize=49.21mil|CornerRadius=9.84mil|HoleSize=0mil|Usage=FLASHONLY|Rotation=0.000|XOffset=0mil|YOffset=0mil|HoleType=Round|Shape=RoundedRectangle|*
%AMROUNDEDRECTD13*
21,1,0.03937,0.02953,0,0,0.0*
21,1,0.01969,0.04921,0,0,0.0*
1,1,0.01969,0.00984,-0.01476*
1,1,0.01969,-0.00984,-0.01476*
1,1,0.01969,-0.00984,0.01476*
1,1,0.01969,0.00984,0.01476*
%
%ADD13ROUNDEDRECTD13*%
G04:AMPARAMS|DCode=14|XSize=60mil|YSize=24mil|CornerRadius=6mil|HoleSize=0mil|Usage=FLASHONLY|Rotation=270.000|XOffset=0mil|YOffset=0mil|HoleType=Round|Shape=RoundedRectangle|*
%AMROUNDEDRECTD14*
21,1,0.06000,0.01200,0,0,270.0*
21,1,0.04800,0.02400,0,0,270.0*
1,1,0.01200,-0.00600,-0.02400*
1,1,0.01200,-0.00600,0.02400*
1,1,0.01200,0.00600,0.02400*
1,1,0.01200,0.00600,-0.02400*
%
%ADD14ROUNDEDRECTD14*%
%ADD15R,0.02400X0.05800*%
%ADD16R,0.05236X0.05236*%
%ADD17R,0.05236X0.05236*%
%ADD18R,0.07874X0.03543*%
%ADD19R,0.03543X0.07874*%
G04:AMPARAMS|DCode=20|XSize=40mil|YSize=60mil|CornerRadius=10mil|HoleSize=0mil|Usage=FLASHONLY|Rotation=0.000|XOffset=0mil|YOffset=0mil|HoleType=Round|Shape=RoundedRectangle|*
%AMROUNDEDRECTD20*
21,1,0.04000,0.04000,0,0,0.0*
21,1,0.02000,0.06000,0,0,0.0*
1,1,0.02000,0.01000,-0.02000*
1,1,0.02000,-0.01000,-0.02000*
1,1,0.02000,-0.01000,0.02000*
1,1,0.02000,0.01000,0.02000*
%
%ADD20ROUNDEDRECTD20*%
%ADD21R,0.04134X0.02559*%
%ADD22C,0.01969*%
%ADD23C,0.01575*%
%ADD24C,0.01000*%
%ADD25C,0.02000*%
%ADD26C,0.02756*%
%ADD27C,0.10630*%
%ADD28R,0.05512X0.05512*%
%ADD29C,0.05906*%
%ADD30C,0.07874*%
%ADD31R,0.07874X0.07874*%
%ADD32C,0.03150*%
%ADD33C,0.02756*%
%ADD34C,0.03937*%
G36*
X125984Y131475D02*
X125886Y131122D01*
X115256D01*
Y120492D01*
X117299D01*
X117433Y120098D01*
X116780Y119598D01*
X115928Y118488D01*
X115393Y117195D01*
X115210Y115807D01*
X115393Y114420D01*
X115928Y113127D01*
X116780Y112016D01*
X117891Y111164D01*
X118278Y111004D01*
Y110610D01*
X117891Y110450D01*
X116780Y109598D01*
X115928Y108487D01*
X115733Y108015D01*
X115186D01*
X113231Y109970D01*
Y131102D01*
X113063Y131947D01*
X112585Y132664D01*
X106266Y138982D01*
X105550Y139461D01*
X104705Y139629D01*
X103307D01*
Y144272D01*
Y150571D01*
X103110D01*
Y151732D01*
X92874D01*
Y150571D01*
X92677D01*
Y144629D01*
X90453D01*
X89608Y144461D01*
X88892Y143982D01*
X83084Y138175D01*
X82606Y137459D01*
X82438Y136614D01*
Y134650D01*
X82066Y134166D01*
X81769Y133448D01*
X81667Y132677D01*
X81769Y131906D01*
X82066Y131188D01*
X82540Y130571D01*
X83157Y130098D01*
X83875Y129800D01*
X84646Y129699D01*
X85417Y129800D01*
X86135Y130098D01*
X86752Y130571D01*
X87225Y131188D01*
X87522Y131906D01*
X87624Y132677D01*
X87522Y133448D01*
X87225Y134166D01*
X86853Y134650D01*
Y135700D01*
X91367Y140214D01*
X92677D01*
Y134272D01*
Y129629D01*
X91594D01*
X90750Y129461D01*
X90033Y128982D01*
X83084Y122034D01*
X82606Y121317D01*
X82438Y120472D01*
Y105512D01*
X82606Y104667D01*
X83084Y103951D01*
X84839Y102196D01*
X84918Y101591D01*
X85216Y100873D01*
X85689Y100256D01*
X86306Y99783D01*
X87024Y99485D01*
X87795Y99384D01*
X88566Y99485D01*
X89284Y99783D01*
X89901Y100256D01*
X90374Y100873D01*
X90672Y101591D01*
X90773Y102362D01*
X90672Y103133D01*
X90374Y103851D01*
X89901Y104468D01*
X89284Y104941D01*
X88566Y105239D01*
X87961Y105319D01*
X86853Y106426D01*
Y114076D01*
X86895Y114099D01*
X87247Y114177D01*
X87556Y113775D01*
Y110236D01*
X87724Y109391D01*
X88203Y108675D01*
X91018Y105860D01*
X91734Y105382D01*
X92579Y105213D01*
X92677D01*
Y99272D01*
Y94272D01*
Y91668D01*
X92313Y91518D01*
X89750Y94081D01*
X89034Y94559D01*
X88189Y94727D01*
X40945D01*
X40100Y94559D01*
X39384Y94081D01*
X36742Y91439D01*
X36378Y91589D01*
Y94272D01*
Y99272D01*
Y104272D01*
Y109272D01*
Y114272D01*
Y119272D01*
Y124272D01*
Y129272D01*
Y134272D01*
Y140013D01*
X39612D01*
X39643Y139780D01*
X39941Y139062D01*
X40414Y138445D01*
X41031Y137972D01*
X41749Y137674D01*
X42520Y137573D01*
X43290Y137674D01*
X44009Y137972D01*
X44231Y138143D01*
X47164D01*
X48086Y138326D01*
X48867Y138848D01*
X51477Y141458D01*
X74634D01*
X75213Y141218D01*
X75984Y141116D01*
X76755Y141218D01*
X77473Y141515D01*
X78090Y141989D01*
X78563Y142605D01*
X78861Y143324D01*
X78962Y144095D01*
X78861Y144865D01*
X78563Y145584D01*
X78090Y146200D01*
X77473Y146674D01*
X76755Y146971D01*
X75984Y147073D01*
X75213Y146971D01*
X74495Y146674D01*
X73975Y146275D01*
X50479D01*
X49558Y146091D01*
X48776Y145569D01*
X46167Y142960D01*
X44231D01*
X44009Y143130D01*
X43290Y143428D01*
X43012Y143465D01*
X42353Y144124D01*
X41636Y144603D01*
X41665Y144898D01*
X41702Y144997D01*
X45059D01*
X45987Y145181D01*
X46773Y145707D01*
X48944Y147878D01*
X49196Y147911D01*
X49914Y148208D01*
X50531Y148681D01*
X51004Y149298D01*
X51302Y150017D01*
X51403Y150787D01*
X51302Y151558D01*
X51004Y152277D01*
X50531Y152893D01*
X49914Y153367D01*
X49196Y153664D01*
X48425Y153766D01*
X47654Y153664D01*
X46936Y153367D01*
X46319Y152893D01*
X45846Y152277D01*
X45548Y151558D01*
X45515Y151306D01*
X44055Y149846D01*
X36378D01*
Y150571D01*
X36181D01*
Y151732D01*
X25945D01*
Y150571D01*
X25748D01*
Y144272D01*
Y139272D01*
Y134272D01*
Y129272D01*
Y124272D01*
Y119272D01*
Y114272D01*
Y109272D01*
Y104272D01*
Y99272D01*
Y94846D01*
X23937D01*
X20716Y98068D01*
Y99508D01*
X20532Y100430D01*
X20010Y101211D01*
X19229Y101733D01*
X18307Y101916D01*
X16339D01*
X15417Y101733D01*
X14636Y101211D01*
X14113Y100430D01*
X13930Y99508D01*
Y96555D01*
X14113Y95633D01*
X14636Y94852D01*
X15417Y94330D01*
X16339Y94147D01*
X17779D01*
X21219Y90707D01*
X22005Y90181D01*
X22933Y89997D01*
X25748D01*
Y84272D01*
X34572D01*
X34723Y83908D01*
X33731Y82916D01*
X11374D01*
X11053Y83396D01*
X10272Y83918D01*
X9350Y84101D01*
X6398D01*
X5476Y83918D01*
X4695Y83396D01*
X4172Y82615D01*
X3989Y81693D01*
Y79724D01*
X4172Y78803D01*
X4695Y78021D01*
X5476Y77499D01*
X5666Y77461D01*
Y76335D01*
X5187Y76014D01*
X4665Y75233D01*
X4481Y74311D01*
Y71358D01*
X4665Y70437D01*
X5187Y69655D01*
X5216Y69362D01*
X4246Y68392D01*
X3767Y67676D01*
X3599Y66831D01*
Y61417D01*
X2362D01*
Y56102D01*
X9252D01*
Y56552D01*
X18701D01*
Y56102D01*
X25591D01*
Y61417D01*
X18701D01*
Y60968D01*
X9252D01*
Y61417D01*
X8015D01*
Y65916D01*
X9435Y67336D01*
X9914Y68053D01*
X10082Y68898D01*
Y69335D01*
X10561Y69655D01*
X11083Y70437D01*
X11267Y71358D01*
Y74311D01*
X11083Y75233D01*
X10561Y76014D01*
X10082Y76335D01*
Y77461D01*
X10272Y77499D01*
X11053Y78021D01*
X11374Y78501D01*
X34646D01*
X35491Y78669D01*
X36207Y79147D01*
X38711Y81652D01*
X39075Y81501D01*
Y78366D01*
X41339D01*
Y83484D01*
Y88602D01*
X40664D01*
X40514Y88966D01*
X41859Y90312D01*
X87274D01*
X88423Y89163D01*
X88273Y88799D01*
X43878D01*
Y88602D01*
X42717D01*
Y83484D01*
Y78366D01*
X43878D01*
Y78169D01*
X84820D01*
Y76358D01*
X84988Y75513D01*
X85466Y74797D01*
X88203Y72061D01*
X88919Y71582D01*
X89764Y71414D01*
X91635D01*
X91672Y71224D01*
X92195Y70443D01*
X92976Y69920D01*
X93898Y69737D01*
X95866D01*
X96788Y69920D01*
X97569Y70443D01*
X98091Y71224D01*
X98275Y72146D01*
Y75098D01*
X98091Y76020D01*
X97569Y76802D01*
X96788Y77324D01*
X95866Y77507D01*
X93898D01*
X92976Y77324D01*
X92195Y76802D01*
X91672Y76020D01*
X91635Y75830D01*
X90678D01*
X89235Y77273D01*
Y78169D01*
X90177D01*
Y86895D01*
X90541Y87046D01*
X91726Y85860D01*
X92443Y85382D01*
X92677Y85335D01*
Y84272D01*
X103307D01*
Y89272D01*
Y93450D01*
X103671Y93601D01*
X104879Y92393D01*
Y81102D01*
X105047Y80257D01*
X105526Y79541D01*
X116690Y68377D01*
Y19025D01*
X103023Y5357D01*
X56033D01*
X53978Y7412D01*
X54129Y7776D01*
X63189D01*
Y7972D01*
X66240D01*
Y11909D01*
Y15846D01*
X63189D01*
Y16043D01*
X23425D01*
Y7776D01*
X48973D01*
Y7087D01*
X49141Y6242D01*
X49620Y5525D01*
X50845Y4301D01*
X50694Y3937D01*
X15774D01*
X15611Y4331D01*
X18238Y6958D01*
X18761Y7740D01*
X18944Y8661D01*
Y10240D01*
X19458Y10911D01*
X19796Y11725D01*
X19911Y12598D01*
X19796Y13472D01*
X19748Y13586D01*
X29262Y23100D01*
X29784Y23881D01*
X29967Y24803D01*
Y29317D01*
X30589Y29939D01*
X30962Y29755D01*
X30880Y29134D01*
X30981Y28363D01*
X31279Y27645D01*
X31752Y27028D01*
X32369Y26555D01*
X33088Y26257D01*
X33858Y26156D01*
X34629Y26257D01*
X35347Y26555D01*
X35831Y26926D01*
X36400D01*
X36526Y26553D01*
X36477Y26515D01*
X36004Y25899D01*
X35706Y25180D01*
X35605Y24409D01*
X35706Y23639D01*
X36004Y22920D01*
X36477Y22303D01*
X37094Y21830D01*
X37812Y21533D01*
X38583Y21431D01*
X39353Y21533D01*
X40072Y21830D01*
X40556Y22202D01*
X40818D01*
X45289Y17730D01*
X46005Y17252D01*
X46850Y17084D01*
X65748D01*
X66593Y17252D01*
X67309Y17730D01*
X70045Y20466D01*
X70524Y21183D01*
X70692Y22028D01*
Y22726D01*
X70748Y22809D01*
X71221D01*
X71458Y22454D01*
X72113Y22017D01*
X72884Y21864D01*
X74084D01*
X74856Y22017D01*
X75510Y22454D01*
X75748Y22809D01*
X76221D01*
X76458Y22454D01*
X77113Y22017D01*
X77884Y21864D01*
X79084D01*
X79856Y22017D01*
X80510Y22454D01*
X80747Y22809D01*
X81221D01*
X81458Y22454D01*
X82112Y22017D01*
X82884Y21864D01*
X84084D01*
X84856Y22017D01*
X85510Y22454D01*
X85747Y22809D01*
X86221D01*
X86458Y22454D01*
X87112Y22017D01*
X87884Y21864D01*
X89084D01*
X89856Y22017D01*
X90510Y22454D01*
X90747Y22809D01*
X91221D01*
X91458Y22454D01*
X92112Y22017D01*
X92884Y21864D01*
X94084D01*
X94856Y22017D01*
X95510Y22454D01*
X95947Y23109D01*
X96101Y23880D01*
Y28680D01*
X95947Y29452D01*
X95510Y30106D01*
X94856Y30544D01*
X94084Y30697D01*
X92884D01*
X92112Y30544D01*
X91458Y30106D01*
X91221Y29751D01*
X90747D01*
X90510Y30106D01*
X89856Y30544D01*
X89084Y30697D01*
X87884D01*
X87112Y30544D01*
X86458Y30106D01*
X86221Y29751D01*
X85747D01*
X85510Y30106D01*
X84856Y30544D01*
X84084Y30697D01*
X82884D01*
X82112Y30544D01*
X81458Y30106D01*
X81221Y29751D01*
X80747D01*
X80510Y30106D01*
X79856Y30544D01*
X79084Y30697D01*
X77884D01*
X77113Y30544D01*
X76458Y30106D01*
X76221Y29751D01*
X75748D01*
X75510Y30106D01*
X74856Y30544D01*
X74084Y30697D01*
X72884D01*
X72113Y30544D01*
X71458Y30106D01*
X71221Y29751D01*
X70748D01*
X70510Y30106D01*
X69856Y30544D01*
X69084Y30697D01*
X67884D01*
X67112Y30544D01*
X66458Y30106D01*
X66286Y29849D01*
X65893Y29969D01*
Y31004D01*
X65709Y31926D01*
X65187Y32707D01*
X59577Y38317D01*
X58796Y38839D01*
X57874Y39023D01*
X53366D01*
X53179Y39301D01*
X52398Y39824D01*
X51476Y40007D01*
X48524D01*
X47602Y39824D01*
X46821Y39301D01*
X46785Y39298D01*
X45010Y41073D01*
X44229Y41595D01*
X43307Y41779D01*
X42739D01*
Y42913D01*
X42651Y43581D01*
X42393Y44204D01*
X41983Y44739D01*
X41448Y45149D01*
X40826Y45407D01*
X40157Y45494D01*
X33071D01*
X32403Y45407D01*
X31780Y45149D01*
X31246Y44739D01*
X30836Y44204D01*
X30578Y43581D01*
X30490Y42913D01*
Y36652D01*
X25856Y32018D01*
X25334Y31237D01*
X25151Y30315D01*
Y25801D01*
X14888Y15538D01*
X14848Y15521D01*
X14149Y14985D01*
X13612Y14286D01*
X13275Y13472D01*
X13160Y12598D01*
X13275Y11725D01*
X13612Y10911D01*
X14127Y10240D01*
Y9659D01*
X12782Y8314D01*
X10452D01*
X10266Y8593D01*
X9485Y9115D01*
X8563Y9298D01*
X5610D01*
X4688Y9115D01*
X3907Y8593D01*
X3385Y7812D01*
X3202Y6890D01*
Y4921D01*
X3319Y4331D01*
X2996Y3937D01*
X1181D01*
Y87747D01*
X1575Y87910D01*
X2813Y86671D01*
X3600Y86146D01*
X4528Y85961D01*
X4528Y85961D01*
X4651D01*
X4695Y85895D01*
X5476Y85373D01*
X6398Y85190D01*
X9350D01*
X10272Y85373D01*
X11053Y85895D01*
X11575Y86677D01*
X11759Y87598D01*
Y89567D01*
X11575Y90489D01*
X11053Y91270D01*
X10272Y91792D01*
X9350Y91975D01*
X6398D01*
X5878Y91872D01*
X5574Y92122D01*
Y112510D01*
X6213Y112775D01*
X6830Y113248D01*
X7304Y113865D01*
X7601Y114584D01*
X7638Y114862D01*
X9183Y116407D01*
X9706Y117189D01*
X9889Y118110D01*
Y119961D01*
X10168Y120147D01*
X10690Y120929D01*
X10873Y121850D01*
Y126181D01*
X10690Y127103D01*
X10168Y127884D01*
X9386Y128406D01*
X8465Y128590D01*
X6496D01*
X5574Y128406D01*
X4793Y127884D01*
X4271Y127103D01*
X4088Y126181D01*
Y121850D01*
X4271Y120929D01*
X4793Y120147D01*
X5072Y119961D01*
Y119108D01*
X4232Y118268D01*
X3954Y118231D01*
X3235Y117933D01*
X2619Y117460D01*
X2145Y116843D01*
X1848Y116125D01*
X1819Y115904D01*
X1533Y115697D01*
X1181Y115854D01*
Y155512D01*
X25608D01*
X25945Y155374D01*
Y153110D01*
X36181D01*
Y155374D01*
X36518Y155512D01*
X92537D01*
X92874Y155374D01*
Y153110D01*
X103110D01*
Y155374D01*
X103447Y155512D01*
X125984D01*
Y131475D01*
D02*
G37*
G36*
X44360Y34911D02*
X45141Y34389D01*
X46063Y34206D01*
X46634D01*
X46821Y33927D01*
X47602Y33405D01*
X48524Y33221D01*
X51476D01*
X52398Y33405D01*
X53179Y33927D01*
X53366Y34206D01*
X56876D01*
X60160Y30922D01*
X60009Y30558D01*
X55906D01*
Y28488D01*
X48256D01*
X46049Y30695D01*
X45333Y31174D01*
X44488Y31342D01*
X35831D01*
X35347Y31713D01*
X34629Y32011D01*
X33858Y32112D01*
X33237Y32030D01*
X33053Y32403D01*
X33896Y33246D01*
X40157D01*
X40826Y33334D01*
X41448Y33591D01*
X41983Y34002D01*
X42393Y34536D01*
X42651Y35159D01*
X42739Y35827D01*
Y36018D01*
X43102Y36169D01*
X44360Y34911D01*
D02*
G37*
G36*
X114049Y94246D02*
X114765Y93767D01*
X115610Y93599D01*
X115733D01*
X115928Y93127D01*
X116780Y92016D01*
X117891Y91164D01*
X118535Y90897D01*
Y90504D01*
X117990Y90278D01*
X116921Y89457D01*
X116100Y88388D01*
X115585Y87143D01*
X115499Y86496D01*
X120571D01*
Y85807D01*
X121260D01*
Y80735D01*
X121907Y80821D01*
X123152Y81336D01*
X124221Y82157D01*
X125041Y83226D01*
X125557Y84471D01*
X125591Y84724D01*
X125984Y84698D01*
Y3937D01*
X108361D01*
X108210Y4301D01*
X116046Y12136D01*
X116342Y11876D01*
X115925Y11332D01*
X115627Y10613D01*
X115526Y9843D01*
X115627Y9072D01*
X115925Y8353D01*
X116398Y7737D01*
X117015Y7263D01*
X117733Y6966D01*
X118504Y6864D01*
X119275Y6966D01*
X119993Y7263D01*
X120610Y7737D01*
X121083Y8353D01*
X121381Y9072D01*
X121460Y9677D01*
X124002Y12218D01*
X124481Y12935D01*
X124649Y13780D01*
Y71260D01*
X124481Y72105D01*
X124002Y72821D01*
X113231Y83592D01*
Y94488D01*
X113221Y94542D01*
X113568Y94727D01*
X114049Y94246D01*
D02*
G37*
%LPC*%
G36*
X114173Y152591D02*
X112861Y152462D01*
X111600Y152079D01*
X110437Y151458D01*
X109418Y150622D01*
X108581Y149602D01*
X107960Y148440D01*
X107577Y147178D01*
X107448Y145866D01*
X107577Y144554D01*
X107960Y143292D01*
X108581Y142130D01*
X109418Y141111D01*
X110437Y140274D01*
X111600Y139653D01*
X112861Y139270D01*
X114173Y139141D01*
X115485Y139270D01*
X116747Y139653D01*
X117910Y140274D01*
X118929Y141111D01*
X119765Y142130D01*
X120387Y143292D01*
X120769Y144554D01*
X120898Y145866D01*
X120769Y147178D01*
X120387Y148440D01*
X119765Y149602D01*
X118929Y150622D01*
X117910Y151458D01*
X116747Y152079D01*
X115485Y152462D01*
X114173Y152591D01*
D02*
G37*
G36*
X11811D02*
X10499Y152462D01*
X9237Y152079D01*
X8075Y151458D01*
X7056Y150622D01*
X6219Y149602D01*
X5598Y148440D01*
X5215Y147178D01*
X5086Y145866D01*
X5215Y144554D01*
X5598Y143292D01*
X6219Y142130D01*
X7056Y141111D01*
X8075Y140274D01*
X9237Y139653D01*
X10499Y139270D01*
X11811Y139141D01*
X13123Y139270D01*
X14385Y139653D01*
X15547Y140274D01*
X16567Y141111D01*
X17403Y142130D01*
X18024Y143292D01*
X18407Y144554D01*
X18536Y145866D01*
X18407Y147178D01*
X18024Y148440D01*
X17403Y149602D01*
X16567Y150622D01*
X15547Y151458D01*
X14385Y152079D01*
X13123Y152462D01*
X11811Y152591D01*
D02*
G37*
G36*
X68405Y140091D02*
Y138091D01*
X70406D01*
X70402Y138121D01*
X70124Y138791D01*
X69682Y139367D01*
X69106Y139809D01*
X68436Y140086D01*
X68405Y140091D01*
D02*
G37*
G36*
X67028D02*
X66997Y140086D01*
X66327Y139809D01*
X65751Y139367D01*
X65309Y138791D01*
X65032Y138121D01*
X65028Y138091D01*
X67028D01*
Y140091D01*
D02*
G37*
G36*
X54232D02*
Y138091D01*
X56232D01*
X56228Y138121D01*
X55951Y138791D01*
X55509Y139367D01*
X54933Y139809D01*
X54263Y140086D01*
X54232Y140091D01*
D02*
G37*
G36*
X52854D02*
X52824Y140086D01*
X52153Y139809D01*
X51578Y139367D01*
X51136Y138791D01*
X50858Y138121D01*
X50854Y138091D01*
X52854D01*
Y140091D01*
D02*
G37*
G36*
X70406Y136713D02*
X68405D01*
Y134713D01*
X68436Y134717D01*
X69106Y134994D01*
X69682Y135436D01*
X70124Y136012D01*
X70402Y136682D01*
X70406Y136713D01*
D02*
G37*
G36*
X67028D02*
X65028D01*
X65032Y136682D01*
X65309Y136012D01*
X65751Y135436D01*
X66327Y134994D01*
X66997Y134717D01*
X67028Y134713D01*
Y136713D01*
D02*
G37*
G36*
X56232D02*
X54232D01*
Y134713D01*
X54263Y134717D01*
X54933Y134994D01*
X55509Y135436D01*
X55951Y136012D01*
X56228Y136682D01*
X56232Y136713D01*
D02*
G37*
G36*
X52854D02*
X50854D01*
X50858Y136682D01*
X51136Y136012D01*
X51578Y135436D01*
X52153Y134994D01*
X52824Y134717D01*
X52854Y134713D01*
Y136713D01*
D02*
G37*
G36*
X52677Y133917D02*
X49567D01*
Y130807D01*
X52677D01*
Y133917D01*
D02*
G37*
G36*
X71614D02*
X68504D01*
Y130807D01*
X71614D01*
Y133917D01*
D02*
G37*
G36*
X67126D02*
X61279D01*
Y130118D01*
X59902D01*
Y133917D01*
X54055D01*
Y130118D01*
X53366D01*
Y129429D01*
X49567D01*
Y126319D01*
Y123583D01*
X53366D01*
Y122205D01*
X49567D01*
Y119095D01*
Y116358D01*
X53366D01*
Y115669D01*
X54055D01*
Y111870D01*
X59902D01*
Y115669D01*
X61279D01*
Y111870D01*
X67126D01*
Y115669D01*
X67815D01*
Y116358D01*
X71614D01*
Y119095D01*
Y122205D01*
X67815D01*
Y123583D01*
X71614D01*
Y126319D01*
Y129429D01*
X67815D01*
Y130118D01*
X67126D01*
Y133917D01*
D02*
G37*
G36*
X20276Y128389D02*
X19980D01*
Y124705D01*
X22483D01*
Y126181D01*
X22315Y127026D01*
X21837Y127742D01*
X21121Y128221D01*
X20276Y128389D01*
D02*
G37*
G36*
X18602D02*
X18307D01*
X17462Y128221D01*
X16746Y127742D01*
X16267Y127026D01*
X16099Y126181D01*
Y124705D01*
X18602D01*
Y128389D01*
D02*
G37*
G36*
X22483Y123327D02*
X19980D01*
Y119643D01*
X20276D01*
X21121Y119811D01*
X21837Y120289D01*
X22315Y121005D01*
X22483Y121850D01*
Y123327D01*
D02*
G37*
G36*
X18602D02*
X16099D01*
Y121850D01*
X16267Y121005D01*
X16746Y120289D01*
X17462Y119811D01*
X18307Y119643D01*
X18602D01*
Y123327D01*
D02*
G37*
G36*
X20768Y118043D02*
Y116043D01*
X22768D01*
X22764Y116074D01*
X22486Y116744D01*
X22044Y117320D01*
X21469Y117762D01*
X20798Y118039D01*
X20768Y118043D01*
D02*
G37*
G36*
X19390D02*
X19359Y118039D01*
X18689Y117762D01*
X18113Y117320D01*
X17672Y116744D01*
X17394Y116074D01*
X17390Y116043D01*
X19390D01*
Y118043D01*
D02*
G37*
G36*
X22768Y114665D02*
X20768D01*
Y112665D01*
X20798Y112669D01*
X21469Y112947D01*
X22044Y113389D01*
X22486Y113964D01*
X22764Y114635D01*
X22768Y114665D01*
D02*
G37*
G36*
X19390D02*
X17390D01*
X17394Y114635D01*
X17672Y113964D01*
X18113Y113389D01*
X18689Y112947D01*
X19359Y112669D01*
X19390Y112665D01*
Y114665D01*
D02*
G37*
G36*
X71614Y114980D02*
X68504D01*
Y111870D01*
X71614D01*
Y114980D01*
D02*
G37*
G36*
X52677Y114980D02*
X49567D01*
Y111870D01*
X52677D01*
Y114980D01*
D02*
G37*
G36*
X18449Y112098D02*
X18138D01*
Y108563D01*
X20673D01*
Y109874D01*
X20503Y110725D01*
X20021Y111446D01*
X19300Y111929D01*
X18449Y112098D01*
D02*
G37*
G36*
X16760D02*
X16449D01*
X15598Y111929D01*
X14876Y111446D01*
X14394Y110725D01*
X14225Y109874D01*
Y108563D01*
X16760D01*
Y112098D01*
D02*
G37*
G36*
X20673Y107185D02*
X18138D01*
Y103650D01*
X18449D01*
X19300Y103820D01*
X20021Y104302D01*
X20503Y105023D01*
X20673Y105874D01*
Y107185D01*
D02*
G37*
G36*
X16760D02*
X14225D01*
Y105874D01*
X14394Y105023D01*
X14876Y104302D01*
X15598Y103820D01*
X16449Y103650D01*
X16760D01*
Y107185D01*
D02*
G37*
G36*
X10449Y112299D02*
X8449D01*
X7521Y112114D01*
X6734Y111588D01*
X6209Y110802D01*
X6024Y109874D01*
Y105874D01*
X6209Y104946D01*
X6734Y104160D01*
X7040Y103955D01*
Y101397D01*
X6762Y101211D01*
X6239Y100430D01*
X6056Y99508D01*
Y96555D01*
X6239Y95633D01*
X6762Y94852D01*
X7543Y94330D01*
X8465Y94147D01*
X10433D01*
X11355Y94330D01*
X12136Y94852D01*
X12658Y95633D01*
X12842Y96555D01*
Y99508D01*
X12658Y100430D01*
X12136Y101211D01*
X11857Y101397D01*
Y103955D01*
X12163Y104160D01*
X12689Y104946D01*
X12873Y105874D01*
Y109874D01*
X12689Y110802D01*
X12163Y111588D01*
X11377Y112114D01*
X10449Y112299D01*
D02*
G37*
G36*
X16732Y76519D02*
X16437D01*
Y73524D01*
X18940D01*
Y74311D01*
X18772Y75156D01*
X18293Y75872D01*
X17577Y76351D01*
X16732Y76519D01*
D02*
G37*
G36*
X15059D02*
X14764D01*
X13919Y76351D01*
X13203Y75872D01*
X12724Y75156D01*
X12556Y74311D01*
Y73524D01*
X15059D01*
Y76519D01*
D02*
G37*
G36*
X18940Y72146D02*
X16437D01*
Y69151D01*
X16732D01*
X17577Y69319D01*
X18293Y69797D01*
X18772Y70513D01*
X18940Y71358D01*
Y72146D01*
D02*
G37*
G36*
X15059D02*
X12556D01*
Y71358D01*
X12724Y70513D01*
X13203Y69797D01*
X13919Y69319D01*
X14764Y69151D01*
X15059D01*
Y72146D01*
D02*
G37*
G36*
X94084Y68097D02*
X92884D01*
X92112Y67944D01*
X91458Y67506D01*
X91221Y67151D01*
X90747D01*
X90510Y67506D01*
X89856Y67944D01*
X89084Y68097D01*
X87884D01*
X87112Y67944D01*
X86458Y67506D01*
X86221Y67151D01*
X85747D01*
X85510Y67506D01*
X84856Y67944D01*
X84084Y68097D01*
X82884D01*
X82112Y67944D01*
X81458Y67506D01*
X81221Y67151D01*
X80747D01*
X80510Y67506D01*
X79856Y67944D01*
X79084Y68097D01*
X77884D01*
X77113Y67944D01*
X76458Y67506D01*
X76095Y66963D01*
X75724Y66928D01*
X75647Y66947D01*
X75368Y67364D01*
X74779Y67758D01*
X74173Y67879D01*
Y63680D01*
Y59482D01*
X74779Y59603D01*
X75368Y59996D01*
X75647Y60413D01*
X75724Y60433D01*
X76095Y60397D01*
X76458Y59854D01*
X77113Y59417D01*
X77884Y59264D01*
X79084D01*
X79856Y59417D01*
X80510Y59854D01*
X80747Y60209D01*
X81221D01*
X81458Y59854D01*
X82112Y59417D01*
X82884Y59264D01*
X84084D01*
X84856Y59417D01*
X85510Y59854D01*
X85747Y60209D01*
X86221D01*
X86458Y59854D01*
X87112Y59417D01*
X87884Y59264D01*
X89084D01*
X89856Y59417D01*
X90510Y59854D01*
X90747Y60209D01*
X91221D01*
X91458Y59854D01*
X92112Y59417D01*
X92884Y59264D01*
X94084D01*
X94856Y59417D01*
X95510Y59854D01*
X95947Y60509D01*
X96101Y61280D01*
Y66080D01*
X95947Y66852D01*
X95510Y67506D01*
X94856Y67944D01*
X94084Y68097D01*
D02*
G37*
G36*
X69084D02*
X67884D01*
X67112Y67944D01*
X66458Y67506D01*
X66221Y67151D01*
X65747D01*
X65510Y67506D01*
X64856Y67944D01*
X64084Y68097D01*
X62884D01*
X62112Y67944D01*
X61458Y67506D01*
X61221Y67151D01*
X60747D01*
X60510Y67506D01*
X59856Y67944D01*
X59084Y68097D01*
X57884D01*
X57112Y67944D01*
X56458Y67506D01*
X56021Y66852D01*
X55868Y66080D01*
Y61280D01*
X56021Y60509D01*
X56277Y60126D01*
Y54114D01*
X56445Y53269D01*
X56923Y52553D01*
X66155Y43321D01*
X66872Y42842D01*
X67716Y42674D01*
X90945D01*
X91790Y42842D01*
X92506Y43321D01*
X92686Y43500D01*
X93291Y43580D01*
X94009Y43878D01*
X94626Y44351D01*
X94664Y44400D01*
X95036Y44274D01*
Y43434D01*
X92786Y41184D01*
X87008D01*
X86163Y41016D01*
X85447Y40538D01*
X83084Y38175D01*
X82606Y37459D01*
X82439Y36621D01*
X82066Y36135D01*
X81769Y35416D01*
X81667Y34646D01*
X81769Y33875D01*
X82066Y33157D01*
X82540Y32540D01*
X83157Y32066D01*
X83875Y31769D01*
X84646Y31667D01*
X85417Y31769D01*
X86135Y32066D01*
X86752Y32540D01*
X87225Y33157D01*
X87522Y33875D01*
X87624Y34646D01*
X87522Y35416D01*
X87243Y36090D01*
X87922Y36769D01*
X93701D01*
X94546Y36937D01*
X95262Y37415D01*
X98805Y40958D01*
X99284Y41675D01*
X99452Y42520D01*
Y51181D01*
X99284Y52026D01*
X98805Y52742D01*
X93687Y57860D01*
X92971Y58339D01*
X92126Y58507D01*
X72568D01*
X71503Y59572D01*
X71497Y59592D01*
X71745Y59899D01*
X71810Y59856D01*
X72189Y59603D01*
X72795Y59482D01*
Y63680D01*
Y67879D01*
X72189Y67758D01*
X71600Y67364D01*
X71321Y66947D01*
X71244Y66928D01*
X70873Y66963D01*
X70510Y67506D01*
X69856Y67944D01*
X69084Y68097D01*
D02*
G37*
G36*
X40157Y67369D02*
X37303D01*
Y62106D01*
X42566D01*
Y64961D01*
X42383Y65882D01*
X41860Y66664D01*
X41079Y67186D01*
X40157Y67369D01*
D02*
G37*
G36*
X35925D02*
X33071D01*
X32149Y67186D01*
X31368Y66664D01*
X30846Y65882D01*
X30662Y64961D01*
Y62106D01*
X35925D01*
Y67369D01*
D02*
G37*
G36*
X42566Y60728D02*
X37303D01*
Y55466D01*
X40157D01*
X41079Y55649D01*
X41860Y56171D01*
X42383Y56952D01*
X42566Y57874D01*
Y60728D01*
D02*
G37*
G36*
X35925D02*
X30662D01*
Y57874D01*
X30846Y56952D01*
X31368Y56171D01*
X32149Y55649D01*
X33071Y55466D01*
X35925D01*
Y60728D01*
D02*
G37*
G36*
X9055Y52756D02*
X6496D01*
Y50984D01*
X9055D01*
Y52756D01*
D02*
G37*
G36*
X25394D02*
X22835D01*
Y50984D01*
X25394D01*
Y52756D01*
D02*
G37*
G36*
X21457D02*
X18898D01*
Y50984D01*
X21457D01*
Y52756D01*
D02*
G37*
G36*
X5118D02*
X2559D01*
Y50984D01*
X5118D01*
Y52756D01*
D02*
G37*
G36*
X103740Y77507D02*
X101772D01*
X100850Y77324D01*
X100069Y76802D01*
X99546Y76020D01*
X99363Y75098D01*
Y72146D01*
X99546Y71224D01*
X100069Y70443D01*
X100850Y69920D01*
X101772Y69737D01*
X103740D01*
X104662Y69920D01*
X105443Y70443D01*
X105958Y71214D01*
X106483D01*
X109796Y67900D01*
Y67853D01*
X109625Y67631D01*
X109328Y66913D01*
X109291Y66635D01*
X105474Y62817D01*
X103150D01*
X102481Y62729D01*
X101859Y62471D01*
X101324Y62061D01*
X100914Y61527D01*
X100656Y60904D01*
X100568Y60236D01*
Y53150D01*
X100656Y52482D01*
X100914Y51859D01*
X101324Y51324D01*
X101859Y50914D01*
X102481Y50656D01*
X103150Y50568D01*
X110236D01*
X110904Y50656D01*
X111527Y50914D01*
X112061Y51324D01*
X112471Y51859D01*
X112729Y52482D01*
X112817Y53150D01*
Y60236D01*
X112729Y60904D01*
X112471Y61527D01*
X112061Y62061D01*
X111998Y62110D01*
X111972Y62503D01*
X112698Y63228D01*
X112976Y63265D01*
X113694Y63563D01*
X114311Y64036D01*
X114784Y64653D01*
X115082Y65371D01*
X115183Y66142D01*
X115082Y66913D01*
X114784Y67631D01*
X114613Y67853D01*
Y68898D01*
X114430Y69819D01*
X113908Y70601D01*
X109183Y75325D01*
X108402Y75847D01*
X107480Y76030D01*
X105958D01*
X105443Y76802D01*
X104662Y77324D01*
X103740Y77507D01*
D02*
G37*
G36*
X26870Y49729D02*
X26269Y49479D01*
X25787Y49110D01*
X25394Y49207D01*
Y49606D01*
X22835D01*
Y47835D01*
X24757D01*
X25017Y47539D01*
X24978Y47244D01*
X25066Y46576D01*
X25143Y46390D01*
X24924Y46063D01*
X22835D01*
Y44291D01*
X25394D01*
Y45281D01*
X25787Y45378D01*
X26269Y45009D01*
X26870Y44760D01*
Y47244D01*
Y49729D01*
D02*
G37*
G36*
X28248D02*
Y47933D01*
X30044D01*
X29794Y48535D01*
X29384Y49069D01*
X28850Y49479D01*
X28248Y49729D01*
D02*
G37*
G36*
X21457Y49606D02*
X18898D01*
Y47835D01*
X21457D01*
Y49606D01*
D02*
G37*
G36*
X9055D02*
X6496D01*
Y47835D01*
X9055D01*
Y49606D01*
D02*
G37*
G36*
X5118D02*
X2559D01*
Y47835D01*
X5118D01*
Y49606D01*
D02*
G37*
G36*
X51476Y47680D02*
X50689D01*
Y45177D01*
X53684D01*
Y45472D01*
X53516Y46317D01*
X53038Y47034D01*
X52321Y47512D01*
X51476Y47680D01*
D02*
G37*
G36*
X49311D02*
X48524D01*
X47679Y47512D01*
X46962Y47034D01*
X46484Y46317D01*
X46316Y45472D01*
Y45177D01*
X49311D01*
Y47680D01*
D02*
G37*
G36*
X30044Y46555D02*
X28248D01*
Y44760D01*
X28850Y45009D01*
X29384Y45419D01*
X29794Y45954D01*
X30044Y46555D01*
D02*
G37*
G36*
X21457Y46063D02*
X18898D01*
Y44291D01*
X21457D01*
Y46063D01*
D02*
G37*
G36*
X9055D02*
X6496D01*
Y44291D01*
X9055D01*
Y46063D01*
D02*
G37*
G36*
X5118D02*
X2559D01*
Y44291D01*
X5118D01*
Y46063D01*
D02*
G37*
G36*
X53684Y43799D02*
X50689D01*
Y41296D01*
X51476D01*
X52321Y41464D01*
X53038Y41943D01*
X53516Y42659D01*
X53684Y43504D01*
Y43799D01*
D02*
G37*
G36*
X49311D02*
X46316D01*
Y43504D01*
X46484Y42659D01*
X46962Y41943D01*
X47679Y41464D01*
X48524Y41296D01*
X49311D01*
Y43799D01*
D02*
G37*
G36*
X25394Y42913D02*
X22835D01*
Y41142D01*
X25394D01*
Y42913D01*
D02*
G37*
G36*
X21457D02*
X18898D01*
Y41142D01*
X21457D01*
Y42913D01*
D02*
G37*
G36*
X9055D02*
X6496D01*
Y41142D01*
X9055D01*
Y42913D01*
D02*
G37*
G36*
X5118D02*
X2559D01*
Y41142D01*
X5118D01*
Y42913D01*
D02*
G37*
G36*
X13780Y43923D02*
X13009Y43822D01*
X12290Y43524D01*
X11674Y43051D01*
X11200Y42434D01*
X10903Y41716D01*
X10801Y40945D01*
X10903Y40174D01*
X11200Y39456D01*
X11572Y38972D01*
Y38316D01*
X10601Y37346D01*
X9252D01*
Y37795D01*
X2362D01*
Y32480D01*
X3402D01*
Y31496D01*
X3571Y30651D01*
X3698Y30461D01*
Y25153D01*
X3218Y24833D01*
X2696Y24052D01*
X2513Y23130D01*
Y20177D01*
X2696Y19255D01*
X3218Y18474D01*
X3698Y18154D01*
Y18110D01*
X3866Y17265D01*
X4247Y16694D01*
X3907Y16467D01*
X3385Y15686D01*
X3202Y14764D01*
Y12795D01*
X3385Y11874D01*
X3907Y11092D01*
X4688Y10570D01*
X5610Y10387D01*
X8563D01*
X9485Y10570D01*
X10266Y11092D01*
X10788Y11874D01*
X10971Y12795D01*
Y14764D01*
X10788Y15686D01*
X10266Y16467D01*
X9485Y16989D01*
X9274Y17031D01*
X9126Y17774D01*
X8648Y18490D01*
X8621Y18517D01*
X9115Y19255D01*
X9298Y20177D01*
Y23130D01*
X9115Y24052D01*
X8593Y24833D01*
X8113Y25153D01*
Y31201D01*
X7945Y32046D01*
X7918Y32087D01*
X8107Y32480D01*
X9252D01*
Y32930D01*
X11516D01*
X12361Y33098D01*
X13077Y33577D01*
X13780Y34279D01*
X14482Y33577D01*
X15198Y33098D01*
X16043Y32930D01*
X18701D01*
Y32480D01*
X25591D01*
Y37795D01*
X18701D01*
Y37346D01*
X16958D01*
X15987Y38316D01*
Y38972D01*
X16359Y39456D01*
X16656Y40174D01*
X16758Y40945D01*
X16656Y41716D01*
X16359Y42434D01*
X15886Y43051D01*
X15269Y43524D01*
X14550Y43822D01*
X13780Y43923D01*
D02*
G37*
G36*
X110236Y40598D02*
X107382D01*
Y35335D01*
X112645D01*
Y38189D01*
X112461Y39111D01*
X111939Y39892D01*
X111158Y40414D01*
X110236Y40598D01*
D02*
G37*
G36*
X106004D02*
X103150D01*
X102228Y40414D01*
X101447Y39892D01*
X100925Y39111D01*
X100741Y38189D01*
Y35335D01*
X106004D01*
Y40598D01*
D02*
G37*
G36*
X112645Y33957D02*
X107382D01*
Y28694D01*
X110236D01*
X111158Y28877D01*
X111939Y29399D01*
X112461Y30181D01*
X112645Y31102D01*
Y33957D01*
D02*
G37*
G36*
X106004D02*
X100741D01*
Y31102D01*
X100925Y30181D01*
X101447Y29399D01*
X102228Y28877D01*
X103150Y28694D01*
X106004D01*
Y33957D01*
D02*
G37*
G36*
X14764Y25338D02*
X14469D01*
Y22343D01*
X16972D01*
Y23130D01*
X16804Y23975D01*
X16325Y24691D01*
X15609Y25170D01*
X14764Y25338D01*
D02*
G37*
G36*
X13091D02*
X12795D01*
X11950Y25170D01*
X11234Y24691D01*
X10756Y23975D01*
X10588Y23130D01*
Y22343D01*
X13091D01*
Y25338D01*
D02*
G37*
G36*
X16972Y20965D02*
X14469D01*
Y17969D01*
X14764D01*
X15609Y18137D01*
X16325Y18616D01*
X16804Y19332D01*
X16972Y20177D01*
Y20965D01*
D02*
G37*
G36*
X13091D02*
X10588D01*
Y20177D01*
X10756Y19332D01*
X11234Y18616D01*
X11950Y18137D01*
X12795Y17969D01*
X13091D01*
Y20965D01*
D02*
G37*
G36*
X98425Y16277D02*
X97295Y16129D01*
X96241Y15692D01*
X95337Y14998D01*
X95058Y14635D01*
X94685Y14762D01*
Y16043D01*
X70669D01*
Y15846D01*
X67618D01*
Y11909D01*
Y7972D01*
X70669D01*
Y7776D01*
X94685D01*
Y9057D01*
X95058Y9184D01*
X95337Y8821D01*
X96241Y8127D01*
X97295Y7690D01*
X98425Y7541D01*
X99556Y7690D01*
X100609Y8127D01*
X101514Y8821D01*
X102208Y9725D01*
X102644Y10779D01*
X102793Y11909D01*
X102644Y13040D01*
X102208Y14094D01*
X101514Y14998D01*
X100609Y15692D01*
X99556Y16129D01*
X98425Y16277D01*
D02*
G37*
G36*
X119882Y85118D02*
X115499D01*
X115585Y84471D01*
X116100Y83226D01*
X116921Y82157D01*
X117990Y81336D01*
X119235Y80821D01*
X119882Y80735D01*
Y85118D01*
D02*
G37*
%LPD*%
D10*
X36614Y61417D02*
D03*
Y39370D02*
D03*
X106693Y34646D02*
D03*
Y56693D02*
D03*
D11*
X50000Y44488D02*
D03*
Y36614D02*
D03*
X7874Y80709D02*
D03*
Y88583D02*
D03*
X7087Y13780D02*
D03*
Y5906D02*
D03*
D12*
X7480Y124016D02*
D03*
X19291D02*
D03*
D13*
X7874Y72835D02*
D03*
X15748D02*
D03*
X5906Y21654D02*
D03*
X13780D02*
D03*
X102756Y73622D02*
D03*
X94882D02*
D03*
X17323Y98032D02*
D03*
X9449D02*
D03*
D14*
X93484Y26280D02*
D03*
X83484D02*
D03*
X78484D02*
D03*
X88484D02*
D03*
X73484D02*
D03*
X63484D02*
D03*
X68484D02*
D03*
X88484Y63680D02*
D03*
X83484D02*
D03*
X78484D02*
D03*
X93484D02*
D03*
X73484D02*
D03*
X58484D02*
D03*
X63484D02*
D03*
X68484D02*
D03*
D15*
X58484Y26280D02*
D03*
D16*
X53366Y130118D02*
D03*
X67815Y115669D02*
D03*
X53366Y122894D02*
D03*
X67815D02*
D03*
X60590D02*
D03*
D17*
X67815Y130118D02*
D03*
X60590Y115669D02*
D03*
X53366D02*
D03*
X60590Y130118D02*
D03*
D18*
X97992Y87421D02*
D03*
X31063D02*
D03*
Y97421D02*
D03*
Y92421D02*
D03*
Y122421D02*
D03*
Y117421D02*
D03*
Y112421D02*
D03*
Y102421D02*
D03*
Y107421D02*
D03*
Y132421D02*
D03*
Y127421D02*
D03*
Y137421D02*
D03*
Y142421D02*
D03*
Y152421D02*
D03*
Y147421D02*
D03*
X97992D02*
D03*
Y137421D02*
D03*
Y142421D02*
D03*
Y132421D02*
D03*
Y122421D02*
D03*
Y127421D02*
D03*
Y102421D02*
D03*
Y97421D02*
D03*
Y107421D02*
D03*
Y112421D02*
D03*
Y117421D02*
D03*
Y92421D02*
D03*
Y152421D02*
D03*
D19*
X42028Y83484D02*
D03*
X87028D02*
D03*
X52028D02*
D03*
X47028D02*
D03*
X77028D02*
D03*
X72028D02*
D03*
X67028D02*
D03*
X57028D02*
D03*
X62028D02*
D03*
X82028D02*
D03*
D20*
X9449Y107874D02*
D03*
X17449D02*
D03*
D21*
X22146Y50295D02*
D03*
Y58760D02*
D03*
X5807Y50295D02*
D03*
Y58760D02*
D03*
Y43602D02*
D03*
Y35138D02*
D03*
X22146Y43602D02*
D03*
Y35138D02*
D03*
D22*
X27559Y24803D02*
Y30315D01*
X16535Y13780D02*
X27559Y24803D01*
X16535Y12598D02*
Y13780D01*
X4724Y115354D02*
X7480Y118110D01*
Y124016D01*
X40650Y142421D02*
X42520Y140551D01*
X31063Y142421D02*
X40650D01*
X102756Y73622D02*
X107480D01*
X112205Y66142D02*
Y68898D01*
X107480Y73622D02*
X112205Y68898D01*
X106693Y56693D02*
Y60630D01*
X112205Y66142D01*
X63484Y26280D02*
Y31004D01*
X57874Y36614D02*
X63484Y31004D01*
X7087Y5906D02*
X13780D01*
X36614Y39370D02*
X43307D01*
X46063Y36614D01*
X27559Y30315D02*
X36614Y39370D01*
X22500Y152421D02*
X31063D01*
X42028Y75295D02*
Y83484D01*
X90492Y152421D02*
X97992D01*
X75756Y143866D02*
X75984Y144095D01*
X47164Y140551D02*
X50479Y143866D01*
X75756D01*
X42520Y140551D02*
X47164D01*
X9449Y98032D02*
Y107874D01*
X13780Y5906D02*
X16535Y8661D01*
Y12598D01*
X46063Y36614D02*
X57874D01*
D23*
X84646Y132677D02*
Y136614D01*
X90945Y44882D02*
X92520Y46457D01*
X67716Y44882D02*
X90945D01*
X58484Y54114D02*
X67716Y44882D01*
X118898Y18110D02*
Y69291D01*
X107087Y81102D02*
X118898Y69291D01*
X107087Y81102D02*
Y93307D01*
X122441Y13780D02*
Y71260D01*
X111024Y82677D02*
X122441Y71260D01*
X111024Y82677D02*
Y94488D01*
X103937Y3150D02*
X118898Y18110D01*
X55118Y3150D02*
X103937D01*
X51181Y7087D02*
X55118Y3150D01*
X114272Y105807D02*
X120571D01*
X37795Y89370D02*
X40945Y92520D01*
X37795Y83858D02*
Y89370D01*
X5807Y58760D02*
Y66831D01*
Y58760D02*
X22146D01*
X91594Y127421D02*
X97992D01*
X63484Y56201D02*
Y63680D01*
X58484Y54114D02*
Y63680D01*
X68484Y59469D02*
Y63680D01*
X63484Y56201D02*
X70079Y49606D01*
X85433D01*
X87008Y51181D01*
X68484Y59469D02*
X71653Y56299D01*
X92126D01*
X97244Y51181D01*
X40945Y92520D02*
X88189D01*
X93287Y87421D01*
X97992D01*
Y132421D02*
X103405D01*
X92579Y107421D02*
X97992D01*
X89764Y110236D02*
X92579Y107421D01*
X89764Y110236D02*
Y115748D01*
X84646Y105512D02*
X87795Y102362D01*
X84646Y105512D02*
Y120472D01*
X91594Y127421D01*
X103405Y132421D02*
X106693Y129134D01*
X111024Y109055D02*
X114272Y105807D01*
X106693Y104724D02*
Y129134D01*
Y104724D02*
X115610Y95807D01*
X120571D01*
X97992Y102421D02*
X103091D01*
X118504Y9843D02*
X122441Y13780D01*
X51181Y7087D02*
Y11909D01*
X97992Y97421D02*
X102972D01*
X107087Y93307D01*
X103091Y102421D02*
X111024Y94488D01*
X89764Y73622D02*
X94882D01*
X87028Y76358D02*
X89764Y73622D01*
X87028Y76358D02*
Y83484D01*
X84646Y136614D02*
X90453Y142421D01*
X97992D01*
Y137421D02*
X104705D01*
X111024Y131102D01*
Y109055D02*
Y131102D01*
X5610Y34941D02*
X5807Y35138D01*
X7874Y80709D02*
X34646D01*
X37795Y83858D01*
X7874Y72835D02*
X7874Y72835D01*
Y80709D01*
X7874Y68898D02*
Y72835D01*
X5807Y66831D02*
X7874Y68898D01*
X16043Y35138D02*
X22146D01*
X97244Y42520D02*
Y51181D01*
X93701Y38976D02*
X97244Y42520D01*
X84646Y34646D02*
Y36614D01*
X87008Y38976D01*
X93701D01*
X5610Y31496D02*
X5906Y31201D01*
X5610Y31496D02*
Y34941D01*
X5906Y21654D02*
Y31201D01*
Y18110D02*
Y21654D01*
Y18110D02*
X7087Y16929D01*
Y13780D02*
Y16929D01*
X68484Y22028D02*
Y26280D01*
X65748Y19291D02*
X68484Y22028D01*
X5807Y35138D02*
X11516D01*
X13780Y37402D01*
Y40945D01*
Y37402D02*
X16043Y35138D01*
X38583Y24409D02*
X41732D01*
X46850Y19291D01*
X65748D01*
X33858Y29134D02*
X44488D01*
X47342Y26280D01*
X58484D01*
D24*
X60335Y130374D02*
X60590Y130118D01*
D25*
X60335Y115925D02*
X60590Y115669D01*
X53366Y122894D02*
X53405Y122933D01*
X60335D01*
X53366Y130118D02*
X60335D01*
X60590D01*
X67815D01*
X53543Y130295D02*
Y137402D01*
X53366Y130118D02*
X53543Y130295D01*
X60630Y130669D02*
Y135039D01*
X48366Y122894D02*
X53366D01*
X60590D02*
X67815D01*
X22933Y92421D02*
X31063D01*
X3150Y89764D02*
X4528Y88386D01*
X3150Y89764D02*
Y113779D01*
X4724Y115354D01*
X31063Y147421D02*
X45059D01*
X48425Y150787D01*
X31063Y152421D02*
X41339D01*
X67716Y130217D02*
Y137402D01*
Y130217D02*
X67815Y130118D01*
X17323Y98032D02*
X22933Y92421D01*
X4528Y88386D02*
X8169D01*
X60335Y115925D02*
Y122933D01*
Y130118D01*
Y130374D01*
X60630Y130669D01*
D26*
X66929Y11909D02*
Y14961D01*
X70866Y18898D01*
X71260D01*
D27*
X114173Y145866D02*
D03*
X11811D02*
D03*
D28*
X90551Y11909D02*
D03*
X82677D02*
D03*
X74803D02*
D03*
X66929D02*
D03*
X59055D02*
D03*
X51181D02*
D03*
X43307D02*
D03*
X35433D02*
D03*
X27559D02*
D03*
D29*
X98425D02*
D03*
D30*
X120571Y105807D02*
D03*
Y115807D02*
D03*
Y95807D02*
D03*
Y85807D02*
D03*
D31*
Y125807D02*
D03*
D32*
X84646Y132677D02*
D03*
X53543Y137402D02*
D03*
X67716D02*
D03*
X20079Y115354D02*
D03*
X87008Y51181D02*
D03*
X92520Y46457D02*
D03*
X89764Y115748D02*
D03*
X87795Y102362D02*
D03*
X118504Y9843D02*
D03*
X75984Y144095D02*
D03*
X4724Y115354D02*
D03*
X42520Y140551D02*
D03*
X48425Y150787D02*
D03*
X112205Y66142D02*
D03*
X84646Y34646D02*
D03*
X33858Y29134D02*
D03*
X13780Y40945D02*
D03*
X38583Y24409D02*
D03*
D33*
X27559Y47244D02*
D03*
D34*
X16535Y12598D02*
D03*
M02*
