G04 Layer_Color=16711935*
%FSLAX25Y25*%
%MOIN*%
G70*
G01*
G75*
G04:AMPARAMS|DCode=49|XSize=47.37mil|YSize=57.21mil|CornerRadius=13.84mil|HoleSize=0mil|Usage=FLASHONLY|Rotation=0.000|XOffset=0mil|YOffset=0mil|HoleType=Round|Shape=RoundedRectangle|*
%AMROUNDEDRECTD49*
21,1,0.04737,0.02953,0,0,0.0*
21,1,0.01969,0.05721,0,0,0.0*
1,1,0.02769,0.00984,-0.01476*
1,1,0.02769,-0.00984,-0.01476*
1,1,0.02769,-0.00984,0.01476*
1,1,0.02769,0.00984,0.01476*
%
%ADD49ROUNDEDRECTD49*%
%ADD58C,0.11430*%
%ADD59R,0.06312X0.06312*%
%ADD60C,0.06706*%
%ADD61C,0.08674*%
%ADD62R,0.08674X0.08674*%
%ADD63C,0.03950*%
%ADD64C,0.04737*%
%ADD65C,0.70879*%
%ADD66R,0.20879X0.10642*%
G04:AMPARAMS|DCode=67|XSize=39.5mil|YSize=43.43mil|CornerRadius=11.87mil|HoleSize=0mil|Usage=FLASHONLY|Rotation=180.000|XOffset=0mil|YOffset=0mil|HoleType=Round|Shape=RoundedRectangle|*
%AMROUNDEDRECTD67*
21,1,0.03950,0.01969,0,0,180.0*
21,1,0.01575,0.04343,0,0,180.0*
1,1,0.02375,-0.00787,0.00984*
1,1,0.02375,0.00787,0.00984*
1,1,0.02375,0.00787,-0.00984*
1,1,0.02375,-0.00787,-0.00984*
%
%ADD67ROUNDEDRECTD67*%
%ADD68C,0.03556*%
D49*
X100787Y36614D02*
D03*
X108661D02*
D03*
X100787Y46457D02*
D03*
X108661D02*
D03*
X100787Y27165D02*
D03*
X108661D02*
D03*
X104331Y59449D02*
D03*
X112205D02*
D03*
X9843Y33858D02*
D03*
X17717D02*
D03*
X9843Y24803D02*
D03*
X17717D02*
D03*
D58*
X114173Y145866D02*
D03*
X11811D02*
D03*
D59*
X90551Y11909D02*
D03*
X82677D02*
D03*
X74803D02*
D03*
X66929D02*
D03*
X59055D02*
D03*
X51181D02*
D03*
X43307D02*
D03*
X35433D02*
D03*
X27559D02*
D03*
D60*
X98425D02*
D03*
D61*
X120571Y105807D02*
D03*
Y115807D02*
D03*
Y95807D02*
D03*
Y85807D02*
D03*
D62*
Y125807D02*
D03*
D63*
X84646Y132677D02*
D03*
X53543Y137402D02*
D03*
X67716D02*
D03*
X92520Y46457D02*
D03*
X89764Y115748D02*
D03*
X75984Y144095D02*
D03*
X4724Y115354D02*
D03*
X42520Y140551D02*
D03*
X48425Y150787D02*
D03*
X112205Y66142D02*
D03*
X33858Y29134D02*
D03*
X13780Y40945D02*
D03*
X38583Y24409D02*
D03*
D64*
X16535Y12598D02*
D03*
D65*
X53051Y78051D02*
D03*
D66*
Y32972D02*
D03*
Y123130D02*
D03*
D67*
X92646Y27165D02*
D03*
X84646D02*
D03*
D68*
X27559Y47244D02*
D03*
M02*
