G04 Layer_Color=32896*
%FSLAX25Y25*%
%MOIN*%
G70*
G01*
G75*
%ADD39C,0.00500*%
%ADD41C,0.00492*%
%ADD43C,0.00394*%
%ADD69R,0.01000X0.05512*%
G36*
X29134Y22835D02*
X28530D01*
Y24849D01*
X27756D01*
X27684Y24842D01*
X27632D01*
X27586Y24836D01*
X27553Y24829D01*
X27527D01*
X27514Y24822D01*
X27507D01*
X27402Y24790D01*
X27356Y24770D01*
X27317Y24750D01*
X27277Y24731D01*
X27251Y24717D01*
X27238Y24711D01*
X27231Y24704D01*
X27179Y24665D01*
X27127Y24619D01*
X27028Y24521D01*
X26982Y24475D01*
X26949Y24435D01*
X26930Y24409D01*
X26923Y24403D01*
X26858Y24311D01*
X26785Y24212D01*
X26713Y24107D01*
X26641Y24009D01*
X26582Y23917D01*
X26536Y23845D01*
X26516Y23819D01*
X26503Y23799D01*
X26490Y23786D01*
Y23779D01*
X25893Y22835D01*
X25145D01*
X25926Y24068D01*
X26018Y24199D01*
X26103Y24317D01*
X26188Y24416D01*
X26261Y24508D01*
X26326Y24573D01*
X26379Y24625D01*
X26412Y24658D01*
X26425Y24671D01*
X26477Y24711D01*
X26536Y24757D01*
X26654Y24829D01*
X26707Y24855D01*
X26746Y24881D01*
X26772Y24894D01*
X26785Y24901D01*
X26667Y24921D01*
X26556Y24940D01*
X26457Y24973D01*
X26359Y24999D01*
X26274Y25032D01*
X26195Y25072D01*
X26123Y25104D01*
X26057Y25137D01*
X26005Y25177D01*
X25952Y25209D01*
X25913Y25236D01*
X25880Y25262D01*
X25854Y25282D01*
X25834Y25301D01*
X25828Y25308D01*
X25821Y25314D01*
X25769Y25380D01*
X25716Y25446D01*
X25637Y25583D01*
X25585Y25721D01*
X25545Y25852D01*
X25519Y25964D01*
X25513Y26010D01*
Y26056D01*
X25506Y26088D01*
Y26115D01*
Y26128D01*
Y26134D01*
X25513Y26272D01*
X25532Y26397D01*
X25565Y26515D01*
X25598Y26613D01*
X25637Y26698D01*
X25664Y26764D01*
X25690Y26803D01*
X25696Y26810D01*
Y26817D01*
X25775Y26921D01*
X25854Y27013D01*
X25939Y27092D01*
X26018Y27151D01*
X26090Y27197D01*
X26149Y27223D01*
X26188Y27243D01*
X26195Y27250D01*
X26202D01*
X26261Y27269D01*
X26333Y27289D01*
X26477Y27322D01*
X26634Y27341D01*
X26779Y27361D01*
X26917Y27368D01*
X26976D01*
X27028Y27374D01*
X29134D01*
Y22835D01*
D02*
G37*
G36*
X114654Y38805D02*
X114778Y38791D01*
X114896Y38765D01*
X115008Y38732D01*
X115106Y38686D01*
X115205Y38647D01*
X115290Y38595D01*
X115369Y38549D01*
X115434Y38503D01*
X115500Y38450D01*
X115552Y38411D01*
X115592Y38372D01*
X115625Y38332D01*
X115651Y38306D01*
X115664Y38293D01*
X115671Y38286D01*
X115756Y38168D01*
X115828Y38030D01*
X115894Y37886D01*
X115953Y37735D01*
X115998Y37578D01*
X116038Y37420D01*
X116071Y37257D01*
X116097Y37106D01*
X116117Y36955D01*
X116130Y36817D01*
X116143Y36692D01*
X116149Y36587D01*
Y36496D01*
X116156Y36430D01*
Y36404D01*
Y36384D01*
Y36377D01*
Y36371D01*
X116149Y36161D01*
X116136Y35964D01*
X116117Y35781D01*
X116084Y35610D01*
X116051Y35459D01*
X116018Y35321D01*
X115979Y35197D01*
X115933Y35085D01*
X115894Y34993D01*
X115854Y34908D01*
X115821Y34842D01*
X115782Y34783D01*
X115756Y34737D01*
X115736Y34711D01*
X115723Y34692D01*
X115716Y34685D01*
X115631Y34593D01*
X115539Y34514D01*
X115447Y34449D01*
X115356Y34390D01*
X115257Y34337D01*
X115165Y34298D01*
X115074Y34265D01*
X114982Y34239D01*
X114903Y34219D01*
X114824Y34200D01*
X114759Y34186D01*
X114700Y34180D01*
X114647D01*
X114614Y34173D01*
X114582D01*
X114431Y34180D01*
X114293Y34206D01*
X114168Y34232D01*
X114057Y34272D01*
X113971Y34304D01*
X113906Y34337D01*
X113880Y34344D01*
X113860Y34357D01*
X113853Y34363D01*
X113847D01*
X113735Y34442D01*
X113630Y34534D01*
X113545Y34626D01*
X113473Y34718D01*
X113414Y34803D01*
X113374Y34869D01*
X113361Y34895D01*
X113348Y34914D01*
X113342Y34921D01*
Y34928D01*
X113276Y35065D01*
X113230Y35210D01*
X113197Y35341D01*
X113178Y35466D01*
X113158Y35570D01*
Y35610D01*
X113152Y35649D01*
Y35682D01*
Y35702D01*
Y35715D01*
Y35721D01*
X113158Y35840D01*
X113171Y35951D01*
X113191Y36062D01*
X113210Y36161D01*
X113243Y36253D01*
X113276Y36345D01*
X113309Y36423D01*
X113348Y36496D01*
X113388Y36561D01*
X113420Y36620D01*
X113453Y36666D01*
X113486Y36712D01*
X113506Y36745D01*
X113525Y36764D01*
X113539Y36778D01*
X113545Y36784D01*
X113617Y36856D01*
X113696Y36922D01*
X113781Y36974D01*
X113860Y37020D01*
X113939Y37066D01*
X114017Y37099D01*
X114168Y37145D01*
X114234Y37165D01*
X114299Y37178D01*
X114352Y37184D01*
X114404Y37191D01*
X114444Y37197D01*
X114496D01*
X114614Y37191D01*
X114726Y37171D01*
X114831Y37152D01*
X114923Y37125D01*
X115001Y37093D01*
X115060Y37073D01*
X115100Y37053D01*
X115106Y37047D01*
X115113D01*
X115218Y36981D01*
X115310Y36909D01*
X115395Y36837D01*
X115461Y36758D01*
X115520Y36692D01*
X115566Y36640D01*
X115592Y36601D01*
X115598Y36594D01*
Y36712D01*
X115592Y36830D01*
X115585Y36935D01*
X115572Y37040D01*
X115566Y37132D01*
X115552Y37217D01*
X115539Y37296D01*
X115520Y37368D01*
X115506Y37434D01*
X115493Y37486D01*
X115480Y37532D01*
X115474Y37571D01*
X115461Y37598D01*
X115454Y37617D01*
X115447Y37630D01*
Y37637D01*
X115382Y37768D01*
X115316Y37886D01*
X115244Y37978D01*
X115179Y38057D01*
X115120Y38122D01*
X115074Y38168D01*
X115041Y38195D01*
X115028Y38201D01*
X114949Y38254D01*
X114870Y38286D01*
X114792Y38313D01*
X114713Y38332D01*
X114654Y38345D01*
X114601Y38352D01*
X114555D01*
X114437Y38339D01*
X114326Y38313D01*
X114234Y38273D01*
X114149Y38234D01*
X114083Y38188D01*
X114037Y38149D01*
X114011Y38122D01*
X113998Y38109D01*
X113952Y38050D01*
X113906Y37978D01*
X113866Y37899D01*
X113840Y37821D01*
X113814Y37749D01*
X113794Y37689D01*
X113788Y37650D01*
X113781Y37644D01*
Y37637D01*
X113224Y37683D01*
X113263Y37867D01*
X113322Y38030D01*
X113388Y38175D01*
X113460Y38293D01*
X113532Y38385D01*
X113558Y38424D01*
X113591Y38457D01*
X113611Y38477D01*
X113630Y38496D01*
X113637Y38503D01*
X113644Y38509D01*
X113709Y38562D01*
X113781Y38608D01*
X113926Y38686D01*
X114070Y38739D01*
X114208Y38772D01*
X114332Y38798D01*
X114385Y38805D01*
X114431D01*
X114470Y38811D01*
X114523D01*
X114654Y38805D01*
D02*
G37*
G36*
X29528Y31102D02*
X28924D01*
Y33116D01*
X28150D01*
X28078Y33110D01*
X28025D01*
X27979Y33103D01*
X27947Y33097D01*
X27920D01*
X27907Y33090D01*
X27901D01*
X27796Y33057D01*
X27750Y33038D01*
X27710Y33018D01*
X27671Y32998D01*
X27645Y32985D01*
X27632Y32978D01*
X27625Y32972D01*
X27573Y32933D01*
X27520Y32887D01*
X27422Y32788D01*
X27376Y32742D01*
X27343Y32703D01*
X27323Y32677D01*
X27317Y32670D01*
X27251Y32578D01*
X27179Y32480D01*
X27107Y32375D01*
X27035Y32277D01*
X26976Y32185D01*
X26930Y32113D01*
X26910Y32086D01*
X26897Y32067D01*
X26884Y32054D01*
Y32047D01*
X26287Y31102D01*
X25539D01*
X26320Y32336D01*
X26412Y32467D01*
X26497Y32585D01*
X26582Y32683D01*
X26654Y32775D01*
X26720Y32841D01*
X26772Y32893D01*
X26805Y32926D01*
X26818Y32939D01*
X26871Y32978D01*
X26930Y33024D01*
X27048Y33097D01*
X27100Y33123D01*
X27140Y33149D01*
X27166Y33162D01*
X27179Y33169D01*
X27061Y33188D01*
X26950Y33208D01*
X26851Y33241D01*
X26753Y33267D01*
X26667Y33300D01*
X26589Y33339D01*
X26517Y33372D01*
X26451Y33405D01*
X26398Y33444D01*
X26346Y33477D01*
X26307Y33503D01*
X26274Y33530D01*
X26248Y33549D01*
X26228Y33569D01*
X26221Y33575D01*
X26215Y33582D01*
X26162Y33648D01*
X26110Y33713D01*
X26031Y33851D01*
X25979Y33989D01*
X25939Y34120D01*
X25913Y34231D01*
X25906Y34277D01*
Y34323D01*
X25900Y34356D01*
Y34382D01*
Y34396D01*
Y34402D01*
X25906Y34540D01*
X25926Y34664D01*
X25959Y34782D01*
X25992Y34881D01*
X26031Y34966D01*
X26057Y35032D01*
X26084Y35071D01*
X26090Y35078D01*
Y35084D01*
X26169Y35189D01*
X26248Y35281D01*
X26333Y35360D01*
X26412Y35419D01*
X26484Y35465D01*
X26543Y35491D01*
X26582Y35511D01*
X26589Y35517D01*
X26595D01*
X26654Y35537D01*
X26726Y35557D01*
X26871Y35589D01*
X27028Y35609D01*
X27172Y35629D01*
X27310Y35635D01*
X27369D01*
X27422Y35642D01*
X29528D01*
Y31102D01*
D02*
G37*
G36*
X23558Y27381D02*
X23735Y27348D01*
X23886Y27295D01*
X24017Y27243D01*
X24076Y27210D01*
X24122Y27184D01*
X24168Y27158D01*
X24201Y27132D01*
X24227Y27112D01*
X24247Y27099D01*
X24260Y27092D01*
X24266Y27086D01*
X24391Y26961D01*
X24489Y26823D01*
X24568Y26679D01*
X24634Y26535D01*
X24673Y26410D01*
X24693Y26357D01*
X24706Y26311D01*
X24712Y26272D01*
X24719Y26246D01*
X24725Y26226D01*
Y26220D01*
X24168Y26121D01*
X24142Y26265D01*
X24102Y26390D01*
X24056Y26495D01*
X24011Y26580D01*
X23965Y26646D01*
X23925Y26692D01*
X23899Y26725D01*
X23892Y26731D01*
X23807Y26797D01*
X23715Y26849D01*
X23630Y26882D01*
X23545Y26908D01*
X23466Y26921D01*
X23407Y26935D01*
X23355D01*
X23236Y26928D01*
X23132Y26902D01*
X23040Y26869D01*
X22961Y26836D01*
X22902Y26797D01*
X22856Y26764D01*
X22823Y26738D01*
X22817Y26731D01*
X22744Y26653D01*
X22692Y26567D01*
X22659Y26482D01*
X22633Y26403D01*
X22620Y26331D01*
X22607Y26279D01*
Y26239D01*
Y26233D01*
Y26226D01*
Y26154D01*
X22620Y26088D01*
X22653Y25977D01*
X22698Y25879D01*
X22751Y25793D01*
X22804Y25734D01*
X22849Y25688D01*
X22882Y25662D01*
X22889Y25655D01*
X22895D01*
X23007Y25596D01*
X23112Y25550D01*
X23223Y25518D01*
X23322Y25498D01*
X23407Y25485D01*
X23479Y25472D01*
X23564D01*
X23591Y25478D01*
X23623D01*
X23689Y24986D01*
X23604Y25006D01*
X23525Y25019D01*
X23460Y25032D01*
X23400Y25039D01*
X23355Y25045D01*
X23295D01*
X23158Y25032D01*
X23033Y25006D01*
X22921Y24967D01*
X22830Y24921D01*
X22758Y24875D01*
X22705Y24836D01*
X22672Y24809D01*
X22659Y24796D01*
X22574Y24698D01*
X22508Y24593D01*
X22462Y24488D01*
X22436Y24383D01*
X22416Y24297D01*
X22410Y24225D01*
X22403Y24199D01*
Y24179D01*
Y24166D01*
Y24160D01*
X22416Y24015D01*
X22449Y23884D01*
X22489Y23773D01*
X22541Y23674D01*
X22593Y23596D01*
X22633Y23537D01*
X22666Y23497D01*
X22679Y23484D01*
X22784Y23392D01*
X22895Y23327D01*
X23007Y23281D01*
X23112Y23248D01*
X23204Y23228D01*
X23276Y23222D01*
X23302Y23215D01*
X23341D01*
X23460Y23222D01*
X23571Y23248D01*
X23669Y23281D01*
X23748Y23320D01*
X23814Y23353D01*
X23866Y23386D01*
X23892Y23412D01*
X23905Y23418D01*
X23984Y23510D01*
X24050Y23615D01*
X24109Y23727D01*
X24155Y23845D01*
X24188Y23943D01*
X24201Y23989D01*
X24207Y24029D01*
X24214Y24061D01*
X24220Y24088D01*
X24227Y24101D01*
Y24107D01*
X24785Y24035D01*
X24771Y23930D01*
X24752Y23832D01*
X24693Y23648D01*
X24621Y23491D01*
X24581Y23425D01*
X24542Y23359D01*
X24502Y23300D01*
X24463Y23255D01*
X24430Y23209D01*
X24397Y23176D01*
X24378Y23149D01*
X24358Y23130D01*
X24345Y23117D01*
X24339Y23110D01*
X24260Y23051D01*
X24181Y22992D01*
X24102Y22946D01*
X24017Y22907D01*
X23853Y22841D01*
X23696Y22802D01*
X23623Y22789D01*
X23558Y22776D01*
X23499Y22769D01*
X23446Y22762D01*
X23407Y22756D01*
X23348D01*
X23223Y22762D01*
X23112Y22776D01*
X23000Y22795D01*
X22895Y22821D01*
X22797Y22854D01*
X22712Y22887D01*
X22626Y22927D01*
X22554Y22966D01*
X22482Y22999D01*
X22423Y23038D01*
X22370Y23071D01*
X22331Y23104D01*
X22298Y23130D01*
X22272Y23149D01*
X22259Y23163D01*
X22252Y23169D01*
X22174Y23248D01*
X22108Y23333D01*
X22049Y23418D01*
X21997Y23504D01*
X21957Y23583D01*
X21918Y23668D01*
X21865Y23825D01*
X21852Y23897D01*
X21839Y23963D01*
X21826Y24022D01*
X21820Y24074D01*
X21813Y24114D01*
Y24147D01*
Y24166D01*
Y24173D01*
X21820Y24330D01*
X21846Y24475D01*
X21885Y24599D01*
X21924Y24704D01*
X21964Y24790D01*
X22003Y24855D01*
X22029Y24894D01*
X22036Y24908D01*
X22128Y25006D01*
X22226Y25091D01*
X22331Y25157D01*
X22436Y25209D01*
X22528Y25249D01*
X22600Y25275D01*
X22626Y25282D01*
X22646Y25288D01*
X22659Y25295D01*
X22666D01*
X22554Y25354D01*
X22462Y25413D01*
X22384Y25478D01*
X22318Y25537D01*
X22265Y25590D01*
X22226Y25636D01*
X22207Y25662D01*
X22200Y25675D01*
X22148Y25767D01*
X22108Y25859D01*
X22075Y25951D01*
X22056Y26036D01*
X22042Y26108D01*
X22036Y26161D01*
Y26200D01*
Y26213D01*
X22042Y26325D01*
X22062Y26436D01*
X22088Y26535D01*
X22121Y26620D01*
X22154Y26692D01*
X22180Y26751D01*
X22200Y26784D01*
X22207Y26797D01*
X22272Y26895D01*
X22351Y26981D01*
X22430Y27053D01*
X22508Y27118D01*
X22574Y27164D01*
X22633Y27204D01*
X22672Y27223D01*
X22679Y27230D01*
X22685D01*
X22804Y27282D01*
X22921Y27322D01*
X23040Y27354D01*
X23145Y27374D01*
X23230Y27387D01*
X23302Y27394D01*
X23466D01*
X23558Y27381D01*
D02*
G37*
G36*
X116031Y46240D02*
X115506Y46167D01*
X115461Y46240D01*
X115402Y46299D01*
X115349Y46358D01*
X115297Y46404D01*
X115244Y46436D01*
X115205Y46469D01*
X115179Y46482D01*
X115172Y46489D01*
X115087Y46528D01*
X115001Y46561D01*
X114923Y46581D01*
X114844Y46600D01*
X114778Y46607D01*
X114726Y46613D01*
X114601D01*
X114523Y46600D01*
X114385Y46568D01*
X114267Y46522D01*
X114162Y46476D01*
X114083Y46423D01*
X114024Y46377D01*
X113991Y46345D01*
X113978Y46338D01*
Y46332D01*
X113886Y46220D01*
X113821Y46102D01*
X113775Y45977D01*
X113742Y45853D01*
X113722Y45748D01*
X113716Y45702D01*
Y45662D01*
X113709Y45630D01*
Y45603D01*
Y45590D01*
Y45584D01*
Y45492D01*
X113722Y45406D01*
X113755Y45243D01*
X113801Y45105D01*
X113847Y44993D01*
X113899Y44901D01*
X113945Y44829D01*
X113965Y44809D01*
X113978Y44790D01*
X113985Y44783D01*
X113991Y44777D01*
X114044Y44724D01*
X114096Y44678D01*
X114214Y44600D01*
X114326Y44547D01*
X114437Y44514D01*
X114529Y44488D01*
X114608Y44482D01*
X114634Y44475D01*
X114673D01*
X114798Y44482D01*
X114910Y44508D01*
X115008Y44541D01*
X115087Y44580D01*
X115159Y44619D01*
X115211Y44652D01*
X115238Y44678D01*
X115251Y44685D01*
X115329Y44777D01*
X115395Y44875D01*
X115447Y44987D01*
X115487Y45085D01*
X115513Y45183D01*
X115533Y45256D01*
X115539Y45288D01*
X115546Y45308D01*
Y45321D01*
Y45328D01*
X116130Y45282D01*
X116117Y45177D01*
X116097Y45079D01*
X116038Y44895D01*
X115966Y44737D01*
X115926Y44665D01*
X115887Y44606D01*
X115854Y44547D01*
X115815Y44495D01*
X115782Y44455D01*
X115749Y44423D01*
X115723Y44396D01*
X115710Y44370D01*
X115697Y44363D01*
X115690Y44357D01*
X115612Y44298D01*
X115533Y44245D01*
X115447Y44199D01*
X115362Y44160D01*
X115198Y44101D01*
X115034Y44062D01*
X114962Y44042D01*
X114890Y44035D01*
X114831Y44029D01*
X114778Y44022D01*
X114732Y44016D01*
X114673D01*
X114536Y44022D01*
X114404Y44042D01*
X114280Y44068D01*
X114168Y44101D01*
X114063Y44147D01*
X113965Y44193D01*
X113873Y44239D01*
X113794Y44291D01*
X113722Y44344D01*
X113657Y44390D01*
X113604Y44442D01*
X113558Y44482D01*
X113525Y44514D01*
X113499Y44541D01*
X113486Y44560D01*
X113479Y44567D01*
X113414Y44652D01*
X113361Y44744D01*
X113309Y44829D01*
X113270Y44921D01*
X113204Y45098D01*
X113165Y45269D01*
X113152Y45341D01*
X113138Y45413D01*
X113132Y45472D01*
X113125Y45525D01*
X113119Y45570D01*
Y45603D01*
Y45623D01*
Y45630D01*
X113125Y45748D01*
X113138Y45859D01*
X113158Y45971D01*
X113184Y46069D01*
X113217Y46161D01*
X113250Y46253D01*
X113289Y46332D01*
X113322Y46404D01*
X113361Y46469D01*
X113401Y46528D01*
X113434Y46574D01*
X113466Y46620D01*
X113493Y46653D01*
X113512Y46673D01*
X113525Y46686D01*
X113532Y46692D01*
X113611Y46764D01*
X113689Y46830D01*
X113775Y46883D01*
X113860Y46928D01*
X113945Y46974D01*
X114031Y47007D01*
X114188Y47053D01*
X114260Y47073D01*
X114326Y47086D01*
X114385Y47092D01*
X114437Y47099D01*
X114477Y47106D01*
X114621D01*
X114700Y47092D01*
X114857Y47060D01*
X115001Y47014D01*
X115133Y46961D01*
X115238Y46909D01*
X115284Y46883D01*
X115323Y46863D01*
X115356Y46843D01*
X115375Y46830D01*
X115388Y46823D01*
X115395Y46817D01*
X115152Y48044D01*
X113335D01*
Y48575D01*
X115592D01*
X116031Y46240D01*
D02*
G37*
G36*
X120472Y44094D02*
X119869D01*
Y46108D01*
X119095D01*
X119023Y46102D01*
X118970D01*
X118924Y46095D01*
X118892Y46089D01*
X118865D01*
X118852Y46082D01*
X118846D01*
X118741Y46049D01*
X118695Y46030D01*
X118655Y46010D01*
X118616Y45990D01*
X118590Y45977D01*
X118577Y45971D01*
X118570Y45964D01*
X118518Y45925D01*
X118465Y45879D01*
X118367Y45780D01*
X118321Y45735D01*
X118288Y45695D01*
X118268Y45669D01*
X118262Y45662D01*
X118196Y45570D01*
X118124Y45472D01*
X118052Y45367D01*
X117980Y45269D01*
X117921Y45177D01*
X117875Y45105D01*
X117855Y45079D01*
X117842Y45059D01*
X117829Y45046D01*
Y45039D01*
X117232Y44094D01*
X116484D01*
X117265Y45328D01*
X117356Y45459D01*
X117442Y45577D01*
X117527Y45676D01*
X117599Y45767D01*
X117665Y45833D01*
X117717Y45885D01*
X117750Y45918D01*
X117763Y45931D01*
X117816Y45971D01*
X117875Y46017D01*
X117993Y46089D01*
X118045Y46115D01*
X118085Y46141D01*
X118111Y46154D01*
X118124Y46161D01*
X118006Y46181D01*
X117894Y46200D01*
X117796Y46233D01*
X117698Y46259D01*
X117612Y46292D01*
X117534Y46332D01*
X117461Y46364D01*
X117396Y46397D01*
X117343Y46436D01*
X117291Y46469D01*
X117252Y46495D01*
X117219Y46522D01*
X117192Y46541D01*
X117173Y46561D01*
X117166Y46568D01*
X117160Y46574D01*
X117107Y46640D01*
X117055Y46705D01*
X116976Y46843D01*
X116923Y46981D01*
X116884Y47112D01*
X116858Y47224D01*
X116851Y47269D01*
Y47315D01*
X116845Y47348D01*
Y47374D01*
Y47388D01*
Y47394D01*
X116851Y47532D01*
X116871Y47657D01*
X116904Y47775D01*
X116937Y47873D01*
X116976Y47958D01*
X117002Y48024D01*
X117028Y48063D01*
X117035Y48070D01*
Y48076D01*
X117114Y48181D01*
X117192Y48273D01*
X117278Y48352D01*
X117356Y48411D01*
X117429Y48457D01*
X117488Y48483D01*
X117527Y48503D01*
X117534Y48509D01*
X117540D01*
X117599Y48529D01*
X117671Y48549D01*
X117816Y48581D01*
X117973Y48601D01*
X118117Y48621D01*
X118255Y48627D01*
X118314D01*
X118367Y48634D01*
X120472D01*
Y44094D01*
D02*
G37*
G36*
X124016Y57087D02*
X123412D01*
Y59101D01*
X122638D01*
X122566Y59094D01*
X122513D01*
X122468Y59087D01*
X122435Y59081D01*
X122408D01*
X122395Y59074D01*
X122389D01*
X122284Y59042D01*
X122238Y59022D01*
X122199Y59002D01*
X122159Y58982D01*
X122133Y58969D01*
X122120Y58963D01*
X122113Y58956D01*
X122061Y58917D01*
X122008Y58871D01*
X121910Y58772D01*
X121864Y58727D01*
X121831Y58687D01*
X121812Y58661D01*
X121805Y58654D01*
X121739Y58563D01*
X121667Y58464D01*
X121595Y58359D01*
X121523Y58261D01*
X121464Y58169D01*
X121418Y58097D01*
X121398Y58071D01*
X121385Y58051D01*
X121372Y58038D01*
Y58031D01*
X120775Y57087D01*
X120027D01*
X120808Y58320D01*
X120900Y58451D01*
X120985Y58569D01*
X121070Y58668D01*
X121142Y58759D01*
X121208Y58825D01*
X121260Y58877D01*
X121293Y58910D01*
X121307Y58923D01*
X121359Y58963D01*
X121418Y59009D01*
X121536Y59081D01*
X121589Y59107D01*
X121628Y59133D01*
X121654Y59146D01*
X121667Y59153D01*
X121549Y59173D01*
X121438Y59192D01*
X121339Y59225D01*
X121241Y59251D01*
X121156Y59284D01*
X121077Y59324D01*
X121005Y59356D01*
X120939Y59389D01*
X120887Y59429D01*
X120834Y59461D01*
X120795Y59488D01*
X120762Y59514D01*
X120736Y59534D01*
X120716Y59553D01*
X120710Y59560D01*
X120703Y59566D01*
X120650Y59632D01*
X120598Y59698D01*
X120519Y59835D01*
X120467Y59973D01*
X120427Y60104D01*
X120401Y60216D01*
X120395Y60262D01*
Y60308D01*
X120388Y60340D01*
Y60367D01*
Y60380D01*
Y60386D01*
X120395Y60524D01*
X120414Y60649D01*
X120447Y60767D01*
X120480Y60865D01*
X120519Y60950D01*
X120545Y61016D01*
X120572Y61055D01*
X120578Y61062D01*
Y61068D01*
X120657Y61173D01*
X120736Y61265D01*
X120821Y61344D01*
X120900Y61403D01*
X120972Y61449D01*
X121031Y61475D01*
X121070Y61495D01*
X121077Y61501D01*
X121083D01*
X121142Y61521D01*
X121215Y61541D01*
X121359Y61574D01*
X121516Y61593D01*
X121661Y61613D01*
X121799Y61620D01*
X121858D01*
X121910Y61626D01*
X124016D01*
Y57087D01*
D02*
G37*
G36*
X119863Y58687D02*
Y58176D01*
X117889D01*
Y57087D01*
X117331D01*
Y58176D01*
X116715D01*
Y58687D01*
X117331D01*
Y61626D01*
X117784D01*
X119863Y58687D01*
D02*
G37*
G36*
X92520Y18504D02*
X90886D01*
X90735Y18510D01*
X90598Y18517D01*
X90473Y18530D01*
X90368Y18543D01*
X90276Y18556D01*
X90211Y18563D01*
X90191Y18570D01*
X90171Y18576D01*
X90158D01*
X90040Y18609D01*
X89935Y18648D01*
X89843Y18681D01*
X89764Y18720D01*
X89699Y18753D01*
X89653Y18779D01*
X89627Y18799D01*
X89614Y18806D01*
X89528Y18865D01*
X89456Y18937D01*
X89384Y19003D01*
X89325Y19068D01*
X89272Y19127D01*
X89233Y19173D01*
X89207Y19206D01*
X89200Y19219D01*
X89135Y19324D01*
X89069Y19435D01*
X89017Y19540D01*
X88977Y19645D01*
X88938Y19737D01*
X88912Y19809D01*
X88905Y19836D01*
X88899Y19855D01*
X88892Y19868D01*
Y19875D01*
X88853Y20032D01*
X88820Y20190D01*
X88800Y20341D01*
X88780Y20485D01*
X88774Y20610D01*
Y20662D01*
X88767Y20708D01*
Y20741D01*
Y20774D01*
Y20787D01*
Y20793D01*
X88774Y21016D01*
X88794Y21220D01*
X88826Y21404D01*
X88840Y21489D01*
X88859Y21561D01*
X88879Y21633D01*
X88892Y21692D01*
X88905Y21745D01*
X88925Y21790D01*
X88931Y21830D01*
X88945Y21856D01*
X88951Y21869D01*
Y21876D01*
X89023Y22046D01*
X89109Y22197D01*
X89200Y22328D01*
X89286Y22440D01*
X89364Y22532D01*
X89430Y22597D01*
X89456Y22617D01*
X89476Y22637D01*
X89482Y22643D01*
X89489Y22650D01*
X89594Y22735D01*
X89705Y22801D01*
X89817Y22860D01*
X89922Y22906D01*
X90014Y22939D01*
X90086Y22958D01*
X90112Y22971D01*
X90132D01*
X90145Y22978D01*
X90152D01*
X90263Y22998D01*
X90394Y23017D01*
X90526Y23030D01*
X90657Y23037D01*
X90775Y23043D01*
X92520D01*
Y18504D01*
D02*
G37*
G36*
X114063Y29251D02*
X114135Y29146D01*
X114221Y29041D01*
X114299Y28949D01*
X114378Y28870D01*
X114437Y28805D01*
X114463Y28785D01*
X114483Y28765D01*
X114490Y28759D01*
X114496Y28752D01*
X114634Y28641D01*
X114772Y28536D01*
X114903Y28444D01*
X115034Y28372D01*
X115146Y28306D01*
X115191Y28280D01*
X115231Y28260D01*
X115264Y28241D01*
X115290Y28234D01*
X115303Y28221D01*
X115310D01*
Y27683D01*
X115211Y27722D01*
X115113Y27768D01*
X115014Y27814D01*
X114923Y27860D01*
X114844Y27900D01*
X114778Y27932D01*
X114739Y27959D01*
X114732Y27965D01*
X114726D01*
X114608Y28037D01*
X114503Y28109D01*
X114411Y28175D01*
X114339Y28234D01*
X114273Y28280D01*
X114234Y28319D01*
X114201Y28346D01*
X114194Y28352D01*
Y24803D01*
X113637D01*
Y29362D01*
X113998D01*
X114063Y29251D01*
D02*
G37*
G36*
X86498Y22952D02*
X86570Y22847D01*
X86655Y22742D01*
X86734Y22650D01*
X86813Y22571D01*
X86871Y22505D01*
X86898Y22486D01*
X86917Y22466D01*
X86924Y22460D01*
X86931Y22453D01*
X87068Y22342D01*
X87206Y22237D01*
X87337Y22145D01*
X87468Y22073D01*
X87580Y22007D01*
X87626Y21981D01*
X87665Y21961D01*
X87698Y21941D01*
X87724Y21935D01*
X87738Y21922D01*
X87744D01*
Y21384D01*
X87646Y21423D01*
X87547Y21469D01*
X87449Y21515D01*
X87357Y21561D01*
X87278Y21600D01*
X87213Y21633D01*
X87173Y21659D01*
X87167Y21666D01*
X87160D01*
X87042Y21738D01*
X86937Y21810D01*
X86845Y21876D01*
X86773Y21935D01*
X86708Y21981D01*
X86668Y22020D01*
X86635Y22046D01*
X86629Y22053D01*
Y18504D01*
X86071D01*
Y23063D01*
X86432D01*
X86498Y22952D01*
D02*
G37*
G36*
X77107Y127833D02*
X77336Y127801D01*
X77441Y127781D01*
X77540Y127755D01*
X77632Y127735D01*
X77717Y127709D01*
X77796Y127683D01*
X77861Y127656D01*
X77920Y127630D01*
X77973Y127610D01*
X78012Y127591D01*
X78038Y127578D01*
X78058Y127571D01*
X78065Y127565D01*
X78156Y127506D01*
X78248Y127446D01*
X78406Y127309D01*
X78544Y127171D01*
X78655Y127027D01*
X78747Y126902D01*
X78780Y126849D01*
X78806Y126797D01*
X78832Y126758D01*
X78845Y126731D01*
X78852Y126712D01*
X78858Y126705D01*
X78950Y126489D01*
X79016Y126272D01*
X79068Y126062D01*
X79081Y125964D01*
X79101Y125872D01*
X79108Y125787D01*
X79121Y125715D01*
X79127Y125642D01*
Y125583D01*
X79134Y125538D01*
Y125505D01*
Y125478D01*
Y125472D01*
X79121Y125229D01*
X79088Y124999D01*
X79068Y124895D01*
X79049Y124796D01*
X79022Y124698D01*
X78996Y124612D01*
X78970Y124534D01*
X78944Y124468D01*
X78924Y124403D01*
X78904Y124357D01*
X78885Y124311D01*
X78872Y124285D01*
X78858Y124265D01*
Y124258D01*
X78740Y124068D01*
X78609Y123904D01*
X78471Y123760D01*
X78340Y123642D01*
X78215Y123550D01*
X78170Y123517D01*
X78124Y123484D01*
X78084Y123465D01*
X78058Y123445D01*
X78038Y123438D01*
X78032Y123432D01*
X77927Y123379D01*
X77822Y123340D01*
X77612Y123268D01*
X77409Y123222D01*
X77218Y123182D01*
X77133Y123176D01*
X77054Y123163D01*
X76982Y123156D01*
X76923D01*
X76877Y123150D01*
X76812D01*
X76628Y123156D01*
X76451Y123176D01*
X76287Y123209D01*
X76143Y123241D01*
X76083Y123255D01*
X76024Y123268D01*
X75972Y123287D01*
X75926Y123301D01*
X75893Y123314D01*
X75867Y123320D01*
X75854Y123327D01*
X75847D01*
X75670Y123399D01*
X75506Y123484D01*
X75349Y123576D01*
X75211Y123661D01*
X75152Y123701D01*
X75093Y123740D01*
X75047Y123773D01*
X75008Y123799D01*
X74975Y123825D01*
X74949Y123845D01*
X74936Y123852D01*
X74929Y123858D01*
Y125544D01*
X76858D01*
Y125006D01*
X75519D01*
Y124153D01*
X75598Y124088D01*
X75690Y124029D01*
X75788Y123976D01*
X75880Y123930D01*
X75959Y123891D01*
X76031Y123858D01*
X76057Y123845D01*
X76070Y123838D01*
X76083Y123832D01*
X76090D01*
X76228Y123786D01*
X76366Y123747D01*
X76490Y123720D01*
X76608Y123707D01*
X76707Y123694D01*
X76746D01*
X76785Y123688D01*
X76851D01*
X77015Y123694D01*
X77172Y123720D01*
X77317Y123753D01*
X77448Y123786D01*
X77553Y123825D01*
X77599Y123838D01*
X77632Y123852D01*
X77664Y123865D01*
X77684Y123878D01*
X77697Y123884D01*
X77704D01*
X77842Y123970D01*
X77966Y124062D01*
X78071Y124160D01*
X78156Y124258D01*
X78229Y124350D01*
X78275Y124422D01*
X78294Y124449D01*
X78301Y124468D01*
X78314Y124481D01*
Y124488D01*
X78379Y124652D01*
X78432Y124822D01*
X78465Y124993D01*
X78491Y125157D01*
X78497Y125229D01*
X78504Y125295D01*
X78511Y125360D01*
Y125413D01*
X78517Y125452D01*
Y125485D01*
Y125505D01*
Y125511D01*
X78511Y125695D01*
X78491Y125859D01*
X78465Y126016D01*
X78432Y126154D01*
X78419Y126213D01*
X78399Y126266D01*
X78386Y126312D01*
X78373Y126351D01*
X78360Y126384D01*
X78353Y126403D01*
X78347Y126417D01*
Y126423D01*
X78301Y126515D01*
X78255Y126600D01*
X78209Y126679D01*
X78163Y126744D01*
X78124Y126797D01*
X78091Y126843D01*
X78065Y126869D01*
X78058Y126876D01*
X77986Y126948D01*
X77907Y127014D01*
X77822Y127066D01*
X77743Y127118D01*
X77678Y127151D01*
X77625Y127184D01*
X77586Y127197D01*
X77573Y127204D01*
X77455Y127250D01*
X77336Y127282D01*
X77212Y127302D01*
X77100Y127322D01*
X77002Y127328D01*
X76963D01*
X76930Y127335D01*
X76858D01*
X76733Y127328D01*
X76615Y127315D01*
X76510Y127296D01*
X76418Y127276D01*
X76339Y127250D01*
X76280Y127230D01*
X76248Y127217D01*
X76234Y127210D01*
X76136Y127164D01*
X76051Y127112D01*
X75972Y127059D01*
X75913Y127007D01*
X75867Y126961D01*
X75828Y126928D01*
X75808Y126902D01*
X75801Y126895D01*
X75742Y126817D01*
X75696Y126725D01*
X75651Y126640D01*
X75611Y126548D01*
X75585Y126469D01*
X75565Y126410D01*
X75559Y126384D01*
X75552Y126364D01*
X75546Y126357D01*
Y126351D01*
X75001Y126495D01*
X75047Y126659D01*
X75106Y126804D01*
X75165Y126935D01*
X75217Y127040D01*
X75270Y127125D01*
X75309Y127184D01*
X75336Y127223D01*
X75349Y127236D01*
X75441Y127341D01*
X75539Y127427D01*
X75644Y127506D01*
X75742Y127571D01*
X75834Y127617D01*
X75906Y127656D01*
X75933Y127670D01*
X75952Y127676D01*
X75965Y127683D01*
X75972D01*
X76123Y127735D01*
X76280Y127774D01*
X76425Y127807D01*
X76562Y127827D01*
X76687Y127840D01*
X76740D01*
X76779Y127847D01*
X76989D01*
X77107Y127833D01*
D02*
G37*
G36*
X72600Y127676D02*
X72672Y127571D01*
X72758Y127466D01*
X72836Y127374D01*
X72915Y127296D01*
X72974Y127230D01*
X73000Y127210D01*
X73020Y127191D01*
X73027Y127184D01*
X73033Y127178D01*
X73171Y127066D01*
X73309Y126961D01*
X73440Y126869D01*
X73571Y126797D01*
X73682Y126731D01*
X73728Y126705D01*
X73768Y126686D01*
X73801Y126666D01*
X73827Y126659D01*
X73840Y126646D01*
X73847D01*
Y126108D01*
X73748Y126148D01*
X73650Y126193D01*
X73551Y126239D01*
X73460Y126285D01*
X73381Y126325D01*
X73315Y126357D01*
X73276Y126384D01*
X73269Y126390D01*
X73263D01*
X73145Y126462D01*
X73040Y126535D01*
X72948Y126600D01*
X72876Y126659D01*
X72810Y126705D01*
X72771Y126744D01*
X72738Y126771D01*
X72731Y126777D01*
Y123228D01*
X72174D01*
Y127788D01*
X72535D01*
X72600Y127676D01*
D02*
G37*
G36*
X23801Y35655D02*
X23912Y35648D01*
X24017Y35629D01*
X24116Y35609D01*
X24207Y35583D01*
X24293Y35557D01*
X24371Y35524D01*
X24444Y35491D01*
X24509Y35458D01*
X24562Y35425D01*
X24608Y35399D01*
X24647Y35373D01*
X24680Y35353D01*
X24699Y35334D01*
X24712Y35327D01*
X24719Y35320D01*
X24785Y35255D01*
X24844Y35183D01*
X24903Y35104D01*
X24949Y35025D01*
X25027Y34868D01*
X25080Y34710D01*
X25100Y34638D01*
X25119Y34566D01*
X25132Y34507D01*
X25146Y34455D01*
X25152Y34409D01*
Y34376D01*
X25159Y34356D01*
Y34350D01*
X24588Y34291D01*
X24575Y34441D01*
X24548Y34573D01*
X24509Y34691D01*
X24463Y34782D01*
X24424Y34861D01*
X24385Y34914D01*
X24358Y34947D01*
X24345Y34960D01*
X24247Y35038D01*
X24142Y35097D01*
X24030Y35143D01*
X23932Y35170D01*
X23840Y35189D01*
X23761Y35196D01*
X23735Y35202D01*
X23696D01*
X23558Y35196D01*
X23433Y35170D01*
X23328Y35130D01*
X23236Y35091D01*
X23164Y35045D01*
X23118Y35012D01*
X23086Y34986D01*
X23073Y34973D01*
X22994Y34881D01*
X22935Y34789D01*
X22889Y34697D01*
X22863Y34605D01*
X22843Y34533D01*
X22836Y34468D01*
X22830Y34428D01*
Y34422D01*
Y34415D01*
X22843Y34297D01*
X22869Y34172D01*
X22915Y34061D01*
X22961Y33956D01*
X23013Y33871D01*
X23059Y33799D01*
X23073Y33772D01*
X23086Y33753D01*
X23099Y33746D01*
Y33740D01*
X23151Y33667D01*
X23217Y33595D01*
X23289Y33516D01*
X23368Y33438D01*
X23532Y33280D01*
X23696Y33123D01*
X23781Y33051D01*
X23853Y32985D01*
X23925Y32926D01*
X23984Y32874D01*
X24030Y32834D01*
X24070Y32801D01*
X24096Y32782D01*
X24102Y32775D01*
X24266Y32637D01*
X24417Y32506D01*
X24542Y32388D01*
X24640Y32290D01*
X24726Y32204D01*
X24785Y32145D01*
X24817Y32106D01*
X24831Y32100D01*
Y32093D01*
X24922Y31981D01*
X24995Y31876D01*
X25060Y31771D01*
X25113Y31680D01*
X25152Y31601D01*
X25178Y31542D01*
X25191Y31503D01*
X25198Y31496D01*
Y31489D01*
X25224Y31417D01*
X25237Y31352D01*
X25250Y31286D01*
X25257Y31227D01*
X25264Y31174D01*
Y31135D01*
Y31109D01*
Y31102D01*
X22253D01*
Y31640D01*
X24489D01*
X24411Y31752D01*
X24371Y31798D01*
X24339Y31844D01*
X24306Y31883D01*
X24280Y31909D01*
X24260Y31929D01*
X24253Y31936D01*
X24220Y31968D01*
X24181Y32001D01*
X24089Y32086D01*
X23984Y32185D01*
X23873Y32283D01*
X23768Y32368D01*
X23722Y32408D01*
X23683Y32447D01*
X23650Y32473D01*
X23624Y32493D01*
X23610Y32506D01*
X23604Y32513D01*
X23499Y32605D01*
X23394Y32690D01*
X23302Y32775D01*
X23217Y32847D01*
X23138Y32919D01*
X23073Y32985D01*
X23007Y33044D01*
X22954Y33097D01*
X22902Y33149D01*
X22863Y33188D01*
X22830Y33221D01*
X22797Y33254D01*
X22764Y33293D01*
X22751Y33307D01*
X22659Y33418D01*
X22580Y33516D01*
X22515Y33615D01*
X22462Y33694D01*
X22423Y33766D01*
X22397Y33818D01*
X22384Y33851D01*
X22377Y33864D01*
X22338Y33963D01*
X22312Y34061D01*
X22285Y34153D01*
X22272Y34231D01*
X22266Y34304D01*
X22259Y34356D01*
Y34389D01*
Y34402D01*
X22266Y34500D01*
X22279Y34592D01*
X22292Y34684D01*
X22318Y34763D01*
X22384Y34920D01*
X22449Y35045D01*
X22489Y35104D01*
X22522Y35150D01*
X22554Y35196D01*
X22587Y35229D01*
X22613Y35255D01*
X22626Y35281D01*
X22640Y35288D01*
X22646Y35294D01*
X22718Y35360D01*
X22797Y35419D01*
X22882Y35465D01*
X22968Y35504D01*
X23138Y35570D01*
X23309Y35616D01*
X23381Y35629D01*
X23453Y35642D01*
X23519Y35648D01*
X23571Y35655D01*
X23617Y35662D01*
X23683D01*
X23801Y35655D01*
D02*
G37*
G36*
X120079Y24803D02*
X119475D01*
Y26817D01*
X118701D01*
X118629Y26811D01*
X118577D01*
X118531Y26804D01*
X118498Y26797D01*
X118472D01*
X118458Y26791D01*
X118452D01*
X118347Y26758D01*
X118301Y26738D01*
X118262Y26719D01*
X118222Y26699D01*
X118196Y26686D01*
X118183Y26679D01*
X118176Y26673D01*
X118124Y26633D01*
X118071Y26588D01*
X117973Y26489D01*
X117927Y26443D01*
X117894Y26404D01*
X117875Y26378D01*
X117868Y26371D01*
X117802Y26279D01*
X117730Y26181D01*
X117658Y26076D01*
X117586Y25977D01*
X117527Y25886D01*
X117481Y25813D01*
X117461Y25787D01*
X117448Y25767D01*
X117435Y25754D01*
Y25748D01*
X116838Y24803D01*
X116090D01*
X116871Y26036D01*
X116963Y26168D01*
X117048Y26286D01*
X117133Y26384D01*
X117206Y26476D01*
X117271Y26542D01*
X117324Y26594D01*
X117356Y26627D01*
X117369Y26640D01*
X117422Y26679D01*
X117481Y26725D01*
X117599Y26797D01*
X117651Y26824D01*
X117691Y26850D01*
X117717Y26863D01*
X117730Y26869D01*
X117612Y26889D01*
X117501Y26909D01*
X117402Y26942D01*
X117304Y26968D01*
X117219Y27001D01*
X117140Y27040D01*
X117068Y27073D01*
X117002Y27106D01*
X116950Y27145D01*
X116897Y27178D01*
X116858Y27204D01*
X116825Y27230D01*
X116799Y27250D01*
X116779Y27270D01*
X116772Y27276D01*
X116766Y27283D01*
X116714Y27348D01*
X116661Y27414D01*
X116582Y27552D01*
X116530Y27690D01*
X116490Y27821D01*
X116464Y27932D01*
X116458Y27978D01*
Y28024D01*
X116451Y28057D01*
Y28083D01*
Y28096D01*
Y28103D01*
X116458Y28241D01*
X116477Y28365D01*
X116510Y28483D01*
X116543Y28582D01*
X116582Y28667D01*
X116609Y28733D01*
X116635Y28772D01*
X116641Y28778D01*
Y28785D01*
X116720Y28890D01*
X116799Y28982D01*
X116884Y29061D01*
X116963Y29120D01*
X117035Y29166D01*
X117094Y29192D01*
X117133Y29212D01*
X117140Y29218D01*
X117146D01*
X117206Y29238D01*
X117278Y29257D01*
X117422Y29290D01*
X117579Y29310D01*
X117724Y29330D01*
X117861Y29336D01*
X117920D01*
X117973Y29343D01*
X120079D01*
Y24803D01*
D02*
G37*
G36*
X120472Y34252D02*
X119869D01*
Y36266D01*
X119095D01*
X119023Y36259D01*
X118970D01*
X118924Y36253D01*
X118892Y36246D01*
X118865D01*
X118852Y36240D01*
X118846D01*
X118741Y36207D01*
X118695Y36187D01*
X118655Y36167D01*
X118616Y36148D01*
X118590Y36135D01*
X118577Y36128D01*
X118570Y36122D01*
X118518Y36082D01*
X118465Y36036D01*
X118367Y35938D01*
X118321Y35892D01*
X118288Y35853D01*
X118268Y35826D01*
X118262Y35820D01*
X118196Y35728D01*
X118124Y35630D01*
X118052Y35525D01*
X117980Y35426D01*
X117921Y35334D01*
X117875Y35262D01*
X117855Y35236D01*
X117842Y35216D01*
X117829Y35203D01*
Y35197D01*
X117232Y34252D01*
X116484D01*
X117265Y35485D01*
X117356Y35616D01*
X117442Y35735D01*
X117527Y35833D01*
X117599Y35925D01*
X117665Y35990D01*
X117717Y36043D01*
X117750Y36076D01*
X117763Y36089D01*
X117816Y36128D01*
X117875Y36174D01*
X117993Y36246D01*
X118045Y36272D01*
X118085Y36299D01*
X118111Y36312D01*
X118124Y36318D01*
X118006Y36338D01*
X117894Y36358D01*
X117796Y36391D01*
X117698Y36417D01*
X117612Y36450D01*
X117534Y36489D01*
X117461Y36522D01*
X117396Y36555D01*
X117343Y36594D01*
X117291Y36627D01*
X117252Y36653D01*
X117219Y36679D01*
X117192Y36699D01*
X117173Y36718D01*
X117166Y36725D01*
X117160Y36732D01*
X117107Y36797D01*
X117055Y36863D01*
X116976Y37001D01*
X116923Y37138D01*
X116884Y37270D01*
X116858Y37381D01*
X116851Y37427D01*
Y37473D01*
X116845Y37506D01*
Y37532D01*
Y37545D01*
Y37552D01*
X116851Y37689D01*
X116871Y37814D01*
X116904Y37932D01*
X116937Y38030D01*
X116976Y38116D01*
X117002Y38181D01*
X117028Y38221D01*
X117035Y38227D01*
Y38234D01*
X117114Y38339D01*
X117192Y38431D01*
X117278Y38509D01*
X117356Y38568D01*
X117429Y38614D01*
X117488Y38641D01*
X117527Y38660D01*
X117534Y38667D01*
X117540D01*
X117599Y38686D01*
X117671Y38706D01*
X117816Y38739D01*
X117973Y38759D01*
X118117Y38778D01*
X118255Y38785D01*
X118314D01*
X118367Y38791D01*
X120472D01*
Y34252D01*
D02*
G37*
%LPC*%
G36*
X28530Y26869D02*
X27100D01*
X26923Y26862D01*
X26772Y26836D01*
X26641Y26803D01*
X26543Y26764D01*
X26457Y26725D01*
X26405Y26692D01*
X26372Y26666D01*
X26359Y26659D01*
X26280Y26574D01*
X26221Y26489D01*
X26182Y26397D01*
X26149Y26318D01*
X26136Y26239D01*
X26129Y26180D01*
X26123Y26141D01*
Y26134D01*
Y26128D01*
X26129Y26049D01*
X26142Y25970D01*
X26162Y25905D01*
X26182Y25846D01*
X26208Y25793D01*
X26228Y25754D01*
X26241Y25728D01*
X26248Y25721D01*
X26293Y25655D01*
X26352Y25596D01*
X26412Y25550D01*
X26471Y25511D01*
X26523Y25485D01*
X26562Y25465D01*
X26589Y25452D01*
X26602Y25446D01*
X26693Y25419D01*
X26798Y25400D01*
X26904Y25387D01*
X27008Y25380D01*
X27100Y25373D01*
X27179Y25367D01*
X28530D01*
Y26869D01*
D02*
G37*
G36*
X114647Y36705D02*
X114608D01*
X114470Y36692D01*
X114345Y36660D01*
X114240Y36620D01*
X114149Y36568D01*
X114076Y36515D01*
X114024Y36476D01*
X113991Y36443D01*
X113978Y36430D01*
X113893Y36318D01*
X113827Y36200D01*
X113781Y36076D01*
X113755Y35958D01*
X113735Y35853D01*
X113729Y35807D01*
Y35767D01*
X113722Y35735D01*
Y35708D01*
Y35695D01*
Y35689D01*
X113735Y35511D01*
X113762Y35361D01*
X113801Y35229D01*
X113847Y35118D01*
X113899Y35033D01*
X113939Y34967D01*
X113965Y34928D01*
X113978Y34921D01*
Y34914D01*
X114024Y34862D01*
X114076Y34823D01*
X114181Y34751D01*
X114286Y34705D01*
X114378Y34665D01*
X114463Y34646D01*
X114529Y34639D01*
X114555Y34633D01*
X114588D01*
X114680Y34639D01*
X114765Y34652D01*
X114844Y34678D01*
X114910Y34705D01*
X114969Y34724D01*
X115015Y34751D01*
X115041Y34764D01*
X115054Y34770D01*
X115133Y34829D01*
X115198Y34888D01*
X115257Y34960D01*
X115303Y35019D01*
X115342Y35078D01*
X115369Y35124D01*
X115388Y35157D01*
X115395Y35170D01*
X115434Y35269D01*
X115461Y35367D01*
X115487Y35459D01*
X115500Y35544D01*
X115506Y35616D01*
X115513Y35675D01*
Y35708D01*
Y35721D01*
X115500Y35879D01*
X115474Y36017D01*
X115428Y36141D01*
X115382Y36240D01*
X115336Y36325D01*
X115290Y36384D01*
X115264Y36417D01*
X115251Y36430D01*
X115146Y36522D01*
X115041Y36587D01*
X114929Y36640D01*
X114831Y36673D01*
X114739Y36692D01*
X114673Y36699D01*
X114647Y36705D01*
D02*
G37*
G36*
X28924Y35137D02*
X27494D01*
X27317Y35130D01*
X27166Y35104D01*
X27035Y35071D01*
X26936Y35032D01*
X26851Y34992D01*
X26799Y34960D01*
X26766Y34933D01*
X26753Y34927D01*
X26674Y34842D01*
X26615Y34756D01*
X26576Y34664D01*
X26543Y34586D01*
X26530Y34507D01*
X26523Y34448D01*
X26517Y34409D01*
Y34402D01*
Y34396D01*
X26523Y34317D01*
X26536Y34238D01*
X26556Y34172D01*
X26576Y34113D01*
X26602Y34061D01*
X26621Y34022D01*
X26635Y33995D01*
X26641Y33989D01*
X26687Y33923D01*
X26746Y33864D01*
X26805Y33818D01*
X26864Y33779D01*
X26917Y33753D01*
X26956Y33733D01*
X26982Y33720D01*
X26995Y33713D01*
X27087Y33687D01*
X27192Y33667D01*
X27297Y33654D01*
X27402Y33648D01*
X27494Y33641D01*
X27573Y33634D01*
X28924D01*
Y35137D01*
D02*
G37*
G36*
X119869Y48129D02*
X118439D01*
X118262Y48122D01*
X118111Y48096D01*
X117980Y48063D01*
X117881Y48024D01*
X117796Y47985D01*
X117744Y47952D01*
X117711Y47925D01*
X117698Y47919D01*
X117619Y47834D01*
X117560Y47748D01*
X117520Y47657D01*
X117488Y47578D01*
X117474Y47499D01*
X117468Y47440D01*
X117461Y47401D01*
Y47394D01*
Y47388D01*
X117468Y47309D01*
X117481Y47230D01*
X117501Y47165D01*
X117520Y47106D01*
X117547Y47053D01*
X117566Y47014D01*
X117579Y46988D01*
X117586Y46981D01*
X117632Y46915D01*
X117691Y46856D01*
X117750Y46810D01*
X117809Y46771D01*
X117862Y46745D01*
X117901Y46725D01*
X117927Y46712D01*
X117940Y46705D01*
X118032Y46679D01*
X118137Y46659D01*
X118242Y46646D01*
X118347Y46640D01*
X118439Y46633D01*
X118518Y46627D01*
X119869D01*
Y48129D01*
D02*
G37*
G36*
X123412Y61121D02*
X121982D01*
X121805Y61114D01*
X121654Y61088D01*
X121523Y61055D01*
X121424Y61016D01*
X121339Y60977D01*
X121287Y60944D01*
X121254Y60918D01*
X121241Y60911D01*
X121162Y60826D01*
X121103Y60741D01*
X121064Y60649D01*
X121031Y60570D01*
X121018Y60491D01*
X121011Y60432D01*
X121005Y60393D01*
Y60386D01*
Y60380D01*
X121011Y60301D01*
X121024Y60222D01*
X121044Y60157D01*
X121064Y60098D01*
X121090Y60045D01*
X121110Y60006D01*
X121123Y59980D01*
X121129Y59973D01*
X121175Y59907D01*
X121234Y59848D01*
X121293Y59802D01*
X121352Y59763D01*
X121405Y59737D01*
X121444Y59717D01*
X121470Y59704D01*
X121484Y59698D01*
X121575Y59671D01*
X121680Y59652D01*
X121785Y59639D01*
X121890Y59632D01*
X121982Y59625D01*
X122061Y59619D01*
X123412D01*
Y61121D01*
D02*
G37*
G36*
X117889Y60721D02*
Y58687D01*
X119319D01*
X117889Y60721D01*
D02*
G37*
G36*
X91916Y22505D02*
X90867D01*
X90781Y22499D01*
X90696D01*
X90617Y22492D01*
X90486Y22473D01*
X90381Y22460D01*
X90296Y22440D01*
X90237Y22420D01*
X90204Y22414D01*
X90191Y22407D01*
X90073Y22348D01*
X89961Y22276D01*
X89863Y22191D01*
X89778Y22105D01*
X89712Y22027D01*
X89660Y21961D01*
X89646Y21935D01*
X89633Y21915D01*
X89620Y21902D01*
Y21895D01*
X89581Y21823D01*
X89541Y21738D01*
X89482Y21567D01*
X89443Y21384D01*
X89410Y21207D01*
X89404Y21128D01*
X89397Y21049D01*
X89391Y20984D01*
Y20925D01*
X89384Y20872D01*
Y20839D01*
Y20813D01*
Y20807D01*
X89391Y20623D01*
X89404Y20452D01*
X89423Y20301D01*
X89443Y20170D01*
X89456Y20118D01*
X89469Y20072D01*
X89482Y20026D01*
X89489Y19993D01*
X89495Y19967D01*
X89502Y19947D01*
X89509Y19934D01*
Y19928D01*
X89555Y19803D01*
X89607Y19691D01*
X89666Y19593D01*
X89719Y19508D01*
X89764Y19442D01*
X89804Y19396D01*
X89830Y19370D01*
X89837Y19357D01*
X89902Y19304D01*
X89968Y19258D01*
X90034Y19219D01*
X90099Y19180D01*
X90158Y19153D01*
X90204Y19134D01*
X90237Y19127D01*
X90250Y19121D01*
X90348Y19094D01*
X90466Y19075D01*
X90584Y19061D01*
X90696Y19055D01*
X90794Y19048D01*
X90840Y19042D01*
X91916D01*
Y22505D01*
D02*
G37*
G36*
X119475Y28837D02*
X118045D01*
X117868Y28831D01*
X117717Y28805D01*
X117586Y28772D01*
X117488Y28733D01*
X117402Y28693D01*
X117350Y28660D01*
X117317Y28634D01*
X117304Y28628D01*
X117225Y28542D01*
X117166Y28457D01*
X117127Y28365D01*
X117094Y28286D01*
X117081Y28208D01*
X117074Y28149D01*
X117068Y28109D01*
Y28103D01*
Y28096D01*
X117074Y28018D01*
X117087Y27939D01*
X117107Y27873D01*
X117127Y27814D01*
X117153Y27762D01*
X117173Y27722D01*
X117186Y27696D01*
X117192Y27690D01*
X117238Y27624D01*
X117297Y27565D01*
X117356Y27519D01*
X117415Y27480D01*
X117468Y27453D01*
X117507Y27434D01*
X117534Y27421D01*
X117547Y27414D01*
X117638Y27388D01*
X117743Y27368D01*
X117848Y27355D01*
X117953Y27348D01*
X118045Y27342D01*
X118124Y27335D01*
X119475D01*
Y28837D01*
D02*
G37*
G36*
X119869Y38286D02*
X118439D01*
X118262Y38280D01*
X118111Y38254D01*
X117980Y38221D01*
X117881Y38181D01*
X117796Y38142D01*
X117744Y38109D01*
X117711Y38083D01*
X117698Y38076D01*
X117619Y37991D01*
X117560Y37906D01*
X117520Y37814D01*
X117488Y37735D01*
X117474Y37657D01*
X117468Y37598D01*
X117461Y37558D01*
Y37552D01*
Y37545D01*
X117468Y37466D01*
X117481Y37388D01*
X117501Y37322D01*
X117520Y37263D01*
X117547Y37211D01*
X117566Y37171D01*
X117579Y37145D01*
X117586Y37138D01*
X117632Y37073D01*
X117691Y37014D01*
X117750Y36968D01*
X117809Y36928D01*
X117862Y36902D01*
X117901Y36882D01*
X117927Y36869D01*
X117940Y36863D01*
X118032Y36837D01*
X118137Y36817D01*
X118242Y36804D01*
X118347Y36797D01*
X118439Y36791D01*
X118518Y36784D01*
X119869D01*
Y38286D01*
D02*
G37*
%LPD*%
D39*
X64350Y36516D02*
X82776D01*
Y54429D01*
Y101673D02*
Y119587D01*
X64350D02*
X82776D01*
X21752Y36516D02*
X41752D01*
X21752D02*
Y56398D01*
Y99705D02*
Y119587D01*
X41752D01*
X91795Y24409D02*
X94945D01*
X82346Y24803D02*
X82740Y24409D01*
X91795Y29921D02*
X94945D01*
Y24409D02*
Y29921D01*
X82740D02*
X86283D01*
X82740Y24409D02*
X86283D01*
X82346Y24803D02*
Y29528D01*
X82740Y29921D01*
D41*
X97835Y32677D02*
X111614D01*
X97835Y40551D02*
X111614D01*
X97835Y32677D02*
Y40551D01*
X111614Y32677D02*
Y40551D01*
X97835Y42520D02*
X111614D01*
X97835Y50394D02*
X111614D01*
X97835Y42520D02*
Y50394D01*
X111614Y42520D02*
Y50394D01*
X97835Y23228D02*
X111614D01*
X97835Y31102D02*
X111614D01*
X97835Y23228D02*
Y31102D01*
X111614Y23228D02*
Y31102D01*
X101378Y55512D02*
X115157D01*
X101378Y63386D02*
X115157D01*
X101378Y55512D02*
Y63386D01*
X115157Y55512D02*
Y63386D01*
X6890Y29921D02*
X20669D01*
X6890Y37795D02*
X20669D01*
X6890Y29921D02*
Y37795D01*
X20669Y29921D02*
Y37795D01*
X6890Y20866D02*
X20669D01*
X6890Y28740D02*
X20669D01*
X6890Y20866D02*
Y28740D01*
X20669Y20866D02*
Y28740D01*
D43*
X92913Y30709D02*
Y32283D01*
X92126Y31496D02*
X93701D01*
D69*
X81980Y27165D02*
D03*
M02*
