G04 Layer_Color=65535*
%FSLAX25Y25*%
%MOIN*%
G70*
G01*
G75*
%ADD24C,0.01000*%
%ADD39C,0.00500*%
%ADD40C,0.00787*%
%ADD41C,0.00492*%
%ADD42C,0.00800*%
%ADD43C,0.00394*%
%ADD44R,0.13386X0.02756*%
%ADD45R,0.01181X0.08831*%
G36*
X21935Y75084D02*
X21994Y75078D01*
X22066Y75071D01*
X22139Y75064D01*
X22224Y75045D01*
X22401Y75005D01*
X22598Y74946D01*
X22696Y74907D01*
X22788Y74861D01*
X22880Y74802D01*
X22972Y74743D01*
X22978Y74736D01*
X22991Y74730D01*
X23018Y74710D01*
X23050Y74677D01*
X23083Y74645D01*
X23129Y74599D01*
X23175Y74546D01*
X23227Y74494D01*
X23280Y74428D01*
X23332Y74349D01*
X23391Y74271D01*
X23444Y74185D01*
X23490Y74087D01*
X23542Y73989D01*
X23582Y73884D01*
X23621Y73766D01*
X23031Y73628D01*
Y73634D01*
X23024Y73647D01*
X23011Y73674D01*
X22998Y73707D01*
X22985Y73746D01*
X22965Y73798D01*
X22913Y73903D01*
X22847Y74021D01*
X22768Y74139D01*
X22670Y74251D01*
X22565Y74349D01*
X22552Y74362D01*
X22512Y74389D01*
X22447Y74422D01*
X22362Y74467D01*
X22250Y74507D01*
X22125Y74546D01*
X21974Y74572D01*
X21811Y74579D01*
X21758D01*
X21725Y74572D01*
X21679D01*
X21627Y74566D01*
X21502Y74546D01*
X21364Y74520D01*
X21220Y74474D01*
X21069Y74408D01*
X20931Y74323D01*
X20925D01*
X20918Y74310D01*
X20872Y74277D01*
X20813Y74225D01*
X20741Y74146D01*
X20656Y74048D01*
X20577Y73936D01*
X20505Y73798D01*
X20439Y73647D01*
Y73641D01*
X20433Y73628D01*
X20426Y73608D01*
X20420Y73575D01*
X20407Y73536D01*
X20393Y73490D01*
X20374Y73378D01*
X20348Y73247D01*
X20321Y73103D01*
X20308Y72946D01*
X20302Y72775D01*
Y72768D01*
Y72749D01*
Y72716D01*
Y72677D01*
X20308Y72631D01*
Y72572D01*
X20315Y72506D01*
X20321Y72434D01*
X20341Y72276D01*
X20374Y72106D01*
X20413Y71935D01*
X20466Y71765D01*
Y71758D01*
X20472Y71745D01*
X20485Y71725D01*
X20498Y71693D01*
X20538Y71614D01*
X20597Y71522D01*
X20669Y71417D01*
X20761Y71306D01*
X20866Y71207D01*
X20990Y71115D01*
X20997D01*
X21010Y71109D01*
X21030Y71096D01*
X21056Y71083D01*
X21089Y71069D01*
X21128Y71050D01*
X21220Y71010D01*
X21338Y70971D01*
X21469Y70938D01*
X21614Y70912D01*
X21765Y70905D01*
X21811D01*
X21850Y70912D01*
X21896D01*
X21942Y70919D01*
X22060Y70945D01*
X22197Y70978D01*
X22335Y71030D01*
X22480Y71102D01*
X22552Y71142D01*
X22617Y71194D01*
X22624Y71201D01*
X22630Y71207D01*
X22650Y71227D01*
X22676Y71246D01*
X22703Y71279D01*
X22735Y71319D01*
X22775Y71358D01*
X22808Y71411D01*
X22847Y71470D01*
X22893Y71535D01*
X22932Y71601D01*
X22972Y71680D01*
X23004Y71765D01*
X23037Y71857D01*
X23070Y71955D01*
X23096Y72060D01*
X23700Y71909D01*
Y71903D01*
X23693Y71876D01*
X23680Y71837D01*
X23660Y71784D01*
X23641Y71725D01*
X23615Y71653D01*
X23582Y71574D01*
X23542Y71489D01*
X23450Y71306D01*
X23332Y71122D01*
X23260Y71030D01*
X23188Y70938D01*
X23109Y70859D01*
X23018Y70781D01*
X23011Y70774D01*
X22998Y70761D01*
X22965Y70748D01*
X22932Y70722D01*
X22880Y70689D01*
X22827Y70656D01*
X22755Y70623D01*
X22683Y70591D01*
X22598Y70551D01*
X22506Y70518D01*
X22407Y70486D01*
X22302Y70453D01*
X22191Y70426D01*
X22073Y70413D01*
X21948Y70400D01*
X21817Y70394D01*
X21745D01*
X21692Y70400D01*
X21633D01*
X21561Y70407D01*
X21483Y70420D01*
X21391Y70433D01*
X21200Y70466D01*
X21004Y70518D01*
X20807Y70591D01*
X20715Y70636D01*
X20623Y70689D01*
X20617Y70696D01*
X20603Y70702D01*
X20577Y70722D01*
X20551Y70748D01*
X20512Y70774D01*
X20466Y70814D01*
X20413Y70859D01*
X20361Y70912D01*
X20308Y70971D01*
X20249Y71030D01*
X20131Y71181D01*
X20020Y71358D01*
X19921Y71555D01*
Y71561D01*
X19908Y71581D01*
X19902Y71614D01*
X19882Y71653D01*
X19869Y71706D01*
X19849Y71771D01*
X19823Y71843D01*
X19803Y71922D01*
X19783Y72008D01*
X19757Y72106D01*
X19724Y72309D01*
X19698Y72539D01*
X19685Y72775D01*
Y72782D01*
Y72808D01*
Y72847D01*
X19692Y72893D01*
Y72959D01*
X19698Y73024D01*
X19705Y73110D01*
X19718Y73195D01*
X19751Y73385D01*
X19797Y73595D01*
X19862Y73805D01*
X19954Y74008D01*
X19961Y74015D01*
X19967Y74035D01*
X19980Y74061D01*
X20007Y74094D01*
X20033Y74139D01*
X20065Y74192D01*
X20151Y74310D01*
X20262Y74441D01*
X20393Y74572D01*
X20544Y74704D01*
X20721Y74815D01*
X20728Y74822D01*
X20748Y74828D01*
X20774Y74841D01*
X20807Y74861D01*
X20859Y74881D01*
X20912Y74900D01*
X20977Y74927D01*
X21049Y74953D01*
X21128Y74979D01*
X21214Y75005D01*
X21397Y75045D01*
X21607Y75078D01*
X21824Y75091D01*
X21889D01*
X21935Y75084D01*
D02*
G37*
G36*
X25910Y75025D02*
X25956D01*
X26009Y75019D01*
X26133Y74992D01*
X26271Y74959D01*
X26416Y74907D01*
X26560Y74828D01*
X26632Y74782D01*
X26698Y74730D01*
X26704Y74723D01*
X26711Y74717D01*
X26730Y74697D01*
X26750Y74677D01*
X26783Y74645D01*
X26809Y74605D01*
X26881Y74513D01*
X26954Y74395D01*
X27019Y74251D01*
X27078Y74087D01*
X27117Y73903D01*
X26560Y73857D01*
Y73864D01*
X26553Y73870D01*
X26547Y73910D01*
X26527Y73969D01*
X26501Y74041D01*
X26475Y74120D01*
X26435Y74199D01*
X26389Y74271D01*
X26343Y74330D01*
X26330Y74343D01*
X26304Y74369D01*
X26258Y74408D01*
X26193Y74454D01*
X26107Y74494D01*
X26015Y74533D01*
X25904Y74559D01*
X25786Y74572D01*
X25740D01*
X25687Y74566D01*
X25628Y74553D01*
X25550Y74533D01*
X25471Y74507D01*
X25392Y74474D01*
X25313Y74422D01*
X25300Y74415D01*
X25268Y74389D01*
X25222Y74343D01*
X25163Y74277D01*
X25097Y74199D01*
X25025Y74107D01*
X24959Y73989D01*
X24894Y73857D01*
Y73851D01*
X24887Y73838D01*
X24881Y73818D01*
X24867Y73792D01*
X24861Y73752D01*
X24848Y73707D01*
X24835Y73654D01*
X24822Y73588D01*
X24802Y73516D01*
X24789Y73438D01*
X24776Y73352D01*
X24769Y73260D01*
X24756Y73155D01*
X24749Y73050D01*
X24743Y72932D01*
Y72814D01*
X24749Y72821D01*
X24776Y72860D01*
X24822Y72913D01*
X24881Y72978D01*
X24946Y73057D01*
X25031Y73129D01*
X25123Y73201D01*
X25228Y73267D01*
X25235D01*
X25241Y73274D01*
X25281Y73293D01*
X25340Y73313D01*
X25418Y73346D01*
X25510Y73372D01*
X25615Y73392D01*
X25727Y73411D01*
X25845Y73418D01*
X25897D01*
X25937Y73411D01*
X25989Y73405D01*
X26042Y73398D01*
X26107Y73385D01*
X26173Y73365D01*
X26324Y73320D01*
X26403Y73287D01*
X26481Y73241D01*
X26560Y73195D01*
X26645Y73142D01*
X26724Y73077D01*
X26796Y73005D01*
X26803Y72998D01*
X26816Y72985D01*
X26835Y72965D01*
X26855Y72932D01*
X26888Y72887D01*
X26921Y72841D01*
X26954Y72782D01*
X26993Y72716D01*
X27032Y72644D01*
X27065Y72565D01*
X27098Y72473D01*
X27131Y72381D01*
X27150Y72283D01*
X27170Y72171D01*
X27183Y72060D01*
X27190Y71942D01*
Y71935D01*
Y71922D01*
Y71903D01*
Y71870D01*
X27183Y71830D01*
Y71791D01*
X27163Y71686D01*
X27144Y71561D01*
X27111Y71430D01*
X27065Y71286D01*
X26999Y71148D01*
Y71142D01*
X26993Y71135D01*
X26980Y71115D01*
X26967Y71089D01*
X26927Y71023D01*
X26868Y70938D01*
X26796Y70846D01*
X26711Y70754D01*
X26606Y70663D01*
X26494Y70584D01*
X26488D01*
X26481Y70577D01*
X26461Y70564D01*
X26435Y70558D01*
X26370Y70525D01*
X26284Y70492D01*
X26173Y70453D01*
X26048Y70426D01*
X25910Y70400D01*
X25760Y70394D01*
X25727D01*
X25694Y70400D01*
X25642D01*
X25583Y70407D01*
X25517Y70420D01*
X25438Y70440D01*
X25359Y70459D01*
X25268Y70486D01*
X25176Y70518D01*
X25084Y70558D01*
X24985Y70610D01*
X24894Y70669D01*
X24802Y70735D01*
X24710Y70814D01*
X24625Y70905D01*
X24618Y70912D01*
X24605Y70932D01*
X24585Y70958D01*
X24559Y71004D01*
X24520Y71063D01*
X24487Y71128D01*
X24448Y71214D01*
X24408Y71306D01*
X24362Y71417D01*
X24323Y71542D01*
X24290Y71680D01*
X24257Y71830D01*
X24225Y72001D01*
X24205Y72185D01*
X24192Y72381D01*
X24185Y72591D01*
Y72598D01*
Y72604D01*
Y72624D01*
Y72650D01*
X24192Y72716D01*
Y72808D01*
X24198Y72913D01*
X24211Y73037D01*
X24225Y73175D01*
X24244Y73326D01*
X24271Y73477D01*
X24303Y73641D01*
X24343Y73798D01*
X24389Y73956D01*
X24448Y74107D01*
X24513Y74251D01*
X24585Y74389D01*
X24671Y74507D01*
X24677Y74513D01*
X24690Y74527D01*
X24717Y74553D01*
X24749Y74592D01*
X24789Y74632D01*
X24841Y74671D01*
X24907Y74723D01*
X24972Y74769D01*
X25051Y74815D01*
X25136Y74868D01*
X25235Y74907D01*
X25333Y74953D01*
X25445Y74986D01*
X25563Y75012D01*
X25687Y75025D01*
X25819Y75032D01*
X25871D01*
X25910Y75025D01*
D02*
G37*
G36*
X19967Y25084D02*
X20026Y25078D01*
X20098Y25071D01*
X20170Y25064D01*
X20255Y25045D01*
X20432Y25005D01*
X20629Y24946D01*
X20728Y24907D01*
X20819Y24861D01*
X20911Y24802D01*
X21003Y24743D01*
X21010Y24736D01*
X21023Y24730D01*
X21049Y24710D01*
X21082Y24677D01*
X21115Y24645D01*
X21160Y24599D01*
X21206Y24546D01*
X21259Y24494D01*
X21311Y24428D01*
X21364Y24349D01*
X21423Y24271D01*
X21475Y24185D01*
X21521Y24087D01*
X21574Y23989D01*
X21613Y23884D01*
X21653Y23766D01*
X21062Y23628D01*
Y23634D01*
X21056Y23648D01*
X21043Y23674D01*
X21029Y23707D01*
X21016Y23746D01*
X20997Y23798D01*
X20944Y23903D01*
X20878Y24021D01*
X20800Y24139D01*
X20701Y24251D01*
X20596Y24349D01*
X20583Y24363D01*
X20544Y24389D01*
X20478Y24422D01*
X20393Y24467D01*
X20281Y24507D01*
X20157Y24546D01*
X20006Y24572D01*
X19842Y24579D01*
X19790D01*
X19757Y24572D01*
X19711D01*
X19658Y24566D01*
X19534Y24546D01*
X19396Y24520D01*
X19252Y24474D01*
X19101Y24408D01*
X18963Y24323D01*
X18956D01*
X18950Y24310D01*
X18904Y24277D01*
X18845Y24225D01*
X18773Y24146D01*
X18687Y24048D01*
X18609Y23936D01*
X18537Y23798D01*
X18471Y23648D01*
Y23641D01*
X18464Y23628D01*
X18458Y23608D01*
X18451Y23575D01*
X18438Y23536D01*
X18425Y23490D01*
X18405Y23379D01*
X18379Y23247D01*
X18353Y23103D01*
X18340Y22946D01*
X18333Y22775D01*
Y22768D01*
Y22749D01*
Y22716D01*
Y22677D01*
X18340Y22631D01*
Y22572D01*
X18346Y22506D01*
X18353Y22434D01*
X18372Y22276D01*
X18405Y22106D01*
X18445Y21935D01*
X18497Y21765D01*
Y21758D01*
X18504Y21745D01*
X18517Y21725D01*
X18530Y21693D01*
X18569Y21614D01*
X18628Y21522D01*
X18700Y21417D01*
X18792Y21306D01*
X18897Y21207D01*
X19022Y21115D01*
X19028D01*
X19042Y21109D01*
X19061Y21096D01*
X19088Y21082D01*
X19120Y21069D01*
X19160Y21050D01*
X19252Y21010D01*
X19370Y20971D01*
X19501Y20938D01*
X19645Y20912D01*
X19796Y20905D01*
X19842D01*
X19881Y20912D01*
X19927D01*
X19973Y20919D01*
X20091Y20945D01*
X20229Y20978D01*
X20367Y21030D01*
X20511Y21102D01*
X20583Y21142D01*
X20649Y21194D01*
X20655Y21201D01*
X20662Y21207D01*
X20682Y21227D01*
X20708Y21247D01*
X20734Y21279D01*
X20767Y21319D01*
X20806Y21358D01*
X20839Y21410D01*
X20878Y21470D01*
X20924Y21535D01*
X20964Y21601D01*
X21003Y21679D01*
X21036Y21765D01*
X21069Y21857D01*
X21102Y21955D01*
X21128Y22060D01*
X21731Y21909D01*
Y21903D01*
X21725Y21876D01*
X21712Y21837D01*
X21692Y21784D01*
X21672Y21725D01*
X21646Y21653D01*
X21613Y21575D01*
X21574Y21489D01*
X21482Y21306D01*
X21364Y21122D01*
X21292Y21030D01*
X21220Y20938D01*
X21141Y20859D01*
X21049Y20781D01*
X21043Y20774D01*
X21029Y20761D01*
X20997Y20748D01*
X20964Y20722D01*
X20911Y20689D01*
X20859Y20656D01*
X20787Y20623D01*
X20715Y20591D01*
X20629Y20551D01*
X20537Y20518D01*
X20439Y20486D01*
X20334Y20453D01*
X20222Y20426D01*
X20104Y20413D01*
X19980Y20400D01*
X19849Y20394D01*
X19776D01*
X19724Y20400D01*
X19665D01*
X19593Y20407D01*
X19514Y20420D01*
X19422Y20433D01*
X19232Y20466D01*
X19035Y20518D01*
X18838Y20591D01*
X18746Y20636D01*
X18655Y20689D01*
X18648Y20696D01*
X18635Y20702D01*
X18609Y20722D01*
X18583Y20748D01*
X18543Y20774D01*
X18497Y20814D01*
X18445Y20859D01*
X18392Y20912D01*
X18340Y20971D01*
X18281Y21030D01*
X18163Y21181D01*
X18051Y21358D01*
X17953Y21555D01*
Y21561D01*
X17940Y21581D01*
X17933Y21614D01*
X17913Y21653D01*
X17900Y21706D01*
X17880Y21771D01*
X17854Y21844D01*
X17835Y21922D01*
X17815Y22007D01*
X17789Y22106D01*
X17756Y22309D01*
X17730Y22539D01*
X17717Y22775D01*
Y22782D01*
Y22808D01*
Y22847D01*
X17723Y22893D01*
Y22959D01*
X17730Y23024D01*
X17736Y23110D01*
X17749Y23195D01*
X17782Y23385D01*
X17828Y23595D01*
X17894Y23805D01*
X17986Y24008D01*
X17992Y24015D01*
X17999Y24035D01*
X18012Y24061D01*
X18038Y24094D01*
X18064Y24139D01*
X18097Y24192D01*
X18182Y24310D01*
X18294Y24441D01*
X18425Y24572D01*
X18576Y24704D01*
X18753Y24815D01*
X18760Y24822D01*
X18779Y24828D01*
X18805Y24841D01*
X18838Y24861D01*
X18891Y24881D01*
X18943Y24900D01*
X19009Y24927D01*
X19081Y24953D01*
X19160Y24979D01*
X19245Y25005D01*
X19429Y25045D01*
X19639Y25078D01*
X19855Y25091D01*
X19921D01*
X19967Y25084D01*
D02*
G37*
G36*
X15178Y86061D02*
X15263D01*
X15361Y86055D01*
X15460Y86041D01*
X15683Y86022D01*
X15919Y85989D01*
X16142Y85943D01*
X16254Y85910D01*
X16352Y85877D01*
X16359D01*
X16372Y85871D01*
X16398Y85858D01*
X16437Y85845D01*
X16477Y85825D01*
X16529Y85799D01*
X16641Y85733D01*
X16765Y85654D01*
X16896Y85563D01*
X17021Y85444D01*
X17133Y85313D01*
Y85307D01*
X17146Y85294D01*
X17159Y85274D01*
X17172Y85248D01*
X17192Y85208D01*
X17218Y85169D01*
X17244Y85116D01*
X17264Y85064D01*
X17316Y84939D01*
X17362Y84789D01*
X17388Y84624D01*
X17402Y84441D01*
Y84434D01*
Y84415D01*
Y84388D01*
X17395Y84355D01*
Y84310D01*
X17388Y84257D01*
X17362Y84132D01*
X17329Y83995D01*
X17277Y83850D01*
X17205Y83706D01*
X17159Y83634D01*
X17106Y83568D01*
X17100Y83562D01*
X17093Y83555D01*
X17074Y83535D01*
X17054Y83516D01*
X17021Y83490D01*
X16982Y83457D01*
X16890Y83391D01*
X16772Y83326D01*
X16627Y83260D01*
X16464Y83207D01*
X16273Y83168D01*
X16227Y83706D01*
X16234D01*
X16247Y83713D01*
X16260D01*
X16286Y83719D01*
X16359Y83739D01*
X16437Y83765D01*
X16529Y83798D01*
X16621Y83844D01*
X16706Y83896D01*
X16778Y83962D01*
X16785Y83969D01*
X16805Y83995D01*
X16831Y84041D01*
X16857Y84093D01*
X16890Y84165D01*
X16916Y84251D01*
X16936Y84349D01*
X16942Y84454D01*
Y84467D01*
Y84500D01*
X16936Y84546D01*
X16929Y84605D01*
X16916Y84677D01*
X16896Y84749D01*
X16870Y84828D01*
X16831Y84900D01*
X16824Y84907D01*
X16811Y84933D01*
X16785Y84972D01*
X16746Y85012D01*
X16700Y85064D01*
X16647Y85116D01*
X16588Y85169D01*
X16516Y85221D01*
X16509Y85228D01*
X16477Y85241D01*
X16431Y85267D01*
X16372Y85294D01*
X16293Y85326D01*
X16201Y85359D01*
X16096Y85392D01*
X15978Y85425D01*
X15971D01*
X15965Y85431D01*
X15945D01*
X15919Y85438D01*
X15853Y85451D01*
X15768Y85471D01*
X15663Y85484D01*
X15552Y85497D01*
X15427Y85504D01*
X15296Y85510D01*
X15184D01*
X15197Y85504D01*
X15230Y85477D01*
X15276Y85438D01*
X15342Y85392D01*
X15407Y85326D01*
X15480Y85248D01*
X15552Y85156D01*
X15617Y85051D01*
X15624Y85038D01*
X15643Y84998D01*
X15670Y84939D01*
X15696Y84867D01*
X15729Y84769D01*
X15755Y84664D01*
X15775Y84546D01*
X15781Y84421D01*
Y84415D01*
Y84395D01*
Y84369D01*
X15775Y84329D01*
X15768Y84277D01*
X15762Y84224D01*
X15748Y84159D01*
X15729Y84093D01*
X15683Y83942D01*
X15650Y83864D01*
X15611Y83785D01*
X15565Y83700D01*
X15506Y83621D01*
X15447Y83542D01*
X15374Y83470D01*
X15368Y83463D01*
X15355Y83450D01*
X15335Y83437D01*
X15302Y83411D01*
X15256Y83378D01*
X15211Y83345D01*
X15152Y83312D01*
X15086Y83280D01*
X15014Y83240D01*
X14935Y83207D01*
X14843Y83175D01*
X14751Y83142D01*
X14646Y83116D01*
X14535Y83103D01*
X14423Y83089D01*
X14299Y83083D01*
X14233D01*
X14187Y83089D01*
X14128Y83096D01*
X14056Y83103D01*
X13984Y83116D01*
X13898Y83135D01*
X13728Y83181D01*
X13636Y83214D01*
X13538Y83253D01*
X13446Y83299D01*
X13361Y83358D01*
X13269Y83417D01*
X13190Y83490D01*
X13183Y83496D01*
X13170Y83509D01*
X13151Y83529D01*
X13124Y83562D01*
X13092Y83601D01*
X13052Y83654D01*
X13020Y83706D01*
X12974Y83772D01*
X12934Y83837D01*
X12901Y83916D01*
X12829Y84093D01*
X12803Y84185D01*
X12783Y84290D01*
X12770Y84395D01*
X12764Y84506D01*
Y84513D01*
Y84526D01*
Y84552D01*
X12770Y84585D01*
Y84618D01*
X12777Y84664D01*
X12796Y84775D01*
X12823Y84900D01*
X12869Y85038D01*
X12928Y85176D01*
X13006Y85313D01*
Y85320D01*
X13020Y85326D01*
X13033Y85346D01*
X13052Y85372D01*
X13105Y85438D01*
X13177Y85523D01*
X13275Y85609D01*
X13393Y85707D01*
X13531Y85792D01*
X13689Y85871D01*
X13695D01*
X13708Y85877D01*
X13735Y85891D01*
X13767Y85904D01*
X13813Y85917D01*
X13872Y85936D01*
X13938Y85950D01*
X14010Y85969D01*
X14095Y85989D01*
X14194Y86009D01*
X14299Y86022D01*
X14410Y86035D01*
X14535Y86048D01*
X14666Y86061D01*
X14810Y86068D01*
X15105D01*
X15178Y86061D01*
D02*
G37*
G36*
X16711Y131522D02*
X17327D01*
Y131010D01*
X16711D01*
Y129921D01*
X16153D01*
Y131010D01*
X14179D01*
Y131522D01*
X16258Y134461D01*
X16711D01*
Y131522D01*
D02*
G37*
G36*
X50565Y52827D02*
X50604Y52814D01*
X50656Y52794D01*
X50716Y52775D01*
X50788Y52748D01*
X50866Y52715D01*
X50952Y52676D01*
X51135Y52584D01*
X51319Y52466D01*
X51411Y52394D01*
X51503Y52322D01*
X51582Y52243D01*
X51660Y52151D01*
X51667Y52145D01*
X51680Y52132D01*
X51693Y52099D01*
X51719Y52066D01*
X51752Y52014D01*
X51785Y51961D01*
X51818Y51889D01*
X51850Y51817D01*
X51890Y51731D01*
X51923Y51640D01*
X51955Y51541D01*
X51988Y51436D01*
X52014Y51325D01*
X52027Y51207D01*
X52041Y51082D01*
X52047Y50951D01*
Y50944D01*
Y50918D01*
Y50879D01*
X52041Y50826D01*
Y50767D01*
X52034Y50695D01*
X52021Y50616D01*
X52008Y50524D01*
X51975Y50334D01*
X51923Y50138D01*
X51850Y49941D01*
X51805Y49849D01*
X51752Y49757D01*
X51745Y49750D01*
X51739Y49737D01*
X51719Y49711D01*
X51693Y49685D01*
X51667Y49646D01*
X51627Y49599D01*
X51582Y49547D01*
X51529Y49495D01*
X51470Y49442D01*
X51411Y49383D01*
X51260Y49265D01*
X51083Y49154D01*
X50886Y49055D01*
X50880D01*
X50860Y49042D01*
X50827Y49035D01*
X50788Y49016D01*
X50735Y49003D01*
X50670Y48983D01*
X50598Y48957D01*
X50519Y48937D01*
X50433Y48917D01*
X50335Y48891D01*
X50132Y48858D01*
X49902Y48832D01*
X49666Y48819D01*
X49594D01*
X49548Y48825D01*
X49482D01*
X49417Y48832D01*
X49331Y48839D01*
X49246Y48852D01*
X49056Y48884D01*
X48846Y48930D01*
X48636Y48996D01*
X48433Y49088D01*
X48426Y49094D01*
X48406Y49101D01*
X48380Y49114D01*
X48347Y49140D01*
X48302Y49167D01*
X48249Y49199D01*
X48131Y49285D01*
X48000Y49396D01*
X47868Y49527D01*
X47737Y49678D01*
X47626Y49855D01*
X47619Y49862D01*
X47613Y49882D01*
X47600Y49908D01*
X47580Y49941D01*
X47560Y49993D01*
X47541Y50046D01*
X47514Y50111D01*
X47488Y50183D01*
X47462Y50262D01*
X47436Y50347D01*
X47396Y50531D01*
X47363Y50741D01*
X47350Y50958D01*
Y50964D01*
Y50990D01*
Y51023D01*
X47357Y51069D01*
X47363Y51128D01*
X47370Y51200D01*
X47376Y51272D01*
X47396Y51358D01*
X47436Y51535D01*
X47495Y51731D01*
X47534Y51830D01*
X47580Y51922D01*
X47639Y52014D01*
X47698Y52105D01*
X47704Y52112D01*
X47711Y52125D01*
X47731Y52151D01*
X47763Y52184D01*
X47796Y52217D01*
X47842Y52263D01*
X47895Y52309D01*
X47947Y52361D01*
X48013Y52414D01*
X48092Y52466D01*
X48170Y52525D01*
X48256Y52578D01*
X48354Y52624D01*
X48452Y52676D01*
X48557Y52715D01*
X48675Y52755D01*
X48813Y52165D01*
X48807D01*
X48794Y52158D01*
X48767Y52145D01*
X48734Y52132D01*
X48695Y52119D01*
X48643Y52099D01*
X48538Y52046D01*
X48419Y51981D01*
X48302Y51902D01*
X48190Y51804D01*
X48092Y51699D01*
X48078Y51686D01*
X48052Y51646D01*
X48019Y51581D01*
X47973Y51495D01*
X47934Y51384D01*
X47895Y51259D01*
X47868Y51108D01*
X47862Y50944D01*
Y50938D01*
Y50918D01*
Y50892D01*
X47868Y50859D01*
Y50813D01*
X47875Y50761D01*
X47895Y50636D01*
X47921Y50498D01*
X47967Y50354D01*
X48033Y50203D01*
X48118Y50065D01*
Y50059D01*
X48131Y50052D01*
X48164Y50006D01*
X48216Y49947D01*
X48295Y49875D01*
X48393Y49790D01*
X48505Y49711D01*
X48643Y49639D01*
X48794Y49573D01*
X48800D01*
X48813Y49567D01*
X48833Y49560D01*
X48866Y49554D01*
X48905Y49540D01*
X48951Y49527D01*
X49062Y49508D01*
X49194Y49481D01*
X49338Y49455D01*
X49495Y49442D01*
X49666Y49435D01*
X49764D01*
X49810Y49442D01*
X49869D01*
X49935Y49449D01*
X50007Y49455D01*
X50165Y49475D01*
X50335Y49508D01*
X50506Y49547D01*
X50676Y49599D01*
X50683D01*
X50696Y49606D01*
X50716Y49619D01*
X50748Y49632D01*
X50827Y49672D01*
X50919Y49731D01*
X51024Y49803D01*
X51135Y49895D01*
X51234Y50000D01*
X51326Y50124D01*
Y50131D01*
X51332Y50144D01*
X51345Y50164D01*
X51358Y50190D01*
X51372Y50223D01*
X51391Y50262D01*
X51431Y50354D01*
X51470Y50472D01*
X51503Y50603D01*
X51529Y50748D01*
X51535Y50898D01*
Y50905D01*
Y50918D01*
Y50944D01*
X51529Y50984D01*
Y51030D01*
X51522Y51076D01*
X51496Y51194D01*
X51463Y51331D01*
X51411Y51469D01*
X51339Y51613D01*
X51299Y51686D01*
X51247Y51751D01*
X51240Y51758D01*
X51234Y51764D01*
X51214Y51784D01*
X51194Y51810D01*
X51162Y51837D01*
X51122Y51869D01*
X51083Y51909D01*
X51030Y51942D01*
X50971Y51981D01*
X50906Y52027D01*
X50840Y52066D01*
X50761Y52105D01*
X50676Y52138D01*
X50584Y52171D01*
X50486Y52204D01*
X50381Y52230D01*
X50532Y52834D01*
X50538D01*
X50565Y52827D01*
D02*
G37*
G36*
X50729Y56317D02*
X50781Y56310D01*
X50840Y56297D01*
X50906Y56284D01*
X50978Y56271D01*
X51135Y56219D01*
X51221Y56179D01*
X51299Y56140D01*
X51385Y56087D01*
X51470Y56028D01*
X51555Y55963D01*
X51634Y55884D01*
X51640Y55878D01*
X51654Y55864D01*
X51673Y55838D01*
X51700Y55805D01*
X51732Y55766D01*
X51765Y55713D01*
X51805Y55654D01*
X51837Y55582D01*
X51877Y55510D01*
X51916Y55425D01*
X51949Y55339D01*
X51982Y55241D01*
X52008Y55136D01*
X52027Y55025D01*
X52041Y54913D01*
X52047Y54789D01*
Y54782D01*
Y54762D01*
Y54729D01*
X52041Y54690D01*
X52034Y54638D01*
X52027Y54579D01*
X52014Y54513D01*
X52001Y54441D01*
X51962Y54283D01*
X51896Y54119D01*
X51857Y54034D01*
X51811Y53955D01*
X51752Y53877D01*
X51693Y53798D01*
X51686Y53791D01*
X51673Y53778D01*
X51654Y53759D01*
X51627Y53739D01*
X51595Y53706D01*
X51549Y53673D01*
X51503Y53634D01*
X51444Y53595D01*
X51378Y53555D01*
X51313Y53516D01*
X51155Y53444D01*
X50971Y53385D01*
X50873Y53365D01*
X50768Y53352D01*
X50696Y53909D01*
X50702D01*
X50716Y53916D01*
X50742Y53923D01*
X50775Y53929D01*
X50814Y53936D01*
X50860Y53949D01*
X50958Y53982D01*
X51076Y54027D01*
X51188Y54087D01*
X51293Y54152D01*
X51385Y54231D01*
X51391Y54244D01*
X51417Y54270D01*
X51450Y54323D01*
X51483Y54388D01*
X51522Y54467D01*
X51555Y54566D01*
X51582Y54677D01*
X51588Y54795D01*
Y54802D01*
Y54815D01*
Y54834D01*
X51582Y54861D01*
X51575Y54933D01*
X51555Y55025D01*
X51522Y55130D01*
X51477Y55241D01*
X51411Y55353D01*
X51319Y55458D01*
X51306Y55471D01*
X51267Y55503D01*
X51208Y55543D01*
X51129Y55595D01*
X51030Y55648D01*
X50919Y55687D01*
X50788Y55720D01*
X50643Y55733D01*
X50604D01*
X50578Y55727D01*
X50506Y55720D01*
X50420Y55700D01*
X50315Y55674D01*
X50210Y55628D01*
X50106Y55563D01*
X50007Y55477D01*
X49994Y55464D01*
X49968Y55431D01*
X49928Y55379D01*
X49882Y55307D01*
X49837Y55215D01*
X49797Y55103D01*
X49771Y54979D01*
X49758Y54841D01*
Y54834D01*
Y54815D01*
Y54782D01*
X49764Y54736D01*
X49771Y54677D01*
X49784Y54611D01*
X49797Y54533D01*
X49817Y54447D01*
X49325Y54513D01*
Y54519D01*
Y54546D01*
X49331Y54572D01*
Y54598D01*
Y54605D01*
Y54611D01*
Y54631D01*
Y54657D01*
X49318Y54729D01*
X49305Y54815D01*
X49286Y54913D01*
X49253Y55025D01*
X49207Y55130D01*
X49148Y55241D01*
Y55248D01*
X49141Y55254D01*
X49115Y55287D01*
X49069Y55333D01*
X49010Y55386D01*
X48925Y55438D01*
X48826Y55484D01*
X48715Y55517D01*
X48649Y55530D01*
X48524D01*
X48472Y55517D01*
X48400Y55503D01*
X48321Y55477D01*
X48236Y55445D01*
X48151Y55392D01*
X48072Y55320D01*
X48065Y55313D01*
X48039Y55281D01*
X48006Y55235D01*
X47967Y55176D01*
X47934Y55097D01*
X47901Y55005D01*
X47875Y54900D01*
X47868Y54782D01*
Y54775D01*
Y54769D01*
Y54729D01*
X47882Y54670D01*
X47895Y54592D01*
X47921Y54506D01*
X47954Y54421D01*
X48006Y54329D01*
X48072Y54244D01*
X48078Y54238D01*
X48111Y54211D01*
X48157Y54172D01*
X48223Y54126D01*
X48308Y54080D01*
X48413Y54034D01*
X48538Y53995D01*
X48682Y53969D01*
X48583Y53411D01*
X48577D01*
X48557Y53417D01*
X48531Y53424D01*
X48492Y53431D01*
X48446Y53444D01*
X48393Y53463D01*
X48269Y53503D01*
X48124Y53568D01*
X47980Y53647D01*
X47842Y53746D01*
X47718Y53870D01*
X47711Y53877D01*
X47704Y53890D01*
X47691Y53909D01*
X47672Y53936D01*
X47646Y53969D01*
X47619Y54014D01*
X47593Y54060D01*
X47560Y54119D01*
X47508Y54251D01*
X47455Y54401D01*
X47422Y54579D01*
X47409Y54670D01*
Y54769D01*
Y54775D01*
Y54789D01*
Y54808D01*
Y54834D01*
X47416Y54907D01*
X47429Y54992D01*
X47449Y55097D01*
X47482Y55215D01*
X47521Y55333D01*
X47573Y55451D01*
Y55458D01*
X47580Y55464D01*
X47600Y55503D01*
X47639Y55563D01*
X47685Y55628D01*
X47750Y55707D01*
X47823Y55786D01*
X47908Y55864D01*
X48006Y55930D01*
X48019Y55936D01*
X48052Y55956D01*
X48111Y55982D01*
X48183Y56015D01*
X48269Y56048D01*
X48367Y56074D01*
X48479Y56094D01*
X48590Y56100D01*
X48643D01*
X48695Y56094D01*
X48767Y56081D01*
X48853Y56061D01*
X48944Y56028D01*
X49036Y55989D01*
X49128Y55936D01*
X49141Y55930D01*
X49167Y55910D01*
X49213Y55871D01*
X49266Y55818D01*
X49325Y55753D01*
X49390Y55674D01*
X49450Y55582D01*
X49509Y55471D01*
Y55477D01*
X49515Y55490D01*
X49522Y55510D01*
X49528Y55536D01*
X49554Y55608D01*
X49594Y55700D01*
X49646Y55805D01*
X49712Y55910D01*
X49797Y56009D01*
X49896Y56100D01*
X49909Y56107D01*
X49948Y56133D01*
X50014Y56173D01*
X50099Y56212D01*
X50204Y56251D01*
X50328Y56291D01*
X50473Y56317D01*
X50630Y56323D01*
X50689D01*
X50729Y56317D01*
D02*
G37*
G36*
X17323Y81981D02*
X16378Y81384D01*
X16372D01*
X16359Y81371D01*
X16339Y81358D01*
X16313Y81338D01*
X16240Y81292D01*
X16149Y81233D01*
X16050Y81161D01*
X15945Y81089D01*
X15847Y81016D01*
X15755Y80951D01*
X15748Y80944D01*
X15722Y80925D01*
X15683Y80892D01*
X15637Y80846D01*
X15539Y80747D01*
X15493Y80695D01*
X15453Y80643D01*
X15447Y80636D01*
X15440Y80623D01*
X15427Y80597D01*
X15407Y80557D01*
X15388Y80518D01*
X15368Y80472D01*
X15335Y80367D01*
Y80361D01*
X15329Y80347D01*
Y80321D01*
X15322Y80288D01*
X15315Y80242D01*
Y80190D01*
X15309Y80118D01*
Y80039D01*
Y79344D01*
X17323D01*
Y78740D01*
X12783D01*
Y80747D01*
Y80754D01*
Y80774D01*
Y80807D01*
Y80846D01*
X12790Y80898D01*
Y80957D01*
X12796Y81095D01*
X12816Y81239D01*
X12836Y81397D01*
X12869Y81541D01*
X12888Y81613D01*
X12908Y81673D01*
Y81679D01*
X12914Y81686D01*
X12934Y81725D01*
X12960Y81784D01*
X13006Y81856D01*
X13065Y81935D01*
X13144Y82020D01*
X13236Y82099D01*
X13341Y82178D01*
X13348D01*
X13354Y82184D01*
X13393Y82210D01*
X13459Y82237D01*
X13544Y82276D01*
X13643Y82309D01*
X13761Y82342D01*
X13885Y82361D01*
X14023Y82368D01*
X14069D01*
X14102Y82361D01*
X14148D01*
X14194Y82355D01*
X14305Y82328D01*
X14436Y82289D01*
X14574Y82237D01*
X14712Y82158D01*
X14777Y82105D01*
X14843Y82053D01*
X14850Y82046D01*
X14856Y82040D01*
X14876Y82020D01*
X14896Y81994D01*
X14922Y81961D01*
X14948Y81922D01*
X14981Y81869D01*
X15020Y81817D01*
X15053Y81751D01*
X15086Y81679D01*
X15125Y81600D01*
X15158Y81515D01*
X15184Y81417D01*
X15217Y81318D01*
X15237Y81207D01*
X15256Y81089D01*
X15263Y81102D01*
X15276Y81128D01*
X15302Y81167D01*
X15329Y81220D01*
X15401Y81338D01*
X15447Y81397D01*
X15486Y81449D01*
X15499Y81463D01*
X15532Y81495D01*
X15584Y81548D01*
X15650Y81613D01*
X15742Y81686D01*
X15840Y81771D01*
X15958Y81856D01*
X16090Y81948D01*
X17323Y82729D01*
Y81981D01*
D02*
G37*
G36*
X12093Y134533D02*
X12152Y134526D01*
X12224Y134520D01*
X12296Y134513D01*
X12381Y134494D01*
X12558Y134454D01*
X12755Y134395D01*
X12854Y134356D01*
X12945Y134310D01*
X13037Y134251D01*
X13129Y134192D01*
X13136Y134185D01*
X13149Y134179D01*
X13175Y134159D01*
X13208Y134126D01*
X13241Y134093D01*
X13286Y134047D01*
X13332Y133995D01*
X13385Y133942D01*
X13437Y133877D01*
X13490Y133798D01*
X13549Y133720D01*
X13601Y133634D01*
X13647Y133536D01*
X13700Y133437D01*
X13739Y133333D01*
X13779Y133214D01*
X13188Y133077D01*
Y133083D01*
X13182Y133096D01*
X13168Y133123D01*
X13155Y133155D01*
X13142Y133195D01*
X13123Y133247D01*
X13070Y133352D01*
X13004Y133470D01*
X12926Y133588D01*
X12827Y133700D01*
X12722Y133798D01*
X12709Y133811D01*
X12670Y133838D01*
X12604Y133870D01*
X12519Y133916D01*
X12408Y133956D01*
X12283Y133995D01*
X12132Y134021D01*
X11968Y134028D01*
X11915D01*
X11883Y134021D01*
X11837D01*
X11784Y134015D01*
X11660Y133995D01*
X11522Y133969D01*
X11378Y133923D01*
X11227Y133857D01*
X11089Y133772D01*
X11082D01*
X11076Y133759D01*
X11030Y133726D01*
X10971Y133674D01*
X10899Y133595D01*
X10813Y133496D01*
X10735Y133385D01*
X10662Y133247D01*
X10597Y133096D01*
Y133090D01*
X10590Y133077D01*
X10584Y133057D01*
X10577Y133024D01*
X10564Y132985D01*
X10551Y132939D01*
X10531Y132827D01*
X10505Y132696D01*
X10479Y132552D01*
X10466Y132394D01*
X10459Y132224D01*
Y132217D01*
Y132198D01*
Y132165D01*
Y132125D01*
X10466Y132080D01*
Y132020D01*
X10472Y131955D01*
X10479Y131883D01*
X10498Y131725D01*
X10531Y131555D01*
X10571Y131384D01*
X10623Y131214D01*
Y131207D01*
X10630Y131194D01*
X10643Y131174D01*
X10656Y131141D01*
X10695Y131063D01*
X10754Y130971D01*
X10826Y130866D01*
X10918Y130754D01*
X11023Y130656D01*
X11148Y130564D01*
X11154D01*
X11168Y130558D01*
X11187Y130544D01*
X11214Y130531D01*
X11246Y130518D01*
X11286Y130499D01*
X11378Y130459D01*
X11496Y130420D01*
X11627Y130387D01*
X11771Y130361D01*
X11922Y130354D01*
X11968D01*
X12007Y130361D01*
X12053D01*
X12099Y130367D01*
X12217Y130394D01*
X12355Y130426D01*
X12493Y130479D01*
X12637Y130551D01*
X12709Y130590D01*
X12775Y130643D01*
X12781Y130649D01*
X12788Y130656D01*
X12808Y130676D01*
X12834Y130695D01*
X12860Y130728D01*
X12893Y130768D01*
X12932Y130807D01*
X12965Y130859D01*
X13004Y130918D01*
X13050Y130984D01*
X13090Y131050D01*
X13129Y131128D01*
X13162Y131214D01*
X13195Y131305D01*
X13228Y131404D01*
X13254Y131509D01*
X13857Y131358D01*
Y131351D01*
X13851Y131325D01*
X13838Y131286D01*
X13818Y131233D01*
X13798Y131174D01*
X13772Y131102D01*
X13739Y131023D01*
X13700Y130938D01*
X13608Y130754D01*
X13490Y130571D01*
X13418Y130479D01*
X13346Y130387D01*
X13267Y130308D01*
X13175Y130230D01*
X13168Y130223D01*
X13155Y130210D01*
X13123Y130197D01*
X13090Y130171D01*
X13037Y130138D01*
X12985Y130105D01*
X12913Y130072D01*
X12840Y130039D01*
X12755Y130000D01*
X12663Y129967D01*
X12565Y129934D01*
X12460Y129902D01*
X12348Y129875D01*
X12230Y129862D01*
X12106Y129849D01*
X11975Y129842D01*
X11902D01*
X11850Y129849D01*
X11791D01*
X11719Y129856D01*
X11640Y129869D01*
X11548Y129882D01*
X11358Y129915D01*
X11161Y129967D01*
X10964Y130039D01*
X10872Y130085D01*
X10781Y130138D01*
X10774Y130144D01*
X10761Y130151D01*
X10735Y130171D01*
X10708Y130197D01*
X10669Y130223D01*
X10623Y130262D01*
X10571Y130308D01*
X10518Y130361D01*
X10466Y130420D01*
X10407Y130479D01*
X10289Y130630D01*
X10177Y130807D01*
X10079Y131004D01*
Y131010D01*
X10066Y131030D01*
X10059Y131063D01*
X10039Y131102D01*
X10026Y131155D01*
X10007Y131220D01*
X9980Y131292D01*
X9961Y131371D01*
X9941Y131456D01*
X9915Y131555D01*
X9882Y131758D01*
X9856Y131988D01*
X9843Y132224D01*
Y132230D01*
Y132257D01*
Y132296D01*
X9849Y132342D01*
Y132407D01*
X9856Y132473D01*
X9862Y132558D01*
X9875Y132644D01*
X9908Y132834D01*
X9954Y133044D01*
X10020Y133254D01*
X10112Y133457D01*
X10118Y133464D01*
X10125Y133483D01*
X10138Y133510D01*
X10164Y133542D01*
X10190Y133588D01*
X10223Y133641D01*
X10308Y133759D01*
X10420Y133890D01*
X10551Y134021D01*
X10702Y134152D01*
X10879Y134264D01*
X10886Y134271D01*
X10905Y134277D01*
X10932Y134290D01*
X10964Y134310D01*
X11017Y134330D01*
X11069Y134349D01*
X11135Y134376D01*
X11207Y134402D01*
X11286Y134428D01*
X11371Y134454D01*
X11555Y134494D01*
X11765Y134526D01*
X11981Y134539D01*
X12047D01*
X12093Y134533D01*
D02*
G37*
G36*
X25221Y24513D02*
X25215Y24507D01*
X25201Y24494D01*
X25175Y24467D01*
X25149Y24428D01*
X25110Y24382D01*
X25057Y24330D01*
X25005Y24264D01*
X24946Y24185D01*
X24887Y24107D01*
X24814Y24015D01*
X24742Y23910D01*
X24670Y23805D01*
X24591Y23687D01*
X24513Y23562D01*
X24434Y23424D01*
X24355Y23287D01*
X24349Y23280D01*
X24336Y23254D01*
X24316Y23214D01*
X24283Y23155D01*
X24250Y23083D01*
X24211Y23005D01*
X24165Y22913D01*
X24119Y22808D01*
X24067Y22690D01*
X24008Y22572D01*
X23955Y22440D01*
X23903Y22303D01*
X23798Y22021D01*
X23699Y21719D01*
Y21712D01*
X23693Y21693D01*
X23686Y21660D01*
X23673Y21620D01*
X23660Y21568D01*
X23647Y21502D01*
X23627Y21430D01*
X23614Y21351D01*
X23594Y21260D01*
X23575Y21161D01*
X23542Y20951D01*
X23509Y20722D01*
X23489Y20472D01*
X22919D01*
Y20479D01*
Y20499D01*
Y20525D01*
X22925Y20564D01*
Y20617D01*
X22932Y20682D01*
X22938Y20754D01*
X22945Y20833D01*
X22958Y20925D01*
X22971Y21017D01*
X22991Y21128D01*
X23010Y21240D01*
X23030Y21358D01*
X23056Y21489D01*
X23122Y21758D01*
Y21765D01*
X23129Y21791D01*
X23142Y21830D01*
X23161Y21889D01*
X23181Y21955D01*
X23207Y22034D01*
X23234Y22126D01*
X23273Y22224D01*
X23312Y22335D01*
X23352Y22447D01*
X23450Y22696D01*
X23568Y22959D01*
X23699Y23221D01*
X23706Y23228D01*
X23719Y23254D01*
X23739Y23287D01*
X23765Y23339D01*
X23798Y23398D01*
X23844Y23470D01*
X23889Y23549D01*
X23942Y23634D01*
X24067Y23825D01*
X24198Y24021D01*
X24349Y24225D01*
X24506Y24415D01*
X22282D01*
Y24953D01*
X25221D01*
Y24513D01*
D02*
G37*
G36*
X22645Y144691D02*
X22697D01*
X22822Y144684D01*
X22966Y144664D01*
X23117Y144645D01*
X23275Y144612D01*
X23432Y144573D01*
X23439D01*
X23452Y144566D01*
X23471Y144559D01*
X23498Y144553D01*
X23570Y144527D01*
X23662Y144487D01*
X23767Y144448D01*
X23872Y144395D01*
X23983Y144330D01*
X24088Y144264D01*
X24101Y144258D01*
X24134Y144231D01*
X24180Y144192D01*
X24239Y144140D01*
X24305Y144081D01*
X24370Y144008D01*
X24442Y143936D01*
X24501Y143851D01*
X24508Y143838D01*
X24528Y143812D01*
X24554Y143766D01*
X24587Y143700D01*
X24626Y143621D01*
X24659Y143529D01*
X24698Y143425D01*
X24731Y143307D01*
Y143300D01*
Y143293D01*
X24737Y143274D01*
X24744Y143254D01*
X24751Y143188D01*
X24764Y143097D01*
X24777Y142992D01*
X24790Y142867D01*
X24797Y142729D01*
X24803Y142578D01*
Y140945D01*
X20264D01*
Y142506D01*
Y142513D01*
Y142532D01*
Y142559D01*
Y142591D01*
Y142637D01*
Y142690D01*
X20270Y142808D01*
X20277Y142939D01*
X20290Y143070D01*
X20310Y143201D01*
X20329Y143313D01*
Y143320D01*
X20336Y143333D01*
Y143352D01*
X20349Y143379D01*
X20369Y143451D01*
X20401Y143543D01*
X20447Y143648D01*
X20506Y143759D01*
X20572Y143871D01*
X20657Y143976D01*
X20664Y143982D01*
X20670Y143989D01*
X20690Y144008D01*
X20710Y144035D01*
X20775Y144100D01*
X20867Y144179D01*
X20979Y144264D01*
X21110Y144356D01*
X21261Y144441D01*
X21431Y144513D01*
X21438D01*
X21451Y144520D01*
X21477Y144533D01*
X21517Y144540D01*
X21563Y144559D01*
X21615Y144573D01*
X21674Y144586D01*
X21746Y144605D01*
X21818Y144625D01*
X21904Y144638D01*
X22087Y144671D01*
X22291Y144691D01*
X22514Y144697D01*
X22599D01*
X22645Y144691D01*
D02*
G37*
G36*
X16331Y93116D02*
X16390D01*
X16528Y93109D01*
X16673Y93089D01*
X16830Y93070D01*
X16974Y93037D01*
X17047Y93017D01*
X17106Y92998D01*
X17112D01*
X17119Y92991D01*
X17158Y92971D01*
X17217Y92945D01*
X17289Y92899D01*
X17368Y92840D01*
X17453Y92761D01*
X17532Y92670D01*
X17611Y92565D01*
Y92558D01*
X17617Y92551D01*
X17643Y92512D01*
X17670Y92447D01*
X17709Y92361D01*
X17742Y92263D01*
X17775Y92145D01*
X17794Y92020D01*
X17801Y91882D01*
Y91876D01*
Y91863D01*
Y91836D01*
X17794Y91804D01*
Y91758D01*
X17788Y91712D01*
X17762Y91600D01*
X17722Y91469D01*
X17670Y91331D01*
X17591Y91194D01*
X17538Y91128D01*
X17486Y91062D01*
X17480Y91056D01*
X17473Y91049D01*
X17453Y91030D01*
X17427Y91010D01*
X17394Y90984D01*
X17355Y90957D01*
X17302Y90925D01*
X17250Y90885D01*
X17184Y90852D01*
X17112Y90820D01*
X17033Y90780D01*
X16948Y90747D01*
X16850Y90721D01*
X16751Y90688D01*
X16640Y90669D01*
X16522Y90649D01*
X16535Y90642D01*
X16561Y90629D01*
X16600Y90603D01*
X16653Y90577D01*
X16771Y90505D01*
X16830Y90459D01*
X16883Y90420D01*
X16896Y90406D01*
X16928Y90374D01*
X16981Y90321D01*
X17047Y90255D01*
X17119Y90164D01*
X17204Y90065D01*
X17289Y89947D01*
X17381Y89816D01*
X18162Y88583D01*
X17414D01*
X16817Y89527D01*
Y89534D01*
X16804Y89547D01*
X16791Y89567D01*
X16771Y89593D01*
X16725Y89665D01*
X16666Y89757D01*
X16594Y89855D01*
X16522Y89960D01*
X16450Y90059D01*
X16384Y90150D01*
X16377Y90157D01*
X16358Y90183D01*
X16325Y90223D01*
X16279Y90269D01*
X16181Y90367D01*
X16128Y90413D01*
X16076Y90452D01*
X16069Y90459D01*
X16056Y90465D01*
X16030Y90478D01*
X15990Y90498D01*
X15951Y90518D01*
X15905Y90538D01*
X15800Y90570D01*
X15793D01*
X15780Y90577D01*
X15754D01*
X15721Y90583D01*
X15676Y90590D01*
X15623D01*
X15551Y90597D01*
X14777D01*
Y88583D01*
X14173D01*
Y93122D01*
X16279D01*
X16331Y93116D01*
D02*
G37*
G36*
X109245Y75793D02*
X109304D01*
X109442Y75786D01*
X109586Y75767D01*
X109743Y75747D01*
X109888Y75714D01*
X109960Y75694D01*
X110019Y75675D01*
X110026D01*
X110032Y75668D01*
X110071Y75648D01*
X110130Y75622D01*
X110203Y75576D01*
X110281Y75517D01*
X110367Y75439D01*
X110445Y75347D01*
X110524Y75242D01*
Y75235D01*
X110531Y75229D01*
X110557Y75189D01*
X110583Y75124D01*
X110623Y75038D01*
X110655Y74940D01*
X110688Y74822D01*
X110708Y74697D01*
X110714Y74559D01*
Y74553D01*
Y74540D01*
Y74514D01*
X110708Y74481D01*
Y74435D01*
X110701Y74389D01*
X110675Y74277D01*
X110636Y74146D01*
X110583Y74009D01*
X110504Y73871D01*
X110452Y73805D01*
X110399Y73739D01*
X110393Y73733D01*
X110386Y73726D01*
X110367Y73707D01*
X110340Y73687D01*
X110308Y73661D01*
X110268Y73635D01*
X110216Y73602D01*
X110163Y73562D01*
X110098Y73530D01*
X110026Y73497D01*
X109947Y73457D01*
X109862Y73425D01*
X109763Y73398D01*
X109665Y73366D01*
X109553Y73346D01*
X109435Y73326D01*
X109448Y73320D01*
X109475Y73307D01*
X109514Y73280D01*
X109566Y73254D01*
X109684Y73182D01*
X109743Y73136D01*
X109796Y73097D01*
X109809Y73084D01*
X109842Y73051D01*
X109894Y72998D01*
X109960Y72933D01*
X110032Y72841D01*
X110117Y72742D01*
X110203Y72624D01*
X110294Y72493D01*
X111075Y71260D01*
X110327D01*
X109730Y72205D01*
Y72211D01*
X109717Y72224D01*
X109704Y72244D01*
X109684Y72270D01*
X109638Y72342D01*
X109579Y72434D01*
X109507Y72532D01*
X109435Y72637D01*
X109363Y72736D01*
X109297Y72828D01*
X109291Y72834D01*
X109271Y72860D01*
X109238Y72900D01*
X109192Y72946D01*
X109094Y73044D01*
X109042Y73090D01*
X108989Y73129D01*
X108982Y73136D01*
X108969Y73143D01*
X108943Y73156D01*
X108904Y73175D01*
X108864Y73195D01*
X108818Y73215D01*
X108713Y73247D01*
X108707D01*
X108694Y73254D01*
X108668D01*
X108635Y73261D01*
X108589Y73267D01*
X108536D01*
X108464Y73274D01*
X107690D01*
Y71260D01*
X107087D01*
Y75799D01*
X109192D01*
X109245Y75793D01*
D02*
G37*
G36*
X114408Y75301D02*
X114401Y75294D01*
X114388Y75281D01*
X114362Y75255D01*
X114335Y75216D01*
X114296Y75170D01*
X114244Y75117D01*
X114191Y75051D01*
X114132Y74973D01*
X114073Y74894D01*
X114001Y74802D01*
X113929Y74697D01*
X113856Y74592D01*
X113778Y74474D01*
X113699Y74350D01*
X113620Y74212D01*
X113542Y74074D01*
X113535Y74067D01*
X113522Y74041D01*
X113502Y74002D01*
X113470Y73943D01*
X113437Y73871D01*
X113397Y73792D01*
X113351Y73700D01*
X113305Y73595D01*
X113253Y73477D01*
X113194Y73359D01*
X113142Y73228D01*
X113089Y73090D01*
X112984Y72808D01*
X112886Y72506D01*
Y72500D01*
X112879Y72480D01*
X112873Y72447D01*
X112859Y72408D01*
X112846Y72355D01*
X112833Y72290D01*
X112813Y72218D01*
X112800Y72139D01*
X112781Y72047D01*
X112761Y71949D01*
X112728Y71739D01*
X112695Y71509D01*
X112676Y71260D01*
X112105D01*
Y71266D01*
Y71286D01*
Y71312D01*
X112112Y71352D01*
Y71404D01*
X112118Y71470D01*
X112125Y71542D01*
X112131Y71621D01*
X112144Y71712D01*
X112157Y71804D01*
X112177Y71916D01*
X112197Y72027D01*
X112216Y72145D01*
X112243Y72277D01*
X112308Y72546D01*
Y72552D01*
X112315Y72578D01*
X112328Y72618D01*
X112348Y72677D01*
X112367Y72742D01*
X112394Y72821D01*
X112420Y72913D01*
X112459Y73011D01*
X112499Y73123D01*
X112538Y73234D01*
X112636Y73484D01*
X112754Y73746D01*
X112886Y74009D01*
X112892Y74015D01*
X112905Y74041D01*
X112925Y74074D01*
X112951Y74127D01*
X112984Y74186D01*
X113030Y74258D01*
X113076Y74336D01*
X113128Y74422D01*
X113253Y74612D01*
X113384Y74809D01*
X113535Y75012D01*
X113692Y75202D01*
X111469D01*
Y75740D01*
X114408D01*
Y75301D01*
D02*
G37*
G36*
X22645Y149269D02*
X22697D01*
X22822Y149263D01*
X22966Y149243D01*
X23117Y149224D01*
X23275Y149191D01*
X23432Y149151D01*
X23439D01*
X23452Y149145D01*
X23471Y149138D01*
X23498Y149132D01*
X23570Y149106D01*
X23662Y149066D01*
X23767Y149027D01*
X23872Y148974D01*
X23983Y148909D01*
X24088Y148843D01*
X24101Y148837D01*
X24134Y148810D01*
X24180Y148771D01*
X24239Y148719D01*
X24305Y148659D01*
X24370Y148587D01*
X24442Y148515D01*
X24501Y148430D01*
X24508Y148417D01*
X24528Y148390D01*
X24554Y148345D01*
X24587Y148279D01*
X24626Y148200D01*
X24659Y148108D01*
X24698Y148003D01*
X24731Y147885D01*
Y147879D01*
Y147872D01*
X24737Y147853D01*
X24744Y147833D01*
X24751Y147767D01*
X24764Y147675D01*
X24777Y147571D01*
X24790Y147446D01*
X24797Y147308D01*
X24803Y147157D01*
Y145524D01*
X20264D01*
Y147085D01*
Y147092D01*
Y147111D01*
Y147137D01*
Y147170D01*
Y147216D01*
Y147269D01*
X20270Y147387D01*
X20277Y147518D01*
X20290Y147649D01*
X20310Y147780D01*
X20329Y147892D01*
Y147898D01*
X20336Y147912D01*
Y147931D01*
X20349Y147958D01*
X20369Y148030D01*
X20401Y148122D01*
X20447Y148226D01*
X20506Y148338D01*
X20572Y148450D01*
X20657Y148555D01*
X20664Y148561D01*
X20670Y148568D01*
X20690Y148587D01*
X20710Y148614D01*
X20775Y148679D01*
X20867Y148758D01*
X20979Y148843D01*
X21110Y148935D01*
X21261Y149020D01*
X21431Y149092D01*
X21438D01*
X21451Y149099D01*
X21477Y149112D01*
X21517Y149119D01*
X21563Y149138D01*
X21615Y149151D01*
X21674Y149165D01*
X21746Y149184D01*
X21818Y149204D01*
X21904Y149217D01*
X22087Y149250D01*
X22291Y149269D01*
X22514Y149276D01*
X22599D01*
X22645Y149269D01*
D02*
G37*
G36*
X49107Y29336D02*
X49238Y29330D01*
X49369Y29316D01*
X49501Y29297D01*
X49612Y29277D01*
X49619D01*
X49632Y29270D01*
X49652D01*
X49678Y29257D01*
X49750Y29238D01*
X49842Y29205D01*
X49947Y29159D01*
X50058Y29100D01*
X50170Y29034D01*
X50275Y28949D01*
X50281Y28942D01*
X50288Y28936D01*
X50308Y28916D01*
X50334Y28897D01*
X50400Y28831D01*
X50478Y28739D01*
X50564Y28628D01*
X50655Y28496D01*
X50741Y28346D01*
X50813Y28175D01*
Y28168D01*
X50819Y28155D01*
X50832Y28129D01*
X50839Y28090D01*
X50859Y28044D01*
X50872Y27991D01*
X50885Y27932D01*
X50905Y27860D01*
X50924Y27788D01*
X50937Y27703D01*
X50970Y27519D01*
X50990Y27316D01*
X50996Y27093D01*
Y27086D01*
Y27073D01*
Y27040D01*
Y27007D01*
X50990Y26961D01*
Y26909D01*
X50983Y26784D01*
X50964Y26640D01*
X50944Y26489D01*
X50911Y26332D01*
X50872Y26174D01*
Y26168D01*
X50865Y26155D01*
X50859Y26135D01*
X50852Y26109D01*
X50826Y26036D01*
X50787Y25945D01*
X50747Y25840D01*
X50695Y25735D01*
X50629Y25623D01*
X50564Y25518D01*
X50557Y25505D01*
X50531Y25472D01*
X50491Y25426D01*
X50439Y25367D01*
X50380Y25302D01*
X50308Y25236D01*
X50235Y25164D01*
X50150Y25105D01*
X50137Y25098D01*
X50111Y25079D01*
X50065Y25052D01*
X49999Y25020D01*
X49921Y24980D01*
X49829Y24948D01*
X49724Y24908D01*
X49606Y24875D01*
X49593D01*
X49573Y24869D01*
X49553Y24862D01*
X49488Y24856D01*
X49396Y24843D01*
X49291Y24829D01*
X49166Y24816D01*
X49028Y24810D01*
X48878Y24803D01*
X47244D01*
Y29343D01*
X48989D01*
X49107Y29336D01*
D02*
G37*
G36*
X53207Y29356D02*
X53260Y29349D01*
X53325Y29343D01*
X53397Y29330D01*
X53470Y29316D01*
X53640Y29270D01*
X53811Y29205D01*
X53896Y29166D01*
X53981Y29120D01*
X54060Y29061D01*
X54132Y28995D01*
X54139Y28988D01*
X54152Y28982D01*
X54165Y28956D01*
X54191Y28929D01*
X54224Y28897D01*
X54257Y28851D01*
X54290Y28805D01*
X54329Y28746D01*
X54395Y28621D01*
X54460Y28464D01*
X54486Y28385D01*
X54500Y28293D01*
X54513Y28201D01*
X54519Y28103D01*
Y28090D01*
Y28057D01*
X54513Y28004D01*
X54506Y27932D01*
X54493Y27854D01*
X54467Y27762D01*
X54440Y27663D01*
X54401Y27565D01*
X54395Y27552D01*
X54381Y27519D01*
X54355Y27466D01*
X54316Y27394D01*
X54263Y27316D01*
X54198Y27217D01*
X54119Y27119D01*
X54027Y27007D01*
X54014Y26994D01*
X53981Y26955D01*
X53948Y26922D01*
X53916Y26889D01*
X53876Y26850D01*
X53824Y26797D01*
X53771Y26745D01*
X53706Y26686D01*
X53640Y26620D01*
X53561Y26548D01*
X53476Y26476D01*
X53384Y26391D01*
X53279Y26305D01*
X53174Y26213D01*
X53168Y26207D01*
X53155Y26194D01*
X53128Y26174D01*
X53096Y26148D01*
X53056Y26109D01*
X53010Y26069D01*
X52905Y25984D01*
X52794Y25886D01*
X52689Y25787D01*
X52597Y25702D01*
X52558Y25669D01*
X52525Y25636D01*
X52518Y25630D01*
X52499Y25610D01*
X52472Y25584D01*
X52440Y25544D01*
X52407Y25499D01*
X52367Y25453D01*
X52289Y25341D01*
X54526D01*
Y24803D01*
X51515D01*
Y24810D01*
Y24836D01*
Y24875D01*
X51521Y24928D01*
X51528Y24987D01*
X51541Y25052D01*
X51554Y25118D01*
X51580Y25190D01*
Y25197D01*
X51587Y25203D01*
X51600Y25243D01*
X51626Y25302D01*
X51666Y25380D01*
X51718Y25472D01*
X51784Y25577D01*
X51856Y25682D01*
X51948Y25794D01*
Y25800D01*
X51961Y25807D01*
X51994Y25846D01*
X52053Y25905D01*
X52138Y25991D01*
X52236Y26089D01*
X52361Y26207D01*
X52512Y26338D01*
X52676Y26476D01*
X52682Y26482D01*
X52709Y26502D01*
X52748Y26535D01*
X52794Y26574D01*
X52853Y26627D01*
X52925Y26686D01*
X52997Y26752D01*
X53083Y26824D01*
X53246Y26981D01*
X53411Y27139D01*
X53489Y27217D01*
X53561Y27296D01*
X53627Y27368D01*
X53679Y27440D01*
Y27447D01*
X53693Y27453D01*
X53706Y27473D01*
X53719Y27499D01*
X53765Y27571D01*
X53817Y27657D01*
X53863Y27762D01*
X53909Y27873D01*
X53935Y27998D01*
X53948Y28116D01*
Y28122D01*
Y28129D01*
X53942Y28168D01*
X53935Y28234D01*
X53916Y28306D01*
X53889Y28398D01*
X53843Y28490D01*
X53784Y28582D01*
X53706Y28674D01*
X53693Y28687D01*
X53660Y28713D01*
X53614Y28746D01*
X53542Y28792D01*
X53450Y28831D01*
X53345Y28870D01*
X53220Y28897D01*
X53083Y28903D01*
X53043D01*
X53017Y28897D01*
X52938Y28890D01*
X52846Y28870D01*
X52748Y28844D01*
X52636Y28798D01*
X52531Y28739D01*
X52433Y28660D01*
X52420Y28647D01*
X52394Y28615D01*
X52354Y28562D01*
X52315Y28483D01*
X52269Y28392D01*
X52230Y28273D01*
X52203Y28142D01*
X52190Y27991D01*
X51620Y28050D01*
Y28057D01*
X51626Y28077D01*
Y28109D01*
X51633Y28155D01*
X51646Y28208D01*
X51659Y28267D01*
X51679Y28339D01*
X51698Y28411D01*
X51751Y28569D01*
X51829Y28726D01*
X51876Y28805D01*
X51934Y28883D01*
X51994Y28956D01*
X52059Y29021D01*
X52066Y29028D01*
X52079Y29034D01*
X52099Y29054D01*
X52131Y29074D01*
X52171Y29100D01*
X52217Y29126D01*
X52269Y29159D01*
X52335Y29192D01*
X52407Y29225D01*
X52486Y29257D01*
X52571Y29284D01*
X52663Y29310D01*
X52761Y29330D01*
X52866Y29349D01*
X52978Y29356D01*
X53096Y29362D01*
X53161D01*
X53207Y29356D01*
D02*
G37*
G36*
X20090Y93135D02*
X20143Y93129D01*
X20202Y93122D01*
X20267Y93116D01*
X20333Y93096D01*
X20491Y93057D01*
X20648Y92998D01*
X20727Y92958D01*
X20805Y92912D01*
X20877Y92853D01*
X20950Y92794D01*
X20956Y92788D01*
X20963Y92781D01*
X20982Y92761D01*
X21009Y92735D01*
X21035Y92696D01*
X21068Y92656D01*
X21133Y92558D01*
X21199Y92433D01*
X21258Y92289D01*
X21304Y92125D01*
X21310Y92040D01*
X21317Y91948D01*
Y91941D01*
Y91935D01*
Y91896D01*
X21310Y91836D01*
X21297Y91764D01*
X21278Y91672D01*
X21245Y91581D01*
X21205Y91489D01*
X21147Y91397D01*
X21140Y91384D01*
X21114Y91358D01*
X21074Y91318D01*
X21022Y91266D01*
X20950Y91207D01*
X20864Y91148D01*
X20766Y91089D01*
X20648Y91036D01*
X20654D01*
X20668Y91030D01*
X20687Y91023D01*
X20714Y91010D01*
X20792Y90977D01*
X20884Y90931D01*
X20982Y90866D01*
X21088Y90793D01*
X21186Y90702D01*
X21278Y90597D01*
Y90590D01*
X21284Y90583D01*
X21310Y90544D01*
X21350Y90478D01*
X21389Y90393D01*
X21429Y90288D01*
X21468Y90164D01*
X21494Y90026D01*
X21501Y89875D01*
Y89868D01*
Y89849D01*
Y89816D01*
X21494Y89777D01*
X21488Y89731D01*
X21481Y89672D01*
X21468Y89606D01*
X21448Y89534D01*
X21402Y89383D01*
X21370Y89298D01*
X21324Y89219D01*
X21278Y89134D01*
X21225Y89055D01*
X21160Y88976D01*
X21088Y88898D01*
X21081Y88891D01*
X21068Y88878D01*
X21048Y88858D01*
X21015Y88838D01*
X20969Y88806D01*
X20923Y88773D01*
X20864Y88740D01*
X20799Y88701D01*
X20727Y88661D01*
X20641Y88629D01*
X20549Y88596D01*
X20458Y88563D01*
X20353Y88543D01*
X20241Y88524D01*
X20130Y88511D01*
X20005Y88504D01*
X19940D01*
X19894Y88511D01*
X19835Y88517D01*
X19769Y88524D01*
X19697Y88537D01*
X19618Y88556D01*
X19441Y88602D01*
X19349Y88635D01*
X19264Y88668D01*
X19172Y88714D01*
X19080Y88766D01*
X18995Y88825D01*
X18916Y88898D01*
X18910Y88904D01*
X18896Y88917D01*
X18877Y88937D01*
X18850Y88970D01*
X18824Y89009D01*
X18785Y89055D01*
X18752Y89108D01*
X18713Y89173D01*
X18673Y89239D01*
X18641Y89317D01*
X18575Y89481D01*
X18549Y89580D01*
X18529Y89678D01*
X18516Y89783D01*
X18509Y89888D01*
Y89895D01*
Y89908D01*
Y89934D01*
X18516Y89960D01*
Y90000D01*
X18522Y90046D01*
X18536Y90150D01*
X18562Y90269D01*
X18601Y90387D01*
X18660Y90511D01*
X18732Y90629D01*
Y90636D01*
X18746Y90642D01*
X18772Y90675D01*
X18824Y90728D01*
X18896Y90793D01*
X18988Y90859D01*
X19100Y90931D01*
X19224Y90990D01*
X19375Y91036D01*
X19369D01*
X19362Y91043D01*
X19342Y91049D01*
X19316Y91062D01*
X19257Y91089D01*
X19178Y91128D01*
X19093Y91180D01*
X19008Y91246D01*
X18929Y91318D01*
X18857Y91397D01*
X18850Y91410D01*
X18831Y91436D01*
X18805Y91489D01*
X18778Y91554D01*
X18746Y91640D01*
X18719Y91738D01*
X18700Y91850D01*
X18693Y91968D01*
Y91974D01*
Y91987D01*
Y92014D01*
X18700Y92053D01*
X18706Y92092D01*
X18713Y92145D01*
X18739Y92256D01*
X18778Y92387D01*
X18844Y92525D01*
X18883Y92597D01*
X18929Y92670D01*
X18988Y92735D01*
X19047Y92801D01*
X19054Y92807D01*
X19067Y92814D01*
X19087Y92834D01*
X19113Y92853D01*
X19146Y92879D01*
X19192Y92906D01*
X19244Y92939D01*
X19297Y92971D01*
X19362Y93004D01*
X19434Y93037D01*
X19513Y93063D01*
X19598Y93089D01*
X19782Y93129D01*
X19887Y93135D01*
X19992Y93142D01*
X20051D01*
X20090Y93135D01*
D02*
G37*
G36*
X24803Y151415D02*
X21254D01*
X21261Y151408D01*
X21287Y151375D01*
X21326Y151336D01*
X21372Y151270D01*
X21431Y151198D01*
X21497Y151106D01*
X21569Y151001D01*
X21641Y150883D01*
Y150877D01*
X21648Y150870D01*
X21674Y150831D01*
X21707Y150765D01*
X21746Y150687D01*
X21792Y150595D01*
X21838Y150496D01*
X21884Y150398D01*
X21923Y150299D01*
X21385D01*
Y150306D01*
X21372Y150319D01*
X21366Y150345D01*
X21346Y150378D01*
X21326Y150417D01*
X21300Y150463D01*
X21235Y150575D01*
X21162Y150706D01*
X21070Y150837D01*
X20966Y150975D01*
X20854Y151113D01*
X20847Y151119D01*
X20841Y151126D01*
X20821Y151146D01*
X20802Y151172D01*
X20736Y151231D01*
X20657Y151310D01*
X20565Y151388D01*
X20460Y151474D01*
X20356Y151546D01*
X20244Y151611D01*
Y151972D01*
X24803D01*
Y151415D01*
D02*
G37*
G36*
X109684Y27387D02*
X109736Y27381D01*
X109801Y27374D01*
X109874Y27361D01*
X109946Y27348D01*
X110116Y27302D01*
X110287Y27236D01*
X110372Y27197D01*
X110458Y27151D01*
X110536Y27092D01*
X110608Y27027D01*
X110615Y27020D01*
X110628Y27013D01*
X110641Y26987D01*
X110668Y26961D01*
X110700Y26928D01*
X110733Y26882D01*
X110766Y26836D01*
X110805Y26777D01*
X110871Y26653D01*
X110936Y26495D01*
X110963Y26416D01*
X110976Y26325D01*
X110989Y26233D01*
X110995Y26134D01*
Y26121D01*
Y26088D01*
X110989Y26036D01*
X110982Y25964D01*
X110969Y25885D01*
X110943Y25793D01*
X110917Y25695D01*
X110877Y25596D01*
X110871Y25583D01*
X110858Y25550D01*
X110831Y25498D01*
X110792Y25426D01*
X110740Y25347D01*
X110674Y25249D01*
X110595Y25150D01*
X110503Y25039D01*
X110490Y25026D01*
X110458Y24986D01*
X110425Y24953D01*
X110392Y24921D01*
X110353Y24881D01*
X110300Y24829D01*
X110248Y24776D01*
X110182Y24717D01*
X110116Y24652D01*
X110038Y24580D01*
X109952Y24508D01*
X109861Y24422D01*
X109756Y24337D01*
X109651Y24245D01*
X109644Y24238D01*
X109631Y24225D01*
X109605Y24206D01*
X109572Y24179D01*
X109533Y24140D01*
X109487Y24101D01*
X109382Y24015D01*
X109270Y23917D01*
X109165Y23819D01*
X109073Y23733D01*
X109034Y23701D01*
X109001Y23668D01*
X108995Y23661D01*
X108975Y23641D01*
X108949Y23615D01*
X108916Y23576D01*
X108883Y23530D01*
X108844Y23484D01*
X108765Y23373D01*
X111002D01*
Y22835D01*
X107991D01*
Y22841D01*
Y22867D01*
Y22907D01*
X107998Y22959D01*
X108004Y23018D01*
X108017Y23084D01*
X108030Y23149D01*
X108057Y23222D01*
Y23228D01*
X108063Y23235D01*
X108076Y23274D01*
X108103Y23333D01*
X108142Y23412D01*
X108194Y23504D01*
X108260Y23609D01*
X108332Y23714D01*
X108424Y23825D01*
Y23832D01*
X108437Y23838D01*
X108470Y23878D01*
X108529Y23937D01*
X108614Y24022D01*
X108713Y24120D01*
X108837Y24238D01*
X108988Y24370D01*
X109152Y24508D01*
X109159Y24514D01*
X109185Y24534D01*
X109224Y24566D01*
X109270Y24606D01*
X109329Y24658D01*
X109401Y24717D01*
X109474Y24783D01*
X109559Y24855D01*
X109723Y25013D01*
X109887Y25170D01*
X109966Y25249D01*
X110038Y25327D01*
X110103Y25400D01*
X110156Y25472D01*
Y25478D01*
X110169Y25485D01*
X110182Y25505D01*
X110195Y25531D01*
X110241Y25603D01*
X110294Y25688D01*
X110339Y25793D01*
X110385Y25905D01*
X110412Y26029D01*
X110425Y26147D01*
Y26154D01*
Y26161D01*
X110418Y26200D01*
X110412Y26265D01*
X110392Y26338D01*
X110366Y26430D01*
X110320Y26521D01*
X110261Y26613D01*
X110182Y26705D01*
X110169Y26718D01*
X110136Y26744D01*
X110090Y26777D01*
X110018Y26823D01*
X109926Y26862D01*
X109821Y26902D01*
X109697Y26928D01*
X109559Y26935D01*
X109520D01*
X109493Y26928D01*
X109415Y26921D01*
X109323Y26902D01*
X109224Y26876D01*
X109113Y26830D01*
X109008Y26771D01*
X108909Y26692D01*
X108896Y26679D01*
X108870Y26646D01*
X108831Y26594D01*
X108791Y26515D01*
X108745Y26423D01*
X108706Y26305D01*
X108680Y26174D01*
X108667Y26023D01*
X108096Y26082D01*
Y26088D01*
X108103Y26108D01*
Y26141D01*
X108109Y26187D01*
X108122Y26239D01*
X108135Y26298D01*
X108155Y26370D01*
X108175Y26443D01*
X108227Y26600D01*
X108306Y26757D01*
X108352Y26836D01*
X108411Y26915D01*
X108470Y26987D01*
X108536Y27053D01*
X108542Y27059D01*
X108555Y27066D01*
X108575Y27086D01*
X108608Y27105D01*
X108647Y27132D01*
X108693Y27158D01*
X108745Y27191D01*
X108811Y27223D01*
X108883Y27256D01*
X108962Y27289D01*
X109047Y27315D01*
X109139Y27341D01*
X109237Y27361D01*
X109342Y27381D01*
X109454Y27387D01*
X109572Y27394D01*
X109638D01*
X109684Y27387D01*
D02*
G37*
G36*
X13493Y6981D02*
X13545D01*
X13668Y6976D01*
X13796Y6958D01*
X13936Y6940D01*
X14064Y6911D01*
X14128Y6894D01*
X14181Y6876D01*
X14187D01*
X14193Y6870D01*
X14227Y6853D01*
X14280Y6830D01*
X14344Y6789D01*
X14414Y6736D01*
X14490Y6667D01*
X14560Y6585D01*
X14630Y6492D01*
Y6486D01*
X14636Y6480D01*
X14659Y6445D01*
X14682Y6387D01*
X14717Y6311D01*
X14746Y6223D01*
X14775Y6118D01*
X14793Y6008D01*
X14799Y5885D01*
Y5879D01*
Y5868D01*
Y5844D01*
X14793Y5815D01*
Y5774D01*
X14787Y5734D01*
X14764Y5635D01*
X14729Y5518D01*
X14682Y5395D01*
X14612Y5273D01*
X14566Y5215D01*
X14519Y5156D01*
X14513Y5151D01*
X14507Y5145D01*
X14490Y5127D01*
X14467Y5110D01*
X14437Y5086D01*
X14402Y5063D01*
X14356Y5034D01*
X14309Y4999D01*
X14251Y4970D01*
X14187Y4941D01*
X14117Y4906D01*
X14041Y4877D01*
X13953Y4853D01*
X13866Y4824D01*
X13767Y4807D01*
X13662Y4789D01*
X13674Y4783D01*
X13697Y4772D01*
X13732Y4748D01*
X13779Y4725D01*
X13883Y4661D01*
X13936Y4620D01*
X13983Y4585D01*
X13994Y4574D01*
X14023Y4544D01*
X14070Y4498D01*
X14128Y4439D01*
X14193Y4358D01*
X14268Y4270D01*
X14344Y4165D01*
X14426Y4049D01*
X15119Y2953D01*
X14455D01*
X13924Y3792D01*
Y3798D01*
X13913Y3810D01*
X13901Y3827D01*
X13883Y3851D01*
X13843Y3915D01*
X13790Y3996D01*
X13726Y4084D01*
X13662Y4177D01*
X13598Y4264D01*
X13540Y4346D01*
X13534Y4352D01*
X13516Y4375D01*
X13487Y4410D01*
X13446Y4451D01*
X13359Y4538D01*
X13312Y4579D01*
X13265Y4614D01*
X13260Y4620D01*
X13248Y4626D01*
X13225Y4638D01*
X13190Y4655D01*
X13155Y4673D01*
X13114Y4690D01*
X13021Y4719D01*
X13015D01*
X13003Y4725D01*
X12980D01*
X12951Y4731D01*
X12910Y4737D01*
X12863D01*
X12799Y4743D01*
X12111D01*
Y2953D01*
X11575D01*
Y6987D01*
X13446D01*
X13493Y6981D01*
D02*
G37*
G36*
X20005Y6999D02*
X20081Y6987D01*
X20168Y6970D01*
X20261Y6946D01*
X20361Y6917D01*
X20454Y6870D01*
X20460D01*
X20466Y6865D01*
X20495Y6847D01*
X20541Y6818D01*
X20600Y6777D01*
X20664Y6719D01*
X20734Y6655D01*
X20798Y6579D01*
X20862Y6492D01*
X20868Y6480D01*
X20891Y6451D01*
X20914Y6398D01*
X20955Y6323D01*
X20990Y6235D01*
X21037Y6136D01*
X21078Y6019D01*
X21113Y5891D01*
Y5885D01*
X21118Y5874D01*
X21124Y5856D01*
X21130Y5827D01*
X21136Y5792D01*
X21142Y5751D01*
X21154Y5699D01*
X21159Y5640D01*
X21171Y5576D01*
X21177Y5506D01*
X21183Y5425D01*
X21194Y5343D01*
X21200Y5250D01*
Y5156D01*
X21206Y5052D01*
Y4941D01*
Y4935D01*
Y4912D01*
Y4871D01*
Y4824D01*
X21200Y4760D01*
Y4690D01*
X21194Y4614D01*
X21189Y4533D01*
X21171Y4346D01*
X21142Y4154D01*
X21107Y3967D01*
X21083Y3880D01*
X21054Y3792D01*
Y3786D01*
X21049Y3775D01*
X21037Y3751D01*
X21025Y3722D01*
X21014Y3681D01*
X20990Y3641D01*
X20944Y3542D01*
X20885Y3437D01*
X20809Y3320D01*
X20722Y3215D01*
X20617Y3116D01*
X20611D01*
X20606Y3104D01*
X20588Y3093D01*
X20565Y3081D01*
X20536Y3063D01*
X20506Y3040D01*
X20419Y2999D01*
X20314Y2959D01*
X20191Y2918D01*
X20046Y2895D01*
X19888Y2883D01*
X19830D01*
X19789Y2889D01*
X19743Y2895D01*
X19684Y2906D01*
X19620Y2918D01*
X19550Y2935D01*
X19480Y2959D01*
X19405Y2982D01*
X19329Y3017D01*
X19253Y3058D01*
X19177Y3104D01*
X19101Y3163D01*
X19031Y3227D01*
X18967Y3297D01*
X18961Y3303D01*
X18950Y3320D01*
X18932Y3349D01*
X18903Y3396D01*
X18874Y3448D01*
X18845Y3518D01*
X18804Y3600D01*
X18769Y3693D01*
X18734Y3798D01*
X18699Y3920D01*
X18664Y4055D01*
X18635Y4206D01*
X18606Y4369D01*
X18588Y4544D01*
X18577Y4737D01*
X18571Y4941D01*
Y4947D01*
Y4970D01*
Y5011D01*
Y5057D01*
X18577Y5122D01*
Y5192D01*
X18583Y5267D01*
X18588Y5355D01*
X18606Y5536D01*
X18635Y5728D01*
X18670Y5920D01*
X18693Y6008D01*
X18717Y6095D01*
Y6101D01*
X18722Y6113D01*
X18734Y6136D01*
X18746Y6165D01*
X18757Y6206D01*
X18781Y6247D01*
X18827Y6346D01*
X18886Y6451D01*
X18961Y6561D01*
X19049Y6672D01*
X19154Y6766D01*
X19160D01*
X19165Y6777D01*
X19183Y6789D01*
X19206Y6801D01*
X19235Y6824D01*
X19270Y6841D01*
X19358Y6888D01*
X19463Y6929D01*
X19585Y6970D01*
X19731Y6993D01*
X19888Y7005D01*
X19941D01*
X20005Y6999D01*
D02*
G37*
G36*
X118995Y135058D02*
X120694Y132677D01*
X119953D01*
X118805Y134291D01*
X118799Y134298D01*
X118786Y134317D01*
X118772Y134343D01*
X118746Y134376D01*
X118687Y134468D01*
X118622Y134566D01*
X118615Y134560D01*
X118595Y134534D01*
X118569Y134494D01*
X118536Y134442D01*
X118464Y134337D01*
X118431Y134291D01*
X118405Y134252D01*
X117257Y132677D01*
X116535D01*
X118287Y135026D01*
X116739Y137217D01*
X117454D01*
X118280Y136049D01*
Y136042D01*
X118293Y136036D01*
X118307Y136016D01*
X118326Y135990D01*
X118366Y135924D01*
X118425Y135846D01*
X118484Y135754D01*
X118543Y135662D01*
X118595Y135577D01*
X118641Y135498D01*
X118648Y135511D01*
X118667Y135537D01*
X118700Y135590D01*
X118746Y135655D01*
X118799Y135728D01*
X118864Y135819D01*
X118930Y135911D01*
X119009Y136010D01*
X119914Y137217D01*
X120570D01*
X118995Y135058D01*
D02*
G37*
G36*
X17300Y2953D02*
X16804D01*
Y6107D01*
X16799Y6101D01*
X16769Y6078D01*
X16734Y6043D01*
X16676Y6002D01*
X16612Y5949D01*
X16530Y5891D01*
X16437Y5827D01*
X16332Y5763D01*
X16326D01*
X16320Y5757D01*
X16285Y5734D01*
X16227Y5705D01*
X16157Y5669D01*
X16076Y5629D01*
X15988Y5588D01*
X15901Y5547D01*
X15813Y5512D01*
Y5990D01*
X15819D01*
X15831Y6002D01*
X15854Y6008D01*
X15883Y6025D01*
X15918Y6043D01*
X15959Y6066D01*
X16058Y6124D01*
X16175Y6188D01*
X16291Y6270D01*
X16414Y6363D01*
X16536Y6462D01*
X16542Y6468D01*
X16548Y6474D01*
X16565Y6492D01*
X16589Y6509D01*
X16641Y6567D01*
X16711Y6637D01*
X16781Y6719D01*
X16857Y6812D01*
X16921Y6905D01*
X16979Y7005D01*
X17300D01*
Y2953D01*
D02*
G37*
G36*
X24419Y26772D02*
X3150D01*
Y31693D01*
X24419D01*
Y26772D01*
D02*
G37*
G36*
X18232Y112992D02*
X17674D01*
Y116541D01*
X17668Y116534D01*
X17635Y116508D01*
X17596Y116469D01*
X17530Y116423D01*
X17458Y116364D01*
X17366Y116298D01*
X17261Y116226D01*
X17143Y116154D01*
X17136D01*
X17130Y116147D01*
X17091Y116121D01*
X17025Y116088D01*
X16946Y116049D01*
X16854Y116003D01*
X16756Y115957D01*
X16658Y115911D01*
X16559Y115872D01*
Y116410D01*
X16566D01*
X16579Y116423D01*
X16605Y116430D01*
X16638Y116449D01*
X16677Y116469D01*
X16723Y116495D01*
X16835Y116561D01*
X16966Y116633D01*
X17097Y116725D01*
X17235Y116830D01*
X17373Y116941D01*
X17379Y116948D01*
X17386Y116954D01*
X17405Y116974D01*
X17432Y116994D01*
X17491Y117059D01*
X17570Y117138D01*
X17648Y117230D01*
X17733Y117335D01*
X17806Y117440D01*
X17871Y117551D01*
X18232D01*
Y112992D01*
D02*
G37*
G36*
X13647Y117525D02*
X13778Y117518D01*
X13909Y117505D01*
X14040Y117486D01*
X14152Y117466D01*
X14158D01*
X14171Y117459D01*
X14191D01*
X14217Y117446D01*
X14289Y117427D01*
X14381Y117394D01*
X14486Y117348D01*
X14598Y117289D01*
X14709Y117223D01*
X14814Y117138D01*
X14821Y117131D01*
X14827Y117125D01*
X14847Y117105D01*
X14873Y117086D01*
X14939Y117020D01*
X15018Y116928D01*
X15103Y116817D01*
X15195Y116685D01*
X15280Y116534D01*
X15352Y116364D01*
Y116357D01*
X15359Y116344D01*
X15372Y116318D01*
X15379Y116279D01*
X15398Y116233D01*
X15411Y116180D01*
X15424Y116121D01*
X15444Y116049D01*
X15464Y115977D01*
X15477Y115892D01*
X15510Y115708D01*
X15529Y115505D01*
X15536Y115282D01*
Y115275D01*
Y115262D01*
Y115229D01*
Y115196D01*
X15529Y115150D01*
Y115098D01*
X15523Y114973D01*
X15503Y114829D01*
X15483Y114678D01*
X15451Y114521D01*
X15411Y114363D01*
Y114357D01*
X15405Y114344D01*
X15398Y114324D01*
X15392Y114298D01*
X15365Y114225D01*
X15326Y114134D01*
X15287Y114029D01*
X15234Y113924D01*
X15168Y113812D01*
X15103Y113707D01*
X15096Y113694D01*
X15070Y113661D01*
X15031Y113615D01*
X14978Y113556D01*
X14919Y113491D01*
X14847Y113425D01*
X14775Y113353D01*
X14690Y113294D01*
X14676Y113287D01*
X14650Y113268D01*
X14604Y113241D01*
X14539Y113209D01*
X14460Y113169D01*
X14368Y113136D01*
X14263Y113097D01*
X14145Y113064D01*
X14132D01*
X14112Y113058D01*
X14093Y113051D01*
X14027Y113045D01*
X13935Y113031D01*
X13830Y113018D01*
X13706Y113005D01*
X13568Y112999D01*
X13417Y112992D01*
X11784D01*
Y117532D01*
X13529D01*
X13647Y117525D01*
D02*
G37*
G36*
X9468Y112992D02*
X8838D01*
X7080Y117532D01*
X7736D01*
X8917Y114232D01*
Y114225D01*
X8923Y114212D01*
X8930Y114193D01*
X8943Y114166D01*
X8950Y114127D01*
X8963Y114088D01*
X8996Y113989D01*
X9035Y113878D01*
X9074Y113753D01*
X9153Y113491D01*
Y113497D01*
X9160Y113510D01*
X9166Y113530D01*
X9173Y113556D01*
X9192Y113628D01*
X9225Y113727D01*
X9258Y113838D01*
X9297Y113963D01*
X9343Y114094D01*
X9396Y114232D01*
X10629Y117532D01*
X11239D01*
X9468Y112992D01*
D02*
G37*
G36*
X35321Y72722D02*
X35380Y72715D01*
X35452Y72709D01*
X35524Y72702D01*
X35610Y72683D01*
X35787Y72643D01*
X35983Y72584D01*
X36082Y72545D01*
X36174Y72499D01*
X36266Y72440D01*
X36357Y72381D01*
X36364Y72374D01*
X36377Y72368D01*
X36403Y72348D01*
X36436Y72315D01*
X36469Y72282D01*
X36515Y72237D01*
X36561Y72184D01*
X36613Y72132D01*
X36666Y72066D01*
X36718Y71987D01*
X36777Y71908D01*
X36830Y71823D01*
X36876Y71725D01*
X36928Y71626D01*
X36968Y71521D01*
X37007Y71403D01*
X36417Y71266D01*
Y71272D01*
X36410Y71285D01*
X36397Y71311D01*
X36384Y71344D01*
X36371Y71384D01*
X36351Y71436D01*
X36298Y71541D01*
X36233Y71659D01*
X36154Y71777D01*
X36056Y71889D01*
X35951Y71987D01*
X35938Y72000D01*
X35898Y72027D01*
X35833Y72059D01*
X35747Y72105D01*
X35636Y72145D01*
X35511Y72184D01*
X35360Y72210D01*
X35196Y72217D01*
X35144D01*
X35111Y72210D01*
X35065D01*
X35013Y72204D01*
X34888Y72184D01*
X34750Y72158D01*
X34606Y72112D01*
X34455Y72046D01*
X34317Y71961D01*
X34311D01*
X34304Y71948D01*
X34258Y71915D01*
X34199Y71863D01*
X34127Y71784D01*
X34042Y71685D01*
X33963Y71574D01*
X33891Y71436D01*
X33825Y71285D01*
Y71279D01*
X33819Y71266D01*
X33812Y71246D01*
X33806Y71213D01*
X33792Y71174D01*
X33779Y71128D01*
X33760Y71016D01*
X33733Y70885D01*
X33707Y70741D01*
X33694Y70583D01*
X33687Y70413D01*
Y70406D01*
Y70387D01*
Y70354D01*
Y70314D01*
X33694Y70268D01*
Y70209D01*
X33701Y70144D01*
X33707Y70072D01*
X33727Y69914D01*
X33760Y69744D01*
X33799Y69573D01*
X33852Y69403D01*
Y69396D01*
X33858Y69383D01*
X33871Y69363D01*
X33884Y69330D01*
X33924Y69252D01*
X33983Y69160D01*
X34055Y69055D01*
X34147Y68943D01*
X34252Y68845D01*
X34376Y68753D01*
X34383D01*
X34396Y68747D01*
X34416Y68733D01*
X34442Y68720D01*
X34475Y68707D01*
X34514Y68687D01*
X34606Y68648D01*
X34724Y68609D01*
X34855Y68576D01*
X34999Y68550D01*
X35150Y68543D01*
X35196D01*
X35236Y68550D01*
X35282D01*
X35328Y68556D01*
X35446Y68583D01*
X35583Y68615D01*
X35721Y68668D01*
X35865Y68740D01*
X35938Y68779D01*
X36003Y68832D01*
X36010Y68838D01*
X36016Y68845D01*
X36036Y68865D01*
X36062Y68884D01*
X36088Y68917D01*
X36121Y68957D01*
X36161Y68996D01*
X36193Y69048D01*
X36233Y69107D01*
X36279Y69173D01*
X36318Y69239D01*
X36357Y69317D01*
X36390Y69403D01*
X36423Y69494D01*
X36456Y69593D01*
X36482Y69698D01*
X37086Y69547D01*
Y69540D01*
X37079Y69514D01*
X37066Y69475D01*
X37046Y69422D01*
X37027Y69363D01*
X37000Y69291D01*
X36968Y69212D01*
X36928Y69127D01*
X36836Y68943D01*
X36718Y68760D01*
X36646Y68668D01*
X36574Y68576D01*
X36495Y68497D01*
X36403Y68419D01*
X36397Y68412D01*
X36384Y68399D01*
X36351Y68386D01*
X36318Y68360D01*
X36266Y68327D01*
X36213Y68294D01*
X36141Y68261D01*
X36069Y68228D01*
X35983Y68189D01*
X35892Y68156D01*
X35793Y68123D01*
X35688Y68091D01*
X35577Y68064D01*
X35459Y68051D01*
X35334Y68038D01*
X35203Y68032D01*
X35131D01*
X35078Y68038D01*
X35019D01*
X34947Y68045D01*
X34868Y68058D01*
X34776Y68071D01*
X34586Y68104D01*
X34389Y68156D01*
X34193Y68228D01*
X34101Y68274D01*
X34009Y68327D01*
X34002Y68333D01*
X33989Y68340D01*
X33963Y68360D01*
X33937Y68386D01*
X33897Y68412D01*
X33852Y68451D01*
X33799Y68497D01*
X33747Y68550D01*
X33694Y68609D01*
X33635Y68668D01*
X33517Y68819D01*
X33405Y68996D01*
X33307Y69193D01*
Y69199D01*
X33294Y69219D01*
X33287Y69252D01*
X33268Y69291D01*
X33255Y69344D01*
X33235Y69409D01*
X33209Y69481D01*
X33189Y69560D01*
X33169Y69645D01*
X33143Y69744D01*
X33110Y69947D01*
X33084Y70177D01*
X33071Y70413D01*
Y70419D01*
Y70446D01*
Y70485D01*
X33077Y70531D01*
Y70596D01*
X33084Y70662D01*
X33091Y70747D01*
X33104Y70833D01*
X33136Y71023D01*
X33182Y71233D01*
X33248Y71443D01*
X33340Y71646D01*
X33346Y71653D01*
X33353Y71672D01*
X33366Y71699D01*
X33392Y71731D01*
X33419Y71777D01*
X33451Y71830D01*
X33537Y71948D01*
X33648Y72079D01*
X33779Y72210D01*
X33930Y72341D01*
X34107Y72453D01*
X34114Y72460D01*
X34134Y72466D01*
X34160Y72479D01*
X34193Y72499D01*
X34245Y72519D01*
X34298Y72538D01*
X34363Y72565D01*
X34435Y72591D01*
X34514Y72617D01*
X34599Y72643D01*
X34783Y72683D01*
X34993Y72715D01*
X35209Y72729D01*
X35275D01*
X35321Y72722D01*
D02*
G37*
G36*
X113653Y9449D02*
X113096D01*
Y12998D01*
X113089Y12991D01*
X113056Y12965D01*
X113017Y12926D01*
X112951Y12880D01*
X112879Y12821D01*
X112787Y12755D01*
X112682Y12683D01*
X112564Y12611D01*
X112558D01*
X112551Y12604D01*
X112512Y12578D01*
X112446Y12545D01*
X112367Y12506D01*
X112276Y12460D01*
X112177Y12414D01*
X112079Y12368D01*
X111980Y12329D01*
Y12867D01*
X111987D01*
X112000Y12880D01*
X112026Y12886D01*
X112059Y12906D01*
X112099Y12926D01*
X112144Y12952D01*
X112256Y13017D01*
X112387Y13090D01*
X112518Y13182D01*
X112656Y13286D01*
X112794Y13398D01*
X112800Y13405D01*
X112807Y13411D01*
X112827Y13431D01*
X112853Y13450D01*
X112912Y13516D01*
X112991Y13595D01*
X113069Y13687D01*
X113155Y13792D01*
X113227Y13896D01*
X113292Y14008D01*
X113653D01*
Y9449D01*
D02*
G37*
G36*
X105793Y27446D02*
X105852Y27440D01*
X105925Y27433D01*
X105997Y27427D01*
X106082Y27407D01*
X106259Y27368D01*
X106456Y27309D01*
X106554Y27269D01*
X106646Y27223D01*
X106738Y27164D01*
X106830Y27105D01*
X106836Y27099D01*
X106850Y27092D01*
X106876Y27072D01*
X106909Y27040D01*
X106941Y27007D01*
X106987Y26961D01*
X107033Y26908D01*
X107086Y26856D01*
X107138Y26790D01*
X107191Y26712D01*
X107250Y26633D01*
X107302Y26548D01*
X107348Y26449D01*
X107401Y26351D01*
X107440Y26246D01*
X107479Y26128D01*
X106889Y25990D01*
Y25997D01*
X106882Y26010D01*
X106869Y26036D01*
X106856Y26069D01*
X106843Y26108D01*
X106823Y26161D01*
X106771Y26265D01*
X106705Y26384D01*
X106626Y26502D01*
X106528Y26613D01*
X106423Y26712D01*
X106410Y26725D01*
X106371Y26751D01*
X106305Y26784D01*
X106220Y26830D01*
X106108Y26869D01*
X105984Y26908D01*
X105833Y26935D01*
X105669Y26941D01*
X105616D01*
X105584Y26935D01*
X105538D01*
X105485Y26928D01*
X105360Y26908D01*
X105223Y26882D01*
X105078Y26836D01*
X104928Y26771D01*
X104790Y26685D01*
X104783D01*
X104777Y26672D01*
X104731Y26639D01*
X104672Y26587D01*
X104599Y26508D01*
X104514Y26410D01*
X104436Y26298D01*
X104363Y26161D01*
X104298Y26010D01*
Y26003D01*
X104291Y25990D01*
X104285Y25970D01*
X104278Y25938D01*
X104265Y25898D01*
X104252Y25852D01*
X104232Y25741D01*
X104206Y25609D01*
X104180Y25465D01*
X104166Y25308D01*
X104160Y25137D01*
Y25131D01*
Y25111D01*
Y25078D01*
Y25039D01*
X104166Y24993D01*
Y24934D01*
X104173Y24868D01*
X104180Y24796D01*
X104199Y24639D01*
X104232Y24468D01*
X104271Y24297D01*
X104324Y24127D01*
Y24120D01*
X104331Y24107D01*
X104344Y24088D01*
X104357Y24055D01*
X104396Y23976D01*
X104455Y23884D01*
X104527Y23779D01*
X104619Y23668D01*
X104724Y23569D01*
X104849Y23478D01*
X104855D01*
X104868Y23471D01*
X104888Y23458D01*
X104914Y23445D01*
X104947Y23432D01*
X104987Y23412D01*
X105078Y23373D01*
X105196Y23333D01*
X105328Y23300D01*
X105472Y23274D01*
X105623Y23268D01*
X105669D01*
X105708Y23274D01*
X105754D01*
X105800Y23281D01*
X105918Y23307D01*
X106056Y23340D01*
X106194Y23392D01*
X106338Y23464D01*
X106410Y23504D01*
X106476Y23556D01*
X106482Y23563D01*
X106489Y23569D01*
X106508Y23589D01*
X106535Y23609D01*
X106561Y23641D01*
X106594Y23681D01*
X106633Y23720D01*
X106666Y23773D01*
X106705Y23832D01*
X106751Y23897D01*
X106790Y23963D01*
X106830Y24042D01*
X106863Y24127D01*
X106895Y24219D01*
X106928Y24317D01*
X106955Y24422D01*
X107558Y24271D01*
Y24265D01*
X107552Y24238D01*
X107538Y24199D01*
X107519Y24147D01*
X107499Y24088D01*
X107473Y24015D01*
X107440Y23937D01*
X107401Y23851D01*
X107309Y23668D01*
X107191Y23484D01*
X107118Y23392D01*
X107046Y23300D01*
X106968Y23222D01*
X106876Y23143D01*
X106869Y23136D01*
X106856Y23123D01*
X106823Y23110D01*
X106790Y23084D01*
X106738Y23051D01*
X106685Y23018D01*
X106613Y22986D01*
X106541Y22953D01*
X106456Y22913D01*
X106364Y22881D01*
X106266Y22848D01*
X106161Y22815D01*
X106049Y22789D01*
X105931Y22776D01*
X105807Y22762D01*
X105675Y22756D01*
X105603D01*
X105551Y22762D01*
X105492D01*
X105420Y22769D01*
X105341Y22782D01*
X105249Y22795D01*
X105059Y22828D01*
X104862Y22881D01*
X104665Y22953D01*
X104573Y22999D01*
X104481Y23051D01*
X104475Y23058D01*
X104462Y23064D01*
X104436Y23084D01*
X104409Y23110D01*
X104370Y23136D01*
X104324Y23176D01*
X104271Y23222D01*
X104219Y23274D01*
X104166Y23333D01*
X104107Y23392D01*
X103989Y23543D01*
X103878Y23720D01*
X103779Y23917D01*
Y23924D01*
X103766Y23943D01*
X103760Y23976D01*
X103740Y24015D01*
X103727Y24068D01*
X103707Y24134D01*
X103681Y24206D01*
X103661Y24284D01*
X103642Y24370D01*
X103615Y24468D01*
X103583Y24671D01*
X103556Y24901D01*
X103543Y25137D01*
Y25144D01*
Y25170D01*
Y25209D01*
X103550Y25255D01*
Y25321D01*
X103556Y25387D01*
X103563Y25472D01*
X103576Y25557D01*
X103609Y25747D01*
X103655Y25957D01*
X103720Y26167D01*
X103812Y26370D01*
X103819Y26377D01*
X103825Y26397D01*
X103839Y26423D01*
X103865Y26456D01*
X103891Y26502D01*
X103924Y26554D01*
X104009Y26672D01*
X104121Y26803D01*
X104252Y26935D01*
X104403Y27066D01*
X104580Y27177D01*
X104586Y27184D01*
X104606Y27191D01*
X104632Y27204D01*
X104665Y27223D01*
X104718Y27243D01*
X104770Y27263D01*
X104836Y27289D01*
X104908Y27315D01*
X104987Y27341D01*
X105072Y27368D01*
X105255Y27407D01*
X105465Y27440D01*
X105682Y27453D01*
X105747D01*
X105793Y27446D01*
D02*
G37*
G36*
X39696Y68110D02*
X39139D01*
Y71659D01*
X39132Y71653D01*
X39099Y71626D01*
X39060Y71587D01*
X38995Y71541D01*
X38922Y71482D01*
X38831Y71416D01*
X38726Y71344D01*
X38607Y71272D01*
X38601D01*
X38594Y71266D01*
X38555Y71239D01*
X38489Y71207D01*
X38411Y71167D01*
X38319Y71121D01*
X38221Y71075D01*
X38122Y71029D01*
X38024Y70990D01*
Y71528D01*
X38030D01*
X38043Y71541D01*
X38070Y71548D01*
X38102Y71567D01*
X38142Y71587D01*
X38188Y71613D01*
X38299Y71679D01*
X38430Y71751D01*
X38562Y71843D01*
X38699Y71948D01*
X38837Y72059D01*
X38844Y72066D01*
X38850Y72072D01*
X38870Y72092D01*
X38896Y72112D01*
X38955Y72177D01*
X39034Y72256D01*
X39113Y72348D01*
X39198Y72453D01*
X39270Y72558D01*
X39336Y72669D01*
X39696D01*
Y68110D01*
D02*
G37*
G36*
X109547Y11830D02*
X111246Y9449D01*
X110504D01*
X109356Y11063D01*
X109350Y11069D01*
X109337Y11089D01*
X109324Y11115D01*
X109297Y11148D01*
X109238Y11240D01*
X109173Y11338D01*
X109166Y11332D01*
X109146Y11305D01*
X109120Y11266D01*
X109087Y11214D01*
X109015Y11108D01*
X108982Y11063D01*
X108956Y11023D01*
X107808Y9449D01*
X107087D01*
X108838Y11797D01*
X107290Y13988D01*
X108005D01*
X108832Y12821D01*
Y12814D01*
X108845Y12808D01*
X108858Y12788D01*
X108878Y12762D01*
X108917Y12696D01*
X108976Y12617D01*
X109035Y12526D01*
X109094Y12434D01*
X109146Y12348D01*
X109192Y12270D01*
X109199Y12283D01*
X109219Y12309D01*
X109251Y12361D01*
X109297Y12427D01*
X109350Y12499D01*
X109415Y12591D01*
X109481Y12683D01*
X109560Y12781D01*
X110465Y13988D01*
X111121D01*
X109547Y11830D01*
D02*
G37*
G36*
X122617Y137230D02*
X122669Y137223D01*
X122735Y137217D01*
X122807Y137204D01*
X122879Y137190D01*
X123049Y137144D01*
X123220Y137079D01*
X123305Y137040D01*
X123391Y136994D01*
X123469Y136935D01*
X123541Y136869D01*
X123548Y136862D01*
X123561Y136856D01*
X123574Y136830D01*
X123600Y136803D01*
X123633Y136771D01*
X123666Y136725D01*
X123699Y136679D01*
X123738Y136620D01*
X123804Y136495D01*
X123870Y136338D01*
X123896Y136259D01*
X123909Y136167D01*
X123922Y136075D01*
X123928Y135977D01*
Y135964D01*
Y135931D01*
X123922Y135878D01*
X123915Y135806D01*
X123902Y135728D01*
X123876Y135636D01*
X123850Y135537D01*
X123811Y135439D01*
X123804Y135426D01*
X123791Y135393D01*
X123765Y135340D01*
X123725Y135268D01*
X123673Y135190D01*
X123607Y135091D01*
X123528Y134993D01*
X123437Y134881D01*
X123423Y134868D01*
X123391Y134829D01*
X123358Y134796D01*
X123325Y134763D01*
X123286Y134724D01*
X123233Y134671D01*
X123181Y134619D01*
X123115Y134560D01*
X123049Y134494D01*
X122971Y134422D01*
X122886Y134350D01*
X122794Y134265D01*
X122689Y134179D01*
X122584Y134088D01*
X122577Y134081D01*
X122564Y134068D01*
X122538Y134048D01*
X122505Y134022D01*
X122466Y133983D01*
X122420Y133943D01*
X122315Y133858D01*
X122203Y133760D01*
X122098Y133661D01*
X122006Y133576D01*
X121967Y133543D01*
X121934Y133510D01*
X121928Y133504D01*
X121908Y133484D01*
X121882Y133458D01*
X121849Y133419D01*
X121816Y133372D01*
X121777Y133327D01*
X121698Y133215D01*
X123935D01*
Y132677D01*
X120924D01*
Y132684D01*
Y132710D01*
Y132749D01*
X120931Y132802D01*
X120937Y132861D01*
X120950Y132926D01*
X120963Y132992D01*
X120990Y133064D01*
Y133071D01*
X120996Y133077D01*
X121009Y133117D01*
X121036Y133176D01*
X121075Y133254D01*
X121127Y133346D01*
X121193Y133451D01*
X121265Y133556D01*
X121357Y133668D01*
Y133674D01*
X121370Y133681D01*
X121403Y133720D01*
X121462Y133779D01*
X121547Y133864D01*
X121646Y133963D01*
X121770Y134081D01*
X121921Y134212D01*
X122085Y134350D01*
X122092Y134356D01*
X122118Y134376D01*
X122157Y134409D01*
X122203Y134448D01*
X122262Y134501D01*
X122335Y134560D01*
X122407Y134625D01*
X122492Y134698D01*
X122656Y134855D01*
X122820Y135012D01*
X122899Y135091D01*
X122971Y135170D01*
X123036Y135242D01*
X123089Y135314D01*
Y135321D01*
X123102Y135327D01*
X123115Y135347D01*
X123128Y135373D01*
X123174Y135445D01*
X123227Y135531D01*
X123273Y135636D01*
X123319Y135747D01*
X123345Y135872D01*
X123358Y135990D01*
Y135996D01*
Y136003D01*
X123351Y136042D01*
X123345Y136108D01*
X123325Y136180D01*
X123299Y136272D01*
X123253Y136364D01*
X123194Y136456D01*
X123115Y136548D01*
X123102Y136561D01*
X123069Y136587D01*
X123023Y136620D01*
X122951Y136666D01*
X122859Y136705D01*
X122754Y136744D01*
X122630Y136771D01*
X122492Y136777D01*
X122452D01*
X122426Y136771D01*
X122348Y136764D01*
X122256Y136744D01*
X122157Y136718D01*
X122046Y136672D01*
X121941Y136613D01*
X121843Y136534D01*
X121829Y136521D01*
X121803Y136488D01*
X121764Y136436D01*
X121724Y136357D01*
X121678Y136266D01*
X121639Y136147D01*
X121613Y136016D01*
X121600Y135865D01*
X121029Y135924D01*
Y135931D01*
X121036Y135951D01*
Y135983D01*
X121042Y136029D01*
X121055Y136082D01*
X121068Y136141D01*
X121088Y136213D01*
X121108Y136285D01*
X121160Y136443D01*
X121239Y136600D01*
X121285Y136679D01*
X121344Y136758D01*
X121403Y136830D01*
X121469Y136895D01*
X121475Y136902D01*
X121488Y136908D01*
X121508Y136928D01*
X121541Y136948D01*
X121580Y136974D01*
X121626Y137000D01*
X121678Y137033D01*
X121744Y137066D01*
X121816Y137099D01*
X121895Y137131D01*
X121980Y137158D01*
X122072Y137184D01*
X122170Y137204D01*
X122275Y137223D01*
X122387Y137230D01*
X122505Y137236D01*
X122571D01*
X122617Y137230D01*
D02*
G37*
G36*
X24025Y62598D02*
X3839D01*
Y67520D01*
X24025D01*
Y62598D01*
D02*
G37*
%LPC*%
G36*
X25733Y72926D02*
X25694D01*
X25668Y72919D01*
X25602Y72913D01*
X25510Y72893D01*
X25412Y72860D01*
X25300Y72808D01*
X25195Y72742D01*
X25091Y72650D01*
X25077Y72637D01*
X25051Y72604D01*
X25005Y72545D01*
X24959Y72460D01*
X24913Y72362D01*
X24867Y72237D01*
X24841Y72099D01*
X24828Y71942D01*
Y71929D01*
Y71896D01*
X24835Y71837D01*
X24841Y71765D01*
X24854Y71680D01*
X24881Y71588D01*
X24907Y71489D01*
X24946Y71391D01*
X24953Y71378D01*
X24972Y71345D01*
X24999Y71299D01*
X25038Y71240D01*
X25084Y71181D01*
X25143Y71109D01*
X25209Y71050D01*
X25287Y70991D01*
X25300Y70984D01*
X25327Y70971D01*
X25373Y70945D01*
X25432Y70925D01*
X25497Y70899D01*
X25576Y70873D01*
X25661Y70859D01*
X25753Y70853D01*
X25786D01*
X25812Y70859D01*
X25878Y70866D01*
X25963Y70886D01*
X26055Y70925D01*
X26160Y70971D01*
X26265Y71043D01*
X26317Y71083D01*
X26363Y71135D01*
Y71142D01*
X26376Y71148D01*
X26403Y71188D01*
X26442Y71253D01*
X26494Y71338D01*
X26540Y71450D01*
X26580Y71581D01*
X26606Y71732D01*
X26619Y71909D01*
Y71916D01*
Y71929D01*
Y71955D01*
X26612Y71988D01*
Y72027D01*
X26606Y72073D01*
X26586Y72178D01*
X26560Y72296D01*
X26514Y72421D01*
X26448Y72539D01*
X26363Y72650D01*
X26350Y72663D01*
X26317Y72696D01*
X26265Y72736D01*
X26193Y72788D01*
X26101Y72841D01*
X25996Y72880D01*
X25871Y72913D01*
X25733Y72926D01*
D02*
G37*
G36*
X14272Y85451D02*
X14227D01*
X14194Y85444D01*
X14148D01*
X14102Y85438D01*
X13997Y85418D01*
X13872Y85392D01*
X13741Y85346D01*
X13616Y85281D01*
X13505Y85195D01*
X13498D01*
X13492Y85182D01*
X13459Y85149D01*
X13413Y85097D01*
X13361Y85025D01*
X13315Y84933D01*
X13269Y84828D01*
X13236Y84710D01*
X13223Y84644D01*
Y84579D01*
Y84572D01*
Y84559D01*
Y84539D01*
X13229Y84513D01*
X13236Y84441D01*
X13262Y84355D01*
X13295Y84251D01*
X13354Y84139D01*
X13426Y84027D01*
X13479Y83975D01*
X13531Y83923D01*
X13538D01*
X13544Y83909D01*
X13564Y83896D01*
X13584Y83883D01*
X13649Y83837D01*
X13741Y83791D01*
X13853Y83739D01*
X13990Y83693D01*
X14148Y83667D01*
X14318Y83654D01*
X14358D01*
X14390Y83660D01*
X14430D01*
X14469Y83667D01*
X14568Y83686D01*
X14679Y83719D01*
X14797Y83759D01*
X14915Y83824D01*
X15020Y83909D01*
X15033Y83923D01*
X15060Y83955D01*
X15105Y84014D01*
X15152Y84087D01*
X15204Y84185D01*
X15250Y84297D01*
X15276Y84421D01*
X15289Y84559D01*
Y84565D01*
Y84579D01*
Y84598D01*
X15283Y84624D01*
X15276Y84697D01*
X15256Y84782D01*
X15224Y84887D01*
X15178Y84992D01*
X15112Y85097D01*
X15020Y85195D01*
X15007Y85208D01*
X14968Y85235D01*
X14909Y85274D01*
X14823Y85326D01*
X14718Y85372D01*
X14594Y85412D01*
X14443Y85438D01*
X14272Y85451D01*
D02*
G37*
G36*
X16153Y133555D02*
X14723Y131522D01*
X16153D01*
Y133555D01*
D02*
G37*
G36*
X14030Y81751D02*
X14017D01*
X13977Y81745D01*
X13918Y81738D01*
X13839Y81725D01*
X13761Y81692D01*
X13669Y81653D01*
X13584Y81594D01*
X13498Y81515D01*
X13492Y81502D01*
X13465Y81469D01*
X13433Y81417D01*
X13393Y81331D01*
X13354Y81233D01*
X13321Y81102D01*
X13295Y80951D01*
X13288Y80774D01*
Y79344D01*
X14791D01*
Y80629D01*
Y80636D01*
Y80649D01*
Y80669D01*
Y80695D01*
X14784Y80774D01*
X14777Y80866D01*
X14771Y80971D01*
X14758Y81076D01*
X14738Y81181D01*
X14712Y81272D01*
X14705Y81285D01*
X14692Y81312D01*
X14673Y81351D01*
X14646Y81403D01*
X14607Y81463D01*
X14561Y81522D01*
X14502Y81581D01*
X14436Y81627D01*
X14430Y81633D01*
X14404Y81646D01*
X14364Y81666D01*
X14312Y81692D01*
X14253Y81712D01*
X14187Y81731D01*
X14108Y81745D01*
X14030Y81751D01*
D02*
G37*
G36*
X22501Y144081D02*
X22435D01*
X22382Y144074D01*
X22323D01*
X22258Y144067D01*
X22179Y144061D01*
X22100Y144054D01*
X21923Y144021D01*
X21740Y143982D01*
X21569Y143923D01*
X21484Y143884D01*
X21412Y143844D01*
X21405D01*
X21392Y143831D01*
X21372Y143818D01*
X21346Y143805D01*
X21280Y143753D01*
X21202Y143687D01*
X21116Y143602D01*
X21031Y143503D01*
X20959Y143392D01*
X20900Y143274D01*
X20893Y143261D01*
X20887Y143228D01*
X20867Y143169D01*
X20847Y143083D01*
X20834Y142979D01*
X20815Y142847D01*
X20808Y142769D01*
Y142683D01*
X20802Y142598D01*
Y142500D01*
Y141548D01*
X24265D01*
Y142513D01*
Y142519D01*
Y142532D01*
Y142559D01*
Y142585D01*
Y142624D01*
X24259Y142670D01*
X24252Y142769D01*
X24246Y142880D01*
X24232Y142998D01*
X24213Y143116D01*
X24186Y143215D01*
X24180Y143228D01*
X24173Y143261D01*
X24154Y143307D01*
X24127Y143366D01*
X24088Y143431D01*
X24049Y143497D01*
X24003Y143562D01*
X23950Y143628D01*
X23937Y143634D01*
X23911Y143661D01*
X23865Y143700D01*
X23799Y143746D01*
X23714Y143798D01*
X23616Y143858D01*
X23504Y143910D01*
X23380Y143956D01*
X23373D01*
X23360Y143963D01*
X23340Y143969D01*
X23314Y143976D01*
X23281Y143982D01*
X23235Y143995D01*
X23189Y144008D01*
X23137Y144021D01*
X23006Y144041D01*
X22855Y144061D01*
X22684Y144074D01*
X22501Y144081D01*
D02*
G37*
G36*
X16207Y92617D02*
X14777D01*
Y91115D01*
X16128D01*
X16207Y91121D01*
X16299Y91128D01*
X16404Y91135D01*
X16509Y91148D01*
X16614Y91167D01*
X16705Y91194D01*
X16718Y91200D01*
X16745Y91213D01*
X16784Y91233D01*
X16837Y91259D01*
X16896Y91299D01*
X16955Y91344D01*
X17014Y91404D01*
X17060Y91469D01*
X17066Y91476D01*
X17079Y91502D01*
X17099Y91541D01*
X17125Y91594D01*
X17145Y91653D01*
X17165Y91718D01*
X17178Y91797D01*
X17184Y91876D01*
Y91882D01*
Y91889D01*
X17178Y91928D01*
X17171Y91987D01*
X17158Y92066D01*
X17125Y92145D01*
X17086Y92237D01*
X17027Y92322D01*
X16948Y92407D01*
X16935Y92414D01*
X16902Y92440D01*
X16850Y92473D01*
X16764Y92512D01*
X16666Y92551D01*
X16535Y92584D01*
X16384Y92611D01*
X16207Y92617D01*
D02*
G37*
G36*
X109120Y75294D02*
X107690D01*
Y73792D01*
X109042D01*
X109120Y73799D01*
X109212Y73805D01*
X109317Y73812D01*
X109422Y73825D01*
X109527Y73844D01*
X109619Y73871D01*
X109632Y73877D01*
X109658Y73890D01*
X109697Y73910D01*
X109750Y73936D01*
X109809Y73976D01*
X109868Y74022D01*
X109927Y74081D01*
X109973Y74146D01*
X109980Y74153D01*
X109993Y74179D01*
X110012Y74218D01*
X110039Y74271D01*
X110058Y74330D01*
X110078Y74396D01*
X110091Y74474D01*
X110098Y74553D01*
Y74559D01*
Y74566D01*
X110091Y74605D01*
X110084Y74664D01*
X110071Y74743D01*
X110039Y74822D01*
X109999Y74914D01*
X109940Y74999D01*
X109862Y75084D01*
X109848Y75091D01*
X109816Y75117D01*
X109763Y75150D01*
X109678Y75189D01*
X109579Y75229D01*
X109448Y75261D01*
X109297Y75288D01*
X109120Y75294D01*
D02*
G37*
G36*
X22501Y148659D02*
X22435D01*
X22382Y148653D01*
X22323D01*
X22258Y148646D01*
X22179Y148640D01*
X22100Y148633D01*
X21923Y148600D01*
X21740Y148561D01*
X21569Y148502D01*
X21484Y148463D01*
X21412Y148423D01*
X21405D01*
X21392Y148410D01*
X21372Y148397D01*
X21346Y148384D01*
X21280Y148331D01*
X21202Y148266D01*
X21116Y148181D01*
X21031Y148082D01*
X20959Y147971D01*
X20900Y147853D01*
X20893Y147839D01*
X20887Y147807D01*
X20867Y147748D01*
X20847Y147662D01*
X20834Y147557D01*
X20815Y147426D01*
X20808Y147347D01*
Y147262D01*
X20802Y147177D01*
Y147079D01*
Y146127D01*
X24265D01*
Y147092D01*
Y147098D01*
Y147111D01*
Y147137D01*
Y147164D01*
Y147203D01*
X24259Y147249D01*
X24252Y147347D01*
X24246Y147459D01*
X24232Y147577D01*
X24213Y147695D01*
X24186Y147793D01*
X24180Y147807D01*
X24173Y147839D01*
X24154Y147885D01*
X24127Y147944D01*
X24088Y148010D01*
X24049Y148076D01*
X24003Y148141D01*
X23950Y148207D01*
X23937Y148213D01*
X23911Y148240D01*
X23865Y148279D01*
X23799Y148325D01*
X23714Y148377D01*
X23616Y148436D01*
X23504Y148489D01*
X23380Y148535D01*
X23373D01*
X23360Y148541D01*
X23340Y148548D01*
X23314Y148555D01*
X23281Y148561D01*
X23235Y148574D01*
X23189Y148587D01*
X23137Y148600D01*
X23006Y148620D01*
X22855Y148640D01*
X22684Y148653D01*
X22501Y148659D01*
D02*
G37*
G36*
X48897Y28805D02*
X47848D01*
Y25341D01*
X48924D01*
X48969Y25348D01*
X49068Y25354D01*
X49179Y25361D01*
X49297Y25374D01*
X49415Y25394D01*
X49514Y25420D01*
X49527Y25426D01*
X49560Y25433D01*
X49606Y25453D01*
X49665Y25479D01*
X49730Y25518D01*
X49796Y25558D01*
X49861Y25604D01*
X49927Y25656D01*
X49934Y25669D01*
X49960Y25695D01*
X49999Y25741D01*
X50045Y25807D01*
X50098Y25892D01*
X50157Y25991D01*
X50209Y26102D01*
X50255Y26227D01*
Y26233D01*
X50262Y26246D01*
X50268Y26266D01*
X50275Y26292D01*
X50281Y26325D01*
X50295Y26371D01*
X50308Y26417D01*
X50321Y26469D01*
X50340Y26601D01*
X50360Y26752D01*
X50373Y26922D01*
X50380Y27106D01*
Y27112D01*
Y27139D01*
Y27171D01*
X50373Y27224D01*
Y27283D01*
X50367Y27348D01*
X50360Y27427D01*
X50353Y27506D01*
X50321Y27683D01*
X50281Y27867D01*
X50222Y28037D01*
X50183Y28122D01*
X50144Y28195D01*
Y28201D01*
X50130Y28214D01*
X50117Y28234D01*
X50104Y28260D01*
X50052Y28326D01*
X49986Y28405D01*
X49901Y28490D01*
X49803Y28575D01*
X49691Y28647D01*
X49573Y28706D01*
X49560Y28713D01*
X49527Y28719D01*
X49468Y28739D01*
X49383Y28759D01*
X49278Y28772D01*
X49147Y28792D01*
X49068Y28798D01*
X48983D01*
X48897Y28805D01*
D02*
G37*
G36*
X19985Y90800D02*
X19946D01*
X19920Y90793D01*
X19848Y90787D01*
X19756Y90767D01*
X19651Y90734D01*
X19546Y90688D01*
X19434Y90623D01*
X19336Y90538D01*
X19323Y90524D01*
X19297Y90492D01*
X19257Y90433D01*
X19211Y90360D01*
X19159Y90262D01*
X19119Y90150D01*
X19093Y90026D01*
X19080Y89888D01*
Y89875D01*
Y89849D01*
X19087Y89803D01*
X19093Y89744D01*
X19106Y89672D01*
X19126Y89593D01*
X19152Y89514D01*
X19185Y89429D01*
X19192Y89422D01*
X19205Y89390D01*
X19231Y89350D01*
X19270Y89304D01*
X19316Y89245D01*
X19375Y89186D01*
X19441Y89134D01*
X19520Y89081D01*
X19533Y89075D01*
X19559Y89062D01*
X19605Y89042D01*
X19664Y89022D01*
X19736Y89003D01*
X19821Y88983D01*
X19913Y88970D01*
X20005Y88963D01*
X20044D01*
X20071Y88970D01*
X20149Y88976D01*
X20241Y88996D01*
X20346Y89029D01*
X20458Y89068D01*
X20563Y89134D01*
X20668Y89219D01*
X20681Y89232D01*
X20707Y89265D01*
X20753Y89324D01*
X20799Y89396D01*
X20845Y89488D01*
X20891Y89600D01*
X20917Y89731D01*
X20930Y89868D01*
Y89875D01*
Y89888D01*
Y89908D01*
X20923Y89934D01*
X20917Y90006D01*
X20897Y90105D01*
X20864Y90203D01*
X20819Y90315D01*
X20753Y90426D01*
X20661Y90531D01*
X20648Y90544D01*
X20615Y90570D01*
X20556Y90616D01*
X20477Y90669D01*
X20379Y90715D01*
X20261Y90761D01*
X20130Y90787D01*
X19985Y90800D01*
D02*
G37*
G36*
X20005Y92683D02*
X19953D01*
X19894Y92670D01*
X19815Y92656D01*
X19730Y92630D01*
X19638Y92597D01*
X19552Y92545D01*
X19467Y92473D01*
X19461Y92466D01*
X19434Y92440D01*
X19402Y92394D01*
X19369Y92335D01*
X19329Y92263D01*
X19297Y92178D01*
X19270Y92086D01*
X19264Y91981D01*
Y91974D01*
Y91968D01*
X19270Y91928D01*
X19277Y91869D01*
X19290Y91797D01*
X19316Y91712D01*
X19349Y91627D01*
X19402Y91535D01*
X19467Y91456D01*
X19474Y91449D01*
X19507Y91423D01*
X19552Y91390D01*
X19612Y91358D01*
X19690Y91318D01*
X19782Y91285D01*
X19887Y91259D01*
X20005Y91253D01*
X20018D01*
X20058Y91259D01*
X20117Y91266D01*
X20195Y91279D01*
X20281Y91305D01*
X20366Y91338D01*
X20458Y91390D01*
X20536Y91456D01*
X20543Y91462D01*
X20569Y91495D01*
X20602Y91535D01*
X20641Y91594D01*
X20681Y91666D01*
X20714Y91751D01*
X20740Y91850D01*
X20746Y91954D01*
Y91961D01*
Y91968D01*
Y92007D01*
X20733Y92066D01*
X20720Y92138D01*
X20694Y92217D01*
X20654Y92302D01*
X20602Y92387D01*
X20530Y92473D01*
X20523Y92479D01*
X20491Y92506D01*
X20445Y92538D01*
X20386Y92578D01*
X20307Y92617D01*
X20222Y92650D01*
X20117Y92676D01*
X20005Y92683D01*
D02*
G37*
G36*
X13382Y6538D02*
X12111D01*
Y5203D01*
X13312D01*
X13382Y5209D01*
X13464Y5215D01*
X13557Y5221D01*
X13650Y5232D01*
X13744Y5250D01*
X13825Y5273D01*
X13837Y5279D01*
X13860Y5291D01*
X13895Y5308D01*
X13942Y5331D01*
X13994Y5366D01*
X14047Y5407D01*
X14099Y5460D01*
X14140Y5518D01*
X14146Y5524D01*
X14157Y5547D01*
X14175Y5582D01*
X14198Y5629D01*
X14216Y5681D01*
X14233Y5740D01*
X14245Y5810D01*
X14251Y5879D01*
Y5885D01*
Y5891D01*
X14245Y5926D01*
X14239Y5979D01*
X14227Y6049D01*
X14198Y6118D01*
X14163Y6200D01*
X14111Y6276D01*
X14041Y6352D01*
X14029Y6357D01*
X14000Y6381D01*
X13953Y6410D01*
X13878Y6445D01*
X13790Y6480D01*
X13674Y6509D01*
X13540Y6532D01*
X13382Y6538D01*
D02*
G37*
G36*
X19883Y6596D02*
X19848D01*
X19824Y6591D01*
X19760Y6579D01*
X19684Y6561D01*
X19597Y6527D01*
X19504Y6474D01*
X19457Y6439D01*
X19410Y6404D01*
X19369Y6357D01*
X19329Y6305D01*
Y6299D01*
X19317Y6288D01*
X19305Y6264D01*
X19288Y6235D01*
X19270Y6188D01*
X19247Y6136D01*
X19230Y6072D01*
X19206Y5996D01*
X19183Y5909D01*
X19160Y5810D01*
X19136Y5699D01*
X19119Y5576D01*
X19101Y5436D01*
X19090Y5285D01*
X19084Y5122D01*
X19078Y4941D01*
Y4929D01*
Y4900D01*
Y4848D01*
X19084Y4778D01*
Y4702D01*
X19090Y4609D01*
X19095Y4509D01*
X19107Y4404D01*
X19136Y4177D01*
X19154Y4066D01*
X19177Y3961D01*
X19200Y3862D01*
X19235Y3769D01*
X19270Y3687D01*
X19311Y3617D01*
Y3611D01*
X19323Y3606D01*
X19352Y3565D01*
X19405Y3512D01*
X19469Y3454D01*
X19556Y3396D01*
X19655Y3343D01*
X19766Y3303D01*
X19824Y3297D01*
X19888Y3291D01*
X19923D01*
X19947Y3297D01*
X20005Y3308D01*
X20087Y3332D01*
X20174Y3373D01*
X20273Y3431D01*
X20320Y3466D01*
X20366Y3512D01*
X20413Y3559D01*
X20460Y3617D01*
Y3623D01*
X20471Y3635D01*
X20483Y3652D01*
X20495Y3681D01*
X20518Y3722D01*
X20536Y3775D01*
X20559Y3833D01*
X20582Y3903D01*
X20600Y3991D01*
X20623Y4084D01*
X20646Y4195D01*
X20664Y4311D01*
X20675Y4451D01*
X20687Y4597D01*
X20699Y4760D01*
Y4941D01*
Y4947D01*
Y4953D01*
Y4982D01*
Y5034D01*
X20693Y5104D01*
Y5180D01*
X20687Y5273D01*
X20681Y5372D01*
X20670Y5483D01*
X20640Y5705D01*
X20623Y5815D01*
X20600Y5920D01*
X20576Y6019D01*
X20541Y6113D01*
X20506Y6194D01*
X20466Y6264D01*
Y6270D01*
X20454Y6276D01*
X20442Y6293D01*
X20425Y6317D01*
X20372Y6369D01*
X20308Y6433D01*
X20221Y6492D01*
X20122Y6544D01*
X20069Y6567D01*
X20011Y6585D01*
X19947Y6591D01*
X19883Y6596D01*
D02*
G37*
G36*
X13948Y31225D02*
X13882D01*
X13721Y31219D01*
X13576Y31203D01*
X13449Y31180D01*
X13338Y31158D01*
X13288Y31141D01*
X13243Y31130D01*
X13210Y31119D01*
X13177Y31108D01*
X13154Y31097D01*
X13138Y31091D01*
X13127Y31086D01*
X13121D01*
X13010Y31030D01*
X12916Y30969D01*
X12833Y30903D01*
X12766Y30842D01*
X12710Y30786D01*
X12677Y30742D01*
X12649Y30709D01*
X12644Y30703D01*
Y30698D01*
X12588Y30603D01*
X12550Y30503D01*
X12522Y30409D01*
X12505Y30326D01*
X12494Y30253D01*
X12483Y30198D01*
Y30176D01*
Y30159D01*
Y30154D01*
Y30148D01*
X12488Y30065D01*
X12500Y29981D01*
X12516Y29909D01*
X12538Y29837D01*
X12594Y29704D01*
X12661Y29588D01*
X12688Y29537D01*
X12721Y29499D01*
X12749Y29460D01*
X12777Y29427D01*
X12799Y29404D01*
X12816Y29388D01*
X12827Y29377D01*
X12833Y29371D01*
X12882Y29332D01*
X12944Y29293D01*
X13005Y29254D01*
X13077Y29221D01*
X13216Y29155D01*
X13360Y29099D01*
X13432Y29077D01*
X13493Y29055D01*
X13554Y29038D01*
X13604Y29021D01*
X13643Y29010D01*
X13676Y28999D01*
X13698Y28994D01*
X13704D01*
X13793Y28971D01*
X13870Y28949D01*
X13942Y28933D01*
X14009Y28916D01*
X14065Y28899D01*
X14115Y28888D01*
X14159Y28872D01*
X14198Y28860D01*
X14231Y28855D01*
X14259Y28844D01*
X14298Y28833D01*
X14320Y28822D01*
X14325D01*
X14398Y28794D01*
X14453Y28766D01*
X14503Y28738D01*
X14542Y28711D01*
X14570Y28688D01*
X14586Y28672D01*
X14597Y28661D01*
X14603Y28655D01*
X14631Y28616D01*
X14653Y28577D01*
X14664Y28539D01*
X14675Y28505D01*
X14681Y28472D01*
X14686Y28444D01*
Y28427D01*
Y28422D01*
X14681Y28344D01*
X14659Y28278D01*
X14625Y28211D01*
X14592Y28156D01*
X14553Y28111D01*
X14525Y28078D01*
X14503Y28056D01*
X14492Y28050D01*
X14414Y28000D01*
X14325Y27961D01*
X14231Y27934D01*
X14142Y27917D01*
X14059Y27906D01*
X13993Y27895D01*
X13931D01*
X13804Y27900D01*
X13693Y27922D01*
X13598Y27950D01*
X13515Y27983D01*
X13449Y28017D01*
X13404Y28045D01*
X13376Y28067D01*
X13365Y28072D01*
X13293Y28150D01*
X13238Y28233D01*
X13188Y28328D01*
X13154Y28422D01*
X13127Y28505D01*
X13104Y28572D01*
X13099Y28594D01*
Y28616D01*
X13093Y28627D01*
Y28633D01*
X12339Y28561D01*
X12355Y28444D01*
X12377Y28333D01*
X12411Y28228D01*
X12438Y28133D01*
X12477Y28045D01*
X12516Y27961D01*
X12555Y27889D01*
X12594Y27823D01*
X12633Y27767D01*
X12672Y27717D01*
X12705Y27673D01*
X12738Y27634D01*
X12760Y27606D01*
X12783Y27589D01*
X12794Y27578D01*
X12799Y27573D01*
X12877Y27512D01*
X12960Y27462D01*
X13049Y27417D01*
X13143Y27379D01*
X13232Y27351D01*
X13327Y27323D01*
X13510Y27284D01*
X13593Y27268D01*
X13671Y27257D01*
X13737Y27251D01*
X13798Y27245D01*
X13848Y27240D01*
X13920D01*
X14098Y27245D01*
X14259Y27262D01*
X14403Y27284D01*
X14464Y27295D01*
X14525Y27312D01*
X14575Y27323D01*
X14620Y27334D01*
X14659Y27345D01*
X14692Y27356D01*
X14719Y27367D01*
X14736Y27373D01*
X14747Y27379D01*
X14753D01*
X14875Y27440D01*
X14975Y27506D01*
X15069Y27573D01*
X15141Y27645D01*
X15197Y27706D01*
X15241Y27762D01*
X15263Y27795D01*
X15274Y27800D01*
Y27806D01*
X15336Y27917D01*
X15385Y28022D01*
X15419Y28128D01*
X15441Y28228D01*
X15452Y28305D01*
X15458Y28344D01*
X15463Y28372D01*
Y28394D01*
Y28411D01*
Y28422D01*
Y28427D01*
X15458Y28561D01*
X15441Y28677D01*
X15413Y28783D01*
X15385Y28872D01*
X15358Y28944D01*
X15330Y28994D01*
X15313Y29027D01*
X15308Y29038D01*
X15247Y29127D01*
X15175Y29204D01*
X15102Y29271D01*
X15036Y29327D01*
X14975Y29371D01*
X14925Y29404D01*
X14892Y29427D01*
X14886Y29432D01*
X14881D01*
X14825Y29460D01*
X14770Y29488D01*
X14636Y29537D01*
X14498Y29582D01*
X14364Y29626D01*
X14303Y29643D01*
X14242Y29660D01*
X14187Y29676D01*
X14142Y29687D01*
X14104Y29699D01*
X14076Y29704D01*
X14053Y29710D01*
X14048D01*
X13948Y29737D01*
X13859Y29759D01*
X13776Y29782D01*
X13698Y29804D01*
X13637Y29826D01*
X13576Y29848D01*
X13526Y29871D01*
X13482Y29887D01*
X13443Y29904D01*
X13415Y29921D01*
X13387Y29932D01*
X13371Y29943D01*
X13343Y29959D01*
X13338Y29965D01*
X13299Y30004D01*
X13271Y30043D01*
X13254Y30081D01*
X13243Y30120D01*
X13232Y30148D01*
X13227Y30176D01*
Y30192D01*
Y30198D01*
X13232Y30253D01*
X13243Y30298D01*
X13265Y30342D01*
X13288Y30376D01*
X13310Y30403D01*
X13332Y30420D01*
X13343Y30431D01*
X13349Y30437D01*
X13426Y30487D01*
X13510Y30520D01*
X13598Y30548D01*
X13682Y30564D01*
X13754Y30575D01*
X13815Y30581D01*
X13870D01*
X13987Y30575D01*
X14087Y30559D01*
X14170Y30536D01*
X14237Y30514D01*
X14292Y30492D01*
X14331Y30470D01*
X14353Y30453D01*
X14359Y30448D01*
X14414Y30392D01*
X14464Y30326D01*
X14503Y30259D01*
X14531Y30187D01*
X14553Y30126D01*
X14564Y30076D01*
X14575Y30037D01*
Y30031D01*
Y30026D01*
X15352Y30054D01*
X15347Y30154D01*
X15330Y30242D01*
X15308Y30331D01*
X15280Y30409D01*
X15252Y30487D01*
X15219Y30559D01*
X15186Y30620D01*
X15152Y30681D01*
X15114Y30731D01*
X15080Y30775D01*
X15047Y30814D01*
X15019Y30847D01*
X14997Y30869D01*
X14980Y30886D01*
X14969Y30897D01*
X14964Y30903D01*
X14892Y30958D01*
X14814Y31008D01*
X14731Y31053D01*
X14642Y31091D01*
X14553Y31119D01*
X14464Y31147D01*
X14287Y31186D01*
X14203Y31197D01*
X14131Y31208D01*
X14059Y31214D01*
X13998Y31219D01*
X13948Y31225D01*
D02*
G37*
G36*
X18899Y31153D02*
X15852D01*
Y30503D01*
X16989D01*
Y27312D01*
X17766D01*
Y30503D01*
X18899D01*
Y31153D01*
D02*
G37*
G36*
X10402D02*
X8670D01*
Y27312D01*
X9447D01*
Y28916D01*
X9697D01*
X9775Y28910D01*
X9841Y28905D01*
X9897Y28894D01*
X9941Y28888D01*
X9969Y28877D01*
X9985Y28872D01*
X9991D01*
X10035Y28849D01*
X10080Y28827D01*
X10119Y28799D01*
X10157Y28777D01*
X10185Y28749D01*
X10207Y28727D01*
X10219Y28716D01*
X10224Y28711D01*
X10246Y28683D01*
X10274Y28655D01*
X10335Y28572D01*
X10402Y28483D01*
X10474Y28383D01*
X10535Y28294D01*
X10563Y28250D01*
X10585Y28217D01*
X10607Y28189D01*
X10624Y28167D01*
X10629Y28150D01*
X10635Y28144D01*
X11190Y27312D01*
X12122D01*
X11650Y28061D01*
X11600Y28139D01*
X11551Y28217D01*
X11506Y28283D01*
X11462Y28344D01*
X11423Y28400D01*
X11389Y28455D01*
X11323Y28539D01*
X11273Y28605D01*
X11240Y28650D01*
X11212Y28677D01*
X11206Y28683D01*
X11145Y28749D01*
X11073Y28811D01*
X11007Y28860D01*
X10940Y28910D01*
X10885Y28949D01*
X10840Y28977D01*
X10807Y28999D01*
X10801Y29005D01*
X10796D01*
X10890Y29021D01*
X10973Y29044D01*
X11051Y29066D01*
X11129Y29094D01*
X11195Y29121D01*
X11256Y29149D01*
X11317Y29177D01*
X11367Y29210D01*
X11412Y29238D01*
X11451Y29266D01*
X11484Y29293D01*
X11506Y29316D01*
X11528Y29332D01*
X11545Y29349D01*
X11551Y29354D01*
X11556Y29360D01*
X11600Y29415D01*
X11639Y29471D01*
X11706Y29593D01*
X11750Y29710D01*
X11778Y29826D01*
X11800Y29926D01*
X11806Y29965D01*
Y30004D01*
X11811Y30031D01*
Y30059D01*
Y30070D01*
Y30076D01*
X11806Y30198D01*
X11784Y30314D01*
X11756Y30414D01*
X11728Y30503D01*
X11695Y30575D01*
X11667Y30631D01*
X11656Y30648D01*
X11645Y30664D01*
X11639Y30670D01*
Y30675D01*
X11573Y30770D01*
X11501Y30847D01*
X11428Y30908D01*
X11356Y30964D01*
X11290Y30997D01*
X11240Y31025D01*
X11206Y31042D01*
X11201Y31047D01*
X11195D01*
X11140Y31064D01*
X11079Y31080D01*
X10940Y31108D01*
X10790Y31125D01*
X10646Y31141D01*
X10574D01*
X10513Y31147D01*
X10452D01*
X10402Y31153D01*
D02*
G37*
%LPD*%
G36*
X10385Y30498D02*
X10507D01*
X10557Y30492D01*
X10590D01*
X10607Y30487D01*
X10612D01*
X10679Y30470D01*
X10740Y30448D01*
X10790Y30426D01*
X10829Y30398D01*
X10862Y30370D01*
X10890Y30353D01*
X10901Y30337D01*
X10907Y30331D01*
X10940Y30287D01*
X10968Y30231D01*
X10984Y30181D01*
X11001Y30131D01*
X11007Y30087D01*
X11012Y30054D01*
Y30031D01*
Y30020D01*
X11007Y29959D01*
X11001Y29904D01*
X10984Y29854D01*
X10973Y29809D01*
X10957Y29776D01*
X10940Y29754D01*
X10934Y29737D01*
X10929Y29732D01*
X10896Y29693D01*
X10862Y29660D01*
X10790Y29610D01*
X10762Y29593D01*
X10735Y29582D01*
X10718Y29571D01*
X10712D01*
X10685Y29565D01*
X10640Y29554D01*
X10596Y29549D01*
X10546Y29543D01*
X10429Y29537D01*
X10313Y29532D01*
X10202Y29526D01*
X9447D01*
Y30503D01*
X10335D01*
X10385Y30498D01*
D02*
G37*
%LPC*%
G36*
X13437Y116994D02*
X12387D01*
Y113530D01*
X13463D01*
X13509Y113537D01*
X13607Y113543D01*
X13719Y113550D01*
X13837Y113563D01*
X13955Y113583D01*
X14053Y113609D01*
X14066Y113615D01*
X14099Y113622D01*
X14145Y113642D01*
X14204Y113668D01*
X14270Y113707D01*
X14335Y113747D01*
X14401Y113793D01*
X14467Y113845D01*
X14473Y113858D01*
X14499Y113884D01*
X14539Y113930D01*
X14585Y113996D01*
X14637Y114081D01*
X14696Y114180D01*
X14749Y114291D01*
X14795Y114416D01*
Y114422D01*
X14801Y114435D01*
X14808Y114455D01*
X14814Y114481D01*
X14821Y114514D01*
X14834Y114560D01*
X14847Y114606D01*
X14860Y114658D01*
X14880Y114790D01*
X14900Y114941D01*
X14913Y115111D01*
X14919Y115295D01*
Y115301D01*
Y115328D01*
Y115360D01*
X14913Y115413D01*
Y115472D01*
X14906Y115537D01*
X14900Y115616D01*
X14893Y115695D01*
X14860Y115872D01*
X14821Y116056D01*
X14762Y116226D01*
X14723Y116312D01*
X14683Y116384D01*
Y116390D01*
X14670Y116403D01*
X14657Y116423D01*
X14644Y116449D01*
X14591Y116515D01*
X14526Y116594D01*
X14440Y116679D01*
X14342Y116764D01*
X14230Y116836D01*
X14112Y116895D01*
X14099Y116902D01*
X14066Y116908D01*
X14007Y116928D01*
X13922Y116948D01*
X13817Y116961D01*
X13686Y116981D01*
X13607Y116987D01*
X13522D01*
X13437Y116994D01*
D02*
G37*
G36*
X8121Y66979D02*
X6434D01*
Y63139D01*
X8099D01*
X8193Y63144D01*
X8360D01*
X8426Y63150D01*
X8532D01*
X8571Y63155D01*
X8626D01*
X8648Y63161D01*
X8671D01*
X8782Y63178D01*
X8882Y63205D01*
X8970Y63233D01*
X9048Y63266D01*
X9109Y63294D01*
X9153Y63322D01*
X9181Y63339D01*
X9192Y63344D01*
X9270Y63405D01*
X9331Y63472D01*
X9392Y63533D01*
X9437Y63599D01*
X9475Y63655D01*
X9503Y63699D01*
X9520Y63727D01*
X9525Y63738D01*
X9564Y63832D01*
X9597Y63921D01*
X9620Y64010D01*
X9631Y64088D01*
X9642Y64154D01*
X9647Y64204D01*
Y64238D01*
Y64243D01*
Y64249D01*
X9642Y64371D01*
X9620Y64482D01*
X9586Y64576D01*
X9553Y64665D01*
X9520Y64732D01*
X9486Y64782D01*
X9464Y64815D01*
X9459Y64826D01*
X9381Y64915D01*
X9298Y64987D01*
X9203Y65048D01*
X9120Y65092D01*
X9042Y65131D01*
X8976Y65159D01*
X8954Y65165D01*
X8937Y65170D01*
X8926Y65176D01*
X8920D01*
X9009Y65226D01*
X9087Y65276D01*
X9153Y65337D01*
X9209Y65386D01*
X9248Y65437D01*
X9281Y65475D01*
X9303Y65503D01*
X9309Y65514D01*
X9359Y65603D01*
X9398Y65686D01*
X9420Y65769D01*
X9442Y65847D01*
X9453Y65914D01*
X9459Y65964D01*
Y65997D01*
Y66003D01*
Y66008D01*
X9453Y66097D01*
X9442Y66186D01*
X9420Y66258D01*
X9398Y66325D01*
X9375Y66380D01*
X9353Y66424D01*
X9342Y66447D01*
X9337Y66458D01*
X9292Y66530D01*
X9242Y66591D01*
X9192Y66646D01*
X9148Y66696D01*
X9104Y66730D01*
X9070Y66757D01*
X9048Y66774D01*
X9042Y66780D01*
X8976Y66824D01*
X8904Y66857D01*
X8837Y66885D01*
X8776Y66907D01*
X8721Y66924D01*
X8682Y66935D01*
X8654Y66940D01*
X8643D01*
X8548Y66952D01*
X8443Y66963D01*
X8332Y66968D01*
X8221Y66974D01*
X8121Y66979D01*
D02*
G37*
G36*
X16213Y67052D02*
X16174D01*
X16008Y67046D01*
X15847Y67029D01*
X15708Y67002D01*
X15586Y66974D01*
X15536Y66957D01*
X15486Y66946D01*
X15447Y66935D01*
X15414Y66918D01*
X15386Y66913D01*
X15364Y66902D01*
X15353Y66896D01*
X15347D01*
X15247Y66852D01*
X15153Y66796D01*
X15070Y66735D01*
X14998Y66680D01*
X14936Y66630D01*
X14887Y66585D01*
X14859Y66558D01*
X14853Y66552D01*
X14848Y66546D01*
X14770Y66458D01*
X14698Y66363D01*
X14637Y66280D01*
X14587Y66197D01*
X14548Y66125D01*
X14515Y66069D01*
X14509Y66047D01*
X14498Y66030D01*
X14492Y66025D01*
Y66019D01*
X14437Y65864D01*
X14393Y65697D01*
X14365Y65531D01*
X14343Y65375D01*
X14337Y65303D01*
X14332Y65237D01*
X14326Y65181D01*
Y65131D01*
X14321Y65087D01*
Y65059D01*
Y65037D01*
Y65031D01*
X14326Y64865D01*
X14343Y64704D01*
X14365Y64554D01*
X14398Y64415D01*
X14437Y64288D01*
X14481Y64171D01*
X14526Y64060D01*
X14576Y63966D01*
X14620Y63877D01*
X14665Y63805D01*
X14709Y63738D01*
X14748Y63683D01*
X14781Y63644D01*
X14803Y63611D01*
X14820Y63594D01*
X14826Y63588D01*
X14925Y63494D01*
X15031Y63416D01*
X15136Y63344D01*
X15253Y63289D01*
X15364Y63239D01*
X15480Y63194D01*
X15586Y63161D01*
X15697Y63133D01*
X15797Y63111D01*
X15891Y63094D01*
X15974Y63083D01*
X16047Y63078D01*
X16102Y63072D01*
X16146Y63067D01*
X16185D01*
X16341Y63072D01*
X16485Y63089D01*
X16624Y63117D01*
X16751Y63150D01*
X16873Y63189D01*
X16984Y63233D01*
X17084Y63278D01*
X17179Y63327D01*
X17256Y63377D01*
X17329Y63422D01*
X17390Y63466D01*
X17440Y63505D01*
X17484Y63538D01*
X17512Y63566D01*
X17528Y63583D01*
X17534Y63588D01*
X17623Y63694D01*
X17700Y63805D01*
X17773Y63921D01*
X17828Y64038D01*
X17878Y64160D01*
X17922Y64282D01*
X17956Y64404D01*
X17984Y64521D01*
X18000Y64626D01*
X18017Y64732D01*
X18028Y64820D01*
X18039Y64898D01*
Y64965D01*
X18045Y65015D01*
Y65042D01*
Y65053D01*
X18039Y65226D01*
X18022Y65386D01*
X18000Y65536D01*
X17967Y65681D01*
X17928Y65808D01*
X17884Y65930D01*
X17839Y66041D01*
X17789Y66136D01*
X17739Y66225D01*
X17695Y66302D01*
X17650Y66369D01*
X17612Y66424D01*
X17584Y66463D01*
X17556Y66496D01*
X17539Y66513D01*
X17534Y66519D01*
X17434Y66613D01*
X17329Y66696D01*
X17218Y66768D01*
X17107Y66830D01*
X16990Y66879D01*
X16879Y66924D01*
X16768Y66957D01*
X16663Y66985D01*
X16563Y67007D01*
X16468Y67024D01*
X16385Y67035D01*
X16313Y67046D01*
X16257D01*
X16213Y67052D01*
D02*
G37*
G36*
X12039D02*
X12001D01*
X11834Y67046D01*
X11673Y67029D01*
X11534Y67002D01*
X11412Y66974D01*
X11362Y66957D01*
X11312Y66946D01*
X11274Y66935D01*
X11240Y66918D01*
X11213Y66913D01*
X11190Y66902D01*
X11179Y66896D01*
X11174D01*
X11074Y66852D01*
X10979Y66796D01*
X10896Y66735D01*
X10824Y66680D01*
X10763Y66630D01*
X10713Y66585D01*
X10685Y66558D01*
X10680Y66552D01*
X10674Y66546D01*
X10596Y66458D01*
X10524Y66363D01*
X10463Y66280D01*
X10413Y66197D01*
X10374Y66125D01*
X10341Y66069D01*
X10336Y66047D01*
X10324Y66030D01*
X10319Y66025D01*
Y66019D01*
X10263Y65864D01*
X10219Y65697D01*
X10191Y65531D01*
X10169Y65375D01*
X10164Y65303D01*
X10158Y65237D01*
X10152Y65181D01*
Y65131D01*
X10147Y65087D01*
Y65059D01*
Y65037D01*
Y65031D01*
X10152Y64865D01*
X10169Y64704D01*
X10191Y64554D01*
X10225Y64415D01*
X10263Y64288D01*
X10308Y64171D01*
X10352Y64060D01*
X10402Y63966D01*
X10447Y63877D01*
X10491Y63805D01*
X10535Y63738D01*
X10574Y63683D01*
X10607Y63644D01*
X10630Y63611D01*
X10646Y63594D01*
X10652Y63588D01*
X10752Y63494D01*
X10857Y63416D01*
X10963Y63344D01*
X11079Y63289D01*
X11190Y63239D01*
X11307Y63194D01*
X11412Y63161D01*
X11523Y63133D01*
X11623Y63111D01*
X11717Y63094D01*
X11801Y63083D01*
X11873Y63078D01*
X11928Y63072D01*
X11973Y63067D01*
X12012D01*
X12167Y63072D01*
X12311Y63089D01*
X12450Y63117D01*
X12578Y63150D01*
X12700Y63189D01*
X12811Y63233D01*
X12911Y63278D01*
X13005Y63327D01*
X13083Y63377D01*
X13155Y63422D01*
X13216Y63466D01*
X13266Y63505D01*
X13310Y63538D01*
X13338Y63566D01*
X13355Y63583D01*
X13360Y63588D01*
X13449Y63694D01*
X13527Y63805D01*
X13599Y63921D01*
X13655Y64038D01*
X13704Y64160D01*
X13749Y64282D01*
X13782Y64404D01*
X13810Y64521D01*
X13826Y64626D01*
X13843Y64732D01*
X13854Y64820D01*
X13865Y64898D01*
Y64965D01*
X13871Y65015D01*
Y65042D01*
Y65053D01*
X13865Y65226D01*
X13849Y65386D01*
X13826Y65536D01*
X13793Y65681D01*
X13754Y65808D01*
X13710Y65930D01*
X13666Y66041D01*
X13616Y66136D01*
X13566Y66225D01*
X13521Y66302D01*
X13477Y66369D01*
X13438Y66424D01*
X13410Y66463D01*
X13383Y66496D01*
X13366Y66513D01*
X13360Y66519D01*
X13260Y66613D01*
X13155Y66696D01*
X13044Y66768D01*
X12933Y66830D01*
X12816Y66879D01*
X12705Y66924D01*
X12594Y66957D01*
X12489Y66985D01*
X12389Y67007D01*
X12295Y67024D01*
X12212Y67035D01*
X12139Y67046D01*
X12084D01*
X12039Y67052D01*
D02*
G37*
G36*
X21430Y66979D02*
X18383D01*
Y66330D01*
X19521D01*
Y63139D01*
X20298D01*
Y66330D01*
X21430D01*
Y66979D01*
D02*
G37*
%LPD*%
G36*
X8043Y66336D02*
X8188D01*
X8221Y66330D01*
X8282D01*
X8304Y66325D01*
X8310D01*
X8376Y66313D01*
X8438Y66297D01*
X8487Y66274D01*
X8532Y66252D01*
X8560Y66230D01*
X8587Y66208D01*
X8598Y66197D01*
X8604Y66191D01*
X8637Y66147D01*
X8659Y66097D01*
X8682Y66053D01*
X8693Y66008D01*
X8698Y65964D01*
X8704Y65930D01*
Y65908D01*
Y65903D01*
X8698Y65836D01*
X8687Y65775D01*
X8665Y65725D01*
X8648Y65681D01*
X8626Y65642D01*
X8604Y65620D01*
X8593Y65603D01*
X8587Y65597D01*
X8543Y65559D01*
X8493Y65531D01*
X8443Y65509D01*
X8393Y65492D01*
X8343Y65475D01*
X8310Y65470D01*
X8288Y65464D01*
X8254D01*
X8221Y65459D01*
X8049D01*
X7955Y65453D01*
X7211D01*
Y66341D01*
X7982D01*
X8043Y66336D01*
D02*
G37*
G36*
X8093Y64809D02*
X8160Y64804D01*
X8227D01*
X8282Y64798D01*
X8332Y64793D01*
X8371Y64787D01*
X8410Y64782D01*
X8438Y64776D01*
X8482Y64771D01*
X8510Y64759D01*
X8515D01*
X8571Y64737D01*
X8621Y64709D01*
X8665Y64682D01*
X8698Y64648D01*
X8726Y64626D01*
X8743Y64604D01*
X8754Y64587D01*
X8759Y64582D01*
X8787Y64532D01*
X8809Y64482D01*
X8826Y64438D01*
X8837Y64388D01*
X8843Y64349D01*
X8848Y64315D01*
Y64293D01*
Y64288D01*
X8843Y64215D01*
X8832Y64149D01*
X8815Y64093D01*
X8793Y64049D01*
X8771Y64010D01*
X8754Y63982D01*
X8743Y63966D01*
X8737Y63960D01*
X8693Y63921D01*
X8648Y63888D01*
X8598Y63860D01*
X8554Y63838D01*
X8515Y63827D01*
X8482Y63816D01*
X8460Y63810D01*
X8454D01*
X8432Y63805D01*
X8399D01*
X8326Y63799D01*
X8238Y63794D01*
X8149D01*
X8066Y63788D01*
X7211D01*
Y64815D01*
X8016D01*
X8093Y64809D01*
D02*
G37*
G36*
X16274Y66386D02*
X16357Y66374D01*
X16435Y66363D01*
X16507Y66341D01*
X16635Y66286D01*
X16696Y66258D01*
X16746Y66230D01*
X16796Y66197D01*
X16835Y66169D01*
X16868Y66141D01*
X16901Y66114D01*
X16923Y66091D01*
X16940Y66080D01*
X16946Y66069D01*
X16951Y66064D01*
X17001Y65997D01*
X17051Y65925D01*
X17090Y65853D01*
X17123Y65769D01*
X17173Y65603D01*
X17207Y65442D01*
X17223Y65370D01*
X17229Y65298D01*
X17234Y65237D01*
X17240Y65181D01*
X17245Y65131D01*
Y65098D01*
Y65076D01*
Y65070D01*
X17240Y64948D01*
X17234Y64832D01*
X17218Y64726D01*
X17201Y64632D01*
X17179Y64537D01*
X17151Y64454D01*
X17123Y64382D01*
X17096Y64315D01*
X17068Y64254D01*
X17040Y64204D01*
X17018Y64160D01*
X16990Y64121D01*
X16973Y64093D01*
X16957Y64077D01*
X16951Y64066D01*
X16946Y64060D01*
X16890Y63999D01*
X16829Y63949D01*
X16762Y63905D01*
X16701Y63866D01*
X16635Y63838D01*
X16574Y63810D01*
X16452Y63771D01*
X16346Y63744D01*
X16302Y63738D01*
X16263Y63733D01*
X16230Y63727D01*
X16185D01*
X16102Y63733D01*
X16019Y63744D01*
X15941Y63760D01*
X15869Y63783D01*
X15736Y63832D01*
X15630Y63899D01*
X15580Y63927D01*
X15541Y63960D01*
X15503Y63988D01*
X15475Y64016D01*
X15453Y64032D01*
X15436Y64049D01*
X15425Y64060D01*
X15419Y64066D01*
X15369Y64132D01*
X15319Y64204D01*
X15281Y64282D01*
X15247Y64365D01*
X15192Y64526D01*
X15158Y64687D01*
X15147Y64765D01*
X15136Y64832D01*
X15131Y64898D01*
X15125Y64954D01*
X15120Y64998D01*
Y65031D01*
Y65053D01*
Y65059D01*
X15125Y65181D01*
X15131Y65292D01*
X15147Y65398D01*
X15164Y65497D01*
X15186Y65586D01*
X15209Y65670D01*
X15236Y65742D01*
X15264Y65808D01*
X15292Y65869D01*
X15319Y65919D01*
X15342Y65958D01*
X15364Y65997D01*
X15381Y66025D01*
X15397Y66041D01*
X15403Y66053D01*
X15408Y66058D01*
X15464Y66119D01*
X15525Y66169D01*
X15591Y66214D01*
X15653Y66252D01*
X15719Y66286D01*
X15786Y66308D01*
X15908Y66352D01*
X16019Y66374D01*
X16063Y66380D01*
X16108Y66386D01*
X16141Y66391D01*
X16185D01*
X16274Y66386D01*
D02*
G37*
G36*
X12100D02*
X12184Y66374D01*
X12261Y66363D01*
X12334Y66341D01*
X12461Y66286D01*
X12522Y66258D01*
X12572Y66230D01*
X12622Y66197D01*
X12661Y66169D01*
X12694Y66141D01*
X12728Y66114D01*
X12750Y66091D01*
X12766Y66080D01*
X12772Y66069D01*
X12778Y66064D01*
X12828Y65997D01*
X12878Y65925D01*
X12916Y65853D01*
X12950Y65769D01*
X13000Y65603D01*
X13033Y65442D01*
X13049Y65370D01*
X13055Y65298D01*
X13061Y65237D01*
X13066Y65181D01*
X13072Y65131D01*
Y65098D01*
Y65076D01*
Y65070D01*
X13066Y64948D01*
X13061Y64832D01*
X13044Y64726D01*
X13027Y64632D01*
X13005Y64537D01*
X12977Y64454D01*
X12950Y64382D01*
X12922Y64315D01*
X12894Y64254D01*
X12866Y64204D01*
X12844Y64160D01*
X12816Y64121D01*
X12800Y64093D01*
X12783Y64077D01*
X12778Y64066D01*
X12772Y64060D01*
X12717Y63999D01*
X12655Y63949D01*
X12589Y63905D01*
X12528Y63866D01*
X12461Y63838D01*
X12400Y63810D01*
X12278Y63771D01*
X12173Y63744D01*
X12128Y63738D01*
X12089Y63733D01*
X12056Y63727D01*
X12012D01*
X11928Y63733D01*
X11845Y63744D01*
X11767Y63760D01*
X11695Y63783D01*
X11562Y63832D01*
X11457Y63899D01*
X11407Y63927D01*
X11368Y63960D01*
X11329Y63988D01*
X11301Y64016D01*
X11279Y64032D01*
X11262Y64049D01*
X11251Y64060D01*
X11246Y64066D01*
X11196Y64132D01*
X11146Y64204D01*
X11107Y64282D01*
X11074Y64365D01*
X11018Y64526D01*
X10985Y64687D01*
X10974Y64765D01*
X10963Y64832D01*
X10957Y64898D01*
X10952Y64954D01*
X10946Y64998D01*
Y65031D01*
Y65053D01*
Y65059D01*
X10952Y65181D01*
X10957Y65292D01*
X10974Y65398D01*
X10990Y65497D01*
X11013Y65586D01*
X11035Y65670D01*
X11063Y65742D01*
X11090Y65808D01*
X11118Y65869D01*
X11146Y65919D01*
X11168Y65958D01*
X11190Y65997D01*
X11207Y66025D01*
X11224Y66041D01*
X11229Y66053D01*
X11235Y66058D01*
X11290Y66119D01*
X11351Y66169D01*
X11418Y66214D01*
X11479Y66252D01*
X11546Y66286D01*
X11612Y66308D01*
X11734Y66352D01*
X11845Y66374D01*
X11890Y66380D01*
X11934Y66386D01*
X11967Y66391D01*
X12012D01*
X12100Y66386D01*
D02*
G37*
D24*
X104425Y5909D02*
Y17910D01*
X21752Y5909D02*
X104425D01*
X21752D02*
Y17910D01*
X104425D01*
X125571Y120807D02*
Y130807D01*
X115571Y120807D02*
X125571D01*
X115571Y130807D02*
X125571D01*
X123071Y120807D02*
X125571Y118307D01*
Y113307D02*
Y118307D01*
X123071Y110807D02*
X125571Y113307D01*
X118071Y110807D02*
X123071D01*
X115571Y113307D02*
X118071Y110807D01*
X115571Y113307D02*
Y118307D01*
X118071Y120807D01*
X115571D02*
Y130807D01*
Y108307D02*
X118071Y110807D01*
X115571Y103307D02*
Y108307D01*
Y103307D02*
X118071Y100807D01*
X123071D01*
X125571Y103307D01*
Y108307D01*
X123071Y110807D02*
X125571Y108307D01*
X115571Y98307D02*
X118071Y100807D01*
X115571Y93307D02*
Y98307D01*
Y93307D02*
X118071Y90807D01*
X123071D01*
X125571Y93307D01*
Y98307D01*
X123071Y100807D02*
X125571Y98307D01*
X115571Y88307D02*
X118071Y90807D01*
X115571Y83307D02*
Y88307D01*
Y83307D02*
X118071Y80807D01*
X123071D01*
X125571Y83307D01*
Y88307D01*
X123071Y90807D02*
X125571Y88307D01*
D39*
X25834Y50000D02*
G03*
X25834Y50000I-440J0D01*
G01*
X25394D02*
G03*
X25394Y50000I-197J0D01*
G01*
X2999Y43898D02*
G03*
X2999Y43898I-440J0D01*
G01*
X2953D02*
G03*
X2953Y43898I-197J0D01*
G01*
X5949Y103374D02*
Y112374D01*
X20949Y103374D02*
Y112374D01*
X5949D02*
X20949D01*
X5949Y103374D02*
X20949D01*
X9055Y48228D02*
X18898D01*
X5709Y52559D02*
Y56496D01*
X9055Y60827D02*
X18898D01*
X22244Y52559D02*
Y56496D01*
X9055Y45669D02*
X18898D01*
X22244Y37402D02*
Y41339D01*
X9055Y33071D02*
X18898D01*
X5709Y37402D02*
Y41339D01*
D40*
X43504Y37992D02*
Y62795D01*
X29724Y37992D02*
Y62795D01*
X29921D01*
X43307D02*
X43504D01*
X29724Y37992D02*
X29921D01*
X43307D02*
X43504D01*
X99803Y33268D02*
Y58071D01*
X113583Y33268D02*
Y58071D01*
X113386Y33268D02*
X113583D01*
X99803D02*
X100000D01*
X113386Y58071D02*
X113583D01*
X99803D02*
X100000D01*
D41*
X46063Y33661D02*
X53937D01*
X46063Y47441D02*
X53937D01*
Y42520D02*
Y47441D01*
X46063Y42520D02*
Y47441D01*
X53937Y33661D02*
Y38583D01*
X46063Y33661D02*
Y38583D01*
X3543Y119095D02*
Y128937D01*
X23228Y119095D02*
Y128937D01*
X15354Y119095D02*
X23228D01*
X15354Y128937D02*
X23228D01*
X3543Y119095D02*
X11417D01*
X3543Y128937D02*
X11417D01*
X18701Y68898D02*
Y76772D01*
X4921Y68898D02*
Y76772D01*
X9843D01*
X4921Y68898D02*
X9843D01*
X13780Y76772D02*
X18701D01*
X13780Y68898D02*
X18701D01*
X16732Y17717D02*
Y25591D01*
X2953Y17717D02*
Y25591D01*
X7874D01*
X2953Y17717D02*
X7874D01*
X11811Y25591D02*
X16732D01*
X11811Y17717D02*
X16732D01*
X91929Y69685D02*
X105709D01*
X91929Y77559D02*
X105709D01*
Y69685D02*
Y77559D01*
X91929Y69685D02*
Y77559D01*
X6496Y94095D02*
X20276D01*
X6496Y101969D02*
X20276D01*
Y94095D02*
Y101969D01*
X6496Y94095D02*
Y101969D01*
X3937Y77756D02*
Y91535D01*
X11811Y77756D02*
Y91535D01*
X3937Y77756D02*
X11811D01*
X3937Y91535D02*
X11811D01*
X11024Y2953D02*
Y16732D01*
X3150Y2953D02*
Y16732D01*
X11024D01*
X3150Y2953D02*
X11024D01*
D42*
X56484Y32980D02*
X58484Y30980D01*
X95484D01*
X56484Y58980D02*
X95484D01*
Y30980D02*
Y58980D01*
X56484Y32980D02*
Y58980D01*
D43*
X3937Y106693D02*
Y109055D01*
X2756Y107874D02*
X5118D01*
D44*
X36614Y46654D02*
D03*
X106693Y49409D02*
D03*
D45*
X21752Y107789D02*
D03*
M02*
