G04 Layer_Physical_Order=1*
G04 Layer_Color=255*
%FSLAX44Y44*%
%MOMM*%
G71*
G01*
G75*
G04:AMPARAMS|DCode=10|XSize=1.016mm|YSize=1.524mm|CornerRadius=0.254mm|HoleSize=0mm|Usage=FLASHONLY|Rotation=0.000|XOffset=0mm|YOffset=0mm|HoleType=Round|Shape=RoundedRectangle|*
%AMROUNDEDRECTD10*
21,1,1.0160,1.0160,0,0,0.0*
21,1,0.5080,1.5240,0,0,0.0*
1,1,0.5080,0.2540,-0.5080*
1,1,0.5080,-0.2540,-0.5080*
1,1,0.5080,-0.2540,0.5080*
1,1,0.5080,0.2540,0.5080*
%
%ADD10ROUNDEDRECTD10*%
G04:AMPARAMS|DCode=11|XSize=1mm|YSize=1.25mm|CornerRadius=0.25mm|HoleSize=0mm|Usage=FLASHONLY|Rotation=0.000|XOffset=0mm|YOffset=0mm|HoleType=Round|Shape=RoundedRectangle|*
%AMROUNDEDRECTD11*
21,1,1.0000,0.7500,0,0,0.0*
21,1,0.5000,1.2500,0,0,0.0*
1,1,0.5000,0.2500,-0.3750*
1,1,0.5000,-0.2500,-0.3750*
1,1,0.5000,-0.2500,0.3750*
1,1,0.5000,0.2500,0.3750*
%
%ADD11ROUNDEDRECTD11*%
G04:AMPARAMS|DCode=12|XSize=2.4mm|YSize=2.4mm|CornerRadius=0.3mm|HoleSize=0mm|Usage=FLASHONLY|Rotation=90.000|XOffset=0mm|YOffset=0mm|HoleType=Round|Shape=RoundedRectangle|*
%AMROUNDEDRECTD12*
21,1,2.4000,1.8000,0,0,90.0*
21,1,1.8000,2.4000,0,0,90.0*
1,1,0.6000,0.9000,0.9000*
1,1,0.6000,0.9000,-0.9000*
1,1,0.6000,-0.9000,-0.9000*
1,1,0.6000,-0.9000,0.9000*
%
%ADD12ROUNDEDRECTD12*%
G04:AMPARAMS|DCode=13|XSize=1mm|YSize=1.25mm|CornerRadius=0.25mm|HoleSize=0mm|Usage=FLASHONLY|Rotation=270.000|XOffset=0mm|YOffset=0mm|HoleType=Round|Shape=RoundedRectangle|*
%AMROUNDEDRECTD13*
21,1,1.0000,0.7500,0,0,270.0*
21,1,0.5000,1.2500,0,0,270.0*
1,1,0.5000,-0.3750,-0.2500*
1,1,0.5000,-0.3750,0.2500*
1,1,0.5000,0.3750,0.2500*
1,1,0.5000,0.3750,-0.2500*
%
%ADD13ROUNDEDRECTD13*%
G04:AMPARAMS|DCode=14|XSize=1mm|YSize=1.6mm|CornerRadius=0.25mm|HoleSize=0mm|Usage=FLASHONLY|Rotation=0.000|XOffset=0mm|YOffset=0mm|HoleType=Round|Shape=RoundedRectangle|*
%AMROUNDEDRECTD14*
21,1,1.0000,1.1000,0,0,0.0*
21,1,0.5000,1.6000,0,0,0.0*
1,1,0.5000,0.2500,-0.5500*
1,1,0.5000,-0.2500,-0.5500*
1,1,0.5000,-0.2500,0.5500*
1,1,0.5000,0.2500,0.5500*
%
%ADD14ROUNDEDRECTD14*%
G04:AMPARAMS|DCode=15|XSize=1.524mm|YSize=0.6096mm|CornerRadius=0.1524mm|HoleSize=0mm|Usage=FLASHONLY|Rotation=270.000|XOffset=0mm|YOffset=0mm|HoleType=Round|Shape=RoundedRectangle|*
%AMROUNDEDRECTD15*
21,1,1.5240,0.3048,0,0,270.0*
21,1,1.2192,0.6096,0,0,270.0*
1,1,0.3048,-0.1524,-0.6096*
1,1,0.3048,-0.1524,0.6096*
1,1,0.3048,0.1524,0.6096*
1,1,0.3048,0.1524,-0.6096*
%
%ADD15ROUNDEDRECTD15*%
%ADD16R,0.6096X1.4732*%
%ADD17R,1.3300X1.3300*%
%ADD18R,1.3300X1.3300*%
%ADD19R,2.0000X0.9000*%
%ADD20R,0.9000X2.0000*%
%ADD21R,1.0500X0.6500*%
%ADD22C,0.5080*%
%ADD23C,0.4000*%
%ADD24C,0.5000*%
%ADD25C,0.7500*%
%ADD26C,0.2540*%
%ADD27C,0.7000*%
%ADD28C,2.7000*%
%ADD29R,1.4000X1.4000*%
%ADD30C,1.5000*%
%ADD31C,2.0000*%
%ADD32R,2.0000X2.0000*%
%ADD33C,0.8000*%
%ADD34C,0.7000*%
%ADD35C,1.0000*%
G36*
X65400Y328350D02*
Y315650D01*
Y302950D01*
Y290250D01*
Y277550D01*
Y264850D01*
Y252150D01*
Y240868D01*
X49472D01*
X45056Y245284D01*
Y246741D01*
X45829Y247375D01*
X47000Y247142D01*
X47750D01*
Y258250D01*
Y269358D01*
X47000D01*
X45829Y269125D01*
X45056Y269759D01*
Y277191D01*
X45708Y278166D01*
X46173Y280508D01*
Y286750D01*
X47070Y287192D01*
X47470Y286886D01*
X49173Y286180D01*
X49250Y286170D01*
Y293000D01*
Y299830D01*
X49173Y299820D01*
X47470Y299114D01*
X46008Y297992D01*
X44886Y296530D01*
X44180Y294827D01*
X44040Y293764D01*
X42968Y293278D01*
X42397Y293659D01*
X40056Y294125D01*
X35056D01*
X32715Y293659D01*
X30730Y292333D01*
X29404Y290349D01*
X28938Y288008D01*
Y280508D01*
X29404Y278166D01*
X30730Y276182D01*
X32715Y274856D01*
X32821Y274835D01*
Y242750D01*
X33286Y240409D01*
X34612Y238424D01*
X42612Y230424D01*
X44597Y229098D01*
X46938Y228633D01*
X65400D01*
Y214050D01*
X87813D01*
X88196Y213126D01*
X85677Y210608D01*
X28890D01*
X28076Y211826D01*
X26091Y213152D01*
X23750Y213617D01*
X16250D01*
X13909Y213152D01*
X11924Y211826D01*
X10598Y209841D01*
X10132Y207500D01*
Y202500D01*
X10598Y200159D01*
X11924Y198174D01*
X13909Y196848D01*
X14392Y196752D01*
Y194796D01*
X12409Y194402D01*
X10424Y193076D01*
X9098Y191091D01*
X8632Y188750D01*
Y181250D01*
X9098Y178909D01*
X10424Y176924D01*
X11716Y176061D01*
X11843Y174774D01*
X10785Y173715D01*
X9569Y171896D01*
X9142Y169750D01*
Y156000D01*
X6000D01*
Y142500D01*
X23500D01*
Y143642D01*
X47500D01*
Y142500D01*
X65000D01*
Y156000D01*
X47500D01*
Y154858D01*
X23500D01*
Y156000D01*
X20358D01*
Y167427D01*
X23965Y171035D01*
X25181Y172854D01*
X25608Y175000D01*
Y179944D01*
X25868Y181250D01*
Y188750D01*
X25608Y190056D01*
Y196752D01*
X26091Y196848D01*
X28076Y198174D01*
X28890Y199392D01*
X88000D01*
X90146Y199819D01*
X91965Y201035D01*
X98326Y207396D01*
X99250Y207013D01*
Y199050D01*
X105000D01*
Y212050D01*
X108500D01*
Y199050D01*
X111450D01*
Y198550D01*
X215442D01*
Y193950D01*
X215869Y191804D01*
X217085Y189985D01*
X224035Y183035D01*
X225854Y181819D01*
X228000Y181392D01*
X242609D01*
X243924Y179424D01*
X245909Y178098D01*
X248250Y177633D01*
X253250D01*
X255591Y178098D01*
X257576Y179424D01*
X258902Y181409D01*
X259368Y183750D01*
Y191250D01*
X258902Y193591D01*
X257576Y195576D01*
X255591Y196902D01*
X253250Y197368D01*
X248250D01*
X245909Y196902D01*
X243924Y195576D01*
X242598Y193591D01*
X242402Y192608D01*
X230323D01*
X226658Y196273D01*
Y198550D01*
X229050D01*
Y220713D01*
X229974Y221096D01*
X232985Y218085D01*
X234804Y216869D01*
X235400Y216751D01*
Y214050D01*
X262400D01*
Y226750D01*
Y237363D01*
X263324Y237745D01*
X266392Y234677D01*
Y206000D01*
X266819Y203854D01*
X268035Y202035D01*
X271778Y198291D01*
X271395Y197368D01*
X268250D01*
X265909Y196902D01*
X263924Y195576D01*
X262598Y193591D01*
X262132Y191250D01*
Y183750D01*
X262598Y181409D01*
X263924Y179424D01*
X265133Y178617D01*
Y173848D01*
X264699Y173282D01*
X263943Y171458D01*
X263685Y169500D01*
X263943Y167542D01*
X264699Y165718D01*
X264883Y165478D01*
Y162556D01*
X262000D01*
X260303Y162333D01*
X258722Y161678D01*
X257364Y160636D01*
X256322Y159278D01*
X255667Y157697D01*
X255444Y156000D01*
Y138000D01*
X255667Y136303D01*
X256322Y134722D01*
X257364Y133364D01*
X258722Y132322D01*
X260303Y131667D01*
X262000Y131444D01*
X280000D01*
X281697Y131667D01*
X283278Y132322D01*
X284636Y133364D01*
X285678Y134722D01*
X286333Y136303D01*
X286556Y138000D01*
Y156000D01*
X286333Y157697D01*
X285678Y159278D01*
X284636Y160636D01*
X283278Y161678D01*
X281697Y162333D01*
X280000Y162556D01*
X277118D01*
Y164827D01*
X277801Y165718D01*
X278557Y167542D01*
X278815Y169500D01*
X278557Y171458D01*
X277801Y173282D01*
X277367Y173848D01*
Y179285D01*
X277576Y179424D01*
X278902Y181409D01*
X279368Y183750D01*
Y189395D01*
X280291Y189778D01*
X296392Y173677D01*
Y48323D01*
X261677Y13608D01*
X142323D01*
X137104Y18826D01*
X137487Y19750D01*
X160500D01*
Y20250D01*
X168250D01*
Y30250D01*
Y40250D01*
X160500D01*
Y40750D01*
X59500D01*
Y19750D01*
X124392D01*
Y18000D01*
X124819Y15854D01*
X126035Y14035D01*
X129146Y10924D01*
X128763Y10000D01*
X40066D01*
X39652Y11000D01*
X46326Y17674D01*
X47652Y19659D01*
X48117Y22000D01*
Y26010D01*
X49425Y27713D01*
X50281Y29781D01*
X50573Y32000D01*
X50281Y34219D01*
X50161Y34509D01*
X74326Y58674D01*
X75652Y60659D01*
X76118Y63000D01*
Y74466D01*
X77696Y76044D01*
X78643Y75577D01*
X78435Y74000D01*
X78693Y72042D01*
X79449Y70218D01*
X80651Y68651D01*
X82218Y67449D01*
X84042Y66693D01*
X86000Y66435D01*
X87958Y66693D01*
X89782Y67449D01*
X91012Y68392D01*
X92455D01*
X92776Y67445D01*
X92651Y67349D01*
X91449Y65782D01*
X90693Y63958D01*
X90435Y62000D01*
X90693Y60042D01*
X91449Y58218D01*
X92651Y56651D01*
X94218Y55449D01*
X96042Y54693D01*
X98000Y54435D01*
X99958Y54693D01*
X101782Y55449D01*
X103012Y56392D01*
X103677D01*
X112785Y47285D01*
X114604Y46069D01*
X116750Y45642D01*
X169250D01*
X171396Y46069D01*
X173215Y47285D01*
X177915Y51985D01*
X179131Y53804D01*
X179558Y55950D01*
Y57725D01*
X179699Y57936D01*
X180901D01*
X181504Y57034D01*
X183166Y55924D01*
X185126Y55534D01*
X188174D01*
X190134Y55924D01*
X191796Y57034D01*
X192399Y57936D01*
X193601D01*
X194204Y57034D01*
X195866Y55924D01*
X197826Y55534D01*
X200874D01*
X202834Y55924D01*
X204496Y57034D01*
X205099Y57936D01*
X206301D01*
X206904Y57034D01*
X208566Y55924D01*
X210526Y55534D01*
X213574D01*
X215534Y55924D01*
X217196Y57034D01*
X217799Y57936D01*
X219001D01*
X219604Y57034D01*
X221266Y55924D01*
X223226Y55534D01*
X226274D01*
X228234Y55924D01*
X229896Y57034D01*
X230499Y57936D01*
X231701D01*
X232304Y57034D01*
X233966Y55924D01*
X235926Y55534D01*
X238974D01*
X240934Y55924D01*
X242596Y57034D01*
X243706Y58696D01*
X244096Y60656D01*
Y72848D01*
X243706Y74808D01*
X242596Y76470D01*
X240934Y77580D01*
X238974Y77970D01*
X235926D01*
X233966Y77580D01*
X232304Y76470D01*
X231701Y75568D01*
X230499D01*
X229896Y76470D01*
X228234Y77580D01*
X226274Y77970D01*
X223226D01*
X221266Y77580D01*
X219604Y76470D01*
X219001Y75568D01*
X217799D01*
X217196Y76470D01*
X215534Y77580D01*
X213574Y77970D01*
X210526D01*
X208566Y77580D01*
X206904Y76470D01*
X206301Y75568D01*
X205099D01*
X204496Y76470D01*
X202834Y77580D01*
X200874Y77970D01*
X197826D01*
X195866Y77580D01*
X194204Y76470D01*
X193601Y75568D01*
X192399D01*
X191796Y76470D01*
X190134Y77580D01*
X188174Y77970D01*
X185126D01*
X183166Y77580D01*
X181504Y76470D01*
X180901Y75568D01*
X179699D01*
X179096Y76470D01*
X177434Y77580D01*
X175474Y77970D01*
X172426D01*
X170466Y77580D01*
X168804Y76470D01*
X168368Y75817D01*
X167367Y76120D01*
Y78750D01*
X166902Y81091D01*
X165576Y83076D01*
X151326Y97326D01*
X149341Y98652D01*
X147000Y99118D01*
X132556D01*
Y100000D01*
X132333Y101697D01*
X131678Y103278D01*
X130636Y104636D01*
X129278Y105678D01*
X127697Y106333D01*
X126000Y106556D01*
X108000D01*
X106303Y106333D01*
X104722Y105678D01*
X103364Y104636D01*
X102322Y103278D01*
X101667Y101697D01*
X101444Y100000D01*
Y99118D01*
X91617D01*
Y122366D01*
X93576Y123674D01*
X94902Y125659D01*
X95368Y128000D01*
Y133000D01*
X94902Y135341D01*
X93576Y137326D01*
X91591Y138652D01*
X89250Y139117D01*
X81750D01*
X79409Y138652D01*
X77424Y137326D01*
X76098Y135341D01*
X75633Y133000D01*
Y128000D01*
X76098Y125659D01*
X77424Y123674D01*
X79383Y122366D01*
Y95034D01*
X65674Y81326D01*
X64348Y79341D01*
X63882Y77000D01*
Y65534D01*
X37816Y39467D01*
X37713Y39425D01*
X35938Y38062D01*
X34575Y36287D01*
X33719Y34219D01*
X33427Y32000D01*
X33719Y29781D01*
X34575Y27713D01*
X35882Y26010D01*
Y24534D01*
X32466Y21117D01*
X26549D01*
X26076Y21826D01*
X24091Y23152D01*
X21750Y23617D01*
X14250D01*
X11909Y23152D01*
X9924Y21826D01*
X8598Y19841D01*
X8132Y17500D01*
Y12500D01*
X8431Y11000D01*
X7610Y10000D01*
X3000D01*
Y222984D01*
X3924Y223367D01*
X7145Y220145D01*
X9143Y218811D01*
X11500Y218342D01*
X11812D01*
X11924Y218174D01*
X13909Y216848D01*
X16250Y216383D01*
X23750D01*
X26091Y216848D01*
X28076Y218174D01*
X29402Y220159D01*
X29868Y222500D01*
Y227500D01*
X29402Y229841D01*
X28076Y231826D01*
X26091Y233152D01*
X23750Y233617D01*
X16250D01*
X14408Y233251D01*
X13408Y233929D01*
Y235706D01*
X13801Y236218D01*
X14557Y238042D01*
X14815Y240000D01*
X14557Y241958D01*
X13801Y243782D01*
X13408Y244294D01*
Y246873D01*
X14290Y247344D01*
X14659Y247098D01*
X17000Y246632D01*
X22000D01*
X24341Y247098D01*
X26326Y248424D01*
X27652Y250409D01*
X28117Y252750D01*
Y263750D01*
X27652Y266091D01*
X26326Y268076D01*
X24341Y269402D01*
X22000Y269867D01*
X17000D01*
X14659Y269402D01*
X12674Y268076D01*
X11348Y266091D01*
X10993Y264307D01*
X9143Y263940D01*
X7145Y262605D01*
X3924Y259383D01*
X3000Y259766D01*
Y338750D01*
X65400D01*
Y328350D01*
D02*
G37*
G36*
X268642Y318927D02*
Y262750D01*
X268669Y262615D01*
X267787Y262143D01*
X265815Y264115D01*
X263996Y265331D01*
X262400Y265648D01*
Y277550D01*
Y290250D01*
Y302950D01*
Y315650D01*
Y323863D01*
X263324Y324246D01*
X268642Y318927D01*
D02*
G37*
G36*
X235900Y394650D02*
Y388900D01*
X248900D01*
Y385400D01*
X235900D01*
Y382450D01*
X235400D01*
Y367358D01*
X229750D01*
X227604Y366931D01*
X225785Y365715D01*
X211035Y350965D01*
X209819Y349146D01*
X209392Y347000D01*
Y342012D01*
X208449Y340782D01*
X207693Y338958D01*
X207435Y337000D01*
X207693Y335042D01*
X208449Y333218D01*
X209651Y331651D01*
X211218Y330449D01*
X213042Y329693D01*
X215000Y329435D01*
X216958Y329693D01*
X218782Y330449D01*
X220349Y331651D01*
X221551Y333218D01*
X222307Y335042D01*
X222565Y337000D01*
X222307Y338958D01*
X221551Y340782D01*
X220608Y342012D01*
Y344677D01*
X232073Y356142D01*
X235400D01*
Y341050D01*
Y329258D01*
X232650D01*
X230504Y328831D01*
X228685Y327615D01*
X211035Y309965D01*
X209819Y308146D01*
X209392Y306000D01*
Y268000D01*
X209819Y265854D01*
X211035Y264035D01*
X215491Y259579D01*
X215693Y258042D01*
X216449Y256218D01*
X217651Y254651D01*
X219218Y253449D01*
X221042Y252693D01*
X223000Y252435D01*
X224958Y252693D01*
X226782Y253449D01*
X228349Y254651D01*
X229551Y256218D01*
X230307Y258042D01*
X230565Y260000D01*
X230307Y261958D01*
X229551Y263782D01*
X228349Y265349D01*
X226782Y266551D01*
X224958Y267307D01*
X223421Y267509D01*
X220608Y270323D01*
Y289752D01*
X220713Y289810D01*
X221608Y290011D01*
X222392Y288988D01*
Y280000D01*
X222819Y277854D01*
X224035Y276035D01*
X231185Y268885D01*
X233004Y267669D01*
X235150Y267242D01*
X235400D01*
Y252150D01*
Y239450D01*
Y232837D01*
X234476Y232454D01*
X233965Y232965D01*
X232146Y234181D01*
X230000Y234608D01*
X98000D01*
X95854Y234181D01*
X94035Y232965D01*
X93324Y232254D01*
X92400Y232637D01*
Y239450D01*
Y252150D01*
Y264850D01*
Y277550D01*
Y290250D01*
Y302950D01*
Y315650D01*
Y328350D01*
Y341050D01*
Y355633D01*
X100615D01*
X100693Y355042D01*
X101449Y353218D01*
X102651Y351651D01*
X104218Y350449D01*
X106042Y349693D01*
X108000Y349435D01*
X109958Y349693D01*
X111782Y350449D01*
X112348Y350882D01*
X119797D01*
X122138Y351348D01*
X124123Y352674D01*
X130751Y359302D01*
X189571D01*
X191042Y358693D01*
X193000Y358435D01*
X194958Y358693D01*
X196782Y359449D01*
X198349Y360651D01*
X199551Y362218D01*
X200307Y364042D01*
X200565Y366000D01*
X200307Y367958D01*
X199551Y369782D01*
X198349Y371349D01*
X196782Y372551D01*
X194958Y373307D01*
X193000Y373565D01*
X191042Y373307D01*
X189218Y372551D01*
X187897Y371538D01*
X128217D01*
X125876Y371072D01*
X123891Y369746D01*
X117263Y363117D01*
X112348D01*
X111782Y363551D01*
X109958Y364307D01*
X109252Y364400D01*
X107576Y366076D01*
X107419Y366181D01*
X107709Y367137D01*
X114450D01*
X116343Y367387D01*
X118106Y368117D01*
X119621Y369279D01*
X126817Y376475D01*
X128349Y377651D01*
X129551Y379218D01*
X130307Y381042D01*
X130565Y383000D01*
X130307Y384958D01*
X129551Y386782D01*
X128349Y388349D01*
X126782Y389551D01*
X124958Y390307D01*
X123000Y390565D01*
X121042Y390307D01*
X119218Y389551D01*
X117651Y388349D01*
X116475Y386816D01*
X111421Y381763D01*
X92615D01*
X92400Y382001D01*
Y382450D01*
X92400D01*
X91900Y383411D01*
Y385400D01*
X78900D01*
Y388900D01*
X91900D01*
Y394650D01*
X92755Y395000D01*
X235045D01*
X235900Y394650D01*
D02*
G37*
G36*
X289685Y239385D02*
X291504Y238169D01*
X293650Y237742D01*
X293960D01*
X294458Y236542D01*
X296622Y233722D01*
X299442Y231558D01*
X301080Y230879D01*
Y229879D01*
X299694Y229305D01*
X296978Y227222D01*
X294895Y224506D01*
X293585Y221344D01*
X293368Y219700D01*
X306250D01*
Y217950D01*
X308000D01*
Y205068D01*
X309644Y205285D01*
X312806Y206595D01*
X315522Y208678D01*
X317605Y211394D01*
X318915Y214556D01*
X319000Y215199D01*
X320000Y215133D01*
Y10000D01*
X275237D01*
X274854Y10924D01*
X294756Y30826D01*
X295510Y30165D01*
X294449Y28782D01*
X293693Y26958D01*
X293435Y25000D01*
X293693Y23042D01*
X294449Y21218D01*
X295651Y19651D01*
X297218Y18449D01*
X299042Y17693D01*
X301000Y17435D01*
X302958Y17693D01*
X304782Y18449D01*
X306349Y19651D01*
X307551Y21218D01*
X308307Y23042D01*
X308509Y24579D01*
X314965Y31035D01*
X316181Y32854D01*
X316608Y35000D01*
Y181000D01*
X316181Y183146D01*
X314965Y184965D01*
X287608Y212323D01*
Y240000D01*
X287581Y240135D01*
X288463Y240607D01*
X289685Y239385D01*
D02*
G37*
%LPC*%
G36*
X23000Y126000D02*
X16500D01*
Y121500D01*
X23000D01*
Y126000D01*
D02*
G37*
G36*
X71750Y126311D02*
Y121750D01*
X76311D01*
X75678Y123278D01*
X74636Y124636D01*
X73278Y125678D01*
X71750Y126311D01*
D02*
G37*
G36*
X54500Y126000D02*
X48000D01*
Y121500D01*
X54500D01*
Y126000D01*
D02*
G37*
G36*
X54500Y117000D02*
X48000D01*
Y112500D01*
X54500D01*
Y117000D01*
D02*
G37*
G36*
X76311Y118250D02*
X71750D01*
Y113689D01*
X73278Y114322D01*
X74636Y115364D01*
X75678Y116722D01*
X76311Y118250D01*
D02*
G37*
G36*
X13000Y126000D02*
X6500D01*
Y121500D01*
X13000D01*
Y126000D01*
D02*
G37*
G36*
X68250Y126311D02*
X66722Y125678D01*
X65500Y124740D01*
X64500Y124987D01*
Y126000D01*
X58000D01*
Y121500D01*
X62883D01*
X63542Y120748D01*
X63444Y120000D01*
X63667Y118303D01*
X63863Y117831D01*
X63307Y117000D01*
X58000D01*
Y112500D01*
X64500D01*
Y115013D01*
X65500Y115260D01*
X66722Y114322D01*
X68250Y113689D01*
Y120000D01*
Y126311D01*
D02*
G37*
G36*
X132118Y145250D02*
X118750D01*
Y131882D01*
X126000D01*
X128341Y132348D01*
X130326Y133674D01*
X131652Y135659D01*
X132118Y138000D01*
Y145250D01*
D02*
G37*
G36*
X115250D02*
X101882D01*
Y138000D01*
X102348Y135659D01*
X103674Y133674D01*
X105659Y132348D01*
X108000Y131882D01*
X115250D01*
Y145250D01*
D02*
G37*
G36*
X94858Y148750D02*
X87250D01*
Y142392D01*
X89250D01*
X91396Y142819D01*
X93215Y144035D01*
X94431Y145854D01*
X94858Y148000D01*
Y148750D01*
D02*
G37*
G36*
X83750D02*
X76142D01*
Y148000D01*
X76569Y145854D01*
X77785Y144035D01*
X79604Y142819D01*
X81750Y142392D01*
X83750D01*
Y148750D01*
D02*
G37*
G36*
X54500Y134000D02*
X48000D01*
Y129500D01*
X54500D01*
Y134000D01*
D02*
G37*
G36*
X13000D02*
X6500D01*
Y129500D01*
X13000D01*
Y134000D01*
D02*
G37*
G36*
X23000D02*
X16500D01*
Y129500D01*
X23000D01*
Y134000D01*
D02*
G37*
G36*
X64500D02*
X58000D01*
Y129500D01*
X64500D01*
Y134000D01*
D02*
G37*
G36*
X269250Y89250D02*
X255882D01*
Y82000D01*
X256348Y79659D01*
X257674Y77674D01*
X259659Y76348D01*
X262000Y75882D01*
X269250D01*
Y89250D01*
D02*
G37*
G36*
X37500Y64358D02*
X36750D01*
Y56750D01*
X43108D01*
Y58750D01*
X42681Y60896D01*
X41465Y62715D01*
X39646Y63931D01*
X37500Y64358D01*
D02*
G37*
G36*
X269250Y106117D02*
X262000D01*
X259659Y105652D01*
X257674Y104326D01*
X256348Y102341D01*
X255882Y100000D01*
Y92750D01*
X269250D01*
Y106117D01*
D02*
G37*
G36*
X286117Y89250D02*
X272750D01*
Y75882D01*
X280000D01*
X282341Y76348D01*
X284326Y77674D01*
X285652Y79659D01*
X286117Y82000D01*
Y89250D01*
D02*
G37*
G36*
X33250Y53250D02*
X26892D01*
Y51250D01*
X27319Y49104D01*
X28535Y47285D01*
X30354Y46069D01*
X32500Y45642D01*
X33250D01*
Y53250D01*
D02*
G37*
G36*
X250000Y41345D02*
X247128Y40967D01*
X244452Y39859D01*
X242155Y38095D01*
X241447Y37173D01*
X240500Y37494D01*
Y40750D01*
X179500D01*
Y40250D01*
X171750D01*
Y30250D01*
Y20250D01*
X179500D01*
Y19750D01*
X240500D01*
Y23006D01*
X241447Y23327D01*
X242155Y22405D01*
X244452Y20642D01*
X247128Y19533D01*
X250000Y19155D01*
X252872Y19533D01*
X255548Y20642D01*
X257845Y22405D01*
X259608Y24703D01*
X260717Y27378D01*
X261095Y30250D01*
X260717Y33122D01*
X259608Y35797D01*
X257845Y38095D01*
X255548Y39859D01*
X252872Y40967D01*
X250000Y41345D01*
D02*
G37*
G36*
X33250Y64358D02*
X32500D01*
X30354Y63931D01*
X28535Y62715D01*
X27319Y60896D01*
X26892Y58750D01*
Y56750D01*
X33250D01*
Y64358D01*
D02*
G37*
G36*
X43108Y53250D02*
X36750D01*
Y45642D01*
X37500D01*
X39646Y46069D01*
X41465Y47285D01*
X42681Y49104D01*
X43108Y51250D01*
Y53250D01*
D02*
G37*
G36*
X64500Y109000D02*
X58000D01*
Y104500D01*
X64500D01*
Y109000D01*
D02*
G37*
G36*
X54500D02*
X48000D01*
Y104500D01*
X54500D01*
Y109000D01*
D02*
G37*
G36*
X23000Y117000D02*
X16500D01*
Y112500D01*
X23000D01*
Y117000D01*
D02*
G37*
G36*
X13000D02*
X6500D01*
Y112500D01*
X13000D01*
Y117000D01*
D02*
G37*
G36*
X35000Y111565D02*
X33042Y111307D01*
X31218Y110551D01*
X29651Y109349D01*
X28449Y107782D01*
X27693Y105958D01*
X27435Y104000D01*
X27693Y102042D01*
X28449Y100218D01*
X29392Y98988D01*
Y97323D01*
X26927Y94858D01*
X23500D01*
Y96000D01*
X6000D01*
Y82500D01*
X8642D01*
Y80000D01*
X9069Y77854D01*
X9392Y77370D01*
Y63890D01*
X8174Y63076D01*
X6848Y61091D01*
X6382Y58750D01*
Y51250D01*
X6848Y48909D01*
X8174Y46924D01*
X9392Y46110D01*
Y46000D01*
X9819Y43854D01*
X10789Y42403D01*
X9924Y41826D01*
X8598Y39841D01*
X8132Y37500D01*
Y32500D01*
X8598Y30159D01*
X9924Y28174D01*
X11909Y26848D01*
X14250Y26383D01*
X21750D01*
X24091Y26848D01*
X26076Y28174D01*
X27402Y30159D01*
X27868Y32500D01*
Y37500D01*
X27402Y39841D01*
X26076Y41826D01*
X24091Y43152D01*
X23556Y43258D01*
X23181Y45146D01*
X21965Y46965D01*
X21898Y47032D01*
X23152Y48909D01*
X23617Y51250D01*
Y58750D01*
X23152Y61091D01*
X21826Y63076D01*
X20608Y63890D01*
Y79250D01*
X20181Y81396D01*
X20111Y81500D01*
X20592Y82500D01*
X23500D01*
Y83642D01*
X29250D01*
X31396Y84069D01*
X33215Y85285D01*
X35000Y87069D01*
X36785Y85285D01*
X38604Y84069D01*
X40750Y83642D01*
X47500D01*
Y82500D01*
X65000D01*
Y96000D01*
X47500D01*
Y94858D01*
X43073D01*
X40608Y97323D01*
Y98988D01*
X41551Y100218D01*
X42307Y102042D01*
X42565Y104000D01*
X42307Y105958D01*
X41551Y107782D01*
X40349Y109349D01*
X38782Y110551D01*
X36958Y111307D01*
X35000Y111565D01*
D02*
G37*
G36*
X280000Y106117D02*
X272750D01*
Y92750D01*
X286117D01*
Y100000D01*
X285652Y102341D01*
X284326Y104326D01*
X282341Y105652D01*
X280000Y106117D01*
D02*
G37*
G36*
X23000Y109000D02*
X16500D01*
Y104500D01*
X23000D01*
Y109000D01*
D02*
G37*
G36*
X13000D02*
X6500D01*
Y104500D01*
X13000D01*
Y109000D01*
D02*
G37*
G36*
X115250Y162118D02*
X108000D01*
X105659Y161652D01*
X103674Y160326D01*
X102348Y158341D01*
X101882Y156000D01*
Y148750D01*
X115250D01*
Y162118D01*
D02*
G37*
G36*
X41238Y322729D02*
X40448D01*
Y313750D01*
X46887D01*
Y317080D01*
X46457Y319242D01*
X45232Y321074D01*
X43400Y322299D01*
X41238Y322729D01*
D02*
G37*
G36*
X36948Y310250D02*
X30510D01*
Y306920D01*
X30940Y304758D01*
X32164Y302926D01*
X33997Y301702D01*
X36158Y301271D01*
X36948D01*
Y310250D01*
D02*
G37*
G36*
X52750Y299830D02*
Y294750D01*
X57830D01*
X57820Y294827D01*
X57115Y296530D01*
X55992Y297992D01*
X54530Y299114D01*
X52827Y299820D01*
X52750Y299830D01*
D02*
G37*
G36*
X36948Y322729D02*
X36158D01*
X33997Y322299D01*
X32164Y321074D01*
X30940Y319242D01*
X30510Y317080D01*
Y313750D01*
X36948D01*
Y322729D01*
D02*
G37*
G36*
X46887Y310250D02*
X40448D01*
Y301271D01*
X41238D01*
X43400Y301702D01*
X45232Y302926D01*
X46457Y304758D01*
X46887Y306920D01*
Y310250D01*
D02*
G37*
G36*
X35500Y183250D02*
X29142D01*
Y181250D01*
X29569Y179104D01*
X30785Y177285D01*
X32604Y176069D01*
X34750Y175642D01*
X35500D01*
Y183250D01*
D02*
G37*
G36*
X238974Y172966D02*
X235926D01*
X233966Y172577D01*
X232304Y171466D01*
X231701Y170564D01*
X230499D01*
X229896Y171466D01*
X228234Y172577D01*
X226274Y172966D01*
X223226D01*
X221266Y172577D01*
X219604Y171466D01*
X219001Y170564D01*
X217799D01*
X217196Y171466D01*
X215534Y172577D01*
X213574Y172966D01*
X210526D01*
X208566Y172577D01*
X206904Y171466D01*
X206301Y170564D01*
X205099D01*
X204496Y171466D01*
X202834Y172577D01*
X200874Y172966D01*
X197826D01*
X195866Y172577D01*
X194204Y171466D01*
X193282Y170087D01*
X192339Y169996D01*
X192144Y170046D01*
X191436Y171106D01*
X189939Y172106D01*
X188400Y172412D01*
Y161748D01*
Y151084D01*
X189939Y151390D01*
X191436Y152390D01*
X192144Y153450D01*
X192339Y153500D01*
X193282Y153409D01*
X194204Y152030D01*
X195866Y150920D01*
X197826Y150530D01*
X200874D01*
X202834Y150920D01*
X204496Y152030D01*
X205099Y152932D01*
X206301D01*
X206904Y152030D01*
X208566Y150920D01*
X210526Y150530D01*
X213574D01*
X215534Y150920D01*
X217196Y152030D01*
X217799Y152932D01*
X219001D01*
X219604Y152030D01*
X221266Y150920D01*
X223226Y150530D01*
X226274D01*
X228234Y150920D01*
X229896Y152030D01*
X230499Y152932D01*
X231701D01*
X232304Y152030D01*
X233966Y150920D01*
X235926Y150530D01*
X238974D01*
X240934Y150920D01*
X242596Y152030D01*
X243706Y153692D01*
X244096Y155652D01*
Y167844D01*
X243706Y169804D01*
X242596Y171466D01*
X240934Y172577D01*
X238974Y172966D01*
D02*
G37*
G36*
X35500Y194358D02*
X34750D01*
X32604Y193931D01*
X30785Y192715D01*
X29569Y190896D01*
X29142Y188750D01*
Y186750D01*
X35500D01*
Y194358D01*
D02*
G37*
G36*
X45358Y183250D02*
X39000D01*
Y175642D01*
X39750D01*
X41896Y176069D01*
X43715Y177285D01*
X44931Y179104D01*
X45358Y181250D01*
Y183250D01*
D02*
G37*
G36*
X83750Y158608D02*
X81750D01*
X79604Y158181D01*
X77785Y156965D01*
X76569Y155146D01*
X76142Y153000D01*
Y152250D01*
X83750D01*
Y158608D01*
D02*
G37*
G36*
X126000Y162118D02*
X118750D01*
Y148750D01*
X132118D01*
Y156000D01*
X131652Y158341D01*
X130326Y160326D01*
X128341Y161652D01*
X126000Y162118D01*
D02*
G37*
G36*
X175474Y172966D02*
X172426D01*
X170466Y172577D01*
X168804Y171466D01*
X168201Y170564D01*
X166999D01*
X166396Y171466D01*
X164734Y172577D01*
X162774Y172966D01*
X159726D01*
X157766Y172577D01*
X156104Y171466D01*
X155501Y170564D01*
X154299D01*
X153696Y171466D01*
X152034Y172577D01*
X150074Y172966D01*
X147026D01*
X145066Y172577D01*
X143404Y171466D01*
X142294Y169804D01*
X141904Y167844D01*
Y155652D01*
X142294Y153692D01*
X142942Y152721D01*
Y143450D01*
X143369Y141304D01*
X144585Y139485D01*
X170035Y114035D01*
X171854Y112819D01*
X174000Y112392D01*
X229988D01*
X231218Y111449D01*
X233042Y110693D01*
X235000Y110435D01*
X236958Y110693D01*
X238782Y111449D01*
X240349Y112651D01*
X240445Y112776D01*
X241392Y112455D01*
Y110323D01*
X235677Y104608D01*
X221000D01*
X218854Y104181D01*
X217035Y102965D01*
X211035Y96965D01*
X209819Y95146D01*
X209396Y93016D01*
X208449Y91782D01*
X207693Y89958D01*
X207435Y88000D01*
X207693Y86042D01*
X208449Y84218D01*
X209651Y82651D01*
X211218Y81449D01*
X213042Y80693D01*
X215000Y80435D01*
X216958Y80693D01*
X218782Y81449D01*
X220349Y82651D01*
X221551Y84218D01*
X222307Y86042D01*
X222565Y88000D01*
X222307Y89958D01*
X221599Y91668D01*
X223323Y93392D01*
X238000D01*
X240146Y93819D01*
X241965Y95035D01*
X250965Y104035D01*
X252181Y105854D01*
X252608Y108000D01*
Y130000D01*
X252181Y132146D01*
X250965Y133965D01*
X237965Y146965D01*
X236146Y148181D01*
X234000Y148608D01*
X184323D01*
X181617Y151313D01*
X181602Y151363D01*
X182232Y152144D01*
X182396Y152035D01*
X183361Y151390D01*
X184900Y151084D01*
Y161748D01*
Y172412D01*
X183361Y172106D01*
X181864Y171106D01*
X181156Y170046D01*
X180961Y169996D01*
X180018Y170087D01*
X179096Y171466D01*
X177434Y172577D01*
X175474Y172966D01*
D02*
G37*
G36*
X89250Y158608D02*
X87250D01*
Y152250D01*
X94858D01*
Y153000D01*
X94431Y155146D01*
X93215Y156965D01*
X91396Y158181D01*
X89250Y158608D01*
D02*
G37*
G36*
X20918Y323238D02*
X15838D01*
X13482Y322770D01*
X11484Y321435D01*
X10149Y319437D01*
X9680Y317080D01*
Y306920D01*
X10149Y304563D01*
X11484Y302565D01*
X12821Y301672D01*
Y293680D01*
X12715Y293659D01*
X10730Y292333D01*
X9404Y290349D01*
X8938Y288008D01*
Y280508D01*
X9404Y278166D01*
X10730Y276182D01*
X12715Y274856D01*
X15056Y274390D01*
X20056D01*
X22397Y274856D01*
X24381Y276182D01*
X25707Y278166D01*
X26173Y280508D01*
Y288008D01*
X25707Y290349D01*
X25056Y291324D01*
Y302420D01*
X25273Y302565D01*
X26608Y304563D01*
X27077Y306920D01*
Y317080D01*
X26608Y319437D01*
X25273Y321435D01*
X23275Y322770D01*
X20918Y323238D01*
D02*
G37*
G36*
X57830Y291250D02*
X52750D01*
Y286170D01*
X52827Y286180D01*
X54530Y286886D01*
X55992Y288008D01*
X57115Y289470D01*
X57820Y291173D01*
X57830Y291250D01*
D02*
G37*
G36*
X39750Y194358D02*
X39000D01*
Y186750D01*
X45358D01*
Y188750D01*
X44931Y190896D01*
X43715Y192715D01*
X41896Y193931D01*
X39750Y194358D01*
D02*
G37*
G36*
X52000Y269358D02*
X51250D01*
Y260000D01*
X57608D01*
Y263750D01*
X57181Y265896D01*
X55965Y267715D01*
X54146Y268931D01*
X52000Y269358D01*
D02*
G37*
G36*
X57608Y256500D02*
X51250D01*
Y247142D01*
X52000D01*
X54146Y247569D01*
X55965Y248785D01*
X57181Y250604D01*
X57608Y252750D01*
Y256500D01*
D02*
G37*
G36*
X170500Y340150D02*
X155650D01*
Y330500D01*
X152150D01*
Y340150D01*
X137300D01*
Y330500D01*
X135550D01*
Y328750D01*
X125900D01*
Y320850D01*
Y313900D01*
X135550D01*
Y310400D01*
X125900D01*
Y302500D01*
Y295550D01*
X135550D01*
Y293800D01*
X137300D01*
Y284150D01*
X152150D01*
Y293800D01*
X155650D01*
Y284150D01*
X170500D01*
Y293800D01*
X172250D01*
Y295550D01*
X181900D01*
Y302500D01*
Y310400D01*
X172250D01*
Y313900D01*
X181900D01*
Y320850D01*
Y328750D01*
X172250D01*
Y330500D01*
X170500D01*
Y340150D01*
D02*
G37*
G36*
X133800D02*
X125900D01*
Y332250D01*
X133800D01*
Y340150D01*
D02*
G37*
G36*
X181900D02*
X174000D01*
Y332250D01*
X181900D01*
Y340150D01*
D02*
G37*
G36*
X137750Y355830D02*
Y350750D01*
X142830D01*
X142820Y350827D01*
X142114Y352530D01*
X140992Y353992D01*
X139530Y355115D01*
X137827Y355820D01*
X137750Y355830D01*
D02*
G37*
G36*
X134250D02*
X134173Y355820D01*
X132470Y355115D01*
X131008Y353992D01*
X129886Y352530D01*
X129180Y350827D01*
X129170Y350750D01*
X134250D01*
Y355830D01*
D02*
G37*
G36*
X173750D02*
Y350750D01*
X178830D01*
X178820Y350827D01*
X178114Y352530D01*
X176992Y353992D01*
X175530Y355115D01*
X173827Y355820D01*
X173750Y355830D01*
D02*
G37*
G36*
X170250D02*
X170173Y355820D01*
X168470Y355115D01*
X167008Y353992D01*
X165886Y352530D01*
X165180Y350827D01*
X165170Y350750D01*
X170250D01*
Y355830D01*
D02*
G37*
G36*
X142830Y347250D02*
X137750D01*
Y342170D01*
X137827Y342180D01*
X139530Y342886D01*
X140992Y344007D01*
X142114Y345470D01*
X142820Y347173D01*
X142830Y347250D01*
D02*
G37*
G36*
X134250D02*
X129170D01*
X129180Y347173D01*
X129886Y345470D01*
X131008Y344007D01*
X132470Y342886D01*
X134173Y342180D01*
X134250Y342170D01*
Y347250D01*
D02*
G37*
G36*
X178830D02*
X173750D01*
Y342170D01*
X173827Y342180D01*
X175530Y342886D01*
X176992Y344007D01*
X178114Y345470D01*
X178820Y347173D01*
X178830Y347250D01*
D02*
G37*
G36*
X170250D02*
X165170D01*
X165180Y347173D01*
X165886Y345470D01*
X167008Y344007D01*
X168470Y342886D01*
X170173Y342180D01*
X170250Y342170D01*
Y347250D01*
D02*
G37*
G36*
X133800Y292050D02*
X125900D01*
Y284150D01*
X133800D01*
Y292050D01*
D02*
G37*
G36*
X181900Y292050D02*
X174000D01*
Y284150D01*
X181900D01*
Y292050D01*
D02*
G37*
G36*
X304500Y216200D02*
X293368D01*
X293585Y214556D01*
X294895Y211394D01*
X296978Y208678D01*
X299694Y206595D01*
X302856Y205285D01*
X304500Y205068D01*
Y216200D01*
D02*
G37*
%LPD*%
D10*
X18378Y312000D02*
D03*
X38698D02*
D03*
D11*
X37556Y284258D02*
D03*
X17556D02*
D03*
X17250Y185000D02*
D03*
X37250D02*
D03*
X15000Y55000D02*
D03*
X35000D02*
D03*
X270750Y187500D02*
D03*
X250750D02*
D03*
D12*
X117000Y147000D02*
D03*
Y91000D02*
D03*
X271000D02*
D03*
Y147000D02*
D03*
D13*
X85500Y150500D02*
D03*
Y130500D02*
D03*
X20000Y205000D02*
D03*
Y225000D02*
D03*
X18000Y35000D02*
D03*
Y15000D02*
D03*
D14*
X19500Y258250D02*
D03*
X49500D02*
D03*
D15*
X237450Y66752D02*
D03*
X212050D02*
D03*
X199350D02*
D03*
X224750D02*
D03*
X186650D02*
D03*
X161250D02*
D03*
X173950D02*
D03*
X224750Y161748D02*
D03*
X212050D02*
D03*
X199350D02*
D03*
X237450D02*
D03*
X186650D02*
D03*
X148550D02*
D03*
X161250D02*
D03*
X173950D02*
D03*
D16*
X148550Y66752D02*
D03*
D17*
X135550Y330500D02*
D03*
X172250Y293800D02*
D03*
X135550Y312150D02*
D03*
X172250D02*
D03*
X153900D02*
D03*
D18*
X172250Y330500D02*
D03*
X153900Y293800D02*
D03*
X135550D02*
D03*
X153900Y330500D02*
D03*
D19*
X248900Y222050D02*
D03*
X78900D02*
D03*
Y247450D02*
D03*
Y234750D02*
D03*
Y310950D02*
D03*
Y298250D02*
D03*
Y285550D02*
D03*
Y260150D02*
D03*
Y272850D02*
D03*
Y336350D02*
D03*
Y323650D02*
D03*
Y349050D02*
D03*
Y361750D02*
D03*
Y387150D02*
D03*
Y374450D02*
D03*
X248900D02*
D03*
Y349050D02*
D03*
Y361750D02*
D03*
Y336350D02*
D03*
Y310950D02*
D03*
Y323650D02*
D03*
Y260150D02*
D03*
Y247450D02*
D03*
Y272850D02*
D03*
Y285550D02*
D03*
Y298250D02*
D03*
Y234750D02*
D03*
Y387150D02*
D03*
D20*
X106750Y212050D02*
D03*
X221050D02*
D03*
X132150D02*
D03*
X119450D02*
D03*
X195650D02*
D03*
X182950D02*
D03*
X170250D02*
D03*
X144850D02*
D03*
X157550D02*
D03*
X208350D02*
D03*
D21*
X56250Y127750D02*
D03*
Y149250D02*
D03*
X14750Y127750D02*
D03*
Y149250D02*
D03*
Y110750D02*
D03*
Y89250D02*
D03*
X56250Y110750D02*
D03*
Y89250D02*
D03*
D22*
X153250Y331150D02*
X154000Y331900D01*
X153250Y330500D02*
Y331150D01*
Y312250D02*
Y330500D01*
X11500Y224500D02*
X20750D01*
X11500Y258250D02*
X19500D01*
X7250Y254000D02*
X11500Y258250D01*
X7250Y240000D02*
Y254000D01*
Y228750D02*
X11500Y224500D01*
X7250Y228750D02*
Y240000D01*
X153250Y294450D02*
X153900Y293800D01*
X135550Y312150D02*
X135650Y312250D01*
X153250Y330500D02*
X153900D01*
X136000Y330950D02*
Y349000D01*
X135550Y330500D02*
X136000Y330950D01*
X154000Y331900D02*
Y343000D01*
X122850Y312150D02*
X135550D01*
X78900Y387150D02*
X105000D01*
X172000Y330750D02*
Y349000D01*
Y330750D02*
X172250Y330500D01*
X135550D02*
X153250D01*
X135650Y312250D02*
X153250D01*
X135550Y312150D02*
Y330500D01*
Y293800D02*
X153900D01*
X172250D01*
Y312150D01*
Y330500D01*
D23*
X250250Y187000D02*
X250750Y187500D01*
X228000Y187000D02*
X250250D01*
X20000Y175000D02*
Y185000D01*
X259150Y336350D02*
X274250Y321250D01*
Y262750D02*
Y321250D01*
Y262750D02*
X293650Y243350D01*
X169250Y51250D02*
X173950Y55950D01*
X116750Y51250D02*
X169250D01*
X106000Y62000D02*
X116750Y51250D01*
X174000Y130000D02*
X221000D01*
X161250Y142750D02*
X174000Y130000D01*
Y118000D02*
X235000D01*
X148550Y143450D02*
X174000Y118000D01*
X148550Y143450D02*
Y161748D01*
X282000Y277000D02*
Y325750D01*
X258700Y349050D02*
X282000Y325750D01*
X248900Y349050D02*
X258700D01*
X248900Y336350D02*
X259150D01*
X111998Y66752D02*
X148550D01*
X104750Y74000D02*
X111998Y66752D01*
X86000Y74000D02*
X104750D01*
X230000Y229000D02*
X236950Y222050D01*
X98000Y229000D02*
X230000D01*
X96000Y227000D02*
X98000Y229000D01*
X215000Y337000D02*
Y347000D01*
X302000Y46000D02*
Y176000D01*
X272000Y206000D02*
X302000Y176000D01*
X272000Y206000D02*
Y237000D01*
X311000Y35000D02*
Y181000D01*
X282000Y210000D02*
X311000Y181000D01*
X282000Y210000D02*
Y240000D01*
X264000Y8000D02*
X302000Y46000D01*
X140000Y8000D02*
X264000D01*
X130000Y18000D02*
X140000Y8000D01*
X290250Y268750D02*
X306250D01*
X96000Y213000D02*
Y227000D01*
X14750Y149250D02*
Y169750D01*
Y149250D02*
X56250D01*
X232650Y323650D02*
X248900D01*
X161250Y142750D02*
Y161748D01*
X173950Y151050D02*
Y161748D01*
Y151050D02*
X182000Y143000D01*
X234000D01*
X247000Y130000D01*
X236950Y222050D02*
X248900D01*
X235150Y272850D02*
X248900D01*
X228000Y280000D02*
X235150Y272850D01*
X228000Y280000D02*
Y294000D01*
X215000Y268000D02*
X223000Y260000D01*
X215000Y268000D02*
Y306000D01*
X232650Y323650D01*
X282000Y277000D02*
X290250Y268750D01*
X293650Y243350D02*
X306250D01*
X248900Y260150D02*
X261850D01*
X301000Y25000D02*
X311000Y35000D01*
X130000Y18000D02*
Y30250D01*
X248900Y247450D02*
X261550D01*
X272000Y237000D01*
X261850Y260150D02*
X282000Y240000D01*
X221050Y193950D02*
X228000Y187000D01*
X221050Y193950D02*
Y212050D01*
X215000Y347000D02*
X229750Y361750D01*
X248900D01*
X14250Y88750D02*
X14750Y89250D01*
X20000Y205000D02*
X88000D01*
X96000Y213000D01*
X20000Y185000D02*
X20000Y185000D01*
Y205000D01*
X14750Y169750D02*
X20000Y175000D01*
X40750Y89250D02*
X56250D01*
X247000Y108000D02*
Y130000D01*
X238000Y99000D02*
X247000Y108000D01*
X215000Y88000D02*
Y93000D01*
X221000Y99000D01*
X238000D01*
X14250Y80000D02*
X15000Y79250D01*
X14250Y80000D02*
Y88750D01*
X15000Y55000D02*
Y79250D01*
Y46000D02*
Y55000D01*
Y46000D02*
X18000Y43000D01*
Y35000D02*
Y43000D01*
X173950Y55950D02*
Y66752D01*
X14750Y89250D02*
X29250D01*
X35000Y95000D01*
Y104000D01*
Y95000D02*
X40750Y89250D01*
X98000Y62000D02*
X106000D01*
D24*
X86000Y93000D02*
X147000D01*
X270750Y187500D02*
X271250Y187000D01*
Y169500D02*
Y187000D01*
X271000Y147000D02*
Y169250D01*
X271250Y169500D01*
X18938Y288008D02*
Y312848D01*
X38938Y242750D02*
Y288008D01*
Y242750D02*
X46938Y234750D01*
X78900D01*
X18938Y312848D02*
X19840Y313750D01*
X42000Y35000D02*
X70000Y63000D01*
X42000Y32000D02*
Y35000D01*
X70000Y63000D02*
Y77000D01*
X85500Y93500D02*
X86000Y93000D01*
X85500Y93500D02*
Y130500D01*
X70000Y77000D02*
X86000Y93000D01*
X271000Y144000D02*
Y147000D01*
X103250Y361750D02*
X108000Y357000D01*
X78900Y361750D02*
X103250D01*
X161250Y66752D02*
Y78750D01*
X147000Y93000D02*
X161250Y78750D01*
X18000Y15000D02*
X35000D01*
X106750Y191250D02*
Y212050D01*
X229850Y387150D02*
X248900D01*
X192420Y365420D02*
X193000Y366000D01*
X119797Y357000D02*
X128217Y365420D01*
X192420D01*
X108000Y357000D02*
X119797D01*
X35000Y15000D02*
X42000Y22000D01*
Y32000D01*
D25*
X78900Y374450D02*
X114450D01*
X123000Y383000D01*
D26*
X153250Y331150D02*
X153900Y330500D01*
D27*
X170000Y30250D02*
Y38000D01*
X180000Y48000D01*
X181000D01*
D28*
X290000Y370500D02*
D03*
X30000D02*
D03*
D29*
X230000Y30250D02*
D03*
X210000D02*
D03*
X190000D02*
D03*
X170000D02*
D03*
X150000D02*
D03*
X130000D02*
D03*
X110000D02*
D03*
X90000D02*
D03*
X70000D02*
D03*
D30*
X250000D02*
D03*
D31*
X306250Y268750D02*
D03*
Y294150D02*
D03*
Y243350D02*
D03*
Y217950D02*
D03*
D32*
Y319550D02*
D03*
D33*
X271250Y169500D02*
D03*
X7250Y240000D02*
D03*
X215000Y337000D02*
D03*
X136000Y349000D02*
D03*
X172000D02*
D03*
X51000Y293000D02*
D03*
X221000Y130000D02*
D03*
X235000Y118000D02*
D03*
X228000Y294000D02*
D03*
X223000Y260000D02*
D03*
X301000Y25000D02*
D03*
X193000Y366000D02*
D03*
X108000Y357000D02*
D03*
X123000Y383000D02*
D03*
X215000Y88000D02*
D03*
X86000Y74000D02*
D03*
X35000Y104000D02*
D03*
X98000Y62000D02*
D03*
D34*
X70000Y120000D02*
D03*
D35*
X42000Y32000D02*
D03*
M02*
