G04 Layer_Color=65535*
%FSLAX44Y44*%
%MOMM*%
G71*
G01*
G75*
%ADD26C,0.2540*%
%ADD40C,0.1270*%
%ADD41C,0.1250*%
%ADD42C,0.2000*%
%ADD43C,0.2032*%
%ADD44R,0.3000X2.2430*%
%ADD45R,3.4000X0.7000*%
G36*
X56208Y233811D02*
X57770D01*
Y232512D01*
X56208D01*
Y229750D01*
X54796D01*
Y232512D01*
X49772D01*
Y233811D01*
X55046Y241285D01*
X56208D01*
Y233811D01*
D02*
G37*
G36*
X44474Y241472D02*
X44623Y241460D01*
X44798Y241434D01*
X44986Y241409D01*
X45198Y241372D01*
X45423Y241322D01*
X45661Y241272D01*
X45898Y241197D01*
X46148Y241110D01*
X46398Y241010D01*
X46635Y240885D01*
X46873Y240760D01*
X47098Y240597D01*
X47110Y240585D01*
X47148Y240560D01*
X47210Y240510D01*
X47285Y240435D01*
X47385Y240347D01*
X47498Y240235D01*
X47610Y240110D01*
X47748Y239960D01*
X47885Y239797D01*
X48023Y239610D01*
X48160Y239410D01*
X48285Y239185D01*
X48422Y238948D01*
X48535Y238685D01*
X48647Y238410D01*
X48748Y238123D01*
X47248Y237773D01*
Y237785D01*
X47223Y237823D01*
X47210Y237898D01*
X47173Y237985D01*
X47135Y238085D01*
X47073Y238198D01*
X46948Y238473D01*
X46785Y238773D01*
X46573Y239085D01*
X46348Y239373D01*
X46211Y239498D01*
X46073Y239610D01*
X46061Y239622D01*
X46036Y239635D01*
X45998Y239660D01*
X45936Y239697D01*
X45861Y239748D01*
X45773Y239797D01*
X45673Y239847D01*
X45548Y239897D01*
X45411Y239947D01*
X45273Y239997D01*
X44948Y240097D01*
X44573Y240160D01*
X44374Y240185D01*
X44036D01*
X43936Y240172D01*
X43824Y240160D01*
X43686Y240147D01*
X43536Y240135D01*
X43386Y240110D01*
X43024Y240022D01*
X42649Y239910D01*
X42462Y239835D01*
X42274Y239748D01*
X42099Y239648D01*
X41924Y239535D01*
X41912Y239522D01*
X41887Y239510D01*
X41837Y239473D01*
X41774Y239422D01*
X41712Y239360D01*
X41624Y239273D01*
X41537Y239185D01*
X41437Y239085D01*
X41337Y238960D01*
X41224Y238835D01*
X41024Y238548D01*
X40837Y238210D01*
X40675Y237823D01*
Y237810D01*
X40662Y237773D01*
X40637Y237710D01*
X40624Y237635D01*
X40599Y237535D01*
X40562Y237423D01*
X40537Y237286D01*
X40500Y237148D01*
X40462Y236986D01*
X40437Y236811D01*
X40375Y236436D01*
X40337Y236036D01*
X40325Y235611D01*
Y235599D01*
Y235548D01*
Y235473D01*
X40337Y235361D01*
Y235236D01*
X40350Y235086D01*
X40362Y234924D01*
X40375Y234736D01*
X40400Y234536D01*
X40425Y234336D01*
X40500Y233899D01*
X40612Y233462D01*
X40750Y233037D01*
Y233024D01*
X40774Y232987D01*
X40799Y232937D01*
X40824Y232862D01*
X40875Y232762D01*
X40937Y232662D01*
X41074Y232424D01*
X41262Y232149D01*
X41487Y231887D01*
X41762Y231625D01*
X41912Y231512D01*
X42074Y231400D01*
X42087D01*
X42112Y231375D01*
X42162Y231350D01*
X42237Y231312D01*
X42324Y231275D01*
X42424Y231225D01*
X42537Y231187D01*
X42661Y231137D01*
X42949Y231037D01*
X43286Y230950D01*
X43649Y230887D01*
X43836Y230875D01*
X44036Y230862D01*
X44161D01*
X44249Y230875D01*
X44361Y230887D01*
X44486Y230900D01*
X44636Y230925D01*
X44786Y230950D01*
X45136Y231037D01*
X45311Y231100D01*
X45498Y231175D01*
X45686Y231262D01*
X45861Y231362D01*
X46036Y231475D01*
X46211Y231600D01*
X46223Y231612D01*
X46248Y231637D01*
X46298Y231674D01*
X46361Y231737D01*
X46423Y231812D01*
X46511Y231912D01*
X46598Y232024D01*
X46698Y232149D01*
X46798Y232299D01*
X46898Y232462D01*
X46998Y232637D01*
X47098Y232837D01*
X47185Y233049D01*
X47273Y233287D01*
X47360Y233536D01*
X47423Y233799D01*
X48947Y233412D01*
Y233387D01*
X48922Y233324D01*
X48897Y233237D01*
X48847Y233099D01*
X48797Y232949D01*
X48723Y232762D01*
X48647Y232562D01*
X48548Y232349D01*
X48435Y232112D01*
X48310Y231887D01*
X48173Y231637D01*
X48010Y231400D01*
X47835Y231175D01*
X47648Y230950D01*
X47435Y230737D01*
X47210Y230537D01*
X47198Y230525D01*
X47148Y230500D01*
X47085Y230450D01*
X46985Y230387D01*
X46873Y230312D01*
X46723Y230225D01*
X46561Y230137D01*
X46361Y230050D01*
X46148Y229963D01*
X45923Y229875D01*
X45673Y229788D01*
X45398Y229713D01*
X45111Y229650D01*
X44811Y229600D01*
X44499Y229575D01*
X44161Y229563D01*
X43986D01*
X43849Y229575D01*
X43699Y229588D01*
X43511Y229600D01*
X43311Y229625D01*
X43086Y229662D01*
X42849Y229700D01*
X42599Y229750D01*
X42349Y229813D01*
X42099Y229875D01*
X41837Y229963D01*
X41587Y230062D01*
X41349Y230175D01*
X41124Y230312D01*
X41112Y230325D01*
X41074Y230350D01*
X41012Y230387D01*
X40937Y230450D01*
X40837Y230537D01*
X40725Y230625D01*
X40599Y230737D01*
X40462Y230875D01*
X40325Y231025D01*
X40175Y231187D01*
X40037Y231362D01*
X39887Y231562D01*
X39737Y231775D01*
X39600Y231999D01*
X39475Y232249D01*
X39350Y232512D01*
X39337Y232524D01*
X39325Y232574D01*
X39300Y232662D01*
X39262Y232762D01*
X39212Y232899D01*
X39162Y233049D01*
X39112Y233237D01*
X39050Y233437D01*
X39000Y233661D01*
X38937Y233899D01*
X38888Y234149D01*
X38850Y234424D01*
X38775Y234999D01*
X38763Y235299D01*
X38750Y235599D01*
Y235623D01*
Y235674D01*
Y235774D01*
X38763Y235898D01*
X38775Y236061D01*
X38788Y236248D01*
X38812Y236448D01*
X38837Y236673D01*
X38875Y236911D01*
X38912Y237161D01*
X39037Y237698D01*
X39125Y237960D01*
X39212Y238223D01*
X39312Y238498D01*
X39437Y238748D01*
X39450Y238760D01*
X39475Y238810D01*
X39512Y238873D01*
X39562Y238973D01*
X39637Y239085D01*
X39725Y239210D01*
X39825Y239348D01*
X39937Y239510D01*
X40075Y239660D01*
X40212Y239835D01*
X40375Y239997D01*
X40550Y240172D01*
X40737Y240335D01*
X40937Y240497D01*
X41162Y240647D01*
X41387Y240785D01*
X41399Y240797D01*
X41449Y240810D01*
X41512Y240847D01*
X41612Y240897D01*
X41724Y240947D01*
X41874Y241010D01*
X42037Y241072D01*
X42212Y241135D01*
X42412Y241197D01*
X42636Y241260D01*
X42861Y241322D01*
X43111Y241372D01*
X43624Y241460D01*
X43899Y241472D01*
X44186Y241485D01*
X44349D01*
X44474Y241472D01*
D02*
G37*
G36*
X88043Y110172D02*
X88131Y110147D01*
X88268Y110097D01*
X88418Y110047D01*
X88606Y109972D01*
X88806Y109897D01*
X89018Y109797D01*
X89256Y109685D01*
X89481Y109560D01*
X89731Y109423D01*
X89968Y109260D01*
X90193Y109085D01*
X90418Y108898D01*
X90630Y108685D01*
X90830Y108460D01*
X90843Y108448D01*
X90868Y108398D01*
X90918Y108335D01*
X90980Y108235D01*
X91055Y108123D01*
X91143Y107973D01*
X91230Y107810D01*
X91318Y107611D01*
X91405Y107398D01*
X91493Y107173D01*
X91580Y106923D01*
X91655Y106648D01*
X91718Y106361D01*
X91768Y106061D01*
X91792Y105749D01*
X91805Y105411D01*
Y105386D01*
Y105324D01*
Y105236D01*
X91792Y105099D01*
X91780Y104949D01*
X91768Y104761D01*
X91742Y104561D01*
X91705Y104336D01*
X91667Y104099D01*
X91617Y103849D01*
X91555Y103599D01*
X91493Y103349D01*
X91405Y103087D01*
X91305Y102837D01*
X91193Y102599D01*
X91055Y102374D01*
X91043Y102362D01*
X91018Y102324D01*
X90980Y102262D01*
X90918Y102187D01*
X90830Y102087D01*
X90743Y101974D01*
X90630Y101849D01*
X90493Y101712D01*
X90343Y101575D01*
X90180Y101425D01*
X90006Y101287D01*
X89805Y101137D01*
X89593Y100987D01*
X89368Y100850D01*
X89118Y100725D01*
X88856Y100600D01*
X88843Y100587D01*
X88793Y100575D01*
X88706Y100550D01*
X88606Y100512D01*
X88468Y100462D01*
X88318Y100412D01*
X88131Y100362D01*
X87931Y100300D01*
X87706Y100250D01*
X87469Y100188D01*
X87219Y100138D01*
X86944Y100100D01*
X86369Y100025D01*
X86069Y100013D01*
X85769Y100000D01*
X85594D01*
X85469Y100013D01*
X85307Y100025D01*
X85119Y100037D01*
X84919Y100063D01*
X84694Y100087D01*
X84457Y100125D01*
X84207Y100162D01*
X83670Y100287D01*
X83407Y100375D01*
X83145Y100462D01*
X82870Y100562D01*
X82620Y100687D01*
X82607Y100700D01*
X82557Y100725D01*
X82495Y100762D01*
X82395Y100812D01*
X82282Y100887D01*
X82157Y100975D01*
X82020Y101075D01*
X81858Y101187D01*
X81708Y101325D01*
X81533Y101462D01*
X81370Y101625D01*
X81195Y101799D01*
X81033Y101987D01*
X80870Y102187D01*
X80720Y102412D01*
X80583Y102637D01*
X80570Y102649D01*
X80558Y102699D01*
X80520Y102762D01*
X80470Y102862D01*
X80420Y102974D01*
X80358Y103124D01*
X80295Y103287D01*
X80233Y103462D01*
X80170Y103662D01*
X80108Y103886D01*
X80045Y104111D01*
X79995Y104361D01*
X79908Y104874D01*
X79896Y105149D01*
X79883Y105436D01*
Y105461D01*
Y105511D01*
Y105599D01*
X79896Y105723D01*
X79908Y105873D01*
X79933Y106048D01*
X79958Y106236D01*
X79995Y106448D01*
X80045Y106673D01*
X80096Y106911D01*
X80170Y107148D01*
X80258Y107398D01*
X80358Y107648D01*
X80483Y107886D01*
X80608Y108123D01*
X80770Y108348D01*
X80783Y108360D01*
X80808Y108398D01*
X80858Y108460D01*
X80933Y108535D01*
X81020Y108635D01*
X81133Y108748D01*
X81258Y108860D01*
X81408Y108998D01*
X81570Y109135D01*
X81758Y109273D01*
X81958Y109410D01*
X82183Y109535D01*
X82420Y109672D01*
X82682Y109785D01*
X82957Y109897D01*
X83245Y109997D01*
X83595Y108498D01*
X83582D01*
X83545Y108473D01*
X83470Y108460D01*
X83382Y108423D01*
X83282Y108385D01*
X83170Y108323D01*
X82895Y108198D01*
X82595Y108035D01*
X82282Y107823D01*
X81995Y107598D01*
X81870Y107461D01*
X81758Y107323D01*
X81745Y107311D01*
X81733Y107286D01*
X81708Y107248D01*
X81670Y107186D01*
X81620Y107111D01*
X81570Y107023D01*
X81520Y106923D01*
X81470Y106798D01*
X81420Y106661D01*
X81370Y106523D01*
X81270Y106198D01*
X81208Y105823D01*
X81183Y105624D01*
Y105411D01*
Y105399D01*
Y105349D01*
Y105286D01*
X81195Y105186D01*
X81208Y105074D01*
X81220Y104936D01*
X81233Y104786D01*
X81258Y104636D01*
X81345Y104274D01*
X81458Y103899D01*
X81533Y103712D01*
X81620Y103524D01*
X81720Y103349D01*
X81833Y103174D01*
X81845Y103162D01*
X81858Y103137D01*
X81895Y103087D01*
X81945Y103024D01*
X82008Y102962D01*
X82095Y102874D01*
X82183Y102787D01*
X82282Y102687D01*
X82407Y102587D01*
X82532Y102474D01*
X82820Y102274D01*
X83157Y102087D01*
X83545Y101924D01*
X83557D01*
X83595Y101912D01*
X83657Y101887D01*
X83732Y101875D01*
X83832Y101849D01*
X83945Y101812D01*
X84082Y101787D01*
X84219Y101750D01*
X84382Y101712D01*
X84557Y101687D01*
X84932Y101625D01*
X85332Y101587D01*
X85757Y101575D01*
X85894D01*
X86006Y101587D01*
X86131D01*
X86281Y101600D01*
X86444Y101612D01*
X86631Y101625D01*
X86831Y101650D01*
X87031Y101675D01*
X87469Y101750D01*
X87906Y101862D01*
X88331Y102000D01*
X88343D01*
X88381Y102024D01*
X88431Y102050D01*
X88506Y102074D01*
X88606Y102125D01*
X88706Y102187D01*
X88943Y102324D01*
X89218Y102512D01*
X89481Y102737D01*
X89743Y103012D01*
X89855Y103162D01*
X89968Y103324D01*
Y103337D01*
X89993Y103362D01*
X90018Y103412D01*
X90055Y103487D01*
X90093Y103574D01*
X90143Y103674D01*
X90180Y103786D01*
X90230Y103912D01*
X90330Y104199D01*
X90418Y104536D01*
X90480Y104899D01*
X90493Y105086D01*
X90505Y105286D01*
Y105299D01*
Y105349D01*
Y105411D01*
X90493Y105499D01*
X90480Y105611D01*
X90468Y105736D01*
X90443Y105886D01*
X90418Y106036D01*
X90330Y106386D01*
X90268Y106561D01*
X90193Y106748D01*
X90105Y106936D01*
X90006Y107111D01*
X89893Y107286D01*
X89768Y107461D01*
X89755Y107473D01*
X89731Y107498D01*
X89693Y107548D01*
X89631Y107611D01*
X89556Y107673D01*
X89456Y107760D01*
X89343Y107848D01*
X89218Y107948D01*
X89068Y108048D01*
X88906Y108148D01*
X88731Y108248D01*
X88531Y108348D01*
X88318Y108435D01*
X88081Y108523D01*
X87831Y108610D01*
X87569Y108673D01*
X87956Y110197D01*
X87981D01*
X88043Y110172D01*
D02*
G37*
G36*
X63058Y190560D02*
X63171Y190547D01*
X63308Y190534D01*
X63458Y190510D01*
X63621Y190472D01*
X63983Y190385D01*
X64158Y190322D01*
X64358Y190247D01*
X64546Y190160D01*
X64721Y190047D01*
X64896Y189935D01*
X65070Y189797D01*
X65083Y189785D01*
X65108Y189760D01*
X65158Y189722D01*
X65208Y189660D01*
X65283Y189585D01*
X65358Y189485D01*
X65445Y189372D01*
X65533Y189247D01*
X65620Y189110D01*
X65708Y188948D01*
X65795Y188773D01*
X65883Y188585D01*
X65958Y188385D01*
X66020Y188173D01*
X66083Y187948D01*
X66120Y187698D01*
X64708Y187585D01*
Y187598D01*
X64696Y187623D01*
X64683Y187660D01*
X64671Y187723D01*
X64633Y187873D01*
X64571Y188048D01*
X64496Y188248D01*
X64396Y188448D01*
X64296Y188635D01*
X64171Y188797D01*
X64158Y188810D01*
X64146Y188822D01*
X64108Y188860D01*
X64071Y188897D01*
X63946Y188997D01*
X63771Y189110D01*
X63571Y189222D01*
X63321Y189310D01*
X63046Y189385D01*
X62896Y189397D01*
X62746Y189410D01*
X62634D01*
X62496Y189385D01*
X62334Y189360D01*
X62146Y189310D01*
X61946Y189247D01*
X61746Y189147D01*
X61546Y189022D01*
X61534D01*
X61521Y188997D01*
X61484Y188972D01*
X61434Y188935D01*
X61321Y188822D01*
X61171Y188660D01*
X60996Y188460D01*
X60821Y188210D01*
X60659Y187923D01*
X60497Y187598D01*
Y187585D01*
X60484Y187560D01*
X60459Y187498D01*
X60434Y187423D01*
X60409Y187335D01*
X60372Y187210D01*
X60334Y187073D01*
X60297Y186923D01*
X60259Y186748D01*
X60234Y186548D01*
X60197Y186323D01*
X60159Y186086D01*
X60134Y185836D01*
X60122Y185561D01*
X60109Y185261D01*
X60097Y184961D01*
X60097Y184961D01*
Y184949D01*
X60097Y184961D01*
X60122Y184986D01*
X60147Y185023D01*
X60184Y185073D01*
X60297Y185211D01*
X60434Y185386D01*
X60622Y185573D01*
X60834Y185761D01*
X61072Y185936D01*
X61334Y186098D01*
X61346D01*
X61371Y186111D01*
X61409Y186136D01*
X61459Y186161D01*
X61534Y186186D01*
X61609Y186223D01*
X61809Y186298D01*
X62046Y186361D01*
X62309Y186423D01*
X62596Y186473D01*
X62896Y186486D01*
X62958D01*
X63033Y186473D01*
X63133D01*
X63258Y186448D01*
X63396Y186436D01*
X63558Y186398D01*
X63733Y186361D01*
X63908Y186298D01*
X64108Y186236D01*
X64308Y186148D01*
X64508Y186048D01*
X64721Y185923D01*
X64921Y185786D01*
X65120Y185623D01*
X65308Y185436D01*
X65320Y185423D01*
X65345Y185386D01*
X65395Y185336D01*
X65470Y185248D01*
X65545Y185148D01*
X65620Y185023D01*
X65720Y184874D01*
X65808Y184711D01*
X65895Y184524D01*
X65995Y184324D01*
X66070Y184099D01*
X66158Y183861D01*
X66220Y183611D01*
X66270Y183336D01*
X66295Y183049D01*
X66308Y182749D01*
Y182736D01*
Y182699D01*
Y182649D01*
X66295Y182562D01*
Y182474D01*
X66283Y182362D01*
X66270Y182224D01*
X66245Y182087D01*
X66195Y181774D01*
X66108Y181437D01*
X65995Y181087D01*
X65833Y180725D01*
Y180712D01*
X65808Y180687D01*
X65783Y180637D01*
X65745Y180575D01*
X65695Y180500D01*
X65645Y180412D01*
X65495Y180200D01*
X65320Y179975D01*
X65095Y179737D01*
X64833Y179500D01*
X64546Y179300D01*
X64533D01*
X64508Y179275D01*
X64458Y179250D01*
X64396Y179225D01*
X64321Y179187D01*
X64233Y179150D01*
X64121Y179100D01*
X64008Y179062D01*
X63733Y178962D01*
X63408Y178888D01*
X63058Y178838D01*
X62684Y178813D01*
X62609D01*
X62509Y178825D01*
X62384Y178838D01*
X62234Y178850D01*
X62059Y178888D01*
X61871Y178925D01*
X61659Y178975D01*
X61434Y179050D01*
X61196Y179125D01*
X60959Y179237D01*
X60722Y179362D01*
X60472Y179512D01*
X60247Y179687D01*
X60009Y179887D01*
X59797Y180112D01*
X59784Y180125D01*
X59747Y180175D01*
X59697Y180250D01*
X59622Y180362D01*
X59534Y180500D01*
X59447Y180675D01*
X59347Y180887D01*
X59247Y181137D01*
X59134Y181412D01*
X59035Y181724D01*
X58947Y182074D01*
X58860Y182462D01*
X58784Y182887D01*
X58735Y183349D01*
X58697Y183849D01*
X58685Y184386D01*
Y184399D01*
Y184424D01*
Y184474D01*
Y184536D01*
Y184611D01*
X58697Y184711D01*
Y184811D01*
X58710Y184936D01*
X58722Y185211D01*
X58747Y185523D01*
X58784Y185873D01*
X58835Y186248D01*
X58910Y186648D01*
X58984Y187048D01*
X59085Y187448D01*
X59209Y187848D01*
X59347Y188235D01*
X59509Y188610D01*
X59709Y188948D01*
X59922Y189247D01*
X59934Y189260D01*
X59972Y189310D01*
X60034Y189372D01*
X60122Y189460D01*
X60222Y189560D01*
X60359Y189672D01*
X60509Y189785D01*
X60684Y189910D01*
X60884Y190035D01*
X61109Y190147D01*
X61346Y190260D01*
X61609Y190360D01*
X61884Y190447D01*
X62184Y190510D01*
X62496Y190560D01*
X62833Y190572D01*
X62971D01*
X63058Y190560D01*
D02*
G37*
G36*
X64058Y63272D02*
X64045Y63260D01*
X64008Y63222D01*
X63945Y63147D01*
X63870Y63060D01*
X63770Y62935D01*
X63645Y62797D01*
X63520Y62635D01*
X63370Y62448D01*
X63208Y62235D01*
X63033Y61998D01*
X62845Y61735D01*
X62658Y61460D01*
X62470Y61173D01*
X62271Y60848D01*
X62058Y60511D01*
X61858Y60161D01*
X61846Y60136D01*
X61808Y60073D01*
X61758Y59973D01*
X61683Y59823D01*
X61596Y59648D01*
X61483Y59436D01*
X61371Y59198D01*
X61246Y58936D01*
X61121Y58649D01*
X60983Y58336D01*
X60846Y57999D01*
X60708Y57661D01*
X60571Y57299D01*
X60434Y56924D01*
X60196Y56162D01*
Y56149D01*
X60184Y56099D01*
X60159Y56012D01*
X60134Y55912D01*
X60096Y55774D01*
X60059Y55612D01*
X60009Y55424D01*
X59971Y55224D01*
X59921Y54999D01*
X59884Y54749D01*
X59834Y54487D01*
X59796Y54212D01*
X59746Y53925D01*
X59709Y53625D01*
X59659Y53000D01*
X58209D01*
Y53012D01*
Y53063D01*
Y53137D01*
X58222Y53237D01*
X58234Y53375D01*
X58247Y53525D01*
X58259Y53712D01*
X58284Y53912D01*
X58309Y54150D01*
X58347Y54387D01*
X58384Y54662D01*
X58434Y54949D01*
X58497Y55262D01*
X58559Y55587D01*
X58646Y55924D01*
X58734Y56274D01*
X58747Y56299D01*
X58759Y56362D01*
X58784Y56462D01*
X58834Y56599D01*
X58884Y56774D01*
X58946Y56986D01*
X59021Y57211D01*
X59109Y57461D01*
X59209Y57736D01*
X59321Y58036D01*
X59434Y58349D01*
X59571Y58661D01*
X59859Y59323D01*
X60196Y59998D01*
X60209Y60023D01*
X60246Y60073D01*
X60296Y60173D01*
X60359Y60298D01*
X60459Y60448D01*
X60559Y60623D01*
X60683Y60823D01*
X60809Y61048D01*
X60958Y61273D01*
X61121Y61523D01*
X61471Y62023D01*
X61846Y62535D01*
X62046Y62785D01*
X62246Y63022D01*
X56597D01*
Y64385D01*
X64058D01*
Y63272D01*
D02*
G37*
G36*
X50724Y64722D02*
X50873Y64710D01*
X51048Y64685D01*
X51236Y64660D01*
X51448Y64622D01*
X51673Y64572D01*
X51911Y64522D01*
X52148Y64447D01*
X52398Y64360D01*
X52648Y64260D01*
X52885Y64135D01*
X53123Y64010D01*
X53348Y63847D01*
X53360Y63835D01*
X53398Y63810D01*
X53460Y63760D01*
X53535Y63685D01*
X53635Y63597D01*
X53748Y63485D01*
X53860Y63360D01*
X53998Y63210D01*
X54135Y63047D01*
X54273Y62860D01*
X54410Y62660D01*
X54535Y62435D01*
X54672Y62198D01*
X54785Y61935D01*
X54897Y61660D01*
X54998Y61373D01*
X53498Y61023D01*
Y61035D01*
X53473Y61073D01*
X53460Y61148D01*
X53423Y61235D01*
X53385Y61335D01*
X53323Y61448D01*
X53198Y61723D01*
X53035Y62023D01*
X52823Y62335D01*
X52598Y62622D01*
X52461Y62748D01*
X52323Y62860D01*
X52311Y62873D01*
X52286Y62885D01*
X52248Y62910D01*
X52186Y62947D01*
X52111Y62997D01*
X52023Y63047D01*
X51923Y63097D01*
X51798Y63147D01*
X51661Y63197D01*
X51523Y63247D01*
X51198Y63347D01*
X50823Y63410D01*
X50624Y63435D01*
X50286D01*
X50186Y63422D01*
X50074Y63410D01*
X49936Y63397D01*
X49786Y63385D01*
X49636Y63360D01*
X49274Y63272D01*
X48899Y63160D01*
X48712Y63085D01*
X48524Y62997D01*
X48349Y62898D01*
X48174Y62785D01*
X48162Y62772D01*
X48137Y62760D01*
X48087Y62723D01*
X48024Y62673D01*
X47962Y62610D01*
X47874Y62523D01*
X47787Y62435D01*
X47687Y62335D01*
X47587Y62210D01*
X47474Y62085D01*
X47274Y61798D01*
X47087Y61460D01*
X46925Y61073D01*
Y61060D01*
X46912Y61023D01*
X46887Y60960D01*
X46874Y60886D01*
X46849Y60785D01*
X46812Y60673D01*
X46787Y60536D01*
X46750Y60398D01*
X46712Y60236D01*
X46687Y60061D01*
X46625Y59686D01*
X46587Y59286D01*
X46575Y58861D01*
Y58849D01*
Y58798D01*
Y58724D01*
X46587Y58611D01*
Y58486D01*
X46600Y58336D01*
X46612Y58174D01*
X46625Y57986D01*
X46650Y57786D01*
X46675Y57586D01*
X46750Y57149D01*
X46862Y56712D01*
X47000Y56287D01*
Y56274D01*
X47024Y56237D01*
X47049Y56187D01*
X47074Y56112D01*
X47125Y56012D01*
X47187Y55912D01*
X47324Y55674D01*
X47512Y55399D01*
X47737Y55137D01*
X48012Y54875D01*
X48162Y54762D01*
X48324Y54650D01*
X48337D01*
X48362Y54625D01*
X48412Y54600D01*
X48487Y54562D01*
X48574Y54525D01*
X48674Y54475D01*
X48787Y54437D01*
X48911Y54387D01*
X49199Y54287D01*
X49536Y54200D01*
X49899Y54137D01*
X50086Y54125D01*
X50286Y54112D01*
X50411D01*
X50499Y54125D01*
X50611Y54137D01*
X50736Y54150D01*
X50886Y54175D01*
X51036Y54200D01*
X51386Y54287D01*
X51561Y54350D01*
X51748Y54425D01*
X51936Y54512D01*
X52111Y54612D01*
X52286Y54725D01*
X52461Y54850D01*
X52473Y54862D01*
X52498Y54887D01*
X52548Y54925D01*
X52611Y54987D01*
X52673Y55062D01*
X52761Y55162D01*
X52848Y55274D01*
X52948Y55399D01*
X53048Y55549D01*
X53148Y55712D01*
X53248Y55887D01*
X53348Y56087D01*
X53435Y56299D01*
X53523Y56537D01*
X53610Y56786D01*
X53673Y57049D01*
X55197Y56662D01*
Y56637D01*
X55172Y56574D01*
X55147Y56487D01*
X55097Y56349D01*
X55047Y56199D01*
X54973Y56012D01*
X54897Y55812D01*
X54798Y55599D01*
X54685Y55362D01*
X54560Y55137D01*
X54423Y54887D01*
X54260Y54650D01*
X54085Y54425D01*
X53898Y54200D01*
X53685Y53987D01*
X53460Y53787D01*
X53448Y53775D01*
X53398Y53750D01*
X53335Y53700D01*
X53235Y53637D01*
X53123Y53562D01*
X52973Y53475D01*
X52811Y53387D01*
X52611Y53300D01*
X52398Y53212D01*
X52173Y53125D01*
X51923Y53038D01*
X51648Y52962D01*
X51361Y52900D01*
X51061Y52850D01*
X50749Y52825D01*
X50411Y52812D01*
X50236D01*
X50099Y52825D01*
X49949Y52838D01*
X49761Y52850D01*
X49561Y52875D01*
X49336Y52913D01*
X49099Y52950D01*
X48849Y53000D01*
X48599Y53063D01*
X48349Y53125D01*
X48087Y53212D01*
X47837Y53312D01*
X47599Y53425D01*
X47374Y53562D01*
X47362Y53575D01*
X47324Y53600D01*
X47262Y53637D01*
X47187Y53700D01*
X47087Y53787D01*
X46975Y53875D01*
X46849Y53987D01*
X46712Y54125D01*
X46575Y54275D01*
X46425Y54437D01*
X46287Y54612D01*
X46137Y54812D01*
X45987Y55024D01*
X45850Y55249D01*
X45725Y55499D01*
X45600Y55762D01*
X45587Y55774D01*
X45575Y55824D01*
X45550Y55912D01*
X45512Y56012D01*
X45462Y56149D01*
X45412Y56299D01*
X45362Y56487D01*
X45300Y56687D01*
X45250Y56912D01*
X45188Y57149D01*
X45138Y57399D01*
X45100Y57674D01*
X45025Y58249D01*
X45012Y58549D01*
X45000Y58849D01*
Y58874D01*
Y58924D01*
Y59023D01*
X45012Y59148D01*
X45025Y59311D01*
X45037Y59498D01*
X45062Y59698D01*
X45087Y59923D01*
X45125Y60161D01*
X45163Y60411D01*
X45287Y60948D01*
X45375Y61210D01*
X45462Y61473D01*
X45562Y61748D01*
X45687Y61998D01*
X45700Y62010D01*
X45725Y62060D01*
X45762Y62123D01*
X45812Y62223D01*
X45887Y62335D01*
X45975Y62460D01*
X46075Y62597D01*
X46187Y62760D01*
X46325Y62910D01*
X46462Y63085D01*
X46625Y63247D01*
X46800Y63422D01*
X46987Y63585D01*
X47187Y63747D01*
X47412Y63897D01*
X47637Y64035D01*
X47649Y64047D01*
X47699Y64060D01*
X47762Y64097D01*
X47862Y64147D01*
X47974Y64197D01*
X48124Y64260D01*
X48287Y64322D01*
X48462Y64385D01*
X48662Y64447D01*
X48886Y64510D01*
X49111Y64572D01*
X49361Y64622D01*
X49874Y64710D01*
X50149Y64722D01*
X50436Y64735D01*
X50599D01*
X50724Y64722D01*
D02*
G37*
G36*
X52973Y190722D02*
X53123Y190709D01*
X53298Y190685D01*
X53486Y190660D01*
X53698Y190622D01*
X53923Y190572D01*
X54161Y190522D01*
X54398Y190447D01*
X54648Y190360D01*
X54898Y190260D01*
X55135Y190135D01*
X55373Y190010D01*
X55598Y189847D01*
X55610Y189835D01*
X55648Y189810D01*
X55710Y189760D01*
X55785Y189685D01*
X55885Y189597D01*
X55998Y189485D01*
X56110Y189360D01*
X56248Y189210D01*
X56385Y189047D01*
X56523Y188860D01*
X56660Y188660D01*
X56785Y188435D01*
X56922Y188198D01*
X57035Y187935D01*
X57147Y187660D01*
X57247Y187373D01*
X55748Y187023D01*
Y187035D01*
X55723Y187073D01*
X55710Y187148D01*
X55673Y187235D01*
X55635Y187335D01*
X55573Y187448D01*
X55448Y187723D01*
X55285Y188023D01*
X55073Y188335D01*
X54848Y188622D01*
X54711Y188748D01*
X54573Y188860D01*
X54561Y188873D01*
X54536Y188885D01*
X54498Y188910D01*
X54436Y188948D01*
X54361Y188997D01*
X54273Y189047D01*
X54173Y189097D01*
X54048Y189147D01*
X53911Y189197D01*
X53773Y189247D01*
X53448Y189347D01*
X53074Y189410D01*
X52874Y189435D01*
X52536D01*
X52436Y189422D01*
X52324Y189410D01*
X52186Y189397D01*
X52036Y189385D01*
X51886Y189360D01*
X51524Y189272D01*
X51149Y189160D01*
X50961Y189085D01*
X50774Y188997D01*
X50599Y188897D01*
X50424Y188785D01*
X50412Y188773D01*
X50387Y188760D01*
X50337Y188722D01*
X50274Y188673D01*
X50212Y188610D01*
X50124Y188523D01*
X50037Y188435D01*
X49937Y188335D01*
X49837Y188210D01*
X49724Y188085D01*
X49524Y187798D01*
X49337Y187460D01*
X49174Y187073D01*
Y187060D01*
X49162Y187023D01*
X49137Y186961D01*
X49124Y186886D01*
X49099Y186786D01*
X49062Y186673D01*
X49037Y186536D01*
X49000Y186398D01*
X48962Y186236D01*
X48937Y186061D01*
X48875Y185686D01*
X48837Y185286D01*
X48825Y184861D01*
Y184848D01*
Y184799D01*
Y184723D01*
X48837Y184611D01*
Y184486D01*
X48850Y184336D01*
X48862Y184174D01*
X48875Y183986D01*
X48900Y183786D01*
X48925Y183586D01*
X49000Y183149D01*
X49112Y182712D01*
X49250Y182287D01*
Y182274D01*
X49275Y182237D01*
X49300Y182187D01*
X49324Y182112D01*
X49374Y182012D01*
X49437Y181912D01*
X49574Y181674D01*
X49762Y181399D01*
X49987Y181137D01*
X50262Y180875D01*
X50412Y180762D01*
X50574Y180650D01*
X50587D01*
X50612Y180625D01*
X50662Y180600D01*
X50737Y180562D01*
X50824Y180525D01*
X50924Y180475D01*
X51037Y180437D01*
X51161Y180387D01*
X51449Y180287D01*
X51786Y180200D01*
X52149Y180137D01*
X52336Y180125D01*
X52536Y180112D01*
X52661D01*
X52749Y180125D01*
X52861Y180137D01*
X52986Y180150D01*
X53136Y180175D01*
X53286Y180200D01*
X53636Y180287D01*
X53811Y180350D01*
X53998Y180425D01*
X54186Y180512D01*
X54361Y180612D01*
X54536Y180725D01*
X54711Y180849D01*
X54723Y180862D01*
X54748Y180887D01*
X54798Y180924D01*
X54861Y180987D01*
X54923Y181062D01*
X55010Y181162D01*
X55098Y181274D01*
X55198Y181399D01*
X55298Y181549D01*
X55398Y181712D01*
X55498Y181887D01*
X55598Y182087D01*
X55685Y182299D01*
X55773Y182537D01*
X55860Y182787D01*
X55923Y183049D01*
X57447Y182662D01*
Y182637D01*
X57422Y182574D01*
X57397Y182487D01*
X57347Y182349D01*
X57297Y182199D01*
X57222Y182012D01*
X57147Y181812D01*
X57048Y181599D01*
X56935Y181362D01*
X56810Y181137D01*
X56673Y180887D01*
X56510Y180650D01*
X56335Y180425D01*
X56148Y180200D01*
X55935Y179987D01*
X55710Y179787D01*
X55698Y179775D01*
X55648Y179750D01*
X55585Y179700D01*
X55485Y179637D01*
X55373Y179562D01*
X55223Y179475D01*
X55061Y179387D01*
X54861Y179300D01*
X54648Y179212D01*
X54423Y179125D01*
X54173Y179037D01*
X53898Y178962D01*
X53611Y178900D01*
X53311Y178850D01*
X52998Y178825D01*
X52661Y178813D01*
X52486D01*
X52349Y178825D01*
X52199Y178838D01*
X52011Y178850D01*
X51811Y178875D01*
X51586Y178913D01*
X51349Y178950D01*
X51099Y179000D01*
X50849Y179062D01*
X50599Y179125D01*
X50337Y179212D01*
X50087Y179312D01*
X49849Y179425D01*
X49624Y179562D01*
X49612Y179575D01*
X49574Y179600D01*
X49512Y179637D01*
X49437Y179700D01*
X49337Y179787D01*
X49225Y179875D01*
X49099Y179987D01*
X48962Y180125D01*
X48825Y180275D01*
X48675Y180437D01*
X48537Y180612D01*
X48387Y180812D01*
X48237Y181024D01*
X48100Y181249D01*
X47975Y181499D01*
X47850Y181762D01*
X47837Y181774D01*
X47825Y181824D01*
X47800Y181912D01*
X47762Y182012D01*
X47712Y182149D01*
X47662Y182299D01*
X47612Y182487D01*
X47550Y182687D01*
X47500Y182911D01*
X47437Y183149D01*
X47387Y183399D01*
X47350Y183674D01*
X47275Y184249D01*
X47263Y184549D01*
X47250Y184848D01*
Y184874D01*
Y184923D01*
Y185023D01*
X47263Y185148D01*
X47275Y185311D01*
X47288Y185498D01*
X47312Y185698D01*
X47337Y185923D01*
X47375Y186161D01*
X47413Y186411D01*
X47537Y186948D01*
X47625Y187210D01*
X47712Y187473D01*
X47812Y187748D01*
X47937Y187998D01*
X47950Y188010D01*
X47975Y188060D01*
X48012Y188123D01*
X48062Y188223D01*
X48137Y188335D01*
X48225Y188460D01*
X48325Y188598D01*
X48437Y188760D01*
X48575Y188910D01*
X48712Y189085D01*
X48875Y189247D01*
X49050Y189422D01*
X49237Y189585D01*
X49437Y189747D01*
X49662Y189897D01*
X49887Y190035D01*
X49899Y190047D01*
X49949Y190060D01*
X50012Y190097D01*
X50112Y190147D01*
X50224Y190197D01*
X50374Y190260D01*
X50537Y190322D01*
X50712Y190385D01*
X50912Y190447D01*
X51136Y190510D01*
X51361Y190572D01*
X51611Y190622D01*
X52124Y190709D01*
X52399Y190722D01*
X52686Y190735D01*
X52849D01*
X52973Y190722D01*
D02*
G37*
G36*
X114473Y71972D02*
X114623Y71960D01*
X114798Y71934D01*
X114986Y71909D01*
X115198Y71872D01*
X115423Y71822D01*
X115661Y71772D01*
X115898Y71697D01*
X116148Y71610D01*
X116398Y71510D01*
X116636Y71385D01*
X116873Y71260D01*
X117098Y71097D01*
X117110Y71085D01*
X117148Y71060D01*
X117210Y71010D01*
X117285Y70935D01*
X117385Y70847D01*
X117498Y70735D01*
X117610Y70610D01*
X117748Y70460D01*
X117885Y70297D01*
X118023Y70110D01*
X118160Y69910D01*
X118285Y69685D01*
X118422Y69448D01*
X118535Y69185D01*
X118647Y68910D01*
X118747Y68623D01*
X117248Y68273D01*
Y68285D01*
X117223Y68323D01*
X117210Y68398D01*
X117173Y68485D01*
X117135Y68585D01*
X117073Y68698D01*
X116948Y68973D01*
X116785Y69273D01*
X116573Y69585D01*
X116348Y69872D01*
X116211Y69998D01*
X116073Y70110D01*
X116061Y70122D01*
X116036Y70135D01*
X115998Y70160D01*
X115936Y70197D01*
X115861Y70247D01*
X115773Y70297D01*
X115673Y70347D01*
X115548Y70397D01*
X115411Y70447D01*
X115273Y70497D01*
X114948Y70597D01*
X114573Y70660D01*
X114374Y70685D01*
X114036D01*
X113936Y70672D01*
X113824Y70660D01*
X113686Y70647D01*
X113536Y70635D01*
X113386Y70610D01*
X113024Y70522D01*
X112649Y70410D01*
X112462Y70335D01*
X112274Y70247D01*
X112099Y70148D01*
X111924Y70035D01*
X111912Y70023D01*
X111887Y70010D01*
X111837Y69973D01*
X111774Y69922D01*
X111712Y69860D01*
X111624Y69773D01*
X111537Y69685D01*
X111437Y69585D01*
X111337Y69460D01*
X111224Y69335D01*
X111024Y69048D01*
X110837Y68710D01*
X110674Y68323D01*
Y68310D01*
X110662Y68273D01*
X110637Y68211D01*
X110625Y68135D01*
X110599Y68035D01*
X110562Y67923D01*
X110537Y67786D01*
X110500Y67648D01*
X110462Y67486D01*
X110437Y67311D01*
X110375Y66936D01*
X110337Y66536D01*
X110325Y66111D01*
Y66098D01*
Y66048D01*
Y65974D01*
X110337Y65861D01*
Y65736D01*
X110350Y65586D01*
X110362Y65424D01*
X110375Y65236D01*
X110400Y65036D01*
X110425Y64836D01*
X110500Y64399D01*
X110612Y63962D01*
X110750Y63537D01*
Y63524D01*
X110774Y63487D01*
X110800Y63437D01*
X110824Y63362D01*
X110875Y63262D01*
X110937Y63162D01*
X111074Y62924D01*
X111262Y62649D01*
X111487Y62387D01*
X111762Y62125D01*
X111912Y62012D01*
X112074Y61900D01*
X112087D01*
X112112Y61875D01*
X112162Y61850D01*
X112237Y61812D01*
X112324Y61775D01*
X112424Y61725D01*
X112536Y61687D01*
X112662Y61637D01*
X112949Y61537D01*
X113286Y61450D01*
X113649Y61387D01*
X113836Y61375D01*
X114036Y61362D01*
X114161D01*
X114249Y61375D01*
X114361Y61387D01*
X114486Y61400D01*
X114636Y61425D01*
X114786Y61450D01*
X115136Y61537D01*
X115311Y61600D01*
X115498Y61675D01*
X115686Y61762D01*
X115861Y61862D01*
X116036Y61975D01*
X116211Y62099D01*
X116223Y62112D01*
X116248Y62137D01*
X116298Y62175D01*
X116361Y62237D01*
X116423Y62312D01*
X116510Y62412D01*
X116598Y62524D01*
X116698Y62649D01*
X116798Y62799D01*
X116898Y62962D01*
X116998Y63137D01*
X117098Y63337D01*
X117185Y63549D01*
X117273Y63787D01*
X117360Y64036D01*
X117423Y64299D01*
X118947Y63912D01*
Y63887D01*
X118922Y63824D01*
X118897Y63737D01*
X118847Y63599D01*
X118797Y63449D01*
X118722Y63262D01*
X118647Y63062D01*
X118547Y62849D01*
X118435Y62612D01*
X118310Y62387D01*
X118173Y62137D01*
X118010Y61900D01*
X117835Y61675D01*
X117648Y61450D01*
X117435Y61237D01*
X117210Y61037D01*
X117198Y61025D01*
X117148Y61000D01*
X117085Y60950D01*
X116985Y60887D01*
X116873Y60812D01*
X116723Y60725D01*
X116560Y60637D01*
X116361Y60550D01*
X116148Y60462D01*
X115923Y60375D01*
X115673Y60287D01*
X115398Y60212D01*
X115111Y60150D01*
X114811Y60100D01*
X114499Y60075D01*
X114161Y60062D01*
X113986D01*
X113849Y60075D01*
X113699Y60087D01*
X113511Y60100D01*
X113311Y60125D01*
X113086Y60163D01*
X112849Y60200D01*
X112599Y60250D01*
X112349Y60312D01*
X112099Y60375D01*
X111837Y60462D01*
X111587Y60562D01*
X111349Y60675D01*
X111124Y60812D01*
X111112Y60825D01*
X111074Y60850D01*
X111012Y60887D01*
X110937Y60950D01*
X110837Y61037D01*
X110724Y61125D01*
X110599Y61237D01*
X110462Y61375D01*
X110325Y61525D01*
X110175Y61687D01*
X110037Y61862D01*
X109887Y62062D01*
X109737Y62274D01*
X109600Y62499D01*
X109475Y62749D01*
X109350Y63012D01*
X109337Y63024D01*
X109325Y63074D01*
X109300Y63162D01*
X109262Y63262D01*
X109212Y63399D01*
X109162Y63549D01*
X109112Y63737D01*
X109050Y63937D01*
X109000Y64162D01*
X108938Y64399D01*
X108888Y64649D01*
X108850Y64924D01*
X108775Y65499D01*
X108763Y65799D01*
X108750Y66098D01*
Y66123D01*
Y66174D01*
Y66273D01*
X108763Y66398D01*
X108775Y66561D01*
X108787Y66748D01*
X108813Y66948D01*
X108837Y67173D01*
X108875Y67411D01*
X108912Y67661D01*
X109037Y68198D01*
X109125Y68460D01*
X109212Y68723D01*
X109312Y68998D01*
X109437Y69248D01*
X109450Y69260D01*
X109475Y69310D01*
X109512Y69373D01*
X109562Y69473D01*
X109637Y69585D01*
X109725Y69710D01*
X109825Y69847D01*
X109937Y70010D01*
X110075Y70160D01*
X110212Y70335D01*
X110375Y70497D01*
X110549Y70672D01*
X110737Y70835D01*
X110937Y70997D01*
X111162Y71147D01*
X111387Y71285D01*
X111399Y71297D01*
X111449Y71310D01*
X111512Y71347D01*
X111612Y71397D01*
X111724Y71447D01*
X111874Y71510D01*
X112037Y71572D01*
X112212Y71635D01*
X112412Y71697D01*
X112636Y71760D01*
X112861Y71822D01*
X113111Y71872D01*
X113624Y71960D01*
X113899Y71972D01*
X114186Y71985D01*
X114349D01*
X114473Y71972D01*
D02*
G37*
G36*
X288671Y24000D02*
X287259D01*
Y33010D01*
X287234Y32985D01*
X287171Y32923D01*
X287059Y32835D01*
X286896Y32710D01*
X286709Y32560D01*
X286471Y32398D01*
X286209Y32223D01*
X285909Y32035D01*
X285896D01*
X285871Y32011D01*
X285834Y31985D01*
X285772Y31960D01*
X285697Y31911D01*
X285609Y31873D01*
X285409Y31760D01*
X285184Y31648D01*
X284934Y31523D01*
X284672Y31411D01*
X284422Y31311D01*
Y32673D01*
X284434Y32685D01*
X284472Y32698D01*
X284534Y32735D01*
X284622Y32773D01*
X284722Y32823D01*
X284847Y32898D01*
X284984Y32973D01*
X285122Y33048D01*
X285446Y33248D01*
X285797Y33485D01*
X286159Y33735D01*
X286496Y34022D01*
X286509Y34035D01*
X286534Y34060D01*
X286584Y34097D01*
X286646Y34160D01*
X286709Y34235D01*
X286796Y34310D01*
X286984Y34522D01*
X287196Y34747D01*
X287409Y35010D01*
X287596Y35285D01*
X287759Y35572D01*
X288671D01*
Y24000D01*
D02*
G37*
G36*
X278236Y30048D02*
X282560Y24000D01*
X280698D01*
X277773Y28111D01*
X277761Y28124D01*
X277736Y28174D01*
X277686Y28236D01*
X277624Y28336D01*
X277549Y28436D01*
X277474Y28549D01*
X277299Y28811D01*
Y28799D01*
X277286Y28786D01*
X277236Y28711D01*
X277174Y28611D01*
X277086Y28486D01*
X276899Y28224D01*
X276824Y28099D01*
X276749Y27999D01*
X273825Y24000D01*
X271987D01*
X276449Y29973D01*
X272512Y35535D01*
X274324D01*
X276436Y32573D01*
X276449Y32560D01*
X276461Y32535D01*
X276499Y32485D01*
X276549Y32423D01*
X276599Y32348D01*
X276661Y32260D01*
X276799Y32060D01*
X276949Y31823D01*
X277099Y31598D01*
X277249Y31361D01*
X277361Y31161D01*
Y31173D01*
X277374Y31186D01*
X277399Y31223D01*
X277436Y31273D01*
X277511Y31386D01*
X277624Y31548D01*
X277761Y31748D01*
X277911Y31973D01*
X278098Y32210D01*
X278286Y32460D01*
X280585Y35535D01*
X282247D01*
X278236Y30048D01*
D02*
G37*
G36*
X125583Y60250D02*
X124171D01*
Y69260D01*
X124146Y69235D01*
X124084Y69173D01*
X123971Y69085D01*
X123809Y68960D01*
X123621Y68810D01*
X123384Y68648D01*
X123121Y68473D01*
X122821Y68285D01*
X122809D01*
X122784Y68260D01*
X122746Y68235D01*
X122684Y68211D01*
X122609Y68161D01*
X122521Y68123D01*
X122322Y68011D01*
X122097Y67898D01*
X121847Y67773D01*
X121584Y67661D01*
X121334Y67561D01*
Y68923D01*
X121347Y68935D01*
X121384Y68948D01*
X121447Y68985D01*
X121534Y69023D01*
X121634Y69073D01*
X121759Y69148D01*
X121897Y69223D01*
X122034Y69298D01*
X122359Y69498D01*
X122709Y69735D01*
X123071Y69985D01*
X123409Y70272D01*
X123421Y70285D01*
X123446Y70310D01*
X123496Y70347D01*
X123559Y70410D01*
X123621Y70485D01*
X123709Y70560D01*
X123896Y70772D01*
X124109Y70997D01*
X124321Y71260D01*
X124508Y71535D01*
X124671Y71822D01*
X125583D01*
Y60250D01*
D02*
G37*
G36*
X88368Y119045D02*
X88468D01*
X88606Y119020D01*
X88756Y118995D01*
X88918Y118970D01*
X89106Y118920D01*
X89306Y118858D01*
X89506Y118783D01*
X89718Y118695D01*
X89930Y118583D01*
X90155Y118458D01*
X90368Y118308D01*
X90580Y118145D01*
X90780Y117945D01*
X90793Y117933D01*
X90830Y117895D01*
X90880Y117833D01*
X90943Y117746D01*
X91018Y117646D01*
X91105Y117508D01*
X91205Y117358D01*
X91293Y117183D01*
X91393Y116996D01*
X91493Y116783D01*
X91580Y116558D01*
X91655Y116308D01*
X91718Y116046D01*
X91768Y115771D01*
X91805Y115484D01*
X91818Y115171D01*
Y115159D01*
Y115109D01*
X91805Y115021D01*
Y114921D01*
X91792Y114784D01*
X91768Y114634D01*
X91742Y114471D01*
X91705Y114284D01*
X91655Y114084D01*
X91593Y113884D01*
X91530Y113672D01*
X91443Y113459D01*
X91330Y113247D01*
X91218Y113047D01*
X91080Y112834D01*
X90918Y112647D01*
X90905Y112634D01*
X90880Y112609D01*
X90830Y112559D01*
X90755Y112484D01*
X90668Y112409D01*
X90555Y112322D01*
X90430Y112234D01*
X90280Y112134D01*
X90130Y112034D01*
X89943Y111934D01*
X89755Y111834D01*
X89543Y111747D01*
X89318Y111672D01*
X89081Y111597D01*
X88831Y111547D01*
X88568Y111510D01*
X88381Y112922D01*
X88393D01*
X88431Y112934D01*
X88493Y112947D01*
X88581Y112972D01*
X88681Y112997D01*
X88793Y113022D01*
X89056Y113109D01*
X89343Y113222D01*
X89631Y113359D01*
X89893Y113534D01*
X90006Y113634D01*
X90118Y113734D01*
Y113747D01*
X90143Y113759D01*
X90168Y113797D01*
X90205Y113834D01*
X90280Y113959D01*
X90380Y114134D01*
X90480Y114346D01*
X90555Y114584D01*
X90618Y114871D01*
X90643Y115171D01*
Y115184D01*
Y115221D01*
Y115271D01*
X90630Y115346D01*
X90618Y115421D01*
X90605Y115534D01*
X90555Y115758D01*
X90480Y116033D01*
X90355Y116321D01*
X90268Y116458D01*
X90180Y116596D01*
X90080Y116733D01*
X89956Y116871D01*
X89943Y116883D01*
X89918Y116896D01*
X89881Y116933D01*
X89831Y116983D01*
X89768Y117033D01*
X89681Y117083D01*
X89593Y117146D01*
X89481Y117221D01*
X89231Y117346D01*
X88943Y117445D01*
X88606Y117533D01*
X88431Y117545D01*
X88243Y117558D01*
X88143D01*
X88081Y117545D01*
X87993Y117533D01*
X87906Y117521D01*
X87681Y117483D01*
X87419Y117395D01*
X87156Y117283D01*
X87019Y117208D01*
X86894Y117121D01*
X86769Y117021D01*
X86644Y116908D01*
X86631Y116896D01*
X86619Y116883D01*
X86581Y116846D01*
X86544Y116796D01*
X86494Y116733D01*
X86444Y116658D01*
X86319Y116471D01*
X86206Y116233D01*
X86107Y115958D01*
X86032Y115646D01*
X86019Y115471D01*
X86006Y115296D01*
Y115284D01*
Y115221D01*
X86019Y115134D01*
Y115021D01*
X86044Y114871D01*
X86069Y114709D01*
X86107Y114509D01*
X86156Y114296D01*
X84919Y114446D01*
Y114459D01*
Y114471D01*
X84932Y114534D01*
X84944Y114609D01*
Y114684D01*
Y114696D01*
Y114721D01*
Y114771D01*
X84932Y114834D01*
Y114921D01*
X84919Y115009D01*
X84882Y115221D01*
X84832Y115471D01*
X84744Y115746D01*
X84632Y116033D01*
X84469Y116308D01*
Y116321D01*
X84444Y116346D01*
X84419Y116371D01*
X84382Y116421D01*
X84269Y116546D01*
X84107Y116683D01*
X83907Y116808D01*
X83657Y116933D01*
X83520Y116983D01*
X83357Y117008D01*
X83195Y117033D01*
X83020Y117046D01*
X82945D01*
X82882Y117033D01*
X82745Y117021D01*
X82557Y116983D01*
X82357Y116921D01*
X82145Y116821D01*
X81920Y116683D01*
X81820Y116608D01*
X81720Y116508D01*
X81695Y116483D01*
X81645Y116408D01*
X81558Y116296D01*
X81458Y116146D01*
X81370Y115946D01*
X81283Y115709D01*
X81233Y115446D01*
X81208Y115146D01*
Y115134D01*
Y115109D01*
Y115071D01*
X81220Y115009D01*
Y114934D01*
X81233Y114859D01*
X81270Y114659D01*
X81333Y114446D01*
X81433Y114209D01*
X81558Y113984D01*
X81733Y113759D01*
X81758Y113734D01*
X81833Y113672D01*
X81945Y113572D01*
X82120Y113472D01*
X82332Y113347D01*
X82607Y113234D01*
X82920Y113134D01*
X83282Y113059D01*
X83032Y111647D01*
X83020D01*
X82970Y111659D01*
X82895Y111672D01*
X82795Y111697D01*
X82682Y111735D01*
X82545Y111772D01*
X82395Y111822D01*
X82232Y111884D01*
X81870Y112047D01*
X81695Y112134D01*
X81508Y112247D01*
X81333Y112372D01*
X81158Y112509D01*
X80983Y112659D01*
X80833Y112822D01*
X80820Y112834D01*
X80795Y112859D01*
X80758Y112922D01*
X80708Y112984D01*
X80645Y113084D01*
X80583Y113184D01*
X80508Y113309D01*
X80433Y113459D01*
X80370Y113609D01*
X80295Y113784D01*
X80233Y113971D01*
X80170Y114171D01*
X80120Y114396D01*
X80083Y114621D01*
X80058Y114859D01*
X80045Y115109D01*
Y115121D01*
Y115146D01*
Y115196D01*
Y115271D01*
X80058Y115359D01*
X80070Y115446D01*
X80096Y115683D01*
X80146Y115946D01*
X80220Y116246D01*
X80320Y116546D01*
X80458Y116846D01*
Y116858D01*
X80470Y116883D01*
X80495Y116921D01*
X80533Y116983D01*
X80620Y117121D01*
X80745Y117296D01*
X80908Y117495D01*
X81095Y117696D01*
X81308Y117895D01*
X81558Y118070D01*
X81570D01*
X81583Y118083D01*
X81633Y118108D01*
X81683Y118133D01*
X81745Y118170D01*
X81820Y118208D01*
X82008Y118283D01*
X82232Y118358D01*
X82482Y118433D01*
X82757Y118483D01*
X83045Y118495D01*
X83170D01*
X83320Y118470D01*
X83495Y118445D01*
X83707Y118395D01*
X83932Y118320D01*
X84170Y118220D01*
X84407Y118083D01*
X84419D01*
X84432Y118070D01*
X84507Y118008D01*
X84619Y117920D01*
X84757Y117783D01*
X84919Y117620D01*
X85082Y117408D01*
X85232Y117171D01*
X85382Y116896D01*
Y116908D01*
X85394Y116946D01*
X85407Y116996D01*
X85432Y117071D01*
X85457Y117146D01*
X85494Y117246D01*
X85594Y117483D01*
X85732Y117733D01*
X85894Y117995D01*
X86107Y118258D01*
X86369Y118483D01*
X86381Y118495D01*
X86406Y118508D01*
X86444Y118533D01*
X86506Y118570D01*
X86569Y118620D01*
X86656Y118670D01*
X86756Y118720D01*
X86881Y118770D01*
X87006Y118820D01*
X87144Y118870D01*
X87456Y118970D01*
X87818Y119033D01*
X88019Y119058D01*
X88281D01*
X88368Y119045D01*
D02*
G37*
G36*
X278596Y72559D02*
X278734Y72547D01*
X278896Y72522D01*
X279083Y72497D01*
X279271Y72460D01*
X279483Y72410D01*
X279696Y72347D01*
X279921Y72272D01*
X280133Y72185D01*
X280358Y72072D01*
X280571Y71947D01*
X280770Y71810D01*
X280958Y71647D01*
X280970Y71635D01*
X280995Y71610D01*
X281045Y71547D01*
X281108Y71485D01*
X281183Y71397D01*
X281270Y71285D01*
X281358Y71160D01*
X281445Y71010D01*
X281533Y70860D01*
X281620Y70685D01*
X281708Y70498D01*
X281783Y70298D01*
X281845Y70073D01*
X281895Y69848D01*
X281920Y69610D01*
X281933Y69360D01*
Y69348D01*
Y69335D01*
Y69298D01*
Y69248D01*
X281920Y69110D01*
X281895Y68935D01*
X281858Y68723D01*
X281808Y68498D01*
X281745Y68248D01*
X281645Y67998D01*
Y67986D01*
X281633Y67973D01*
X281620Y67936D01*
X281595Y67886D01*
X281520Y67748D01*
X281420Y67573D01*
X281283Y67361D01*
X281120Y67123D01*
X280933Y66873D01*
X280695Y66599D01*
X280683Y66586D01*
X280671Y66561D01*
X280620Y66524D01*
X280571Y66461D01*
X280495Y66386D01*
X280408Y66299D01*
X280308Y66186D01*
X280183Y66074D01*
X280033Y65936D01*
X279871Y65786D01*
X279696Y65611D01*
X279496Y65436D01*
X279283Y65236D01*
X279046Y65037D01*
X278783Y64812D01*
X278508Y64574D01*
X278496Y64562D01*
X278458Y64524D01*
X278384Y64474D01*
X278309Y64399D01*
X278196Y64312D01*
X278084Y64212D01*
X277821Y63987D01*
X277546Y63749D01*
X277284Y63499D01*
X277159Y63387D01*
X277046Y63287D01*
X276946Y63187D01*
X276871Y63112D01*
X276859Y63099D01*
X276809Y63050D01*
X276747Y62975D01*
X276659Y62874D01*
X276559Y62762D01*
X276459Y62637D01*
X276259Y62362D01*
X281945D01*
Y61000D01*
X274310D01*
Y61025D01*
Y61087D01*
Y61188D01*
X274322Y61312D01*
X274335Y61462D01*
X274372Y61625D01*
X274410Y61800D01*
X274472Y61975D01*
Y61987D01*
X274485Y62012D01*
X274497Y62050D01*
X274522Y62112D01*
X274559Y62175D01*
X274597Y62262D01*
X274697Y62462D01*
X274822Y62700D01*
X274984Y62962D01*
X275172Y63237D01*
X275397Y63512D01*
X275409Y63524D01*
X275422Y63549D01*
X275459Y63587D01*
X275522Y63649D01*
X275584Y63712D01*
X275672Y63799D01*
X275759Y63899D01*
X275872Y64012D01*
X275997Y64137D01*
X276134Y64262D01*
X276284Y64412D01*
X276459Y64562D01*
X276634Y64724D01*
X276834Y64886D01*
X277034Y65061D01*
X277259Y65249D01*
X277284Y65261D01*
X277346Y65324D01*
X277434Y65399D01*
X277559Y65511D01*
X277709Y65636D01*
X277884Y65786D01*
X278084Y65949D01*
X278284Y66136D01*
X278708Y66524D01*
X279121Y66936D01*
X279321Y67136D01*
X279508Y67336D01*
X279671Y67523D01*
X279808Y67698D01*
X279821Y67711D01*
X279833Y67736D01*
X279871Y67786D01*
X279908Y67848D01*
X279971Y67936D01*
X280021Y68023D01*
X280146Y68248D01*
X280271Y68511D01*
X280383Y68798D01*
X280458Y69098D01*
X280471Y69248D01*
X280483Y69398D01*
Y69410D01*
Y69435D01*
Y69485D01*
X280471Y69535D01*
Y69610D01*
X280445Y69698D01*
X280408Y69885D01*
X280333Y70110D01*
X280221Y70348D01*
X280158Y70473D01*
X280071Y70585D01*
X279983Y70697D01*
X279871Y70810D01*
X279858Y70823D01*
X279846Y70835D01*
X279808Y70860D01*
X279758Y70897D01*
X279696Y70947D01*
X279621Y70997D01*
X279446Y71110D01*
X279208Y71210D01*
X278946Y71310D01*
X278633Y71372D01*
X278458Y71397D01*
X278184D01*
X278109Y71385D01*
X278021D01*
X277921Y71360D01*
X277696Y71322D01*
X277434Y71247D01*
X277159Y71135D01*
X277021Y71060D01*
X276884Y70985D01*
X276759Y70885D01*
X276634Y70773D01*
X276621Y70760D01*
X276609Y70747D01*
X276584Y70710D01*
X276534Y70660D01*
X276497Y70598D01*
X276447Y70523D01*
X276384Y70435D01*
X276334Y70335D01*
X276272Y70223D01*
X276222Y70098D01*
X276122Y69798D01*
X276047Y69473D01*
X276034Y69285D01*
X276022Y69085D01*
X274572Y69235D01*
Y69260D01*
X274585Y69310D01*
X274597Y69385D01*
X274610Y69498D01*
X274634Y69635D01*
X274672Y69798D01*
X274709Y69973D01*
X274772Y70160D01*
X274834Y70348D01*
X274909Y70560D01*
X275009Y70760D01*
X275109Y70960D01*
X275234Y71172D01*
X275372Y71360D01*
X275522Y71547D01*
X275697Y71710D01*
X275709Y71722D01*
X275747Y71747D01*
X275797Y71785D01*
X275872Y71847D01*
X275972Y71910D01*
X276097Y71985D01*
X276234Y72060D01*
X276397Y72147D01*
X276572Y72222D01*
X276772Y72297D01*
X276984Y72372D01*
X277221Y72435D01*
X277471Y72497D01*
X277734Y72535D01*
X278021Y72559D01*
X278321Y72572D01*
X278484D01*
X278596Y72559D01*
D02*
G37*
G36*
X268724Y72722D02*
X268874Y72709D01*
X269049Y72684D01*
X269236Y72660D01*
X269448Y72622D01*
X269673Y72572D01*
X269911Y72522D01*
X270148Y72447D01*
X270398Y72360D01*
X270648Y72260D01*
X270886Y72135D01*
X271123Y72010D01*
X271348Y71847D01*
X271360Y71835D01*
X271398Y71810D01*
X271460Y71760D01*
X271535Y71685D01*
X271635Y71597D01*
X271748Y71485D01*
X271860Y71360D01*
X271998Y71210D01*
X272135Y71047D01*
X272273Y70860D01*
X272410Y70660D01*
X272535Y70435D01*
X272673Y70198D01*
X272785Y69935D01*
X272897Y69660D01*
X272997Y69373D01*
X271498Y69023D01*
Y69035D01*
X271473Y69073D01*
X271460Y69148D01*
X271423Y69235D01*
X271385Y69335D01*
X271323Y69448D01*
X271198Y69723D01*
X271035Y70023D01*
X270823Y70335D01*
X270598Y70623D01*
X270461Y70747D01*
X270323Y70860D01*
X270311Y70873D01*
X270286Y70885D01*
X270248Y70910D01*
X270186Y70947D01*
X270111Y70997D01*
X270023Y71047D01*
X269923Y71097D01*
X269798Y71147D01*
X269661Y71197D01*
X269523Y71247D01*
X269198Y71347D01*
X268824Y71410D01*
X268624Y71435D01*
X268286D01*
X268186Y71422D01*
X268074Y71410D01*
X267936Y71397D01*
X267786Y71385D01*
X267636Y71360D01*
X267274Y71272D01*
X266899Y71160D01*
X266712Y71085D01*
X266524Y70997D01*
X266349Y70897D01*
X266174Y70785D01*
X266162Y70773D01*
X266137Y70760D01*
X266087Y70722D01*
X266024Y70672D01*
X265962Y70610D01*
X265874Y70523D01*
X265787Y70435D01*
X265687Y70335D01*
X265587Y70210D01*
X265474Y70085D01*
X265274Y69798D01*
X265087Y69460D01*
X264925Y69073D01*
Y69060D01*
X264912Y69023D01*
X264887Y68960D01*
X264874Y68885D01*
X264849Y68786D01*
X264812Y68673D01*
X264787Y68536D01*
X264750Y68398D01*
X264712Y68236D01*
X264687Y68061D01*
X264625Y67686D01*
X264587Y67286D01*
X264575Y66861D01*
Y66849D01*
Y66799D01*
Y66723D01*
X264587Y66611D01*
Y66486D01*
X264600Y66336D01*
X264612Y66174D01*
X264625Y65986D01*
X264650Y65786D01*
X264675Y65586D01*
X264750Y65149D01*
X264862Y64712D01*
X265000Y64287D01*
Y64274D01*
X265025Y64237D01*
X265049Y64187D01*
X265075Y64112D01*
X265124Y64012D01*
X265187Y63912D01*
X265324Y63674D01*
X265512Y63399D01*
X265737Y63137D01*
X266012Y62874D01*
X266162Y62762D01*
X266324Y62650D01*
X266337D01*
X266362Y62625D01*
X266412Y62600D01*
X266487Y62562D01*
X266574Y62525D01*
X266674Y62475D01*
X266786Y62437D01*
X266912Y62387D01*
X267199Y62287D01*
X267536Y62200D01*
X267899Y62137D01*
X268086Y62125D01*
X268286Y62112D01*
X268411D01*
X268499Y62125D01*
X268611Y62137D01*
X268736Y62150D01*
X268886Y62175D01*
X269036Y62200D01*
X269386Y62287D01*
X269561Y62350D01*
X269748Y62425D01*
X269936Y62512D01*
X270111Y62612D01*
X270286Y62725D01*
X270461Y62849D01*
X270473Y62862D01*
X270498Y62887D01*
X270548Y62924D01*
X270611Y62987D01*
X270673Y63062D01*
X270760Y63162D01*
X270848Y63274D01*
X270948Y63399D01*
X271048Y63549D01*
X271148Y63712D01*
X271248Y63887D01*
X271348Y64087D01*
X271435Y64299D01*
X271523Y64537D01*
X271610Y64787D01*
X271673Y65049D01*
X273197Y64662D01*
Y64637D01*
X273172Y64574D01*
X273147Y64487D01*
X273097Y64349D01*
X273047Y64199D01*
X272973Y64012D01*
X272897Y63812D01*
X272798Y63599D01*
X272685Y63362D01*
X272560Y63137D01*
X272423Y62887D01*
X272260Y62650D01*
X272085Y62425D01*
X271898Y62200D01*
X271685Y61987D01*
X271460Y61787D01*
X271448Y61775D01*
X271398Y61750D01*
X271335Y61700D01*
X271235Y61637D01*
X271123Y61562D01*
X270973Y61475D01*
X270811Y61387D01*
X270611Y61300D01*
X270398Y61213D01*
X270173Y61125D01*
X269923Y61038D01*
X269648Y60963D01*
X269361Y60900D01*
X269061Y60850D01*
X268748Y60825D01*
X268411Y60813D01*
X268236D01*
X268099Y60825D01*
X267949Y60837D01*
X267761Y60850D01*
X267561Y60875D01*
X267336Y60912D01*
X267099Y60950D01*
X266849Y61000D01*
X266599Y61062D01*
X266349Y61125D01*
X266087Y61213D01*
X265837Y61312D01*
X265599Y61425D01*
X265374Y61562D01*
X265362Y61575D01*
X265324Y61600D01*
X265262Y61637D01*
X265187Y61700D01*
X265087Y61787D01*
X264974Y61875D01*
X264849Y61987D01*
X264712Y62125D01*
X264575Y62275D01*
X264425Y62437D01*
X264287Y62612D01*
X264137Y62812D01*
X263987Y63025D01*
X263850Y63249D01*
X263725Y63499D01*
X263600Y63762D01*
X263587Y63774D01*
X263575Y63824D01*
X263550Y63912D01*
X263512Y64012D01*
X263462Y64149D01*
X263412Y64299D01*
X263362Y64487D01*
X263300Y64687D01*
X263250Y64911D01*
X263188Y65149D01*
X263137Y65399D01*
X263100Y65674D01*
X263025Y66249D01*
X263013Y66549D01*
X263000Y66849D01*
Y66873D01*
Y66923D01*
Y67024D01*
X263013Y67148D01*
X263025Y67311D01*
X263037Y67498D01*
X263062Y67698D01*
X263088Y67923D01*
X263125Y68161D01*
X263162Y68411D01*
X263287Y68948D01*
X263375Y69210D01*
X263462Y69473D01*
X263562Y69748D01*
X263687Y69998D01*
X263700Y70010D01*
X263725Y70060D01*
X263762Y70123D01*
X263812Y70223D01*
X263887Y70335D01*
X263975Y70460D01*
X264075Y70598D01*
X264187Y70760D01*
X264325Y70910D01*
X264462Y71085D01*
X264625Y71247D01*
X264799Y71422D01*
X264987Y71585D01*
X265187Y71747D01*
X265412Y71897D01*
X265637Y72035D01*
X265649Y72047D01*
X265699Y72060D01*
X265762Y72097D01*
X265862Y72147D01*
X265974Y72197D01*
X266124Y72260D01*
X266287Y72322D01*
X266462Y72385D01*
X266662Y72447D01*
X266887Y72510D01*
X267111Y72572D01*
X267361Y72622D01*
X267874Y72709D01*
X268149Y72722D01*
X268436Y72734D01*
X268599D01*
X268724Y72722D01*
D02*
G37*
G36*
X36405Y31431D02*
X36571Y31420D01*
X36771Y31409D01*
X36982Y31397D01*
X37215Y31375D01*
X37448Y31353D01*
X37936Y31286D01*
X38414Y31186D01*
X38647Y31131D01*
X38858Y31064D01*
X38869D01*
X38902Y31042D01*
X38969Y31031D01*
X39035Y30998D01*
X39135Y30953D01*
X39235Y30909D01*
X39357Y30854D01*
X39490Y30787D01*
X39768Y30631D01*
X40045Y30443D01*
X40323Y30221D01*
X40445Y30088D01*
X40567Y29954D01*
X40578Y29943D01*
X40589Y29921D01*
X40623Y29877D01*
X40656Y29821D01*
X40700Y29755D01*
X40756Y29666D01*
X40811Y29566D01*
X40867Y29444D01*
X40922Y29322D01*
X40978Y29177D01*
X41022Y29033D01*
X41078Y28867D01*
X41111Y28689D01*
X41144Y28500D01*
X41155Y28312D01*
X41167Y28101D01*
Y28090D01*
Y28034D01*
X41155Y27956D01*
X41144Y27857D01*
X41133Y27734D01*
X41111Y27590D01*
X41078Y27435D01*
X41033Y27257D01*
X40978Y27080D01*
X40911Y26891D01*
X40822Y26691D01*
X40722Y26502D01*
X40600Y26314D01*
X40456Y26125D01*
X40301Y25947D01*
X40112Y25781D01*
X40101Y25770D01*
X40057Y25736D01*
X39979Y25692D01*
X39868Y25626D01*
X39723Y25548D01*
X39557Y25459D01*
X39346Y25370D01*
X39113Y25281D01*
X38835Y25182D01*
X38536Y25093D01*
X38192Y25004D01*
X37814Y24926D01*
X37404Y24860D01*
X36960Y24815D01*
X36471Y24782D01*
X35950Y24771D01*
X35772D01*
X35650Y24782D01*
X35494D01*
X35317Y24793D01*
X35117Y24804D01*
X34906Y24815D01*
X34673Y24837D01*
X34440Y24860D01*
X33952Y24926D01*
X33474Y25015D01*
X33241Y25071D01*
X33030Y25137D01*
X33019D01*
X32986Y25159D01*
X32919Y25182D01*
X32842Y25204D01*
X32753Y25248D01*
X32642Y25292D01*
X32531Y25348D01*
X32398Y25415D01*
X32120Y25570D01*
X31843Y25770D01*
X31565Y25992D01*
X31443Y26114D01*
X31321Y26247D01*
X31310Y26258D01*
X31299Y26280D01*
X31265Y26325D01*
X31232Y26380D01*
X31177Y26447D01*
X31132Y26536D01*
X31077Y26636D01*
X31021Y26758D01*
X30966Y26880D01*
X30910Y27024D01*
X30855Y27179D01*
X30810Y27335D01*
X30777Y27512D01*
X30744Y27701D01*
X30733Y27901D01*
X30722Y28101D01*
Y28112D01*
Y28134D01*
Y28178D01*
Y28234D01*
X30733Y28312D01*
X30744Y28389D01*
X30766Y28589D01*
X30799Y28811D01*
X30866Y29055D01*
X30944Y29299D01*
X31055Y29544D01*
Y29555D01*
X31066Y29577D01*
X31088Y29610D01*
X31121Y29655D01*
X31188Y29766D01*
X31299Y29910D01*
X31432Y30076D01*
X31598Y30243D01*
X31798Y30421D01*
X32020Y30576D01*
X32031D01*
X32054Y30598D01*
X32087Y30609D01*
X32131Y30643D01*
X32187Y30676D01*
X32264Y30720D01*
X32353Y30754D01*
X32442Y30809D01*
X32664Y30909D01*
X32919Y31009D01*
X33219Y31120D01*
X33541Y31209D01*
X33552D01*
X33585Y31220D01*
X33630Y31231D01*
X33707Y31242D01*
X33796Y31264D01*
X33907Y31286D01*
X34029Y31309D01*
X34174Y31331D01*
X34340Y31342D01*
X34518Y31364D01*
X34718Y31386D01*
X34928Y31409D01*
X35161Y31420D01*
X35406Y31431D01*
X35672Y31442D01*
X36249D01*
X36405Y31431D01*
D02*
G37*
G36*
X43250Y205235D02*
X40851Y203711D01*
X40838Y203698D01*
X40801Y203686D01*
X40751Y203648D01*
X40676Y203598D01*
X40588Y203548D01*
X40488Y203473D01*
X40263Y203323D01*
X40001Y203148D01*
X39738Y202973D01*
X39488Y202786D01*
X39264Y202611D01*
X39251D01*
X39239Y202586D01*
X39176Y202536D01*
X39076Y202461D01*
X38964Y202349D01*
X38839Y202236D01*
X38714Y202099D01*
X38589Y201961D01*
X38501Y201836D01*
X38489Y201824D01*
X38464Y201774D01*
X38426Y201711D01*
X38376Y201624D01*
X38326Y201511D01*
X38276Y201399D01*
X38226Y201274D01*
X38189Y201136D01*
Y201124D01*
X38176Y201087D01*
X38164Y201024D01*
X38151Y200937D01*
Y200812D01*
X38139Y200662D01*
X38126Y200487D01*
Y200287D01*
Y198525D01*
X43250D01*
Y197000D01*
X31716D01*
Y202111D01*
Y202124D01*
Y202174D01*
Y202261D01*
Y202361D01*
X31728Y202499D01*
Y202636D01*
X31740Y202799D01*
X31753Y202986D01*
X31790Y203361D01*
X31853Y203748D01*
X31928Y204123D01*
X31978Y204286D01*
X32028Y204448D01*
Y204461D01*
X32040Y204486D01*
X32065Y204523D01*
X32090Y204586D01*
X32165Y204736D01*
X32278Y204911D01*
X32428Y205123D01*
X32628Y205335D01*
X32853Y205548D01*
X33128Y205735D01*
X33140D01*
X33165Y205760D01*
X33203Y205785D01*
X33265Y205810D01*
X33340Y205848D01*
X33428Y205885D01*
X33528Y205935D01*
X33640Y205985D01*
X33902Y206073D01*
X34190Y206148D01*
X34515Y206198D01*
X34865Y206223D01*
X34990D01*
X35065Y206210D01*
X35177Y206198D01*
X35302Y206185D01*
X35440Y206160D01*
X35589Y206123D01*
X35914Y206023D01*
X36089Y205960D01*
X36264Y205885D01*
X36439Y205798D01*
X36614Y205685D01*
X36777Y205560D01*
X36939Y205423D01*
X36952Y205410D01*
X36977Y205385D01*
X37014Y205335D01*
X37077Y205273D01*
X37139Y205185D01*
X37214Y205085D01*
X37301Y204960D01*
X37389Y204811D01*
X37476Y204648D01*
X37564Y204473D01*
X37651Y204273D01*
X37739Y204048D01*
X37814Y203811D01*
X37889Y203548D01*
X37951Y203261D01*
X38001Y202961D01*
Y202973D01*
X38014Y202986D01*
X38051Y203061D01*
X38114Y203173D01*
X38189Y203311D01*
X38276Y203461D01*
X38364Y203611D01*
X38476Y203761D01*
X38576Y203886D01*
X38589Y203898D01*
X38601Y203911D01*
X38639Y203948D01*
X38689Y203998D01*
X38751Y204061D01*
X38826Y204136D01*
X39001Y204298D01*
X39226Y204486D01*
X39488Y204698D01*
X39788Y204923D01*
X40113Y205148D01*
X43250Y207147D01*
Y205235D01*
D02*
G37*
G36*
X37614Y215608D02*
X37801D01*
X38026Y215595D01*
X38264Y215583D01*
X38526Y215558D01*
X38801Y215533D01*
X39089Y215508D01*
X39676Y215420D01*
X40251Y215295D01*
X40513Y215220D01*
X40776Y215133D01*
X40788D01*
X40838Y215108D01*
X40901Y215083D01*
X40988Y215045D01*
X41101Y214995D01*
X41226Y214933D01*
X41363Y214858D01*
X41513Y214783D01*
X41825Y214583D01*
X42163Y214333D01*
X42475Y214046D01*
X42625Y213883D01*
X42763Y213708D01*
X42775Y213696D01*
X42788Y213671D01*
X42825Y213608D01*
X42863Y213546D01*
X42913Y213446D01*
X42975Y213346D01*
X43038Y213221D01*
X43100Y213071D01*
X43162Y212921D01*
X43225Y212746D01*
X43275Y212571D01*
X43337Y212371D01*
X43412Y211946D01*
X43425Y211721D01*
X43438Y211484D01*
Y211471D01*
Y211421D01*
Y211359D01*
X43425Y211259D01*
X43412Y211146D01*
X43400Y211009D01*
X43375Y210859D01*
X43337Y210697D01*
X43250Y210347D01*
X43187Y210172D01*
X43125Y209984D01*
X43038Y209797D01*
X42938Y209609D01*
X42825Y209434D01*
X42688Y209272D01*
X42675Y209259D01*
X42650Y209234D01*
X42613Y209197D01*
X42550Y209134D01*
X42475Y209072D01*
X42375Y208997D01*
X42263Y208909D01*
X42138Y208822D01*
X42000Y208734D01*
X41838Y208647D01*
X41663Y208572D01*
X41476Y208485D01*
X41276Y208410D01*
X41063Y208347D01*
X40826Y208297D01*
X40576Y208260D01*
X40463Y209622D01*
X40476D01*
X40501Y209634D01*
X40551D01*
X40626Y209659D01*
X40701Y209672D01*
X40788Y209697D01*
X41001Y209759D01*
X41226Y209847D01*
X41451Y209959D01*
X41663Y210109D01*
X41763Y210184D01*
X41850Y210272D01*
X41863Y210297D01*
X41913Y210359D01*
X41988Y210472D01*
X42063Y210609D01*
X42138Y210797D01*
X42213Y211009D01*
X42263Y211246D01*
X42275Y211521D01*
Y211534D01*
Y211546D01*
Y211584D01*
Y211634D01*
X42263Y211759D01*
X42238Y211909D01*
X42200Y212084D01*
X42150Y212271D01*
X42088Y212471D01*
X41988Y212659D01*
X41975Y212684D01*
X41938Y212746D01*
X41863Y212833D01*
X41775Y212946D01*
X41663Y213071D01*
X41525Y213208D01*
X41363Y213346D01*
X41188Y213471D01*
X41163Y213483D01*
X41101Y213521D01*
X40988Y213583D01*
X40826Y213658D01*
X40638Y213733D01*
X40413Y213821D01*
X40138Y213908D01*
X39838Y213996D01*
X39826D01*
X39801Y214008D01*
X39751Y214021D01*
X39688Y214033D01*
X39613Y214046D01*
X39526Y214058D01*
X39413Y214083D01*
X39301Y214108D01*
X39039Y214146D01*
X38751Y214171D01*
X38439Y214196D01*
X38114Y214208D01*
X37839D01*
X37851Y214183D01*
X37889Y214171D01*
X37939Y214133D01*
X38064Y214033D01*
X38214Y213908D01*
X38389Y213733D01*
X38576Y213533D01*
X38751Y213308D01*
X38926Y213046D01*
Y213033D01*
X38939Y213008D01*
X38964Y212971D01*
X38989Y212921D01*
X39026Y212846D01*
X39051Y212771D01*
X39126Y212571D01*
X39214Y212334D01*
X39276Y212059D01*
X39326Y211759D01*
X39339Y211446D01*
Y211434D01*
Y211384D01*
X39326Y211309D01*
Y211209D01*
X39301Y211084D01*
X39288Y210946D01*
X39251Y210784D01*
X39214Y210609D01*
X39151Y210422D01*
X39089Y210234D01*
X39001Y210034D01*
X38901Y209834D01*
X38789Y209622D01*
X38651Y209422D01*
X38489Y209222D01*
X38314Y209034D01*
X38301Y209022D01*
X38264Y208997D01*
X38201Y208947D01*
X38126Y208885D01*
X38026Y208810D01*
X37901Y208722D01*
X37751Y208634D01*
X37576Y208547D01*
X37401Y208447D01*
X37189Y208360D01*
X36964Y208272D01*
X36727Y208197D01*
X36464Y208135D01*
X36177Y208085D01*
X35889Y208060D01*
X35577Y208047D01*
X35502D01*
X35402Y208060D01*
X35289D01*
X35140Y208085D01*
X34965Y208097D01*
X34777Y208135D01*
X34565Y208172D01*
X34352Y208235D01*
X34115Y208297D01*
X33877Y208385D01*
X33653Y208485D01*
X33415Y208597D01*
X33178Y208734D01*
X32965Y208897D01*
X32753Y209072D01*
X32740Y209084D01*
X32703Y209122D01*
X32653Y209184D01*
X32590Y209259D01*
X32503Y209359D01*
X32415Y209484D01*
X32315Y209622D01*
X32215Y209784D01*
X32115Y209959D01*
X32015Y210159D01*
X31928Y210372D01*
X31840Y210597D01*
X31778Y210847D01*
X31728Y211109D01*
X31690Y211371D01*
X31678Y211659D01*
Y211671D01*
Y211709D01*
Y211771D01*
X31690Y211846D01*
Y211946D01*
X31716Y212059D01*
X31728Y212196D01*
X31753Y212334D01*
X31828Y212659D01*
X31940Y212996D01*
X32003Y213171D01*
X32090Y213358D01*
X32178Y213533D01*
X32290Y213708D01*
X32303Y213721D01*
X32315Y213746D01*
X32353Y213796D01*
X32403Y213858D01*
X32465Y213946D01*
X32540Y214033D01*
X32628Y214133D01*
X32728Y214233D01*
X32840Y214346D01*
X32978Y214471D01*
X33115Y214583D01*
X33265Y214708D01*
X33440Y214820D01*
X33615Y214933D01*
X33815Y215033D01*
X34015Y215133D01*
X34027D01*
X34065Y215158D01*
X34127Y215183D01*
X34227Y215208D01*
X34340Y215245D01*
X34477Y215283D01*
X34640Y215333D01*
X34840Y215383D01*
X35052Y215420D01*
X35289Y215470D01*
X35564Y215508D01*
X35852Y215545D01*
X36164Y215570D01*
X36502Y215595D01*
X36864Y215620D01*
X37464D01*
X37614Y215608D01*
D02*
G37*
G36*
X41000Y20287D02*
X32997D01*
X33019Y20264D01*
X33075Y20209D01*
X33152Y20109D01*
X33263Y19965D01*
X33397Y19798D01*
X33541Y19587D01*
X33696Y19354D01*
X33863Y19088D01*
Y19077D01*
X33885Y19054D01*
X33907Y19021D01*
X33929Y18966D01*
X33974Y18899D01*
X34007Y18821D01*
X34107Y18644D01*
X34207Y18444D01*
X34318Y18222D01*
X34418Y17989D01*
X34507Y17767D01*
X33297D01*
X33286Y17778D01*
X33275Y17811D01*
X33241Y17867D01*
X33208Y17944D01*
X33163Y18033D01*
X33097Y18144D01*
X33030Y18266D01*
X32964Y18388D01*
X32786Y18677D01*
X32575Y18988D01*
X32353Y19310D01*
X32098Y19609D01*
X32087Y19620D01*
X32065Y19643D01*
X32031Y19687D01*
X31976Y19743D01*
X31909Y19798D01*
X31843Y19876D01*
X31654Y20042D01*
X31454Y20231D01*
X31221Y20420D01*
X30977Y20586D01*
X30722Y20731D01*
Y21541D01*
X41000D01*
Y20287D01*
D02*
G37*
G36*
X311434Y348560D02*
X311571Y348547D01*
X311733Y348522D01*
X311921Y348497D01*
X312108Y348460D01*
X312321Y348410D01*
X312533Y348347D01*
X312758Y348272D01*
X312971Y348185D01*
X313196Y348072D01*
X313408Y347947D01*
X313608Y347810D01*
X313795Y347647D01*
X313808Y347635D01*
X313833Y347610D01*
X313883Y347547D01*
X313945Y347485D01*
X314020Y347397D01*
X314108Y347285D01*
X314195Y347160D01*
X314283Y347010D01*
X314370Y346860D01*
X314458Y346685D01*
X314545Y346498D01*
X314620Y346298D01*
X314683Y346073D01*
X314733Y345848D01*
X314758Y345610D01*
X314770Y345360D01*
Y345348D01*
Y345335D01*
Y345298D01*
Y345248D01*
X314758Y345110D01*
X314733Y344935D01*
X314695Y344723D01*
X314645Y344498D01*
X314583Y344248D01*
X314483Y343998D01*
Y343986D01*
X314470Y343973D01*
X314458Y343936D01*
X314433Y343886D01*
X314358Y343748D01*
X314258Y343573D01*
X314120Y343361D01*
X313958Y343123D01*
X313770Y342873D01*
X313533Y342599D01*
X313521Y342586D01*
X313508Y342561D01*
X313458Y342524D01*
X313408Y342461D01*
X313333Y342386D01*
X313246Y342299D01*
X313146Y342186D01*
X313021Y342074D01*
X312871Y341936D01*
X312708Y341786D01*
X312533Y341611D01*
X312333Y341436D01*
X312121Y341236D01*
X311883Y341036D01*
X311621Y340812D01*
X311346Y340574D01*
X311334Y340562D01*
X311296Y340524D01*
X311221Y340474D01*
X311146Y340399D01*
X311034Y340312D01*
X310921Y340212D01*
X310659Y339987D01*
X310384Y339749D01*
X310121Y339499D01*
X309996Y339387D01*
X309884Y339287D01*
X309784Y339187D01*
X309709Y339112D01*
X309697Y339100D01*
X309646Y339049D01*
X309584Y338974D01*
X309496Y338875D01*
X309397Y338762D01*
X309297Y338637D01*
X309097Y338362D01*
X314783D01*
Y337000D01*
X307147D01*
Y337025D01*
Y337088D01*
Y337188D01*
X307160Y337312D01*
X307172Y337462D01*
X307210Y337625D01*
X307247Y337800D01*
X307310Y337975D01*
Y337987D01*
X307322Y338012D01*
X307335Y338050D01*
X307360Y338112D01*
X307397Y338175D01*
X307435Y338262D01*
X307535Y338462D01*
X307659Y338700D01*
X307822Y338962D01*
X308009Y339237D01*
X308234Y339512D01*
X308247Y339524D01*
X308259Y339549D01*
X308297Y339587D01*
X308359Y339649D01*
X308422Y339712D01*
X308509Y339799D01*
X308597Y339899D01*
X308709Y340012D01*
X308834Y340137D01*
X308972Y340262D01*
X309122Y340412D01*
X309297Y340562D01*
X309471Y340724D01*
X309671Y340886D01*
X309871Y341062D01*
X310096Y341249D01*
X310121Y341261D01*
X310184Y341324D01*
X310271Y341399D01*
X310396Y341511D01*
X310546Y341636D01*
X310721Y341786D01*
X310921Y341949D01*
X311121Y342136D01*
X311546Y342524D01*
X311958Y342936D01*
X312158Y343136D01*
X312346Y343336D01*
X312508Y343523D01*
X312646Y343698D01*
X312658Y343711D01*
X312671Y343736D01*
X312708Y343786D01*
X312746Y343848D01*
X312808Y343936D01*
X312858Y344023D01*
X312983Y344248D01*
X313108Y344511D01*
X313221Y344798D01*
X313296Y345098D01*
X313308Y345248D01*
X313321Y345398D01*
Y345410D01*
Y345435D01*
Y345485D01*
X313308Y345535D01*
Y345610D01*
X313283Y345698D01*
X313246Y345885D01*
X313171Y346110D01*
X313058Y346348D01*
X312996Y346473D01*
X312908Y346585D01*
X312821Y346698D01*
X312708Y346810D01*
X312696Y346823D01*
X312683Y346835D01*
X312646Y346860D01*
X312596Y346898D01*
X312533Y346948D01*
X312458Y346997D01*
X312283Y347110D01*
X312046Y347210D01*
X311784Y347310D01*
X311471Y347372D01*
X311296Y347397D01*
X311021D01*
X310946Y347385D01*
X310859D01*
X310759Y347360D01*
X310534Y347322D01*
X310271Y347247D01*
X309996Y347135D01*
X309859Y347060D01*
X309722Y346985D01*
X309597Y346885D01*
X309471Y346772D01*
X309459Y346760D01*
X309447Y346748D01*
X309422Y346710D01*
X309372Y346660D01*
X309334Y346598D01*
X309284Y346523D01*
X309222Y346435D01*
X309172Y346335D01*
X309109Y346223D01*
X309059Y346098D01*
X308959Y345798D01*
X308884Y345473D01*
X308872Y345285D01*
X308859Y345085D01*
X307410Y345235D01*
Y345260D01*
X307422Y345310D01*
X307435Y345385D01*
X307447Y345498D01*
X307472Y345635D01*
X307509Y345798D01*
X307547Y345973D01*
X307610Y346160D01*
X307672Y346348D01*
X307747Y346560D01*
X307847Y346760D01*
X307947Y346960D01*
X308072Y347172D01*
X308209Y347360D01*
X308359Y347547D01*
X308534Y347710D01*
X308547Y347722D01*
X308584Y347747D01*
X308634Y347785D01*
X308709Y347847D01*
X308809Y347910D01*
X308934Y347985D01*
X309072Y348060D01*
X309234Y348147D01*
X309409Y348222D01*
X309609Y348297D01*
X309821Y348372D01*
X310059Y348435D01*
X310309Y348497D01*
X310571Y348535D01*
X310859Y348560D01*
X311159Y348572D01*
X311321D01*
X311434Y348560D01*
D02*
G37*
G36*
X302236Y343049D02*
X306560Y337000D01*
X304698D01*
X301773Y341111D01*
X301761Y341124D01*
X301736Y341174D01*
X301686Y341236D01*
X301624Y341336D01*
X301549Y341436D01*
X301474Y341549D01*
X301299Y341811D01*
Y341799D01*
X301286Y341786D01*
X301236Y341711D01*
X301174Y341611D01*
X301086Y341486D01*
X300899Y341224D01*
X300824Y341099D01*
X300749Y340999D01*
X297824Y337000D01*
X295987D01*
X300449Y342974D01*
X296512Y348535D01*
X298324D01*
X300436Y345573D01*
X300449Y345560D01*
X300461Y345535D01*
X300499Y345485D01*
X300549Y345423D01*
X300599Y345348D01*
X300661Y345260D01*
X300799Y345060D01*
X300949Y344823D01*
X301099Y344598D01*
X301249Y344361D01*
X301361Y344161D01*
Y344173D01*
X301374Y344186D01*
X301399Y344223D01*
X301436Y344273D01*
X301511Y344386D01*
X301624Y344548D01*
X301761Y344748D01*
X301911Y344973D01*
X302098Y345210D01*
X302286Y345460D01*
X304585Y348535D01*
X306247D01*
X302236Y343049D01*
D02*
G37*
G36*
X41000Y14315D02*
X38869Y12961D01*
X38858Y12950D01*
X38824Y12938D01*
X38780Y12905D01*
X38713Y12861D01*
X38636Y12816D01*
X38547Y12750D01*
X38347Y12616D01*
X38114Y12461D01*
X37881Y12306D01*
X37659Y12139D01*
X37459Y11984D01*
X37448D01*
X37437Y11962D01*
X37381Y11917D01*
X37293Y11851D01*
X37193Y11751D01*
X37082Y11651D01*
X36971Y11529D01*
X36860Y11407D01*
X36782Y11296D01*
X36771Y11285D01*
X36749Y11240D01*
X36716Y11185D01*
X36671Y11107D01*
X36627Y11007D01*
X36582Y10907D01*
X36538Y10796D01*
X36505Y10674D01*
Y10663D01*
X36493Y10630D01*
X36482Y10574D01*
X36471Y10496D01*
Y10386D01*
X36460Y10252D01*
X36449Y10097D01*
Y9919D01*
Y8354D01*
X41000D01*
Y7000D01*
X30755D01*
Y11540D01*
Y11551D01*
Y11595D01*
Y11673D01*
Y11762D01*
X30766Y11884D01*
Y12006D01*
X30777Y12150D01*
X30788Y12317D01*
X30821Y12650D01*
X30877Y12994D01*
X30944Y13327D01*
X30988Y13471D01*
X31032Y13615D01*
Y13627D01*
X31044Y13649D01*
X31066Y13682D01*
X31088Y13738D01*
X31154Y13871D01*
X31254Y14026D01*
X31388Y14215D01*
X31565Y14404D01*
X31765Y14592D01*
X32009Y14759D01*
X32020D01*
X32043Y14781D01*
X32076Y14803D01*
X32131Y14825D01*
X32198Y14859D01*
X32276Y14892D01*
X32364Y14936D01*
X32464Y14981D01*
X32697Y15058D01*
X32953Y15125D01*
X33241Y15170D01*
X33552Y15192D01*
X33663D01*
X33730Y15181D01*
X33830Y15170D01*
X33940Y15158D01*
X34063Y15136D01*
X34196Y15103D01*
X34484Y15014D01*
X34640Y14959D01*
X34795Y14892D01*
X34951Y14814D01*
X35106Y14714D01*
X35250Y14603D01*
X35395Y14481D01*
X35406Y14470D01*
X35428Y14448D01*
X35461Y14404D01*
X35517Y14348D01*
X35572Y14270D01*
X35639Y14182D01*
X35717Y14071D01*
X35794Y13937D01*
X35872Y13793D01*
X35950Y13638D01*
X36027Y13460D01*
X36105Y13260D01*
X36172Y13049D01*
X36238Y12816D01*
X36294Y12561D01*
X36338Y12295D01*
Y12306D01*
X36349Y12317D01*
X36383Y12383D01*
X36438Y12483D01*
X36505Y12605D01*
X36582Y12739D01*
X36660Y12872D01*
X36760Y13005D01*
X36849Y13116D01*
X36860Y13127D01*
X36871Y13138D01*
X36904Y13171D01*
X36949Y13216D01*
X37004Y13271D01*
X37071Y13338D01*
X37226Y13482D01*
X37426Y13649D01*
X37659Y13837D01*
X37925Y14037D01*
X38214Y14237D01*
X41000Y16013D01*
Y14315D01*
D02*
G37*
G36*
X63000Y384618D02*
X53990D01*
X54015Y384593D01*
X54077Y384531D01*
X54165Y384418D01*
X54290Y384256D01*
X54440Y384068D01*
X54602Y383831D01*
X54777Y383568D01*
X54965Y383269D01*
Y383256D01*
X54990Y383231D01*
X55015Y383194D01*
X55040Y383131D01*
X55090Y383056D01*
X55127Y382969D01*
X55240Y382769D01*
X55352Y382544D01*
X55477Y382294D01*
X55589Y382031D01*
X55689Y381781D01*
X54327D01*
X54315Y381794D01*
X54302Y381831D01*
X54265Y381894D01*
X54227Y381981D01*
X54177Y382081D01*
X54102Y382206D01*
X54027Y382344D01*
X53952Y382481D01*
X53752Y382806D01*
X53515Y383156D01*
X53265Y383518D01*
X52978Y383856D01*
X52965Y383868D01*
X52940Y383893D01*
X52903Y383943D01*
X52840Y384006D01*
X52765Y384068D01*
X52690Y384156D01*
X52478Y384343D01*
X52253Y384556D01*
X51990Y384768D01*
X51715Y384956D01*
X51428Y385118D01*
Y386030D01*
X63000D01*
Y384618D01*
D02*
G37*
G36*
X122174Y178022D02*
X122324D01*
X122474Y178009D01*
X122811Y177997D01*
X123149Y177960D01*
X123486Y177922D01*
X123636Y177885D01*
X123773Y177860D01*
X123786D01*
X123823Y177847D01*
X123873Y177835D01*
X123936Y177810D01*
X124023Y177785D01*
X124123Y177760D01*
X124361Y177672D01*
X124623Y177560D01*
X124898Y177422D01*
X125186Y177247D01*
X125461Y177035D01*
X125473Y177022D01*
X125498Y176997D01*
X125548Y176960D01*
X125611Y176897D01*
X125686Y176822D01*
X125773Y176722D01*
X125873Y176622D01*
X125973Y176497D01*
X126085Y176360D01*
X126198Y176210D01*
X126310Y176048D01*
X126423Y175873D01*
X126635Y175485D01*
X126823Y175060D01*
Y175048D01*
X126848Y175010D01*
X126860Y174935D01*
X126898Y174848D01*
X126935Y174735D01*
X126973Y174598D01*
X127010Y174448D01*
X127060Y174273D01*
X127098Y174073D01*
X127135Y173861D01*
X127173Y173636D01*
X127210Y173398D01*
X127248Y173148D01*
X127260Y172886D01*
X127285Y172323D01*
Y172311D01*
Y172261D01*
Y172199D01*
Y172099D01*
X127273Y171986D01*
Y171849D01*
X127260Y171699D01*
X127248Y171536D01*
X127210Y171174D01*
X127148Y170786D01*
X127073Y170387D01*
X126973Y169987D01*
Y169974D01*
X126960Y169937D01*
X126935Y169887D01*
X126923Y169824D01*
X126885Y169737D01*
X126848Y169637D01*
X126760Y169399D01*
X126648Y169137D01*
X126510Y168849D01*
X126360Y168575D01*
X126185Y168312D01*
Y168300D01*
X126160Y168287D01*
X126135Y168249D01*
X126098Y168200D01*
X126010Y168087D01*
X125873Y167937D01*
X125723Y167762D01*
X125548Y167587D01*
X125348Y167425D01*
X125136Y167262D01*
X125123D01*
X125111Y167250D01*
X125036Y167200D01*
X124911Y167137D01*
X124748Y167050D01*
X124548Y166962D01*
X124311Y166862D01*
X124036Y166775D01*
X123749Y166687D01*
X123736D01*
X123711Y166675D01*
X123673D01*
X123611Y166663D01*
X123536Y166650D01*
X123436Y166625D01*
X123336Y166612D01*
X123224Y166600D01*
X122949Y166562D01*
X122636Y166525D01*
X122286Y166513D01*
X121911Y166500D01*
X117750D01*
Y178034D01*
X122049D01*
X122174Y178022D01*
D02*
G37*
G36*
X132909Y178060D02*
X133046Y178047D01*
X133209Y178022D01*
X133396Y177997D01*
X133583Y177960D01*
X133796Y177910D01*
X134008Y177847D01*
X134233Y177772D01*
X134446Y177685D01*
X134671Y177572D01*
X134883Y177447D01*
X135083Y177310D01*
X135271Y177147D01*
X135283Y177135D01*
X135308Y177110D01*
X135358Y177047D01*
X135421Y176985D01*
X135496Y176897D01*
X135583Y176785D01*
X135670Y176660D01*
X135758Y176510D01*
X135845Y176360D01*
X135933Y176185D01*
X136020Y175998D01*
X136095Y175798D01*
X136158Y175573D01*
X136208Y175348D01*
X136233Y175110D01*
X136245Y174860D01*
Y174848D01*
Y174835D01*
Y174798D01*
Y174748D01*
X136233Y174610D01*
X136208Y174436D01*
X136170Y174223D01*
X136120Y173998D01*
X136058Y173748D01*
X135958Y173498D01*
Y173486D01*
X135945Y173473D01*
X135933Y173436D01*
X135908Y173386D01*
X135833Y173248D01*
X135733Y173073D01*
X135595Y172861D01*
X135433Y172623D01*
X135246Y172374D01*
X135008Y172099D01*
X134996Y172086D01*
X134983Y172061D01*
X134933Y172024D01*
X134883Y171961D01*
X134808Y171886D01*
X134721Y171799D01*
X134621Y171686D01*
X134496Y171574D01*
X134346Y171436D01*
X134183Y171286D01*
X134008Y171111D01*
X133808Y170936D01*
X133596Y170736D01*
X133358Y170536D01*
X133096Y170312D01*
X132821Y170074D01*
X132809Y170062D01*
X132771Y170024D01*
X132696Y169974D01*
X132621Y169899D01*
X132509Y169812D01*
X132396Y169712D01*
X132134Y169487D01*
X131859Y169249D01*
X131596Y168999D01*
X131472Y168887D01*
X131359Y168787D01*
X131259Y168687D01*
X131184Y168612D01*
X131172Y168599D01*
X131122Y168549D01*
X131059Y168475D01*
X130972Y168375D01*
X130872Y168262D01*
X130772Y168137D01*
X130572Y167862D01*
X136258D01*
Y166500D01*
X128622D01*
Y166525D01*
Y166588D01*
Y166687D01*
X128635Y166812D01*
X128647Y166962D01*
X128685Y167125D01*
X128722Y167300D01*
X128785Y167475D01*
Y167487D01*
X128797Y167512D01*
X128810Y167550D01*
X128835Y167612D01*
X128872Y167675D01*
X128910Y167762D01*
X129010Y167962D01*
X129135Y168200D01*
X129297Y168462D01*
X129485Y168737D01*
X129709Y169012D01*
X129722Y169024D01*
X129734Y169049D01*
X129772Y169087D01*
X129834Y169149D01*
X129897Y169212D01*
X129984Y169299D01*
X130072Y169399D01*
X130184Y169512D01*
X130309Y169637D01*
X130447Y169762D01*
X130597Y169912D01*
X130772Y170062D01*
X130947Y170224D01*
X131147Y170387D01*
X131347Y170562D01*
X131572Y170749D01*
X131596Y170761D01*
X131659Y170824D01*
X131746Y170899D01*
X131871Y171011D01*
X132021Y171136D01*
X132196Y171286D01*
X132396Y171449D01*
X132596Y171636D01*
X133021Y172024D01*
X133434Y172436D01*
X133633Y172636D01*
X133821Y172836D01*
X133983Y173023D01*
X134121Y173198D01*
X134133Y173211D01*
X134146Y173236D01*
X134183Y173286D01*
X134221Y173348D01*
X134283Y173436D01*
X134333Y173523D01*
X134458Y173748D01*
X134583Y174011D01*
X134696Y174298D01*
X134771Y174598D01*
X134783Y174748D01*
X134796Y174898D01*
Y174910D01*
Y174935D01*
Y174985D01*
X134783Y175035D01*
Y175110D01*
X134758Y175198D01*
X134721Y175385D01*
X134646Y175610D01*
X134533Y175848D01*
X134471Y175973D01*
X134383Y176085D01*
X134296Y176197D01*
X134183Y176310D01*
X134171Y176322D01*
X134158Y176335D01*
X134121Y176360D01*
X134071Y176397D01*
X134008Y176448D01*
X133933Y176497D01*
X133758Y176610D01*
X133521Y176710D01*
X133258Y176810D01*
X132946Y176872D01*
X132771Y176897D01*
X132496D01*
X132421Y176885D01*
X132334D01*
X132234Y176860D01*
X132009Y176822D01*
X131746Y176747D01*
X131472Y176635D01*
X131334Y176560D01*
X131197Y176485D01*
X131072Y176385D01*
X130947Y176273D01*
X130934Y176260D01*
X130922Y176248D01*
X130897Y176210D01*
X130847Y176160D01*
X130809Y176098D01*
X130759Y176023D01*
X130697Y175935D01*
X130647Y175835D01*
X130584Y175723D01*
X130534Y175598D01*
X130434Y175298D01*
X130359Y174973D01*
X130347Y174785D01*
X130334Y174585D01*
X128885Y174735D01*
Y174760D01*
X128897Y174810D01*
X128910Y174885D01*
X128922Y174998D01*
X128947Y175135D01*
X128985Y175298D01*
X129022Y175473D01*
X129085Y175660D01*
X129147Y175848D01*
X129222Y176060D01*
X129322Y176260D01*
X129422Y176460D01*
X129547Y176672D01*
X129684Y176860D01*
X129834Y177047D01*
X130009Y177210D01*
X130022Y177222D01*
X130059Y177247D01*
X130109Y177285D01*
X130184Y177347D01*
X130284Y177410D01*
X130409Y177485D01*
X130547Y177560D01*
X130709Y177647D01*
X130884Y177722D01*
X131084Y177797D01*
X131297Y177872D01*
X131534Y177935D01*
X131784Y177997D01*
X132046Y178034D01*
X132334Y178060D01*
X132634Y178072D01*
X132796D01*
X132909Y178060D01*
D02*
G37*
G36*
X57514Y379157D02*
X57651D01*
X57801Y379145D01*
X57964Y379132D01*
X58326Y379095D01*
X58714Y379032D01*
X59113Y378957D01*
X59513Y378857D01*
X59526D01*
X59563Y378845D01*
X59613Y378820D01*
X59676Y378807D01*
X59763Y378770D01*
X59863Y378732D01*
X60101Y378645D01*
X60363Y378532D01*
X60651Y378395D01*
X60925Y378245D01*
X61188Y378070D01*
X61200D01*
X61213Y378045D01*
X61250Y378020D01*
X61300Y377982D01*
X61413Y377895D01*
X61563Y377757D01*
X61738Y377607D01*
X61913Y377433D01*
X62075Y377233D01*
X62238Y377020D01*
Y377008D01*
X62250Y376995D01*
X62300Y376920D01*
X62363Y376795D01*
X62450Y376633D01*
X62538Y376433D01*
X62638Y376195D01*
X62725Y375920D01*
X62812Y375633D01*
Y375620D01*
X62825Y375596D01*
Y375558D01*
X62838Y375495D01*
X62850Y375420D01*
X62875Y375321D01*
X62888Y375221D01*
X62900Y375108D01*
X62937Y374833D01*
X62975Y374521D01*
X62987Y374171D01*
X63000Y373796D01*
Y369635D01*
X51466D01*
Y373596D01*
Y373609D01*
Y373658D01*
Y373721D01*
Y373821D01*
Y373933D01*
X51478Y374058D01*
Y374208D01*
X51490Y374358D01*
X51503Y374696D01*
X51540Y375033D01*
X51578Y375370D01*
X51615Y375521D01*
X51640Y375658D01*
Y375671D01*
X51653Y375708D01*
X51665Y375758D01*
X51690Y375820D01*
X51715Y375908D01*
X51740Y376008D01*
X51828Y376245D01*
X51940Y376508D01*
X52078Y376783D01*
X52253Y377070D01*
X52465Y377345D01*
X52478Y377357D01*
X52503Y377383D01*
X52540Y377433D01*
X52603Y377495D01*
X52678Y377570D01*
X52778Y377658D01*
X52878Y377757D01*
X53003Y377857D01*
X53140Y377970D01*
X53290Y378082D01*
X53452Y378195D01*
X53627Y378307D01*
X54015Y378520D01*
X54440Y378707D01*
X54452D01*
X54490Y378732D01*
X54565Y378745D01*
X54652Y378782D01*
X54765Y378820D01*
X54902Y378857D01*
X55052Y378895D01*
X55227Y378945D01*
X55427Y378982D01*
X55639Y379020D01*
X55864Y379057D01*
X56102Y379095D01*
X56352Y379132D01*
X56614Y379145D01*
X57176Y379170D01*
X57401D01*
X57514Y379157D01*
D02*
G37*
G36*
X287249Y193022D02*
X287386D01*
X287549Y193009D01*
X287736Y192997D01*
X288111Y192960D01*
X288498Y192897D01*
X288873Y192822D01*
X289036Y192772D01*
X289198Y192722D01*
X289211D01*
X289236Y192710D01*
X289273Y192685D01*
X289335Y192660D01*
X289485Y192585D01*
X289660Y192472D01*
X289873Y192322D01*
X290085Y192122D01*
X290298Y191897D01*
X290485Y191622D01*
Y191610D01*
X290510Y191585D01*
X290535Y191547D01*
X290560Y191485D01*
X290598Y191410D01*
X290635Y191322D01*
X290685Y191222D01*
X290735Y191110D01*
X290823Y190848D01*
X290898Y190560D01*
X290948Y190235D01*
X290973Y189885D01*
Y189873D01*
Y189835D01*
Y189760D01*
X290960Y189685D01*
X290948Y189573D01*
X290935Y189448D01*
X290910Y189310D01*
X290873Y189160D01*
X290773Y188836D01*
X290710Y188661D01*
X290635Y188486D01*
X290548Y188311D01*
X290435Y188136D01*
X290310Y187973D01*
X290173Y187811D01*
X290160Y187798D01*
X290135Y187773D01*
X290085Y187736D01*
X290023Y187673D01*
X289935Y187611D01*
X289835Y187536D01*
X289710Y187449D01*
X289561Y187361D01*
X289398Y187274D01*
X289223Y187186D01*
X289023Y187099D01*
X288798Y187011D01*
X288561Y186936D01*
X288298Y186861D01*
X288011Y186799D01*
X287711Y186749D01*
X287724D01*
X287736Y186736D01*
X287811Y186699D01*
X287923Y186636D01*
X288061Y186561D01*
X288211Y186474D01*
X288361Y186386D01*
X288511Y186274D01*
X288636Y186174D01*
X288648Y186161D01*
X288661Y186149D01*
X288698Y186111D01*
X288748Y186061D01*
X288811Y185999D01*
X288886Y185924D01*
X289048Y185749D01*
X289236Y185524D01*
X289448Y185261D01*
X289673Y184962D01*
X289898Y184637D01*
X291897Y181500D01*
X289985D01*
X288461Y183899D01*
X288448Y183912D01*
X288436Y183949D01*
X288398Y183999D01*
X288348Y184074D01*
X288298Y184162D01*
X288223Y184262D01*
X288073Y184487D01*
X287898Y184749D01*
X287724Y185012D01*
X287536Y185261D01*
X287361Y185487D01*
Y185499D01*
X287336Y185511D01*
X287286Y185574D01*
X287211Y185674D01*
X287099Y185786D01*
X286986Y185911D01*
X286849Y186036D01*
X286711Y186161D01*
X286586Y186249D01*
X286574Y186261D01*
X286524Y186286D01*
X286461Y186324D01*
X286374Y186374D01*
X286261Y186424D01*
X286149Y186474D01*
X286024Y186524D01*
X285886Y186561D01*
X285874D01*
X285836Y186574D01*
X285774Y186586D01*
X285686Y186599D01*
X285562D01*
X285411Y186611D01*
X285237Y186624D01*
X283275D01*
Y181500D01*
X281750D01*
Y193034D01*
X287111D01*
X287249Y193022D01*
D02*
G37*
G36*
X300345Y191772D02*
X300333Y191760D01*
X300295Y191722D01*
X300233Y191647D01*
X300158Y191560D01*
X300058Y191435D01*
X299933Y191297D01*
X299808Y191135D01*
X299658Y190948D01*
X299495Y190735D01*
X299321Y190498D01*
X299133Y190235D01*
X298946Y189960D01*
X298758Y189673D01*
X298558Y189348D01*
X298346Y189011D01*
X298146Y188661D01*
X298133Y188636D01*
X298096Y188573D01*
X298046Y188473D01*
X297971Y188323D01*
X297883Y188148D01*
X297771Y187936D01*
X297658Y187698D01*
X297533Y187436D01*
X297409Y187148D01*
X297271Y186836D01*
X297134Y186499D01*
X296996Y186161D01*
X296859Y185799D01*
X296721Y185424D01*
X296484Y184662D01*
Y184649D01*
X296471Y184599D01*
X296446Y184512D01*
X296421Y184412D01*
X296384Y184274D01*
X296346Y184112D01*
X296296Y183924D01*
X296259Y183724D01*
X296209Y183500D01*
X296171Y183249D01*
X296121Y182987D01*
X296084Y182712D01*
X296034Y182425D01*
X295996Y182125D01*
X295946Y181500D01*
X294497D01*
Y181513D01*
Y181562D01*
Y181637D01*
X294509Y181737D01*
X294522Y181875D01*
X294534Y182025D01*
X294547Y182212D01*
X294572Y182412D01*
X294597Y182650D01*
X294634Y182887D01*
X294672Y183162D01*
X294722Y183449D01*
X294784Y183762D01*
X294847Y184087D01*
X294934Y184424D01*
X295022Y184774D01*
X295034Y184799D01*
X295047Y184862D01*
X295072Y184962D01*
X295122Y185099D01*
X295172Y185274D01*
X295234Y185487D01*
X295309Y185711D01*
X295396Y185961D01*
X295497Y186236D01*
X295609Y186536D01*
X295721Y186849D01*
X295859Y187161D01*
X296146Y187823D01*
X296484Y188498D01*
X296496Y188523D01*
X296534Y188573D01*
X296584Y188673D01*
X296646Y188798D01*
X296746Y188948D01*
X296846Y189123D01*
X296971Y189323D01*
X297096Y189548D01*
X297246Y189773D01*
X297409Y190023D01*
X297758Y190523D01*
X298133Y191035D01*
X298333Y191285D01*
X298533Y191522D01*
X292885D01*
Y192885D01*
X300345D01*
Y191772D01*
D02*
G37*
G36*
X57514Y367523D02*
X57651D01*
X57801Y367510D01*
X57964Y367498D01*
X58326Y367460D01*
X58714Y367398D01*
X59113Y367323D01*
X59513Y367223D01*
X59526D01*
X59563Y367210D01*
X59613Y367185D01*
X59676Y367173D01*
X59763Y367135D01*
X59863Y367098D01*
X60101Y367010D01*
X60363Y366898D01*
X60651Y366760D01*
X60925Y366610D01*
X61188Y366435D01*
X61200D01*
X61213Y366410D01*
X61250Y366385D01*
X61300Y366348D01*
X61413Y366260D01*
X61563Y366123D01*
X61738Y365973D01*
X61913Y365798D01*
X62075Y365598D01*
X62238Y365386D01*
Y365373D01*
X62250Y365361D01*
X62300Y365286D01*
X62363Y365161D01*
X62450Y364998D01*
X62538Y364798D01*
X62638Y364561D01*
X62725Y364286D01*
X62812Y363998D01*
Y363986D01*
X62825Y363961D01*
Y363923D01*
X62838Y363861D01*
X62850Y363786D01*
X62875Y363686D01*
X62888Y363586D01*
X62900Y363474D01*
X62937Y363199D01*
X62975Y362886D01*
X62987Y362536D01*
X63000Y362161D01*
Y358000D01*
X51466D01*
Y361962D01*
Y361974D01*
Y362024D01*
Y362086D01*
Y362186D01*
Y362299D01*
X51478Y362424D01*
Y362574D01*
X51490Y362724D01*
X51503Y363061D01*
X51540Y363399D01*
X51578Y363736D01*
X51615Y363886D01*
X51640Y364024D01*
Y364036D01*
X51653Y364073D01*
X51665Y364123D01*
X51690Y364186D01*
X51715Y364273D01*
X51740Y364373D01*
X51828Y364611D01*
X51940Y364873D01*
X52078Y365148D01*
X52253Y365436D01*
X52465Y365710D01*
X52478Y365723D01*
X52503Y365748D01*
X52540Y365798D01*
X52603Y365860D01*
X52678Y365936D01*
X52778Y366023D01*
X52878Y366123D01*
X53003Y366223D01*
X53140Y366335D01*
X53290Y366448D01*
X53452Y366560D01*
X53627Y366673D01*
X54015Y366885D01*
X54440Y367073D01*
X54452D01*
X54490Y367098D01*
X54565Y367110D01*
X54652Y367148D01*
X54765Y367185D01*
X54902Y367223D01*
X55052Y367260D01*
X55227Y367310D01*
X55427Y367348D01*
X55639Y367385D01*
X55864Y367423D01*
X56102Y367460D01*
X56352Y367498D01*
X56614Y367510D01*
X57176Y367535D01*
X57401D01*
X57514Y367523D01*
D02*
G37*
G36*
X53983Y288006D02*
X54076D01*
X54181Y287986D01*
X54306Y287975D01*
X54441Y287944D01*
X54587Y287913D01*
X54753Y287861D01*
X54920Y287809D01*
X55087Y287736D01*
X55264Y287652D01*
X55441Y287548D01*
X55607Y287434D01*
X55784Y287298D01*
X55941Y287142D01*
X55951Y287132D01*
X55972Y287100D01*
X56013Y287048D01*
X56066Y286986D01*
X56139Y286892D01*
X56201Y286788D01*
X56284Y286663D01*
X56357Y286528D01*
X56430Y286371D01*
X56513Y286194D01*
X56576Y286007D01*
X56638Y285809D01*
X56701Y285590D01*
X56743Y285361D01*
X56763Y285111D01*
X56774Y284851D01*
Y284830D01*
Y284788D01*
X56763Y284716D01*
Y284611D01*
X56753Y284497D01*
X56732Y284351D01*
X56701Y284195D01*
X56670Y284028D01*
X56628Y283851D01*
X56565Y283664D01*
X56503Y283476D01*
X56420Y283279D01*
X56326Y283091D01*
X56211Y282904D01*
X56086Y282716D01*
X55941Y282549D01*
X55930Y282539D01*
X55899Y282508D01*
X55857Y282466D01*
X55784Y282414D01*
X55701Y282352D01*
X55607Y282279D01*
X55493Y282195D01*
X55357Y282122D01*
X55212Y282039D01*
X55055Y281956D01*
X54878Y281883D01*
X54701Y281821D01*
X54503Y281768D01*
X54285Y281727D01*
X54066Y281696D01*
X53837Y281685D01*
X53743D01*
X53681Y281696D01*
X53597D01*
X53504Y281706D01*
X53400Y281727D01*
X53285Y281748D01*
X53046Y281800D01*
X52785Y281883D01*
X52525Y281998D01*
X52400Y282071D01*
X52275Y282154D01*
X52264Y282164D01*
X52244Y282175D01*
X52212Y282206D01*
X52171Y282248D01*
X52119Y282289D01*
X52067Y282352D01*
X51994Y282425D01*
X51931Y282508D01*
X51785Y282695D01*
X51640Y282924D01*
X51515Y283195D01*
X51410Y283508D01*
Y283497D01*
X51400Y283476D01*
X51379Y283435D01*
X51358Y283393D01*
X51338Y283330D01*
X51296Y283258D01*
X51213Y283101D01*
X51108Y282924D01*
X50973Y282747D01*
X50827Y282570D01*
X50650Y282425D01*
X50640D01*
X50630Y282414D01*
X50598Y282393D01*
X50557Y282372D01*
X50452Y282310D01*
X50317Y282248D01*
X50140Y282185D01*
X49932Y282122D01*
X49703Y282081D01*
X49453Y282071D01*
X49411D01*
X49349Y282081D01*
X49276D01*
X49192Y282091D01*
X49088Y282112D01*
X48974Y282133D01*
X48838Y282164D01*
X48703Y282206D01*
X48568Y282258D01*
X48422Y282310D01*
X48266Y282383D01*
X48120Y282477D01*
X47974Y282570D01*
X47828Y282685D01*
X47693Y282820D01*
X47682Y282831D01*
X47661Y282852D01*
X47630Y282893D01*
X47578Y282956D01*
X47526Y283029D01*
X47464Y283122D01*
X47401Y283226D01*
X47328Y283351D01*
X47266Y283487D01*
X47203Y283643D01*
X47141Y283799D01*
X47089Y283976D01*
X47037Y284174D01*
X47005Y284372D01*
X46985Y284591D01*
X46974Y284820D01*
Y284830D01*
Y284872D01*
Y284945D01*
X46985Y285028D01*
X46995Y285132D01*
X47016Y285257D01*
X47037Y285392D01*
X47068Y285549D01*
X47110Y285705D01*
X47151Y285872D01*
X47214Y286038D01*
X47287Y286205D01*
X47370Y286382D01*
X47474Y286538D01*
X47578Y286705D01*
X47714Y286850D01*
X47724Y286861D01*
X47745Y286882D01*
X47786Y286923D01*
X47839Y286975D01*
X47911Y287027D01*
X47995Y287090D01*
X48099Y287163D01*
X48203Y287236D01*
X48328Y287309D01*
X48463Y287382D01*
X48609Y287444D01*
X48765Y287496D01*
X48932Y287548D01*
X49109Y287590D01*
X49296Y287611D01*
X49484Y287621D01*
X49598D01*
X49651Y287611D01*
X49724Y287600D01*
X49880Y287579D01*
X50057Y287538D01*
X50255Y287475D01*
X50452Y287382D01*
X50650Y287267D01*
X50661D01*
X50671Y287246D01*
X50734Y287205D01*
X50817Y287121D01*
X50932Y287007D01*
X51046Y286850D01*
X51181Y286673D01*
X51296Y286455D01*
X51410Y286205D01*
Y286215D01*
X51421Y286246D01*
X51442Y286288D01*
X51463Y286351D01*
X51494Y286423D01*
X51536Y286507D01*
X51640Y286705D01*
X51765Y286923D01*
X51931Y287142D01*
X52119Y287361D01*
X52348Y287548D01*
X52358Y287559D01*
X52379Y287569D01*
X52410Y287590D01*
X52462Y287621D01*
X52525Y287652D01*
X52598Y287694D01*
X52681Y287736D01*
X52775Y287788D01*
X52993Y287871D01*
X53254Y287944D01*
X53545Y287996D01*
X53702Y288017D01*
X53920D01*
X53983Y288006D01*
D02*
G37*
G36*
X61024Y159000D02*
X9750D01*
Y171500D01*
X61024D01*
Y159000D01*
D02*
G37*
G36*
X62024Y68000D02*
X8000D01*
Y80500D01*
X62024D01*
Y68000D01*
D02*
G37*
G36*
X50250Y325000D02*
X9250D01*
Y337500D01*
X50250D01*
Y325000D01*
D02*
G37*
G36*
X290000Y205000D02*
X277500D01*
Y259025D01*
X290000D01*
Y205000D01*
D02*
G37*
G36*
X56617Y279363D02*
X54618Y278092D01*
X54608Y278082D01*
X54576Y278071D01*
X54535Y278040D01*
X54472Y277999D01*
X54399Y277957D01*
X54316Y277894D01*
X54129Y277770D01*
X53910Y277624D01*
X53691Y277478D01*
X53483Y277322D01*
X53295Y277176D01*
X53285D01*
X53275Y277155D01*
X53223Y277113D01*
X53139Y277051D01*
X53046Y276957D01*
X52941Y276863D01*
X52837Y276749D01*
X52733Y276634D01*
X52660Y276530D01*
X52650Y276520D01*
X52629Y276478D01*
X52598Y276426D01*
X52556Y276353D01*
X52514Y276259D01*
X52473Y276166D01*
X52431Y276062D01*
X52400Y275947D01*
Y275937D01*
X52389Y275905D01*
X52379Y275853D01*
X52369Y275780D01*
Y275676D01*
X52358Y275551D01*
X52348Y275406D01*
Y275239D01*
Y273771D01*
X56617D01*
Y272500D01*
X47005D01*
Y276759D01*
Y276770D01*
Y276811D01*
Y276884D01*
Y276968D01*
X47016Y277082D01*
Y277197D01*
X47026Y277332D01*
X47037Y277488D01*
X47068Y277801D01*
X47120Y278123D01*
X47182Y278436D01*
X47224Y278571D01*
X47266Y278707D01*
Y278717D01*
X47276Y278738D01*
X47297Y278769D01*
X47318Y278821D01*
X47380Y278946D01*
X47474Y279092D01*
X47599Y279269D01*
X47766Y279446D01*
X47953Y279623D01*
X48182Y279779D01*
X48193D01*
X48213Y279800D01*
X48245Y279821D01*
X48297Y279842D01*
X48359Y279873D01*
X48432Y279904D01*
X48515Y279946D01*
X48609Y279988D01*
X48828Y280061D01*
X49067Y280123D01*
X49338Y280165D01*
X49630Y280186D01*
X49734D01*
X49796Y280175D01*
X49890Y280165D01*
X49994Y280154D01*
X50109Y280133D01*
X50234Y280102D01*
X50504Y280019D01*
X50650Y279967D01*
X50796Y279904D01*
X50942Y279831D01*
X51088Y279738D01*
X51223Y279634D01*
X51358Y279519D01*
X51369Y279509D01*
X51390Y279488D01*
X51421Y279446D01*
X51473Y279394D01*
X51525Y279321D01*
X51588Y279238D01*
X51660Y279134D01*
X51733Y279009D01*
X51806Y278873D01*
X51879Y278728D01*
X51952Y278561D01*
X52025Y278374D01*
X52087Y278176D01*
X52150Y277957D01*
X52202Y277717D01*
X52244Y277467D01*
Y277478D01*
X52254Y277488D01*
X52285Y277551D01*
X52337Y277645D01*
X52400Y277759D01*
X52473Y277884D01*
X52546Y278009D01*
X52639Y278134D01*
X52723Y278238D01*
X52733Y278249D01*
X52744Y278259D01*
X52775Y278290D01*
X52816Y278332D01*
X52868Y278384D01*
X52931Y278446D01*
X53077Y278582D01*
X53264Y278738D01*
X53483Y278915D01*
X53733Y279102D01*
X54004Y279290D01*
X56617Y280956D01*
Y279363D01*
D02*
G37*
%LPC*%
G36*
X54796Y239010D02*
X51159Y233811D01*
X54796D01*
Y239010D01*
D02*
G37*
G36*
X62609Y185236D02*
X62521D01*
X62446Y185223D01*
X62371Y185211D01*
X62271Y185198D01*
X62046Y185148D01*
X61784Y185061D01*
X61509Y184936D01*
X61371Y184861D01*
X61234Y184774D01*
X61096Y184661D01*
X60971Y184536D01*
X60959Y184524D01*
X60946Y184499D01*
X60909Y184461D01*
X60872Y184411D01*
X60821Y184349D01*
X60759Y184261D01*
X60697Y184161D01*
X60647Y184049D01*
X60584Y183936D01*
X60522Y183799D01*
X60409Y183486D01*
X60334Y183136D01*
X60322Y182936D01*
X60309Y182736D01*
Y182724D01*
Y182699D01*
Y182662D01*
Y182612D01*
X60322Y182549D01*
Y182474D01*
X60347Y182287D01*
X60384Y182074D01*
X60434Y181837D01*
X60509Y181587D01*
X60609Y181337D01*
Y181324D01*
X60622Y181312D01*
X60647Y181274D01*
X60672Y181224D01*
X60734Y181112D01*
X60834Y180962D01*
X60959Y180800D01*
X61109Y180637D01*
X61271Y180475D01*
X61471Y180325D01*
X61484D01*
X61496Y180312D01*
X61571Y180275D01*
X61684Y180212D01*
X61834Y180150D01*
X62009Y180087D01*
X62209Y180025D01*
X62434Y179987D01*
X62659Y179975D01*
X62746D01*
X62808Y179987D01*
X62896Y180000D01*
X62983Y180012D01*
X63196Y180062D01*
X63433Y180150D01*
X63571Y180212D01*
X63696Y180275D01*
X63833Y180362D01*
X63958Y180450D01*
X64083Y180562D01*
X64208Y180687D01*
X64221Y180700D01*
X64233Y180725D01*
X64271Y180762D01*
X64308Y180825D01*
X64358Y180900D01*
X64408Y180987D01*
X64471Y181087D01*
X64533Y181212D01*
X64596Y181337D01*
X64658Y181487D01*
X64708Y181649D01*
X64758Y181824D01*
X64795Y182012D01*
X64833Y182224D01*
X64845Y182437D01*
X64858Y182662D01*
Y182674D01*
Y182712D01*
Y182774D01*
X64845Y182861D01*
X64833Y182962D01*
X64820Y183074D01*
X64808Y183199D01*
X64783Y183336D01*
X64708Y183636D01*
X64596Y183949D01*
X64521Y184111D01*
X64433Y184261D01*
X64333Y184399D01*
X64221Y184536D01*
X64208Y184549D01*
X64196Y184561D01*
X64158Y184599D01*
X64108Y184649D01*
X64046Y184699D01*
X63971Y184761D01*
X63783Y184886D01*
X63546Y185011D01*
X63271Y185123D01*
X62958Y185211D01*
X62783Y185223D01*
X62609Y185236D01*
D02*
G37*
G36*
X35950Y30154D02*
X35717D01*
X35539Y30143D01*
X35339Y30132D01*
X35106Y30121D01*
X34851Y30110D01*
X34584Y30076D01*
X34018Y30010D01*
X33741Y29954D01*
X33474Y29899D01*
X33219Y29832D01*
X32975Y29755D01*
X32775Y29666D01*
X32597Y29555D01*
X32586Y29544D01*
X32564Y29533D01*
X32520Y29499D01*
X32464Y29455D01*
X32409Y29388D01*
X32331Y29322D01*
X32253Y29244D01*
X32176Y29155D01*
X32031Y28944D01*
X31898Y28689D01*
X31843Y28556D01*
X31798Y28400D01*
X31776Y28256D01*
X31765Y28090D01*
Y28078D01*
Y28056D01*
Y28012D01*
X31776Y27945D01*
X31787Y27879D01*
X31798Y27790D01*
X31854Y27590D01*
X31943Y27368D01*
X31998Y27257D01*
X32076Y27135D01*
X32153Y27024D01*
X32253Y26913D01*
X32364Y26802D01*
X32497Y26702D01*
X32509Y26691D01*
X32542Y26680D01*
X32597Y26647D01*
X32686Y26602D01*
X32797Y26558D01*
X32930Y26502D01*
X33086Y26436D01*
X33286Y26380D01*
X33508Y26325D01*
X33752Y26258D01*
X34040Y26203D01*
X34351Y26158D01*
X34695Y26114D01*
X35084Y26092D01*
X35494Y26070D01*
X35950Y26058D01*
X36194D01*
X36360Y26070D01*
X36560Y26081D01*
X36793Y26092D01*
X37048Y26103D01*
X37315Y26136D01*
X37881Y26203D01*
X38158Y26247D01*
X38436Y26303D01*
X38691Y26369D01*
X38924Y26458D01*
X39135Y26547D01*
X39313Y26647D01*
X39324Y26658D01*
X39346Y26669D01*
X39390Y26702D01*
X39446Y26758D01*
X39502Y26813D01*
X39568Y26880D01*
X39723Y27046D01*
X39879Y27257D01*
X40001Y27512D01*
X40057Y27646D01*
X40101Y27790D01*
X40123Y27945D01*
X40134Y28101D01*
Y28112D01*
Y28134D01*
X40123Y28189D01*
Y28245D01*
X40112Y28323D01*
X40090Y28412D01*
X40034Y28611D01*
X39990Y28722D01*
X39934Y28833D01*
X39868Y28955D01*
X39779Y29077D01*
X39690Y29200D01*
X39579Y29322D01*
X39446Y29444D01*
X39302Y29555D01*
X39291Y29566D01*
X39257Y29577D01*
X39213Y29610D01*
X39135Y29644D01*
X39035Y29699D01*
X38902Y29743D01*
X38747Y29799D01*
X38569Y29855D01*
X38358Y29910D01*
X38114Y29966D01*
X37848Y30021D01*
X37537Y30065D01*
X37193Y30099D01*
X36815Y30132D01*
X36405Y30143D01*
X35950Y30154D01*
D02*
G37*
G36*
X34865Y204648D02*
X34790D01*
X34727Y204636D01*
X34665D01*
X34577Y204623D01*
X34390Y204573D01*
X34177Y204498D01*
X33952Y204398D01*
X33740Y204248D01*
X33628Y204148D01*
X33528Y204048D01*
X33515Y204036D01*
X33503Y204023D01*
X33477Y203986D01*
X33440Y203936D01*
X33403Y203873D01*
X33352Y203786D01*
X33303Y203698D01*
X33253Y203586D01*
X33203Y203461D01*
X33165Y203323D01*
X33115Y203173D01*
X33078Y203011D01*
X33040Y202824D01*
X33015Y202624D01*
X32990Y202411D01*
Y202174D01*
Y198525D01*
X36802D01*
Y201799D01*
Y201811D01*
Y201849D01*
Y201899D01*
Y201974D01*
X36789Y202061D01*
Y202161D01*
X36777Y202399D01*
X36752Y202661D01*
X36714Y202936D01*
X36664Y203198D01*
X36589Y203436D01*
Y203448D01*
X36577Y203461D01*
X36552Y203536D01*
X36502Y203636D01*
X36427Y203773D01*
X36327Y203911D01*
X36214Y204061D01*
X36064Y204211D01*
X35902Y204336D01*
X35877Y204348D01*
X35814Y204386D01*
X35727Y204436D01*
X35589Y204498D01*
X35440Y204548D01*
X35264Y204598D01*
X35065Y204636D01*
X34865Y204648D01*
D02*
G37*
G36*
X35502Y214046D02*
X35389D01*
X35302Y214033D01*
X35202Y214021D01*
X35077Y214008D01*
X34952Y213996D01*
X34802Y213971D01*
X34502Y213883D01*
X34177Y213771D01*
X34015Y213696D01*
X33865Y213608D01*
X33715Y213508D01*
X33577Y213396D01*
X33565Y213383D01*
X33540Y213371D01*
X33515Y213333D01*
X33465Y213283D01*
X33415Y213221D01*
X33352Y213146D01*
X33215Y212958D01*
X33078Y212733D01*
X32965Y212459D01*
X32915Y212321D01*
X32878Y212159D01*
X32865Y211996D01*
X32853Y211834D01*
Y211821D01*
Y211796D01*
Y211746D01*
X32865Y211671D01*
X32878Y211596D01*
X32890Y211496D01*
X32953Y211271D01*
X33040Y211009D01*
X33103Y210872D01*
X33178Y210734D01*
X33265Y210597D01*
X33377Y210459D01*
X33490Y210322D01*
X33628Y210184D01*
X33640Y210172D01*
X33665Y210159D01*
X33702Y210122D01*
X33765Y210072D01*
X33840Y210022D01*
X33940Y209972D01*
X34040Y209909D01*
X34165Y209847D01*
X34302Y209772D01*
X34452Y209709D01*
X34615Y209659D01*
X34802Y209609D01*
X35190Y209522D01*
X35402Y209509D01*
X35627Y209497D01*
X35727D01*
X35814Y209509D01*
X35902Y209522D01*
X36014Y209534D01*
X36264Y209584D01*
X36552Y209659D01*
X36839Y209772D01*
X36989Y209847D01*
X37139Y209934D01*
X37276Y210034D01*
X37414Y210147D01*
X37427Y210159D01*
X37439Y210172D01*
X37476Y210209D01*
X37514Y210272D01*
X37564Y210334D01*
X37626Y210409D01*
X37689Y210497D01*
X37751Y210597D01*
X37876Y210847D01*
X37989Y211121D01*
X38064Y211446D01*
X38076Y211621D01*
X38089Y211796D01*
Y211809D01*
Y211834D01*
Y211896D01*
X38076Y211959D01*
X38064Y212046D01*
X38051Y212134D01*
X38001Y212359D01*
X37926Y212621D01*
X37801Y212883D01*
X37726Y213021D01*
X37639Y213158D01*
X37527Y213283D01*
X37414Y213408D01*
X37401Y213421D01*
X37376Y213433D01*
X37339Y213471D01*
X37289Y213508D01*
X37214Y213558D01*
X37127Y213608D01*
X37027Y213671D01*
X36914Y213733D01*
X36789Y213783D01*
X36639Y213846D01*
X36489Y213896D01*
X36314Y213946D01*
X36127Y213983D01*
X35939Y214021D01*
X35727Y214033D01*
X35502Y214046D01*
D02*
G37*
G36*
X33552Y13793D02*
X33485D01*
X33430Y13782D01*
X33374D01*
X33297Y13771D01*
X33130Y13727D01*
X32942Y13660D01*
X32742Y13571D01*
X32553Y13438D01*
X32453Y13349D01*
X32364Y13260D01*
X32353Y13249D01*
X32342Y13238D01*
X32320Y13205D01*
X32287Y13160D01*
X32253Y13105D01*
X32209Y13027D01*
X32165Y12950D01*
X32120Y12850D01*
X32076Y12739D01*
X32043Y12616D01*
X31998Y12483D01*
X31965Y12339D01*
X31932Y12172D01*
X31909Y11995D01*
X31887Y11806D01*
Y11595D01*
Y8354D01*
X35273D01*
Y11262D01*
Y11273D01*
Y11307D01*
Y11351D01*
Y11418D01*
X35261Y11495D01*
Y11584D01*
X35250Y11795D01*
X35228Y12028D01*
X35195Y12272D01*
X35150Y12506D01*
X35084Y12716D01*
Y12728D01*
X35073Y12739D01*
X35050Y12805D01*
X35006Y12894D01*
X34939Y13016D01*
X34851Y13138D01*
X34751Y13271D01*
X34618Y13405D01*
X34473Y13516D01*
X34451Y13527D01*
X34396Y13560D01*
X34318Y13604D01*
X34196Y13660D01*
X34063Y13704D01*
X33907Y13749D01*
X33730Y13782D01*
X33552Y13793D01*
D02*
G37*
G36*
X121936Y176672D02*
X119275D01*
Y167862D01*
X121924D01*
X122024Y167875D01*
X122136D01*
X122386Y167887D01*
X122674Y167912D01*
X122974Y167950D01*
X123261Y168000D01*
X123524Y168062D01*
X123536D01*
X123548Y168075D01*
X123586Y168087D01*
X123636Y168100D01*
X123749Y168150D01*
X123898Y168212D01*
X124061Y168300D01*
X124236Y168400D01*
X124411Y168524D01*
X124561Y168662D01*
X124573Y168674D01*
X124586Y168687D01*
X124648Y168762D01*
X124748Y168887D01*
X124873Y169049D01*
X124998Y169262D01*
X125136Y169512D01*
X125273Y169799D01*
X125398Y170124D01*
Y170137D01*
X125410Y170162D01*
X125423Y170212D01*
X125448Y170287D01*
X125473Y170374D01*
X125498Y170487D01*
X125523Y170611D01*
X125561Y170749D01*
X125585Y170899D01*
X125611Y171074D01*
X125635Y171249D01*
X125660Y171449D01*
X125698Y171874D01*
X125710Y172348D01*
Y172374D01*
Y172423D01*
Y172523D01*
X125698Y172648D01*
Y172798D01*
X125686Y172973D01*
X125660Y173161D01*
X125635Y173373D01*
X125561Y173823D01*
X125461Y174286D01*
X125311Y174723D01*
X125211Y174935D01*
X125111Y175123D01*
X125098Y175135D01*
X125086Y175160D01*
X125048Y175210D01*
X124998Y175285D01*
X124948Y175360D01*
X124873Y175448D01*
X124711Y175648D01*
X124498Y175873D01*
X124248Y176085D01*
X123973Y176285D01*
X123823Y176360D01*
X123661Y176435D01*
X123649D01*
X123636Y176448D01*
X123598Y176460D01*
X123548Y176472D01*
X123474Y176485D01*
X123399Y176510D01*
X123299Y176535D01*
X123186Y176560D01*
X123061Y176572D01*
X122911Y176597D01*
X122749Y176622D01*
X122574Y176635D01*
X122374Y176647D01*
X122161Y176660D01*
X121936Y176672D01*
D02*
G37*
G36*
X57151Y377595D02*
X56976D01*
X56852Y377583D01*
X56702D01*
X56527Y377570D01*
X56339Y377545D01*
X56127Y377520D01*
X55677Y377445D01*
X55215Y377345D01*
X54777Y377195D01*
X54565Y377095D01*
X54377Y376995D01*
X54365Y376983D01*
X54340Y376970D01*
X54290Y376933D01*
X54215Y376883D01*
X54140Y376833D01*
X54052Y376758D01*
X53852Y376595D01*
X53627Y376383D01*
X53415Y376133D01*
X53215Y375858D01*
X53140Y375708D01*
X53065Y375546D01*
Y375533D01*
X53053Y375521D01*
X53040Y375483D01*
X53028Y375433D01*
X53015Y375358D01*
X52990Y375283D01*
X52965Y375183D01*
X52940Y375071D01*
X52928Y374946D01*
X52903Y374796D01*
X52878Y374633D01*
X52865Y374458D01*
X52853Y374258D01*
X52840Y374046D01*
X52828Y373821D01*
Y373571D01*
Y371159D01*
X61638D01*
Y373621D01*
Y373633D01*
Y373671D01*
Y373733D01*
Y373808D01*
X61625Y373908D01*
Y374021D01*
X61613Y374271D01*
X61588Y374558D01*
X61550Y374858D01*
X61500Y375146D01*
X61438Y375408D01*
Y375420D01*
X61425Y375433D01*
X61413Y375471D01*
X61400Y375521D01*
X61350Y375633D01*
X61288Y375783D01*
X61200Y375945D01*
X61101Y376120D01*
X60975Y376295D01*
X60838Y376445D01*
X60826Y376458D01*
X60813Y376470D01*
X60738Y376533D01*
X60613Y376633D01*
X60451Y376758D01*
X60238Y376883D01*
X59988Y377020D01*
X59701Y377158D01*
X59376Y377283D01*
X59363D01*
X59338Y377295D01*
X59289Y377308D01*
X59214Y377332D01*
X59126Y377357D01*
X59014Y377383D01*
X58889Y377407D01*
X58751Y377445D01*
X58601Y377470D01*
X58426Y377495D01*
X58251Y377520D01*
X58051Y377545D01*
X57626Y377583D01*
X57151Y377595D01*
D02*
G37*
G36*
X287161Y191760D02*
X283275D01*
Y187948D01*
X286724D01*
X286811Y187961D01*
X286911D01*
X287149Y187973D01*
X287411Y187998D01*
X287686Y188036D01*
X287948Y188086D01*
X288186Y188161D01*
X288198D01*
X288211Y188173D01*
X288286Y188198D01*
X288386Y188248D01*
X288523Y188323D01*
X288661Y188423D01*
X288811Y188536D01*
X288961Y188686D01*
X289086Y188848D01*
X289098Y188873D01*
X289136Y188936D01*
X289186Y189023D01*
X289248Y189160D01*
X289298Y189310D01*
X289348Y189485D01*
X289386Y189685D01*
X289398Y189885D01*
Y189898D01*
Y189923D01*
Y189960D01*
X289386Y190023D01*
Y190085D01*
X289373Y190173D01*
X289323Y190360D01*
X289248Y190573D01*
X289148Y190798D01*
X288998Y191010D01*
X288898Y191122D01*
X288798Y191222D01*
X288786Y191235D01*
X288773Y191248D01*
X288736Y191273D01*
X288686Y191310D01*
X288623Y191348D01*
X288536Y191397D01*
X288448Y191447D01*
X288336Y191497D01*
X288211Y191547D01*
X288073Y191585D01*
X287923Y191635D01*
X287761Y191672D01*
X287574Y191710D01*
X287374Y191735D01*
X287161Y191760D01*
D02*
G37*
G36*
X57151Y365961D02*
X56976D01*
X56852Y365948D01*
X56702D01*
X56527Y365936D01*
X56339Y365910D01*
X56127Y365886D01*
X55677Y365811D01*
X55215Y365710D01*
X54777Y365561D01*
X54565Y365461D01*
X54377Y365361D01*
X54365Y365348D01*
X54340Y365336D01*
X54290Y365298D01*
X54215Y365248D01*
X54140Y365198D01*
X54052Y365123D01*
X53852Y364961D01*
X53627Y364748D01*
X53415Y364498D01*
X53215Y364223D01*
X53140Y364073D01*
X53065Y363911D01*
Y363899D01*
X53053Y363886D01*
X53040Y363848D01*
X53028Y363798D01*
X53015Y363723D01*
X52990Y363648D01*
X52965Y363549D01*
X52940Y363436D01*
X52928Y363311D01*
X52903Y363161D01*
X52878Y362999D01*
X52865Y362824D01*
X52853Y362624D01*
X52840Y362411D01*
X52828Y362186D01*
Y361936D01*
Y359525D01*
X61638D01*
Y361987D01*
Y361999D01*
Y362037D01*
Y362099D01*
Y362174D01*
X61625Y362274D01*
Y362386D01*
X61613Y362636D01*
X61588Y362924D01*
X61550Y363224D01*
X61500Y363511D01*
X61438Y363773D01*
Y363786D01*
X61425Y363798D01*
X61413Y363836D01*
X61400Y363886D01*
X61350Y363998D01*
X61288Y364148D01*
X61200Y364311D01*
X61101Y364486D01*
X60975Y364661D01*
X60838Y364811D01*
X60826Y364823D01*
X60813Y364836D01*
X60738Y364898D01*
X60613Y364998D01*
X60451Y365123D01*
X60238Y365248D01*
X59988Y365386D01*
X59701Y365523D01*
X59376Y365648D01*
X59363D01*
X59338Y365661D01*
X59289Y365673D01*
X59214Y365698D01*
X59126Y365723D01*
X59014Y365748D01*
X58889Y365773D01*
X58751Y365811D01*
X58601Y365835D01*
X58426Y365860D01*
X58251Y365886D01*
X58051Y365910D01*
X57626Y365948D01*
X57151Y365961D01*
D02*
G37*
G36*
X49484Y286413D02*
X49422D01*
X49369Y286403D01*
X49255Y286392D01*
X49099Y286361D01*
X48932Y286309D01*
X48745Y286226D01*
X48568Y286111D01*
X48474Y286049D01*
X48390Y285965D01*
X48380D01*
X48370Y285944D01*
X48318Y285882D01*
X48245Y285788D01*
X48161Y285653D01*
X48088Y285497D01*
X48016Y285299D01*
X47964Y285080D01*
X47943Y284965D01*
Y284841D01*
Y284830D01*
Y284809D01*
Y284778D01*
X47953Y284726D01*
Y284674D01*
X47964Y284601D01*
X47995Y284445D01*
X48047Y284268D01*
X48130Y284080D01*
X48234Y283893D01*
X48380Y283716D01*
X48401Y283695D01*
X48453Y283643D01*
X48547Y283580D01*
X48672Y283497D01*
X48818Y283414D01*
X48994Y283351D01*
X49192Y283299D01*
X49411Y283279D01*
X49474D01*
X49526Y283289D01*
X49588D01*
X49651Y283299D01*
X49807Y283330D01*
X49984Y283383D01*
X50171Y283456D01*
X50359Y283560D01*
X50525Y283706D01*
X50546Y283726D01*
X50588Y283789D01*
X50661Y283883D01*
X50734Y284018D01*
X50817Y284174D01*
X50890Y284372D01*
X50932Y284601D01*
X50952Y284851D01*
Y284861D01*
Y284882D01*
Y284914D01*
X50942Y284965D01*
Y285028D01*
X50932Y285091D01*
X50900Y285247D01*
X50848Y285424D01*
X50775Y285611D01*
X50671Y285799D01*
X50525Y285976D01*
X50504Y285996D01*
X50452Y286049D01*
X50359Y286111D01*
X50234Y286194D01*
X50088Y286278D01*
X49900Y286340D01*
X49703Y286392D01*
X49484Y286413D01*
D02*
G37*
G36*
X53889Y286809D02*
X53806D01*
X53743Y286798D01*
X53670Y286788D01*
X53587Y286778D01*
X53389Y286736D01*
X53170Y286673D01*
X52931Y286569D01*
X52816Y286507D01*
X52702Y286423D01*
X52587Y286340D01*
X52483Y286236D01*
X52473Y286226D01*
X52462Y286215D01*
X52431Y286184D01*
X52400Y286132D01*
X52348Y286080D01*
X52306Y286017D01*
X52254Y285934D01*
X52202Y285851D01*
X52098Y285643D01*
X52004Y285403D01*
X51942Y285122D01*
X51931Y284976D01*
X51921Y284820D01*
Y284809D01*
Y284778D01*
Y284736D01*
X51931Y284684D01*
X51942Y284611D01*
X51952Y284528D01*
X51994Y284330D01*
X52056Y284112D01*
X52150Y283883D01*
X52212Y283768D01*
X52285Y283653D01*
X52379Y283539D01*
X52473Y283435D01*
X52483Y283424D01*
X52494Y283414D01*
X52525Y283383D01*
X52566Y283351D01*
X52629Y283310D01*
X52691Y283268D01*
X52764Y283216D01*
X52848Y283164D01*
X53046Y283060D01*
X53285Y282976D01*
X53556Y282914D01*
X53691Y282904D01*
X53847Y282893D01*
X53931D01*
X54035Y282904D01*
X54160Y282924D01*
X54306Y282945D01*
X54472Y282987D01*
X54649Y283049D01*
X54826Y283122D01*
X54847Y283133D01*
X54899Y283164D01*
X54993Y283226D01*
X55097Y283299D01*
X55212Y283403D01*
X55326Y283518D01*
X55451Y283664D01*
X55555Y283830D01*
Y283841D01*
X55566Y283851D01*
X55597Y283914D01*
X55639Y284007D01*
X55680Y284143D01*
X55722Y284289D01*
X55764Y284466D01*
X55795Y284653D01*
X55805Y284851D01*
Y284861D01*
Y284893D01*
Y284934D01*
X55795Y284997D01*
X55784Y285070D01*
X55774Y285153D01*
X55732Y285351D01*
X55670Y285570D01*
X55576Y285809D01*
X55514Y285924D01*
X55441Y286038D01*
X55357Y286153D01*
X55264Y286257D01*
X55253Y286267D01*
X55243Y286278D01*
X55212Y286309D01*
X55170Y286340D01*
X55107Y286382D01*
X55045Y286434D01*
X54972Y286486D01*
X54889Y286538D01*
X54691Y286632D01*
X54451Y286726D01*
X54191Y286788D01*
X54045Y286798D01*
X53889Y286809D01*
D02*
G37*
G36*
X41188Y170296D02*
X41093D01*
X40660Y170274D01*
X40258Y170232D01*
X40079Y170200D01*
X39899Y170169D01*
X39741Y170137D01*
X39593Y170105D01*
X39455Y170063D01*
X39339Y170031D01*
X39233Y170000D01*
X39149Y169968D01*
X39086Y169936D01*
X39033Y169926D01*
X39001Y169904D01*
X38990D01*
X38737Y169788D01*
X38504Y169651D01*
X38282Y169503D01*
X38103Y169355D01*
X37944Y169228D01*
X37881Y169175D01*
X37828Y169123D01*
X37786Y169080D01*
X37754Y169049D01*
X37733Y169038D01*
X37722Y169028D01*
X37522Y168795D01*
X37342Y168573D01*
X37183Y168341D01*
X37057Y168140D01*
X36962Y167950D01*
X36919Y167876D01*
X36888Y167812D01*
X36856Y167759D01*
X36835Y167717D01*
X36824Y167696D01*
Y167686D01*
X36750Y167495D01*
X36676Y167284D01*
X36571Y166872D01*
X36486Y166449D01*
X36465Y166248D01*
X36433Y166058D01*
X36423Y165868D01*
X36402Y165710D01*
X36391Y165562D01*
Y165435D01*
X36381Y165329D01*
Y165245D01*
Y165203D01*
Y165181D01*
X36391Y164759D01*
X36433Y164357D01*
X36497Y163977D01*
X36581Y163628D01*
X36676Y163300D01*
X36782Y163005D01*
X36898Y162730D01*
X37025Y162487D01*
X37141Y162265D01*
X37257Y162075D01*
X37363Y161906D01*
X37458Y161768D01*
X37543Y161663D01*
X37606Y161589D01*
X37648Y161546D01*
X37659Y161525D01*
X37913Y161293D01*
X38177Y161092D01*
X38451Y160912D01*
X38737Y160765D01*
X39022Y160638D01*
X39318Y160532D01*
X39593Y160437D01*
X39867Y160374D01*
X40121Y160310D01*
X40353Y160278D01*
X40575Y160247D01*
X40755Y160226D01*
X40903Y160215D01*
X41019Y160205D01*
X41114D01*
X41505Y160215D01*
X41886Y160257D01*
X42234Y160331D01*
X42562Y160416D01*
X42868Y160511D01*
X43154Y160627D01*
X43407Y160743D01*
X43640Y160870D01*
X43851Y160997D01*
X44031Y161113D01*
X44189Y161229D01*
X44316Y161325D01*
X44422Y161409D01*
X44485Y161483D01*
X44538Y161525D01*
X44548Y161536D01*
X44781Y161800D01*
X44971Y162075D01*
X45151Y162371D01*
X45299Y162677D01*
X45415Y162983D01*
X45520Y163290D01*
X45605Y163596D01*
X45679Y163882D01*
X45732Y164156D01*
X45774Y164421D01*
X45795Y164642D01*
X45816Y164843D01*
X45827Y165012D01*
X45837Y165076D01*
Y165128D01*
Y165171D01*
Y165203D01*
Y165224D01*
Y165234D01*
X45827Y165667D01*
X45785Y166080D01*
X45721Y166460D01*
X45637Y166819D01*
X45542Y167147D01*
X45425Y167453D01*
X45309Y167738D01*
X45193Y167981D01*
X45066Y168214D01*
X44950Y168404D01*
X44844Y168573D01*
X44738Y168710D01*
X44654Y168816D01*
X44591Y168890D01*
X44548Y168943D01*
X44538Y168953D01*
X44284Y169186D01*
X44020Y169397D01*
X43745Y169577D01*
X43460Y169725D01*
X43164Y169862D01*
X42879Y169968D01*
X42604Y170052D01*
X42329Y170126D01*
X42076Y170179D01*
X41843Y170222D01*
X41632Y170253D01*
X41452Y170274D01*
X41304Y170285D01*
X41188Y170296D01*
D02*
G37*
G36*
X30590D02*
X30495D01*
X30062Y170274D01*
X29660Y170232D01*
X29481Y170200D01*
X29301Y170169D01*
X29142Y170137D01*
X28995Y170105D01*
X28857Y170063D01*
X28741Y170031D01*
X28635Y170000D01*
X28551Y169968D01*
X28487Y169936D01*
X28435Y169926D01*
X28403Y169904D01*
X28392D01*
X28139Y169788D01*
X27906Y169651D01*
X27684Y169503D01*
X27505Y169355D01*
X27346Y169228D01*
X27283Y169175D01*
X27230Y169123D01*
X27188Y169080D01*
X27156Y169049D01*
X27135Y169038D01*
X27124Y169028D01*
X26924Y168795D01*
X26744Y168573D01*
X26585Y168341D01*
X26459Y168140D01*
X26363Y167950D01*
X26321Y167876D01*
X26290Y167812D01*
X26258Y167759D01*
X26237Y167717D01*
X26226Y167696D01*
Y167686D01*
X26152Y167495D01*
X26078Y167284D01*
X25973Y166872D01*
X25888Y166449D01*
X25867Y166248D01*
X25835Y166058D01*
X25825Y165868D01*
X25803Y165710D01*
X25793Y165562D01*
Y165435D01*
X25782Y165329D01*
Y165245D01*
Y165203D01*
Y165181D01*
X25793Y164759D01*
X25835Y164357D01*
X25899Y163977D01*
X25983Y163628D01*
X26078Y163300D01*
X26184Y163005D01*
X26300Y162730D01*
X26427Y162487D01*
X26543Y162265D01*
X26659Y162075D01*
X26765Y161906D01*
X26860Y161768D01*
X26945Y161663D01*
X27008Y161589D01*
X27050Y161546D01*
X27061Y161525D01*
X27315Y161293D01*
X27579Y161092D01*
X27853Y160912D01*
X28139Y160765D01*
X28424Y160638D01*
X28720Y160532D01*
X28995Y160437D01*
X29269Y160374D01*
X29523Y160310D01*
X29755Y160278D01*
X29977Y160247D01*
X30157Y160226D01*
X30305Y160215D01*
X30421Y160205D01*
X30516D01*
X30907Y160215D01*
X31288Y160257D01*
X31636Y160331D01*
X31964Y160416D01*
X32270Y160511D01*
X32555Y160627D01*
X32809Y160743D01*
X33042Y160870D01*
X33253Y160997D01*
X33433Y161113D01*
X33591Y161229D01*
X33718Y161325D01*
X33823Y161409D01*
X33887Y161483D01*
X33940Y161525D01*
X33950Y161536D01*
X34183Y161800D01*
X34373Y162075D01*
X34553Y162371D01*
X34700Y162677D01*
X34817Y162983D01*
X34922Y163290D01*
X35007Y163596D01*
X35081Y163882D01*
X35134Y164156D01*
X35176Y164421D01*
X35197Y164642D01*
X35218Y164843D01*
X35229Y165012D01*
X35239Y165076D01*
Y165128D01*
Y165171D01*
Y165203D01*
Y165224D01*
Y165234D01*
X35229Y165667D01*
X35187Y166080D01*
X35123Y166460D01*
X35039Y166819D01*
X34943Y167147D01*
X34827Y167453D01*
X34711Y167738D01*
X34595Y167981D01*
X34468Y168214D01*
X34352Y168404D01*
X34246Y168573D01*
X34140Y168710D01*
X34056Y168816D01*
X33993Y168890D01*
X33950Y168943D01*
X33940Y168953D01*
X33686Y169186D01*
X33422Y169397D01*
X33147Y169577D01*
X32862Y169725D01*
X32566Y169862D01*
X32281Y169968D01*
X32006Y170052D01*
X31731Y170126D01*
X31478Y170179D01*
X31245Y170222D01*
X31034Y170253D01*
X30854Y170274D01*
X30706Y170285D01*
X30590Y170296D01*
D02*
G37*
G36*
X54428Y170137D02*
X46693D01*
Y168489D01*
X49588D01*
Y160384D01*
X51554D01*
Y168489D01*
X54428D01*
Y170137D01*
D02*
G37*
G36*
X20637D02*
X16347D01*
Y160384D01*
X20003D01*
X20309Y160395D01*
X20827D01*
X21049Y160405D01*
X21239D01*
X21408Y160416D01*
X21556D01*
X21672Y160427D01*
X21778D01*
X21862Y160437D01*
X21926D01*
X21978Y160448D01*
X22031D01*
X22317Y160490D01*
X22570Y160553D01*
X22803Y160627D01*
X22993Y160712D01*
X23141Y160786D01*
X23204Y160817D01*
X23257Y160839D01*
X23299Y160870D01*
X23331Y160891D01*
X23342Y160902D01*
X23352D01*
X23542Y161050D01*
X23711Y161219D01*
X23859Y161388D01*
X23976Y161546D01*
X24071Y161684D01*
X24145Y161800D01*
X24166Y161842D01*
X24187Y161874D01*
X24197Y161895D01*
Y161906D01*
X24303Y162149D01*
X24377Y162381D01*
X24441Y162593D01*
X24472Y162793D01*
X24493Y162962D01*
X24504Y163036D01*
X24514Y163089D01*
Y163142D01*
Y163174D01*
Y163195D01*
Y163205D01*
Y163364D01*
X24493Y163512D01*
X24441Y163797D01*
X24356Y164040D01*
X24271Y164262D01*
X24229Y164347D01*
X24187Y164431D01*
X24145Y164505D01*
X24102Y164569D01*
X24071Y164611D01*
X24049Y164642D01*
X24039Y164664D01*
X24028Y164674D01*
X23838Y164896D01*
X23616Y165076D01*
X23384Y165234D01*
X23173Y165350D01*
X22972Y165445D01*
X22887Y165477D01*
X22813Y165509D01*
X22750Y165530D01*
X22708Y165551D01*
X22676Y165562D01*
X22665D01*
X22887Y165678D01*
X23088Y165815D01*
X23257Y165963D01*
X23405Y166101D01*
X23521Y166227D01*
X23606Y166322D01*
X23627Y166365D01*
X23648Y166397D01*
X23669Y166407D01*
Y166418D01*
X23796Y166639D01*
X23880Y166851D01*
X23944Y167062D01*
X23997Y167263D01*
X24018Y167432D01*
X24028Y167495D01*
Y167559D01*
X24039Y167612D01*
Y167643D01*
Y167664D01*
Y167675D01*
X24028Y167908D01*
X23997Y168119D01*
X23944Y168320D01*
X23891Y168489D01*
X23828Y168626D01*
X23785Y168732D01*
X23764Y168763D01*
X23743Y168795D01*
X23733Y168806D01*
Y168816D01*
X23616Y168996D01*
X23489Y169154D01*
X23363Y169292D01*
X23247Y169419D01*
X23141Y169503D01*
X23056Y169577D01*
X23003Y169619D01*
X22993Y169630D01*
X22982D01*
X22813Y169735D01*
X22634Y169820D01*
X22464Y169894D01*
X22306Y169947D01*
X22169Y169989D01*
X22063Y170010D01*
X22021Y170021D01*
X21989Y170031D01*
X21968D01*
X21852Y170052D01*
X21735Y170063D01*
X21461Y170095D01*
X21175Y170116D01*
X20890Y170126D01*
X20763D01*
X20637Y170137D01*
D02*
G37*
%LPD*%
G36*
X41336Y168605D02*
X41547Y168584D01*
X41748Y168541D01*
X41928Y168489D01*
X42108Y168425D01*
X42266Y168351D01*
X42414Y168277D01*
X42551Y168203D01*
X42667Y168119D01*
X42773Y168045D01*
X42858Y167971D01*
X42932Y167908D01*
X42995Y167855D01*
X43037Y167812D01*
X43059Y167791D01*
X43069Y167781D01*
X43196Y167622D01*
X43312Y167432D01*
X43407Y167242D01*
X43502Y167041D01*
X43566Y166840D01*
X43629Y166629D01*
X43682Y166418D01*
X43714Y166217D01*
X43745Y166027D01*
X43766Y165847D01*
X43787Y165688D01*
X43798Y165551D01*
X43809Y165435D01*
Y165350D01*
Y165298D01*
Y165276D01*
X43798Y164970D01*
X43777Y164674D01*
X43735Y164410D01*
X43692Y164156D01*
X43629Y163934D01*
X43566Y163723D01*
X43502Y163533D01*
X43428Y163364D01*
X43354Y163216D01*
X43291Y163089D01*
X43228Y162973D01*
X43164Y162888D01*
X43122Y162815D01*
X43080Y162772D01*
X43059Y162740D01*
X43048Y162730D01*
X42900Y162582D01*
X42741Y162455D01*
X42583Y162339D01*
X42425Y162244D01*
X42266Y162159D01*
X42097Y162096D01*
X41949Y162033D01*
X41801Y161990D01*
X41653Y161959D01*
X41526Y161927D01*
X41410Y161906D01*
X41315Y161895D01*
X41231D01*
X41167Y161885D01*
X41114D01*
X40903Y161895D01*
X40692Y161927D01*
X40491Y161969D01*
X40311Y162022D01*
X40142Y162085D01*
X39984Y162159D01*
X39836Y162233D01*
X39698Y162318D01*
X39582Y162392D01*
X39476Y162466D01*
X39381Y162540D01*
X39307Y162603D01*
X39244Y162666D01*
X39202Y162709D01*
X39181Y162730D01*
X39170Y162740D01*
X39033Y162910D01*
X38916Y163100D01*
X38821Y163290D01*
X38726Y163491D01*
X38652Y163702D01*
X38599Y163913D01*
X38547Y164114D01*
X38504Y164315D01*
X38473Y164505D01*
X38451Y164685D01*
X38430Y164843D01*
X38420Y164981D01*
Y165097D01*
X38409Y165181D01*
Y165234D01*
Y165255D01*
X38420Y165562D01*
X38441Y165847D01*
X38473Y166111D01*
X38526Y166354D01*
X38578Y166587D01*
X38642Y166787D01*
X38716Y166978D01*
X38779Y167147D01*
X38853Y167295D01*
X38916Y167421D01*
X38980Y167527D01*
X39033Y167612D01*
X39086Y167686D01*
X39117Y167728D01*
X39138Y167759D01*
X39149Y167770D01*
X39297Y167918D01*
X39445Y168045D01*
X39614Y168161D01*
X39772Y168256D01*
X39941Y168341D01*
X40100Y168415D01*
X40258Y168468D01*
X40417Y168510D01*
X40554Y168541D01*
X40692Y168573D01*
X40808Y168594D01*
X40914Y168605D01*
X40998Y168615D01*
X41114D01*
X41336Y168605D01*
D02*
G37*
G36*
X30738D02*
X30949Y168584D01*
X31150Y168541D01*
X31330Y168489D01*
X31509Y168425D01*
X31668Y168351D01*
X31816Y168277D01*
X31953Y168203D01*
X32069Y168119D01*
X32175Y168045D01*
X32260Y167971D01*
X32334Y167908D01*
X32397Y167855D01*
X32439Y167812D01*
X32460Y167791D01*
X32471Y167781D01*
X32598Y167622D01*
X32714Y167432D01*
X32809Y167242D01*
X32904Y167041D01*
X32968Y166840D01*
X33031Y166629D01*
X33084Y166418D01*
X33115Y166217D01*
X33147Y166027D01*
X33168Y165847D01*
X33189Y165688D01*
X33200Y165551D01*
X33211Y165435D01*
Y165350D01*
Y165298D01*
Y165276D01*
X33200Y164970D01*
X33179Y164674D01*
X33137Y164410D01*
X33094Y164156D01*
X33031Y163934D01*
X32968Y163723D01*
X32904Y163533D01*
X32830Y163364D01*
X32756Y163216D01*
X32693Y163089D01*
X32629Y162973D01*
X32566Y162888D01*
X32524Y162815D01*
X32482Y162772D01*
X32460Y162740D01*
X32450Y162730D01*
X32302Y162582D01*
X32143Y162455D01*
X31985Y162339D01*
X31826Y162244D01*
X31668Y162159D01*
X31499Y162096D01*
X31351Y162033D01*
X31203Y161990D01*
X31055Y161959D01*
X30928Y161927D01*
X30812Y161906D01*
X30717Y161895D01*
X30632D01*
X30569Y161885D01*
X30516D01*
X30305Y161895D01*
X30094Y161927D01*
X29893Y161969D01*
X29713Y162022D01*
X29544Y162085D01*
X29385Y162159D01*
X29238Y162233D01*
X29100Y162318D01*
X28984Y162392D01*
X28878Y162466D01*
X28783Y162540D01*
X28709Y162603D01*
X28646Y162666D01*
X28604Y162709D01*
X28582Y162730D01*
X28572Y162740D01*
X28435Y162910D01*
X28318Y163100D01*
X28223Y163290D01*
X28128Y163491D01*
X28054Y163702D01*
X28001Y163913D01*
X27949Y164114D01*
X27906Y164315D01*
X27875Y164505D01*
X27853Y164685D01*
X27832Y164843D01*
X27822Y164981D01*
Y165097D01*
X27811Y165181D01*
Y165234D01*
Y165255D01*
X27822Y165562D01*
X27843Y165847D01*
X27875Y166111D01*
X27927Y166354D01*
X27980Y166587D01*
X28044Y166787D01*
X28118Y166978D01*
X28181Y167147D01*
X28255Y167295D01*
X28318Y167421D01*
X28382Y167527D01*
X28435Y167612D01*
X28487Y167686D01*
X28519Y167728D01*
X28540Y167759D01*
X28551Y167770D01*
X28699Y167918D01*
X28847Y168045D01*
X29016Y168161D01*
X29174Y168256D01*
X29343Y168341D01*
X29502Y168415D01*
X29660Y168468D01*
X29819Y168510D01*
X29956Y168541D01*
X30094Y168573D01*
X30210Y168594D01*
X30315Y168605D01*
X30400Y168615D01*
X30516D01*
X30738Y168605D01*
D02*
G37*
G36*
X20362Y164621D02*
X20563D01*
X20742Y164611D01*
X20901Y164600D01*
X21049Y164590D01*
X21175Y164569D01*
X21281Y164558D01*
X21376Y164547D01*
X21450Y164526D01*
X21514Y164516D01*
X21566Y164505D01*
X21609Y164494D01*
X21630D01*
X21651Y164484D01*
X21788Y164421D01*
X21915Y164357D01*
X22021Y164283D01*
X22105Y164209D01*
X22179Y164146D01*
X22222Y164093D01*
X22253Y164051D01*
X22264Y164040D01*
X22338Y163924D01*
X22391Y163797D01*
X22433Y163670D01*
X22454Y163554D01*
X22475Y163459D01*
X22486Y163375D01*
Y163322D01*
Y163300D01*
X22475Y163121D01*
X22443Y162952D01*
X22391Y162815D01*
X22348Y162698D01*
X22295Y162603D01*
X22243Y162529D01*
X22211Y162487D01*
X22200Y162476D01*
X22095Y162371D01*
X21968Y162286D01*
X21852Y162223D01*
X21735Y162170D01*
X21640Y162128D01*
X21556Y162106D01*
X21503Y162085D01*
X21482D01*
X21418Y162075D01*
X21344Y162064D01*
X21249D01*
X21154Y162054D01*
X20932Y162043D01*
X20700D01*
X20478Y162033D01*
X18312D01*
Y164632D01*
X20140D01*
X20362Y164621D01*
D02*
G37*
G36*
X20298Y168499D02*
X20584D01*
X20710Y168489D01*
X20890D01*
X20964Y168478D01*
X21059D01*
X21091Y168468D01*
X21123D01*
X21302Y168436D01*
X21450Y168393D01*
X21577Y168341D01*
X21683Y168277D01*
X21767Y168225D01*
X21831Y168172D01*
X21862Y168140D01*
X21873Y168129D01*
X21957Y168013D01*
X22021Y167897D01*
X22063Y167770D01*
X22095Y167654D01*
X22116Y167559D01*
X22126Y167474D01*
Y167421D01*
Y167400D01*
X22116Y167231D01*
X22084Y167083D01*
X22031Y166946D01*
X21978Y166840D01*
X21926Y166745D01*
X21873Y166682D01*
X21841Y166639D01*
X21831Y166629D01*
X21714Y166534D01*
X21588Y166460D01*
X21450Y166397D01*
X21323Y166354D01*
X21218Y166322D01*
X21123Y166301D01*
X21059Y166291D01*
X20975D01*
X20890Y166280D01*
X20795D01*
X20689Y166270D01*
X20457D01*
X20214Y166259D01*
X18312D01*
Y168510D01*
X20119D01*
X20298Y168499D01*
D02*
G37*
%LPC*%
G36*
X47998Y79137D02*
X40264D01*
Y77489D01*
X43159D01*
Y69384D01*
X45124D01*
Y77489D01*
X47998D01*
Y79137D01*
D02*
G37*
G36*
X35456Y79295D02*
X35276D01*
X34864Y79285D01*
X34685Y79264D01*
X34495Y79243D01*
X34325Y79211D01*
X34167Y79190D01*
X34030Y79158D01*
X33892Y79126D01*
X33765Y79084D01*
X33660Y79052D01*
X33575Y79031D01*
X33491Y79000D01*
X33438Y78979D01*
X33385Y78957D01*
X33364Y78947D01*
X33353D01*
X33079Y78809D01*
X32825Y78651D01*
X32624Y78492D01*
X32445Y78334D01*
X32318Y78186D01*
X32212Y78070D01*
X32181Y78028D01*
X32159Y77996D01*
X32138Y77975D01*
Y77964D01*
X32001Y77721D01*
X31895Y77478D01*
X31821Y77235D01*
X31768Y77024D01*
X31737Y76844D01*
X31726Y76760D01*
Y76696D01*
X31716Y76643D01*
Y76601D01*
Y76580D01*
Y76569D01*
X31726Y76358D01*
X31758Y76157D01*
X31800Y75957D01*
X31853Y75777D01*
X31927Y75608D01*
X32001Y75439D01*
X32085Y75291D01*
X32170Y75153D01*
X32244Y75027D01*
X32328Y74921D01*
X32402Y74826D01*
X32476Y74752D01*
X32529Y74689D01*
X32571Y74646D01*
X32603Y74615D01*
X32614Y74604D01*
X32740Y74498D01*
X32888Y74403D01*
X33057Y74308D01*
X33227Y74213D01*
X33596Y74054D01*
X33966Y73907D01*
X34135Y73854D01*
X34294Y73801D01*
X34442Y73748D01*
X34579Y73716D01*
X34685Y73685D01*
X34759Y73664D01*
X34811Y73642D01*
X34833D01*
X35055Y73590D01*
X35255Y73537D01*
X35435Y73495D01*
X35593Y73452D01*
X35741Y73410D01*
X35868Y73378D01*
X35984Y73347D01*
X36079Y73315D01*
X36164Y73294D01*
X36227Y73273D01*
X36291Y73252D01*
X36333Y73241D01*
X36365Y73230D01*
X36386D01*
X36407Y73220D01*
X36587Y73146D01*
X36735Y73082D01*
X36851Y73008D01*
X36957Y72945D01*
X37020Y72882D01*
X37073Y72839D01*
X37104Y72808D01*
X37115Y72797D01*
X37189Y72702D01*
X37242Y72607D01*
X37273Y72501D01*
X37305Y72406D01*
X37316Y72332D01*
X37326Y72269D01*
Y72216D01*
Y72205D01*
Y72110D01*
X37305Y72015D01*
X37252Y71836D01*
X37168Y71666D01*
X37083Y71529D01*
X36999Y71424D01*
X36914Y71339D01*
X36861Y71286D01*
X36851Y71265D01*
X36840D01*
X36745Y71191D01*
X36639Y71128D01*
X36407Y71033D01*
X36164Y70959D01*
X35932Y70916D01*
X35720Y70885D01*
X35636Y70874D01*
X35551D01*
X35488Y70863D01*
X35393D01*
X35076Y70885D01*
X34790Y70937D01*
X34547Y71001D01*
X34336Y71085D01*
X34251Y71128D01*
X34177Y71170D01*
X34104Y71202D01*
X34051Y71233D01*
X34009Y71265D01*
X33977Y71286D01*
X33966Y71307D01*
X33956D01*
X33860Y71402D01*
X33776Y71497D01*
X33628Y71719D01*
X33501Y71962D01*
X33406Y72195D01*
X33343Y72406D01*
X33311Y72491D01*
X33290Y72575D01*
X33279Y72639D01*
X33269Y72691D01*
X33258Y72723D01*
Y72734D01*
X31346Y72544D01*
X31388Y72248D01*
X31451Y71962D01*
X31525Y71709D01*
X31610Y71466D01*
X31705Y71244D01*
X31800Y71033D01*
X31906Y70853D01*
X32011Y70684D01*
X32106Y70536D01*
X32202Y70409D01*
X32297Y70303D01*
X32371Y70208D01*
X32434Y70145D01*
X32487Y70092D01*
X32519Y70060D01*
X32529Y70050D01*
X32730Y69902D01*
X32941Y69775D01*
X33163Y69659D01*
X33396Y69564D01*
X33628Y69479D01*
X33860Y69416D01*
X34093Y69352D01*
X34325Y69310D01*
X34537Y69278D01*
X34738Y69247D01*
X34917Y69226D01*
X35065Y69215D01*
X35192D01*
X35287Y69205D01*
X35604D01*
X35826Y69215D01*
X36048Y69236D01*
X36238Y69257D01*
X36428Y69289D01*
X36608Y69310D01*
X36766Y69342D01*
X36914Y69384D01*
X37041Y69416D01*
X37157Y69448D01*
X37263Y69469D01*
X37347Y69500D01*
X37411Y69521D01*
X37453Y69543D01*
X37485Y69553D01*
X37495D01*
X37802Y69701D01*
X38066Y69870D01*
X38288Y70060D01*
X38478Y70230D01*
X38626Y70388D01*
X38679Y70462D01*
X38732Y70525D01*
X38763Y70568D01*
X38795Y70610D01*
X38816Y70631D01*
Y70642D01*
X38901Y70779D01*
X38975Y70927D01*
X39091Y71202D01*
X39175Y71466D01*
X39228Y71709D01*
X39249Y71814D01*
X39271Y71909D01*
X39281Y72005D01*
Y72079D01*
X39292Y72131D01*
Y72184D01*
Y72205D01*
Y72216D01*
X39271Y72544D01*
X39228Y72850D01*
X39165Y73114D01*
X39133Y73230D01*
X39102Y73336D01*
X39059Y73431D01*
X39028Y73516D01*
X38996Y73590D01*
X38964Y73653D01*
X38932Y73706D01*
X38922Y73738D01*
X38901Y73759D01*
Y73769D01*
X38742Y73991D01*
X38563Y74192D01*
X38383Y74361D01*
X38214Y74509D01*
X38055Y74615D01*
X37929Y74699D01*
X37876Y74720D01*
X37844Y74741D01*
X37823Y74763D01*
X37812D01*
X37675Y74826D01*
X37527Y74900D01*
X37358Y74963D01*
X37189Y75027D01*
X36840Y75143D01*
X36492Y75248D01*
X36333Y75291D01*
X36175Y75333D01*
X36048Y75375D01*
X35921Y75407D01*
X35826Y75428D01*
X35752Y75449D01*
X35710Y75460D01*
X35689D01*
X35435Y75523D01*
X35203Y75587D01*
X34991Y75650D01*
X34801Y75713D01*
X34632Y75766D01*
X34484Y75819D01*
X34357Y75872D01*
X34251Y75914D01*
X34156Y75957D01*
X34072Y75999D01*
X34009Y76030D01*
X33966Y76062D01*
X33924Y76083D01*
X33903Y76104D01*
X33882Y76115D01*
X33787Y76210D01*
X33713Y76305D01*
X33670Y76411D01*
X33628Y76506D01*
X33607Y76580D01*
X33596Y76654D01*
Y76696D01*
Y76707D01*
X33607Y76844D01*
X33649Y76960D01*
X33691Y77066D01*
X33755Y77151D01*
X33808Y77214D01*
X33860Y77267D01*
X33892Y77298D01*
X33903Y77309D01*
X34104Y77425D01*
X34315Y77520D01*
X34547Y77584D01*
X34759Y77626D01*
X34959Y77647D01*
X35044Y77658D01*
X35118Y77668D01*
X35255D01*
X35551Y77658D01*
X35805Y77615D01*
X36016Y77563D01*
X36196Y77499D01*
X36333Y77436D01*
X36428Y77383D01*
X36481Y77341D01*
X36502Y77330D01*
X36650Y77193D01*
X36766Y77024D01*
X36861Y76844D01*
X36935Y76675D01*
X36988Y76516D01*
X37009Y76442D01*
X37030Y76379D01*
X37041Y76337D01*
Y76295D01*
X37052Y76273D01*
Y76263D01*
X39017Y76337D01*
X38996Y76580D01*
X38964Y76812D01*
X38911Y77034D01*
X38837Y77235D01*
X38763Y77425D01*
X38679Y77605D01*
X38594Y77763D01*
X38510Y77911D01*
X38415Y78038D01*
X38330Y78154D01*
X38256Y78260D01*
X38182Y78334D01*
X38119Y78397D01*
X38077Y78450D01*
X38045Y78471D01*
X38034Y78482D01*
X37855Y78630D01*
X37654Y78746D01*
X37432Y78862D01*
X37210Y78957D01*
X36988Y79031D01*
X36756Y79095D01*
X36523Y79148D01*
X36312Y79190D01*
X36101Y79232D01*
X35900Y79253D01*
X35731Y79274D01*
X35572Y79285D01*
X35456Y79295D01*
D02*
G37*
G36*
X26422Y79137D02*
X22026D01*
Y69384D01*
X23991D01*
Y73452D01*
X24625D01*
X24826Y73431D01*
X24995Y73421D01*
X25133Y73399D01*
X25238Y73378D01*
X25312Y73357D01*
X25365Y73347D01*
X25376Y73336D01*
X25492Y73294D01*
X25598Y73230D01*
X25703Y73167D01*
X25788Y73093D01*
X25862Y73030D01*
X25925Y72987D01*
X25957Y72945D01*
X25967Y72934D01*
X26031Y72871D01*
X26094Y72786D01*
X26168Y72691D01*
X26253Y72586D01*
X26422Y72353D01*
X26601Y72110D01*
X26760Y71878D01*
X26834Y71783D01*
X26887Y71688D01*
X26939Y71614D01*
X26982Y71561D01*
X27003Y71519D01*
X27013Y71508D01*
X28440Y69384D01*
X30796D01*
X29602Y71276D01*
X29476Y71487D01*
X29349Y71666D01*
X29232Y71846D01*
X29127Y72005D01*
X29032Y72153D01*
X28937Y72279D01*
X28852Y72396D01*
X28778Y72501D01*
X28715Y72586D01*
X28651Y72660D01*
X28598Y72723D01*
X28556Y72776D01*
X28524Y72808D01*
X28503Y72839D01*
X28482Y72860D01*
X28324Y73019D01*
X28144Y73177D01*
X27964Y73315D01*
X27795Y73431D01*
X27648Y73537D01*
X27531Y73611D01*
X27489Y73642D01*
X27457Y73653D01*
X27436Y73674D01*
X27426D01*
X27658Y73716D01*
X27880Y73769D01*
X28081Y73833D01*
X28271Y73896D01*
X28451Y73970D01*
X28609Y74044D01*
X28746Y74118D01*
X28873Y74202D01*
X28989Y74276D01*
X29084Y74350D01*
X29169Y74414D01*
X29243Y74467D01*
X29296Y74519D01*
X29328Y74551D01*
X29349Y74572D01*
X29359Y74583D01*
X29476Y74720D01*
X29571Y74868D01*
X29655Y75016D01*
X29729Y75175D01*
X29792Y75322D01*
X29845Y75470D01*
X29919Y75766D01*
X29951Y75893D01*
X29972Y76020D01*
X29983Y76125D01*
X29993Y76221D01*
X30004Y76295D01*
Y76347D01*
Y76390D01*
Y76400D01*
X29983Y76717D01*
X29940Y77003D01*
X29866Y77267D01*
X29792Y77489D01*
X29750Y77584D01*
X29708Y77679D01*
X29676Y77753D01*
X29634Y77816D01*
X29613Y77869D01*
X29592Y77901D01*
X29571Y77922D01*
Y77932D01*
X29402Y78165D01*
X29211Y78366D01*
X29032Y78524D01*
X28852Y78661D01*
X28683Y78757D01*
X28620Y78788D01*
X28556Y78820D01*
X28503Y78841D01*
X28472Y78862D01*
X28451Y78873D01*
X28440D01*
X28303Y78915D01*
X28144Y78957D01*
X27964Y79000D01*
X27785Y79021D01*
X27415Y79074D01*
X27035Y79105D01*
X26866Y79116D01*
X26697Y79126D01*
X26549D01*
X26422Y79137D01*
D02*
G37*
%LPD*%
G36*
X26253Y77478D02*
X26506D01*
X26612Y77467D01*
X26771D01*
X26823Y77457D01*
X26908D01*
X26950Y77446D01*
X26961D01*
X27130Y77404D01*
X27288Y77351D01*
X27415Y77298D01*
X27521Y77224D01*
X27605Y77172D01*
X27658Y77119D01*
X27700Y77077D01*
X27711Y77066D01*
X27795Y76939D01*
X27859Y76812D01*
X27912Y76686D01*
X27943Y76559D01*
X27964Y76442D01*
X27975Y76358D01*
Y76295D01*
Y76284D01*
Y76273D01*
X27964Y76115D01*
X27943Y75967D01*
X27912Y75840D01*
X27880Y75735D01*
X27838Y75650D01*
X27806Y75587D01*
X27785Y75544D01*
X27774Y75534D01*
X27690Y75428D01*
X27605Y75344D01*
X27510Y75270D01*
X27415Y75217D01*
X27341Y75175D01*
X27278Y75143D01*
X27235Y75132D01*
X27214Y75122D01*
X27140Y75101D01*
X27035Y75079D01*
X26918Y75069D01*
X26792Y75058D01*
X26506Y75037D01*
X26200Y75016D01*
X25915D01*
X25788Y75005D01*
X23991D01*
Y77489D01*
X26105D01*
X26253Y77478D01*
D02*
G37*
%LPC*%
G36*
X25534Y336296D02*
X25354D01*
X24942Y336285D01*
X24763Y336264D01*
X24572Y336243D01*
X24403Y336211D01*
X24245Y336190D01*
X24107Y336158D01*
X23970Y336126D01*
X23843Y336084D01*
X23738Y336052D01*
X23653Y336031D01*
X23569Y336000D01*
X23516Y335979D01*
X23463Y335957D01*
X23442Y335947D01*
X23431D01*
X23156Y335809D01*
X22903Y335651D01*
X22702Y335492D01*
X22523Y335334D01*
X22396Y335186D01*
X22290Y335070D01*
X22258Y335028D01*
X22237Y334996D01*
X22216Y334975D01*
Y334964D01*
X22079Y334721D01*
X21973Y334478D01*
X21899Y334235D01*
X21846Y334024D01*
X21815Y333844D01*
X21804Y333759D01*
Y333696D01*
X21793Y333643D01*
Y333601D01*
Y333580D01*
Y333569D01*
X21804Y333358D01*
X21836Y333157D01*
X21878Y332957D01*
X21931Y332777D01*
X22005Y332608D01*
X22079Y332439D01*
X22163Y332291D01*
X22248Y332153D01*
X22322Y332027D01*
X22406Y331921D01*
X22480Y331826D01*
X22554Y331752D01*
X22607Y331688D01*
X22649Y331646D01*
X22681Y331615D01*
X22692Y331604D01*
X22818Y331498D01*
X22966Y331403D01*
X23135Y331308D01*
X23305Y331213D01*
X23674Y331054D01*
X24044Y330907D01*
X24213Y330854D01*
X24372Y330801D01*
X24520Y330748D01*
X24657Y330716D01*
X24763Y330685D01*
X24837Y330664D01*
X24889Y330642D01*
X24911D01*
X25133Y330590D01*
X25333Y330537D01*
X25513Y330494D01*
X25671Y330452D01*
X25819Y330410D01*
X25946Y330378D01*
X26062Y330347D01*
X26157Y330315D01*
X26242Y330294D01*
X26305Y330273D01*
X26369Y330252D01*
X26411Y330241D01*
X26443Y330230D01*
X26464D01*
X26485Y330220D01*
X26665Y330146D01*
X26813Y330082D01*
X26929Y330009D01*
X27034Y329945D01*
X27098Y329882D01*
X27151Y329839D01*
X27182Y329808D01*
X27193Y329797D01*
X27267Y329702D01*
X27320Y329607D01*
X27351Y329501D01*
X27383Y329406D01*
X27394Y329332D01*
X27404Y329269D01*
Y329216D01*
Y329205D01*
Y329110D01*
X27383Y329015D01*
X27330Y328836D01*
X27246Y328666D01*
X27161Y328529D01*
X27077Y328424D01*
X26992Y328339D01*
X26939Y328286D01*
X26929Y328265D01*
X26918D01*
X26823Y328191D01*
X26717Y328128D01*
X26485Y328032D01*
X26242Y327959D01*
X26010Y327916D01*
X25798Y327885D01*
X25714Y327874D01*
X25629D01*
X25566Y327864D01*
X25471D01*
X25154Y327885D01*
X24868Y327937D01*
X24625Y328001D01*
X24414Y328085D01*
X24329Y328128D01*
X24255Y328170D01*
X24181Y328202D01*
X24129Y328233D01*
X24086Y328265D01*
X24055Y328286D01*
X24044Y328307D01*
X24034D01*
X23939Y328402D01*
X23854Y328498D01*
X23706Y328719D01*
X23579Y328962D01*
X23484Y329195D01*
X23421Y329406D01*
X23389Y329491D01*
X23368Y329575D01*
X23357Y329639D01*
X23347Y329692D01*
X23336Y329723D01*
Y329734D01*
X21424Y329543D01*
X21466Y329248D01*
X21529Y328962D01*
X21603Y328709D01*
X21688Y328466D01*
X21783Y328244D01*
X21878Y328032D01*
X21984Y327853D01*
X22089Y327684D01*
X22184Y327536D01*
X22280Y327409D01*
X22375Y327304D01*
X22449Y327208D01*
X22512Y327145D01*
X22565Y327092D01*
X22596Y327060D01*
X22607Y327050D01*
X22808Y326902D01*
X23019Y326775D01*
X23241Y326659D01*
X23473Y326564D01*
X23706Y326479D01*
X23939Y326416D01*
X24171Y326353D01*
X24403Y326310D01*
X24615Y326278D01*
X24815Y326247D01*
X24995Y326226D01*
X25143Y326215D01*
X25270D01*
X25365Y326205D01*
X25682D01*
X25904Y326215D01*
X26126Y326236D01*
X26316Y326257D01*
X26506Y326289D01*
X26686Y326310D01*
X26844Y326342D01*
X26992Y326384D01*
X27119Y326416D01*
X27235Y326448D01*
X27341Y326469D01*
X27425Y326500D01*
X27489Y326521D01*
X27531Y326543D01*
X27563Y326553D01*
X27573D01*
X27880Y326701D01*
X28144Y326870D01*
X28366Y327060D01*
X28556Y327229D01*
X28704Y327388D01*
X28757Y327462D01*
X28810Y327525D01*
X28841Y327568D01*
X28873Y327610D01*
X28894Y327631D01*
Y327642D01*
X28979Y327779D01*
X29053Y327927D01*
X29169Y328202D01*
X29253Y328466D01*
X29306Y328709D01*
X29327Y328815D01*
X29348Y328910D01*
X29359Y329005D01*
Y329079D01*
X29370Y329131D01*
Y329184D01*
Y329205D01*
Y329216D01*
X29348Y329543D01*
X29306Y329850D01*
X29243Y330114D01*
X29211Y330230D01*
X29179Y330336D01*
X29137Y330431D01*
X29105Y330516D01*
X29074Y330590D01*
X29042Y330653D01*
X29010Y330706D01*
X29000Y330737D01*
X28979Y330759D01*
Y330769D01*
X28820Y330991D01*
X28640Y331192D01*
X28461Y331361D01*
X28292Y331509D01*
X28133Y331615D01*
X28006Y331699D01*
X27954Y331720D01*
X27922Y331741D01*
X27901Y331763D01*
X27890D01*
X27753Y331826D01*
X27605Y331900D01*
X27436Y331963D01*
X27267Y332027D01*
X26918Y332143D01*
X26569Y332248D01*
X26411Y332291D01*
X26253Y332333D01*
X26126Y332375D01*
X25999Y332407D01*
X25904Y332428D01*
X25830Y332449D01*
X25788Y332460D01*
X25766D01*
X25513Y332523D01*
X25280Y332587D01*
X25069Y332650D01*
X24879Y332714D01*
X24710Y332766D01*
X24562Y332819D01*
X24435Y332872D01*
X24329Y332914D01*
X24234Y332957D01*
X24150Y332999D01*
X24086Y333030D01*
X24044Y333062D01*
X24002Y333083D01*
X23981Y333104D01*
X23960Y333115D01*
X23865Y333210D01*
X23791Y333305D01*
X23748Y333411D01*
X23706Y333506D01*
X23685Y333580D01*
X23674Y333654D01*
Y333696D01*
Y333707D01*
X23685Y333844D01*
X23727Y333960D01*
X23769Y334066D01*
X23833Y334151D01*
X23886Y334214D01*
X23939Y334267D01*
X23970Y334298D01*
X23981Y334309D01*
X24181Y334425D01*
X24393Y334520D01*
X24625Y334584D01*
X24837Y334626D01*
X25037Y334647D01*
X25122Y334658D01*
X25196Y334668D01*
X25333D01*
X25629Y334658D01*
X25883Y334615D01*
X26094Y334563D01*
X26274Y334499D01*
X26411Y334436D01*
X26506Y334383D01*
X26559Y334341D01*
X26580Y334330D01*
X26728Y334193D01*
X26844Y334024D01*
X26939Y333844D01*
X27013Y333675D01*
X27066Y333517D01*
X27087Y333442D01*
X27108Y333379D01*
X27119Y333337D01*
Y333295D01*
X27129Y333274D01*
Y333263D01*
X29095Y333337D01*
X29074Y333580D01*
X29042Y333812D01*
X28989Y334034D01*
X28915Y334235D01*
X28841Y334425D01*
X28757Y334605D01*
X28672Y334763D01*
X28588Y334911D01*
X28493Y335038D01*
X28408Y335154D01*
X28334Y335260D01*
X28260Y335334D01*
X28197Y335397D01*
X28154Y335450D01*
X28123Y335471D01*
X28112Y335482D01*
X27933Y335630D01*
X27732Y335746D01*
X27510Y335862D01*
X27288Y335957D01*
X27066Y336031D01*
X26834Y336095D01*
X26601Y336147D01*
X26390Y336190D01*
X26179Y336232D01*
X25978Y336253D01*
X25809Y336274D01*
X25650Y336285D01*
X25534Y336296D01*
D02*
G37*
G36*
X38076Y336137D02*
X30342D01*
Y334489D01*
X33237D01*
Y326384D01*
X35202D01*
Y334489D01*
X38076D01*
Y336137D01*
D02*
G37*
G36*
X284041Y225952D02*
X283586D01*
X283343Y225942D01*
X283121Y225921D01*
X282899Y225900D01*
X282699Y225878D01*
X282509Y225847D01*
X282329Y225815D01*
X282170Y225794D01*
X282033Y225762D01*
X281906Y225730D01*
X281790Y225699D01*
X281705Y225678D01*
X281632Y225657D01*
X281579Y225635D01*
X281547Y225625D01*
X281536D01*
X281198Y225498D01*
X280892Y225350D01*
X280617Y225192D01*
X280501Y225118D01*
X280395Y225044D01*
X280289Y224970D01*
X280205Y224906D01*
X280131Y224843D01*
X280068Y224801D01*
X280015Y224758D01*
X279983Y224727D01*
X279962Y224706D01*
X279951Y224695D01*
X279729Y224452D01*
X279539Y224209D01*
X279381Y223966D01*
X279265Y223734D01*
X279170Y223533D01*
X279127Y223448D01*
X279106Y223374D01*
X279085Y223311D01*
X279064Y223269D01*
X279053Y223237D01*
Y223226D01*
X279022Y223099D01*
X278990Y222962D01*
X278948Y222666D01*
X278905Y222360D01*
X278884Y222064D01*
X278874Y221927D01*
Y221800D01*
Y221684D01*
X278863Y221578D01*
Y221493D01*
Y221430D01*
Y221388D01*
Y221377D01*
Y217785D01*
X288616D01*
Y221483D01*
Y221684D01*
X288605Y221874D01*
X288595Y222053D01*
X288584Y222212D01*
X288574Y222370D01*
X288552Y222518D01*
X288531Y222645D01*
X288510Y222761D01*
X288500Y222867D01*
X288479Y222962D01*
X288457Y223047D01*
X288447Y223110D01*
X288436Y223163D01*
X288426Y223195D01*
X288415Y223216D01*
Y223226D01*
X288299Y223533D01*
X288172Y223807D01*
X288045Y224040D01*
X287918Y224241D01*
X287866Y224325D01*
X287813Y224399D01*
X287760Y224452D01*
X287718Y224505D01*
X287686Y224547D01*
X287654Y224579D01*
X287644Y224589D01*
X287633Y224600D01*
X287369Y224843D01*
X287084Y225054D01*
X286798Y225234D01*
X286524Y225382D01*
X286397Y225445D01*
X286281Y225498D01*
X286175Y225540D01*
X286091Y225583D01*
X286017Y225604D01*
X285953Y225625D01*
X285921Y225646D01*
X285911D01*
X285573Y225752D01*
X285224Y225826D01*
X284875Y225878D01*
X284548Y225910D01*
X284400Y225931D01*
X284263Y225942D01*
X284146D01*
X284041Y225952D01*
D02*
G37*
G36*
X285911Y235790D02*
X285636D01*
X285488Y235769D01*
X285203Y235716D01*
X284960Y235631D01*
X284738Y235547D01*
X284653Y235504D01*
X284569Y235462D01*
X284495Y235420D01*
X284432Y235378D01*
X284389Y235346D01*
X284358Y235325D01*
X284336Y235314D01*
X284326Y235304D01*
X284104Y235114D01*
X283924Y234892D01*
X283766Y234659D01*
X283650Y234448D01*
X283555Y234247D01*
X283523Y234163D01*
X283491Y234088D01*
X283470Y234025D01*
X283449Y233983D01*
X283438Y233951D01*
Y233941D01*
X283322Y234163D01*
X283185Y234363D01*
X283037Y234532D01*
X282899Y234680D01*
X282773Y234797D01*
X282677Y234881D01*
X282635Y234902D01*
X282604Y234923D01*
X282593Y234944D01*
X282582D01*
X282360Y235071D01*
X282149Y235156D01*
X281938Y235219D01*
X281737Y235272D01*
X281568Y235293D01*
X281505Y235304D01*
X281441D01*
X281388Y235314D01*
X281325D01*
X281093Y235304D01*
X280881Y235272D01*
X280681Y235219D01*
X280511Y235166D01*
X280374Y235103D01*
X280268Y235061D01*
X280237Y235040D01*
X280205Y235018D01*
X280194Y235008D01*
X280184D01*
X280004Y234892D01*
X279846Y234765D01*
X279708Y234638D01*
X279582Y234522D01*
X279497Y234416D01*
X279423Y234332D01*
X279381Y234279D01*
X279370Y234268D01*
Y234258D01*
X279265Y234088D01*
X279180Y233909D01*
X279106Y233740D01*
X279053Y233581D01*
X279011Y233444D01*
X278990Y233338D01*
X278979Y233296D01*
X278969Y233264D01*
Y233254D01*
Y233243D01*
X278948Y233127D01*
X278937Y233011D01*
X278905Y232736D01*
X278884Y232451D01*
X278874Y232165D01*
Y232039D01*
X278863Y231912D01*
Y231806D01*
Y231711D01*
Y231627D01*
Y231574D01*
Y231532D01*
Y231521D01*
Y227622D01*
X288616D01*
Y230940D01*
Y231278D01*
X288605Y231584D01*
Y231859D01*
Y232102D01*
X288595Y232324D01*
Y232514D01*
X288584Y232683D01*
Y232831D01*
X288574Y232947D01*
Y233053D01*
X288563Y233138D01*
Y233201D01*
X288552Y233254D01*
Y233286D01*
Y233296D01*
Y233307D01*
X288510Y233592D01*
X288447Y233846D01*
X288373Y234078D01*
X288288Y234268D01*
X288214Y234416D01*
X288183Y234480D01*
X288162Y234532D01*
X288130Y234575D01*
X288109Y234606D01*
X288098Y234617D01*
Y234627D01*
X287950Y234818D01*
X287781Y234987D01*
X287612Y235135D01*
X287454Y235251D01*
X287316Y235346D01*
X287200Y235420D01*
X287158Y235441D01*
X287126Y235462D01*
X287105Y235473D01*
X287094D01*
X286851Y235578D01*
X286619Y235652D01*
X286408Y235716D01*
X286207Y235748D01*
X286038Y235769D01*
X285964Y235779D01*
X285911Y235790D01*
D02*
G37*
G36*
X287295Y246240D02*
X283396D01*
Y242003D01*
X285044D01*
Y244253D01*
X286291D01*
X286418Y244074D01*
X286524Y243894D01*
X286619Y243715D01*
X286703Y243545D01*
X286777Y243398D01*
X286830Y243281D01*
X286851Y243239D01*
X286862Y243207D01*
X286872Y243186D01*
Y243176D01*
X286957Y242943D01*
X287010Y242721D01*
X287052Y242521D01*
X287084Y242330D01*
X287105Y242172D01*
Y242098D01*
X287115Y242045D01*
Y242003D01*
Y241971D01*
Y241950D01*
Y241939D01*
X287105Y241707D01*
X287073Y241496D01*
X287031Y241295D01*
X286978Y241094D01*
X286915Y240914D01*
X286841Y240756D01*
X286767Y240597D01*
X286682Y240460D01*
X286598Y240344D01*
X286524Y240228D01*
X286450Y240143D01*
X286386Y240058D01*
X286334Y240006D01*
X286281Y239953D01*
X286259Y239932D01*
X286249Y239921D01*
X286080Y239784D01*
X285890Y239668D01*
X285689Y239562D01*
X285478Y239477D01*
X285256Y239403D01*
X285044Y239340D01*
X284823Y239287D01*
X284622Y239245D01*
X284421Y239213D01*
X284231Y239192D01*
X284072Y239171D01*
X283924Y239160D01*
X283808D01*
X283713Y239150D01*
X283639D01*
X283343Y239160D01*
X283069Y239181D01*
X282815Y239224D01*
X282582Y239266D01*
X282360Y239329D01*
X282160Y239393D01*
X281980Y239456D01*
X281822Y239530D01*
X281674Y239604D01*
X281558Y239668D01*
X281452Y239731D01*
X281367Y239794D01*
X281293Y239837D01*
X281251Y239879D01*
X281219Y239900D01*
X281209Y239911D01*
X281061Y240058D01*
X280934Y240217D01*
X280828Y240386D01*
X280733Y240555D01*
X280649Y240724D01*
X280585Y240893D01*
X280533Y241062D01*
X280490Y241221D01*
X280459Y241369D01*
X280427Y241517D01*
X280406Y241644D01*
X280395Y241749D01*
X280385Y241834D01*
Y241908D01*
Y241950D01*
Y241961D01*
X280406Y242267D01*
X280448Y242542D01*
X280522Y242785D01*
X280596Y242985D01*
X280638Y243070D01*
X280670Y243155D01*
X280712Y243218D01*
X280744Y243271D01*
X280765Y243324D01*
X280786Y243355D01*
X280807Y243366D01*
Y243376D01*
X280976Y243577D01*
X281156Y243736D01*
X281346Y243873D01*
X281526Y243979D01*
X281684Y244063D01*
X281758Y244095D01*
X281822Y244116D01*
X281864Y244137D01*
X281906Y244148D01*
X281927Y244158D01*
X281938D01*
X281568Y246113D01*
X281325Y246050D01*
X281093Y245976D01*
X280871Y245881D01*
X280670Y245786D01*
X280490Y245680D01*
X280311Y245564D01*
X280152Y245458D01*
X280015Y245342D01*
X279888Y245236D01*
X279772Y245130D01*
X279687Y245035D01*
X279603Y244961D01*
X279539Y244887D01*
X279497Y244835D01*
X279476Y244803D01*
X279465Y244792D01*
X279328Y244592D01*
X279212Y244380D01*
X279117Y244158D01*
X279022Y243926D01*
X278948Y243683D01*
X278895Y243450D01*
X278842Y243218D01*
X278800Y242996D01*
X278768Y242785D01*
X278747Y242595D01*
X278726Y242415D01*
X278715Y242256D01*
X278705Y242140D01*
Y242045D01*
Y241982D01*
Y241971D01*
Y241961D01*
Y241707D01*
X278726Y241464D01*
X278747Y241231D01*
X278778Y241010D01*
X278821Y240798D01*
X278863Y240608D01*
X278905Y240428D01*
X278948Y240270D01*
X278990Y240122D01*
X279032Y239995D01*
X279074Y239890D01*
X279117Y239794D01*
X279148Y239720D01*
X279170Y239668D01*
X279180Y239636D01*
X279191Y239625D01*
X279317Y239403D01*
X279455Y239192D01*
X279592Y238991D01*
X279740Y238812D01*
X279899Y238643D01*
X280047Y238495D01*
X280194Y238347D01*
X280342Y238231D01*
X280480Y238114D01*
X280606Y238019D01*
X280723Y237945D01*
X280818Y237871D01*
X280902Y237819D01*
X280966Y237787D01*
X281008Y237766D01*
X281019Y237755D01*
X281241Y237639D01*
X281473Y237544D01*
X281705Y237459D01*
X281938Y237385D01*
X282170Y237332D01*
X282392Y237280D01*
X282614Y237237D01*
X282815Y237206D01*
X283005Y237174D01*
X283174Y237153D01*
X283333Y237142D01*
X283470Y237132D01*
X283576Y237121D01*
X283724D01*
X283988Y237132D01*
X284241Y237142D01*
X284484Y237174D01*
X284727Y237206D01*
X284949Y237258D01*
X285161Y237301D01*
X285361Y237354D01*
X285552Y237406D01*
X285721Y237459D01*
X285869Y237512D01*
X286006Y237565D01*
X286112Y237607D01*
X286207Y237639D01*
X286270Y237670D01*
X286312Y237681D01*
X286323Y237692D01*
X286545Y237808D01*
X286746Y237924D01*
X286936Y238062D01*
X287115Y238199D01*
X287274Y238336D01*
X287432Y238484D01*
X287570Y238622D01*
X287686Y238759D01*
X287802Y238886D01*
X287897Y239002D01*
X287971Y239118D01*
X288045Y239203D01*
X288098Y239287D01*
X288130Y239340D01*
X288151Y239382D01*
X288162Y239393D01*
X288278Y239615D01*
X288373Y239837D01*
X288457Y240058D01*
X288531Y240291D01*
X288584Y240523D01*
X288637Y240745D01*
X288679Y240957D01*
X288711Y241157D01*
X288743Y241348D01*
X288764Y241517D01*
X288774Y241675D01*
X288785Y241813D01*
X288796Y241918D01*
Y242003D01*
Y242045D01*
Y242066D01*
X288785Y242288D01*
X288774Y242510D01*
X288722Y242943D01*
X288690Y243155D01*
X288648Y243345D01*
X288605Y243535D01*
X288563Y243704D01*
X288521Y243862D01*
X288489Y244010D01*
X288447Y244137D01*
X288415Y244243D01*
X288383Y244327D01*
X288362Y244391D01*
X288341Y244433D01*
Y244444D01*
X288257Y244655D01*
X288162Y244856D01*
X288077Y245046D01*
X287982Y245215D01*
X287897Y245384D01*
X287813Y245532D01*
X287728Y245659D01*
X287644Y245786D01*
X287570Y245891D01*
X287506Y245986D01*
X287443Y246060D01*
X287390Y246124D01*
X287348Y246176D01*
X287316Y246208D01*
X287306Y246229D01*
X287295Y246240D01*
D02*
G37*
%LPD*%
G36*
X284146Y223913D02*
X284326Y223902D01*
X284506Y223892D01*
X284664Y223881D01*
X284801Y223860D01*
X284939Y223839D01*
X285065Y223829D01*
X285171Y223807D01*
X285266Y223786D01*
X285340Y223765D01*
X285414Y223755D01*
X285467Y223744D01*
X285499Y223734D01*
X285520Y223723D01*
X285530D01*
X285763Y223638D01*
X285953Y223554D01*
X286112Y223469D01*
X286249Y223385D01*
X286344Y223321D01*
X286418Y223258D01*
X286460Y223216D01*
X286471Y223205D01*
X286566Y223078D01*
X286651Y222952D01*
X286724Y222814D01*
X286788Y222687D01*
X286830Y222582D01*
X286862Y222497D01*
X286872Y222434D01*
X286883Y222423D01*
Y222413D01*
X286894Y222339D01*
X286915Y222254D01*
X286936Y222075D01*
X286946Y221874D01*
X286957Y221673D01*
X286968Y221504D01*
Y221419D01*
Y221356D01*
Y221293D01*
Y221250D01*
Y221229D01*
Y221219D01*
Y219750D01*
X280511D01*
Y220627D01*
Y220849D01*
Y221039D01*
X280522Y221219D01*
Y221388D01*
X280533Y221536D01*
X280543Y221673D01*
X280554Y221789D01*
Y221884D01*
X280564Y221979D01*
X280575Y222053D01*
X280585Y222117D01*
X280596Y222159D01*
Y222201D01*
X280606Y222222D01*
Y222244D01*
X280659Y222444D01*
X280733Y222624D01*
X280807Y222782D01*
X280881Y222909D01*
X280955Y223015D01*
X281019Y223099D01*
X281061Y223142D01*
X281071Y223163D01*
X281209Y223290D01*
X281357Y223406D01*
X281515Y223501D01*
X281663Y223575D01*
X281800Y223638D01*
X281917Y223691D01*
X281949Y223702D01*
X281980Y223712D01*
X282001Y223723D01*
X282012D01*
X282128Y223755D01*
X282255Y223786D01*
X282540Y223839D01*
X282826Y223871D01*
X283100Y223902D01*
X283238D01*
X283354Y223913D01*
X283459D01*
X283555Y223924D01*
X283946D01*
X284146Y223913D01*
D02*
G37*
G36*
X281769Y233391D02*
X281917Y233360D01*
X282054Y233307D01*
X282160Y233254D01*
X282255Y233201D01*
X282318Y233148D01*
X282360Y233116D01*
X282371Y233106D01*
X282466Y232990D01*
X282540Y232863D01*
X282604Y232726D01*
X282646Y232599D01*
X282677Y232493D01*
X282699Y232398D01*
X282709Y232334D01*
Y232324D01*
Y232313D01*
Y232250D01*
X282720Y232165D01*
Y232070D01*
X282730Y231965D01*
Y231732D01*
X282741Y231489D01*
Y231257D01*
Y231151D01*
Y231056D01*
Y230982D01*
Y230929D01*
Y230887D01*
Y230876D01*
Y229587D01*
X280490D01*
Y230718D01*
Y230971D01*
Y231193D01*
Y231394D01*
X280501Y231574D01*
Y231722D01*
Y231859D01*
X280511Y231986D01*
Y232081D01*
Y232165D01*
X280522Y232239D01*
Y232292D01*
Y232334D01*
X280533Y232366D01*
Y232387D01*
Y232398D01*
X280564Y232577D01*
X280606Y232726D01*
X280659Y232852D01*
X280723Y232958D01*
X280776Y233043D01*
X280828Y233106D01*
X280860Y233138D01*
X280871Y233148D01*
X280987Y233233D01*
X281103Y233296D01*
X281230Y233338D01*
X281346Y233370D01*
X281441Y233391D01*
X281526Y233402D01*
X281600D01*
X281769Y233391D01*
D02*
G37*
G36*
X285879Y233750D02*
X286048Y233719D01*
X286186Y233666D01*
X286302Y233624D01*
X286397Y233571D01*
X286471Y233518D01*
X286513Y233486D01*
X286524Y233476D01*
X286629Y233370D01*
X286714Y233243D01*
X286777Y233127D01*
X286830Y233011D01*
X286872Y232916D01*
X286894Y232831D01*
X286915Y232778D01*
Y232757D01*
X286925Y232694D01*
X286936Y232620D01*
Y232525D01*
X286946Y232430D01*
X286957Y232208D01*
Y231975D01*
X286968Y231753D01*
Y231658D01*
Y231574D01*
Y231510D01*
Y231447D01*
Y231415D01*
Y231405D01*
Y229587D01*
X284368D01*
Y231172D01*
Y231415D01*
X284379Y231637D01*
Y231838D01*
X284389Y232017D01*
X284400Y232176D01*
X284410Y232324D01*
X284432Y232451D01*
X284442Y232556D01*
X284453Y232652D01*
X284474Y232726D01*
X284484Y232789D01*
X284495Y232842D01*
X284506Y232884D01*
Y232905D01*
X284516Y232926D01*
X284580Y233064D01*
X284643Y233190D01*
X284717Y233296D01*
X284791Y233381D01*
X284854Y233454D01*
X284907Y233497D01*
X284949Y233528D01*
X284960Y233539D01*
X285076Y233613D01*
X285203Y233666D01*
X285330Y233708D01*
X285446Y233729D01*
X285541Y233750D01*
X285626Y233761D01*
X285700D01*
X285879Y233750D01*
D02*
G37*
%LPC*%
G36*
X49630Y278873D02*
X49567D01*
X49515Y278863D01*
X49463D01*
X49390Y278853D01*
X49234Y278811D01*
X49057Y278748D01*
X48870Y278665D01*
X48692Y278540D01*
X48599Y278457D01*
X48515Y278374D01*
X48505Y278363D01*
X48495Y278353D01*
X48474Y278321D01*
X48443Y278280D01*
X48411Y278228D01*
X48370Y278155D01*
X48328Y278082D01*
X48286Y277988D01*
X48245Y277884D01*
X48213Y277770D01*
X48172Y277645D01*
X48141Y277509D01*
X48109Y277353D01*
X48088Y277186D01*
X48068Y277009D01*
Y276811D01*
Y273771D01*
X51244D01*
Y276499D01*
Y276509D01*
Y276541D01*
Y276582D01*
Y276645D01*
X51234Y276718D01*
Y276801D01*
X51223Y276999D01*
X51202Y277218D01*
X51171Y277447D01*
X51129Y277665D01*
X51067Y277863D01*
Y277874D01*
X51056Y277884D01*
X51036Y277946D01*
X50994Y278030D01*
X50932Y278144D01*
X50848Y278259D01*
X50754Y278384D01*
X50630Y278509D01*
X50494Y278613D01*
X50473Y278623D01*
X50421Y278655D01*
X50348Y278696D01*
X50234Y278748D01*
X50109Y278790D01*
X49963Y278832D01*
X49796Y278863D01*
X49630Y278873D01*
D02*
G37*
%LPD*%
D26*
X265240Y15010D02*
Y45490D01*
X55250Y15010D02*
X265240D01*
X55250D02*
Y45490D01*
X265240D01*
X318950Y306850D02*
Y332250D01*
X293550Y306850D02*
X318950D01*
X293550Y332250D02*
X318950D01*
X312600Y306850D02*
X318950Y300500D01*
Y287800D02*
Y300500D01*
X312600Y281450D02*
X318950Y287800D01*
X299900Y281450D02*
X312600D01*
X293550Y287800D02*
X299900Y281450D01*
X293550Y287800D02*
Y300500D01*
X299900Y306850D01*
X293550D02*
Y332250D01*
Y275100D02*
X299900Y281450D01*
X293550Y262400D02*
Y275100D01*
Y262400D02*
X299900Y256050D01*
X312600D01*
X318950Y262400D01*
Y275100D01*
X312600Y281450D02*
X318950Y275100D01*
X293550Y249700D02*
X299900Y256050D01*
X293550Y237000D02*
Y249700D01*
Y237000D02*
X299900Y230650D01*
X312600D01*
X318950Y237000D01*
Y249700D01*
X312600Y256050D02*
X318950Y249700D01*
X293550Y224300D02*
X299900Y230650D01*
X293550Y211600D02*
Y224300D01*
Y211600D02*
X299900Y205250D01*
X312600D01*
X318950Y211600D01*
Y224300D01*
X312600Y230650D02*
X318950Y224300D01*
X299763Y16353D02*
X300489Y14177D01*
X302666Y12726D01*
X306293Y12000D01*
X308470D01*
X312098Y12726D01*
X314275Y14177D01*
X315000Y16353D01*
Y17804D01*
X314275Y19981D01*
X312098Y21432D01*
X308470Y22158D01*
X306293D01*
X302666Y21432D01*
X300489Y19981D01*
X299763Y17804D01*
Y16353D01*
X302666Y25568D02*
X301940Y27019D01*
X299763Y29196D01*
X315000D01*
X303391Y37467D02*
X302666D01*
X301214Y38193D01*
X300489Y38918D01*
X299763Y40369D01*
Y43272D01*
X300489Y44723D01*
X301214Y45448D01*
X302666Y46174D01*
X304117D01*
X305568Y45448D01*
X307744Y43997D01*
X315000Y36742D01*
Y46899D01*
X299763Y54663D02*
X300489Y52486D01*
X302666Y51035D01*
X306293Y50310D01*
X308470D01*
X312098Y51035D01*
X314275Y52486D01*
X315000Y54663D01*
Y56114D01*
X314275Y58291D01*
X312098Y59742D01*
X308470Y60467D01*
X306293D01*
X302666Y59742D01*
X300489Y58291D01*
X299763Y56114D01*
Y54663D01*
X313549Y64603D02*
X314275Y63877D01*
X315000Y64603D01*
X314275Y65329D01*
X313549Y64603D01*
X299763Y73019D02*
X300489Y70843D01*
X302666Y69392D01*
X306293Y68666D01*
X308470D01*
X312098Y69392D01*
X314275Y70843D01*
X315000Y73019D01*
Y74471D01*
X314275Y76647D01*
X312098Y78098D01*
X308470Y78824D01*
X306293D01*
X302666Y78098D01*
X300489Y76647D01*
X299763Y74471D01*
Y73019D01*
Y86587D02*
X300489Y84411D01*
X302666Y82960D01*
X306293Y82234D01*
X308470D01*
X312098Y82960D01*
X314275Y84411D01*
X315000Y86587D01*
Y88039D01*
X314275Y90215D01*
X312098Y91666D01*
X308470Y92392D01*
X306293D01*
X302666Y91666D01*
X300489Y90215D01*
X299763Y88039D01*
Y86587D01*
X303391Y96528D02*
X302666D01*
X301214Y97253D01*
X300489Y97979D01*
X299763Y99430D01*
Y102332D01*
X300489Y103783D01*
X301214Y104509D01*
X302666Y105234D01*
X304117D01*
X305568Y104509D01*
X307744Y103058D01*
X315000Y95802D01*
Y105960D01*
X304842Y121342D02*
X315000D01*
X309195D02*
X307019Y122067D01*
X305568Y123518D01*
X304842Y124970D01*
Y127146D01*
X309195Y128525D02*
Y137232D01*
X307744D01*
X306293Y136506D01*
X305568Y135780D01*
X304842Y134329D01*
Y132153D01*
X305568Y130701D01*
X307019Y129250D01*
X309195Y128525D01*
X310647D01*
X312823Y129250D01*
X314275Y130701D01*
X315000Y132153D01*
Y134329D01*
X314275Y135780D01*
X312823Y137232D01*
X304842Y140497D02*
X315000Y144850D01*
X304842Y149203D02*
X315000Y144850D01*
X313549Y152396D02*
X314275Y151670D01*
X315000Y152396D01*
X314275Y153121D01*
X313549Y152396D01*
X299763Y160812D02*
X300489Y158635D01*
X302666Y157184D01*
X306293Y156459D01*
X308470D01*
X312098Y157184D01*
X314275Y158635D01*
X315000Y160812D01*
Y162263D01*
X314275Y164440D01*
X312098Y165891D01*
X308470Y166617D01*
X306293D01*
X302666Y165891D01*
X300489Y164440D01*
X299763Y162263D01*
Y160812D01*
D40*
X65618Y127000D02*
G03*
X65618Y127000I-1118J0D01*
G01*
X64500D02*
G03*
X64500Y127000I-500J0D01*
G01*
X7618Y111500D02*
G03*
X7618Y111500I-1118J0D01*
G01*
X7500D02*
G03*
X7500Y111500I-500J0D01*
G01*
X9488Y300570D02*
Y323430D01*
X47588Y300570D02*
Y323430D01*
X9488D02*
X47588D01*
X9488Y300570D02*
X47588D01*
X23000Y122500D02*
X48000D01*
X14500Y133500D02*
Y143500D01*
X23000Y154500D02*
X48000D01*
X56500Y133500D02*
Y143500D01*
X23000Y116000D02*
X48000D01*
X56500Y95000D02*
Y105000D01*
X23000Y84000D02*
X48000D01*
X14500Y95000D02*
Y105000D01*
D41*
X10056Y274258D02*
X45056D01*
X10056Y294258D02*
X45056D01*
Y274258D02*
Y294258D01*
X10056Y274258D02*
Y294258D01*
X75500Y123000D02*
X95500D01*
X75500Y158000D02*
X95500D01*
Y145500D02*
Y158000D01*
X75500Y145500D02*
Y158000D01*
X95500Y123000D02*
Y135500D01*
X75500Y123000D02*
Y135500D01*
X9500Y245750D02*
Y270750D01*
X59500Y245750D02*
Y270750D01*
X39500Y245750D02*
X59500D01*
X39500Y270750D02*
X59500D01*
X9500Y245750D02*
X29500D01*
X9500Y270750D02*
X29500D01*
X44750Y175000D02*
Y195000D01*
X9750Y175000D02*
Y195000D01*
X22250D01*
X9750Y175000D02*
X22250D01*
X32250Y195000D02*
X44750D01*
X32250Y175000D02*
X44750D01*
X42500Y45000D02*
Y65000D01*
X7500Y45000D02*
Y65000D01*
X20000D01*
X7500Y45000D02*
X20000D01*
X30000Y65000D02*
X42500D01*
X30000Y45000D02*
X42500D01*
X243250Y177500D02*
X278250D01*
X243250Y197500D02*
X278250D01*
Y177500D02*
Y197500D01*
X243250Y177500D02*
Y197500D01*
X10000D02*
Y232500D01*
X30000Y197500D02*
Y232500D01*
X10000Y197500D02*
X30000D01*
X10000Y232500D02*
X30000D01*
X28000Y7500D02*
Y42500D01*
X8000Y7500D02*
Y42500D01*
X28000D01*
X8000Y7500D02*
X28000D01*
D42*
X134500Y87500D02*
Y150500D01*
X99500Y87500D02*
Y150500D01*
X100000D01*
X134000D02*
X134500D01*
X99500Y87500D02*
X100000D01*
X134000D02*
X134500D01*
X253500D02*
Y150500D01*
X288500Y87500D02*
Y150500D01*
X288000Y87500D02*
X288500D01*
X253500D02*
X254000D01*
X288000Y150500D02*
X288500D01*
X253500D02*
X254000D01*
D43*
X143470Y83770D02*
X148550Y78690D01*
X242530D01*
X143470Y149810D02*
X242530D01*
Y78690D02*
Y149810D01*
X143470Y83770D02*
Y149810D01*
D44*
X49628Y311785D02*
D03*
D45*
X116999Y109500D02*
D03*
X271000Y128500D02*
D03*
M02*
