G04 Layer_Color=32896*
%FSLAX44Y44*%
%MOMM*%
G71*
G01*
G75*
%ADD26C,0.2540*%
%ADD40C,0.1270*%
%ADD41C,0.1250*%
%ADD66R,0.2540X1.4000*%
G36*
X256000Y83000D02*
X254729D01*
Y87270D01*
X253095D01*
X252949Y87259D01*
X252824Y87249D01*
X252720D01*
X252647Y87239D01*
X252595Y87228D01*
X252563Y87218D01*
X252553D01*
X252438Y87186D01*
X252334Y87145D01*
X252241Y87103D01*
X252147Y87062D01*
X252074Y87020D01*
X252022Y86989D01*
X251980Y86968D01*
X251970Y86957D01*
X251866Y86884D01*
X251751Y86780D01*
X251637Y86676D01*
X251543Y86572D01*
X251449Y86478D01*
X251387Y86395D01*
X251345Y86343D01*
X251324Y86333D01*
Y86322D01*
X251178Y86135D01*
X251022Y85926D01*
X250876Y85708D01*
X250730Y85489D01*
X250606Y85302D01*
X250543Y85218D01*
X250501Y85145D01*
X250460Y85083D01*
X250429Y85041D01*
X250418Y85010D01*
X250408Y85000D01*
X249137Y83000D01*
X247544D01*
X249210Y85614D01*
X249398Y85885D01*
X249585Y86135D01*
X249762Y86353D01*
X249918Y86541D01*
X250054Y86687D01*
X250116Y86749D01*
X250168Y86801D01*
X250210Y86843D01*
X250241Y86874D01*
X250252Y86884D01*
X250262Y86895D01*
X250366Y86978D01*
X250491Y87072D01*
X250616Y87145D01*
X250741Y87218D01*
X250856Y87280D01*
X250949Y87332D01*
X251012Y87364D01*
X251022Y87374D01*
X251033D01*
X250783Y87416D01*
X250543Y87468D01*
X250324Y87530D01*
X250126Y87593D01*
X249939Y87666D01*
X249772Y87738D01*
X249627Y87811D01*
X249491Y87884D01*
X249366Y87957D01*
X249262Y88030D01*
X249179Y88092D01*
X249106Y88145D01*
X249054Y88197D01*
X249012Y88228D01*
X248991Y88249D01*
X248981Y88259D01*
X248866Y88394D01*
X248762Y88530D01*
X248668Y88676D01*
X248596Y88821D01*
X248533Y88967D01*
X248481Y89113D01*
X248398Y89384D01*
X248367Y89509D01*
X248346Y89623D01*
X248335Y89727D01*
X248325Y89821D01*
X248314Y89884D01*
Y89946D01*
Y89977D01*
Y89988D01*
X248335Y90279D01*
X248377Y90550D01*
X248439Y90790D01*
X248512Y91008D01*
X248554Y91102D01*
X248596Y91185D01*
X248627Y91258D01*
X248658Y91321D01*
X248679Y91373D01*
X248700Y91404D01*
X248721Y91425D01*
Y91435D01*
X248877Y91664D01*
X249054Y91852D01*
X249231Y92018D01*
X249408Y92143D01*
X249554Y92237D01*
X249679Y92300D01*
X249731Y92320D01*
X249762Y92341D01*
X249783Y92352D01*
X249793D01*
X249929Y92393D01*
X250064Y92435D01*
X250376Y92498D01*
X250699Y92550D01*
X251012Y92581D01*
X251168Y92591D01*
X251303Y92602D01*
X251418D01*
X251532Y92612D01*
X256000D01*
Y83000D01*
D02*
G37*
G36*
X243253Y68404D02*
X243410Y68175D01*
X243587Y67956D01*
X243764Y67769D01*
X243920Y67592D01*
X243993Y67529D01*
X244045Y67467D01*
X244097Y67414D01*
X244138Y67383D01*
X244159Y67362D01*
X244170Y67352D01*
X244451Y67112D01*
X244753Y66904D01*
X245044Y66706D01*
X245315Y66540D01*
X245430Y66477D01*
X245544Y66415D01*
X245648Y66352D01*
X245732Y66311D01*
X245805Y66279D01*
X245857Y66248D01*
X245888Y66238D01*
X245898Y66227D01*
Y65092D01*
X245690Y65175D01*
X245471Y65269D01*
X245263Y65373D01*
X245076Y65467D01*
X244909Y65561D01*
X244836Y65592D01*
X244774Y65634D01*
X244722Y65655D01*
X244690Y65675D01*
X244670Y65696D01*
X244659D01*
X244409Y65852D01*
X244191Y65998D01*
X243993Y66134D01*
X243836Y66259D01*
X243701Y66363D01*
X243607Y66436D01*
X243555Y66488D01*
X243534Y66508D01*
Y59000D01*
X242358D01*
Y68643D01*
X243118D01*
X243253Y68404D01*
D02*
G37*
G36*
X194000Y59000D02*
X190532D01*
X190220Y59010D01*
X189928Y59021D01*
X189668Y59052D01*
X189439Y59083D01*
X189345Y59094D01*
X189262Y59104D01*
X189178Y59125D01*
X189116Y59135D01*
X189064Y59146D01*
X189032D01*
X189012Y59156D01*
X189001D01*
X188762Y59229D01*
X188533Y59302D01*
X188335Y59385D01*
X188168Y59458D01*
X188033Y59531D01*
X187929Y59583D01*
X187866Y59625D01*
X187856Y59635D01*
X187845D01*
X187668Y59771D01*
X187502Y59906D01*
X187356Y60052D01*
X187231Y60198D01*
X187116Y60323D01*
X187043Y60416D01*
X187012Y60458D01*
X186991Y60489D01*
X186971Y60500D01*
Y60510D01*
X186825Y60729D01*
X186700Y60958D01*
X186585Y61197D01*
X186492Y61416D01*
X186419Y61614D01*
X186387Y61697D01*
X186356Y61770D01*
X186346Y61822D01*
X186325Y61864D01*
X186315Y61895D01*
Y61905D01*
X186231Y62239D01*
X186169Y62572D01*
X186117Y62895D01*
X186085Y63197D01*
X186075Y63332D01*
X186064Y63457D01*
Y63572D01*
X186054Y63665D01*
Y63749D01*
Y63801D01*
Y63843D01*
Y63853D01*
X186075Y64322D01*
X186085Y64540D01*
X186117Y64749D01*
X186148Y64946D01*
X186179Y65134D01*
X186210Y65311D01*
X186242Y65477D01*
X186283Y65623D01*
X186315Y65748D01*
X186346Y65863D01*
X186377Y65957D01*
X186408Y66030D01*
X186419Y66092D01*
X186439Y66123D01*
Y66134D01*
X186596Y66488D01*
X186773Y66810D01*
X186866Y66956D01*
X186960Y67092D01*
X187054Y67217D01*
X187148Y67331D01*
X187231Y67435D01*
X187314Y67519D01*
X187387Y67602D01*
X187450Y67664D01*
X187502Y67716D01*
X187543Y67748D01*
X187564Y67769D01*
X187575Y67779D01*
X187804Y67956D01*
X188043Y68102D01*
X188272Y68216D01*
X188491Y68310D01*
X188689Y68383D01*
X188772Y68404D01*
X188845Y68425D01*
X188897Y68446D01*
X188939Y68456D01*
X188970Y68466D01*
X188980D01*
X189095Y68487D01*
X189220Y68518D01*
X189501Y68550D01*
X189782Y68581D01*
X190063Y68591D01*
X190189Y68602D01*
X190313D01*
X190418Y68612D01*
X194000D01*
Y59000D01*
D02*
G37*
G36*
X246586Y111551D02*
X245482Y111395D01*
X245378Y111540D01*
X245263Y111676D01*
X245138Y111790D01*
X245034Y111895D01*
X244930Y111967D01*
X244847Y112030D01*
X244795Y112061D01*
X244774Y112072D01*
X244597Y112165D01*
X244420Y112228D01*
X244243Y112280D01*
X244076Y112311D01*
X243941Y112332D01*
X243826Y112342D01*
X243732D01*
X243566Y112332D01*
X243410Y112322D01*
X243253Y112290D01*
X243118Y112249D01*
X242857Y112155D01*
X242753Y112103D01*
X242649Y112051D01*
X242556Y111988D01*
X242483Y111936D01*
X242410Y111884D01*
X242358Y111842D01*
X242316Y111801D01*
X242274Y111770D01*
X242264Y111759D01*
X242253Y111749D01*
X242149Y111634D01*
X242066Y111509D01*
X241983Y111384D01*
X241920Y111259D01*
X241816Y110989D01*
X241754Y110739D01*
X241733Y110614D01*
X241712Y110510D01*
X241702Y110405D01*
X241691Y110322D01*
X241681Y110249D01*
Y110197D01*
Y110166D01*
Y110155D01*
X241691Y109958D01*
X241702Y109781D01*
X241733Y109604D01*
X241775Y109437D01*
X241816Y109291D01*
X241868Y109145D01*
X241920Y109020D01*
X241972Y108906D01*
X242035Y108802D01*
X242087Y108708D01*
X242139Y108635D01*
X242181Y108562D01*
X242222Y108510D01*
X242253Y108479D01*
X242264Y108458D01*
X242274Y108448D01*
X242389Y108333D01*
X242504Y108239D01*
X242618Y108156D01*
X242743Y108083D01*
X242868Y108021D01*
X242983Y107969D01*
X243212Y107896D01*
X243410Y107844D01*
X243493Y107833D01*
X243566Y107823D01*
X243628Y107812D01*
X243711D01*
X243847Y107823D01*
X243972Y107833D01*
X244201Y107885D01*
X244409Y107958D01*
X244586Y108041D01*
X244732Y108114D01*
X244836Y108187D01*
X244878Y108218D01*
X244909Y108239D01*
X244919Y108260D01*
X244930D01*
X245013Y108354D01*
X245096Y108448D01*
X245232Y108656D01*
X245347Y108885D01*
X245430Y109104D01*
X245482Y109302D01*
X245513Y109395D01*
X245523Y109468D01*
X245534Y109531D01*
X245544Y109572D01*
X245555Y109604D01*
Y109614D01*
X246794Y109520D01*
X246763Y109302D01*
X246721Y109083D01*
X246669Y108885D01*
X246596Y108698D01*
X246523Y108531D01*
X246450Y108364D01*
X246367Y108218D01*
X246284Y108094D01*
X246200Y107969D01*
X246127Y107864D01*
X246055Y107781D01*
X245982Y107708D01*
X245930Y107646D01*
X245888Y107604D01*
X245867Y107583D01*
X245857Y107573D01*
X245690Y107448D01*
X245523Y107333D01*
X245347Y107240D01*
X245169Y107156D01*
X244992Y107083D01*
X244815Y107021D01*
X244638Y106969D01*
X244472Y106938D01*
X244315Y106906D01*
X244170Y106885D01*
X244045Y106865D01*
X243930Y106854D01*
X243836Y106844D01*
X243711D01*
X243420Y106854D01*
X243149Y106896D01*
X242889Y106948D01*
X242649Y107031D01*
X242420Y107114D01*
X242212Y107208D01*
X242024Y107323D01*
X241858Y107427D01*
X241702Y107531D01*
X241566Y107646D01*
X241452Y107739D01*
X241358Y107833D01*
X241285Y107906D01*
X241233Y107958D01*
X241202Y108000D01*
X241191Y108010D01*
X241056Y108187D01*
X240941Y108375D01*
X240837Y108573D01*
X240754Y108760D01*
X240681Y108947D01*
X240618Y109135D01*
X240566Y109322D01*
X240525Y109489D01*
X240494Y109656D01*
X240473Y109801D01*
X240452Y109926D01*
X240441Y110041D01*
X240431Y110135D01*
Y110197D01*
Y110249D01*
Y110260D01*
X240441Y110510D01*
X240473Y110749D01*
X240514Y110978D01*
X240566Y111186D01*
X240629Y111395D01*
X240712Y111572D01*
X240785Y111749D01*
X240868Y111905D01*
X240952Y112040D01*
X241025Y112155D01*
X241098Y112269D01*
X241171Y112353D01*
X241222Y112415D01*
X241264Y112467D01*
X241295Y112499D01*
X241306Y112509D01*
X241472Y112665D01*
X241649Y112801D01*
X241826Y112915D01*
X242004Y113019D01*
X242181Y113103D01*
X242358Y113175D01*
X242524Y113228D01*
X242691Y113280D01*
X242837Y113311D01*
X242983Y113342D01*
X243107Y113352D01*
X243212Y113373D01*
X243295D01*
X243368Y113384D01*
X243420D01*
X243597Y113373D01*
X243774Y113363D01*
X243941Y113332D01*
X244107Y113290D01*
X244409Y113196D01*
X244555Y113134D01*
X244680Y113082D01*
X244805Y113030D01*
X244909Y112967D01*
X245003Y112915D01*
X245086Y112873D01*
X245149Y112832D01*
X245190Y112811D01*
X245222Y112790D01*
X245232Y112780D01*
X244722Y115362D01*
X240879D01*
Y116487D01*
X245659D01*
X246586Y111551D01*
D02*
G37*
G36*
X181232Y68404D02*
X181389Y68175D01*
X181566Y67956D01*
X181743Y67769D01*
X181899Y67592D01*
X181972Y67529D01*
X182024Y67467D01*
X182076Y67414D01*
X182118Y67383D01*
X182138Y67362D01*
X182149Y67352D01*
X182430Y67112D01*
X182732Y66904D01*
X183024Y66706D01*
X183294Y66540D01*
X183409Y66477D01*
X183524Y66415D01*
X183628Y66352D01*
X183711Y66311D01*
X183784Y66279D01*
X183836Y66248D01*
X183867Y66238D01*
X183878Y66227D01*
Y65092D01*
X183669Y65175D01*
X183451Y65269D01*
X183242Y65373D01*
X183055Y65467D01*
X182888Y65561D01*
X182815Y65592D01*
X182753Y65634D01*
X182701Y65655D01*
X182670Y65675D01*
X182649Y65696D01*
X182638D01*
X182388Y65852D01*
X182170Y65998D01*
X181972Y66134D01*
X181816Y66259D01*
X181680Y66363D01*
X181586Y66436D01*
X181534Y66488D01*
X181514Y66508D01*
Y59000D01*
X180337D01*
Y68643D01*
X181097D01*
X181232Y68404D01*
D02*
G37*
G36*
X256000Y132000D02*
X254729D01*
Y136270D01*
X253095D01*
X252949Y136259D01*
X252824Y136249D01*
X252720D01*
X252647Y136238D01*
X252595Y136228D01*
X252563Y136218D01*
X252553D01*
X252438Y136186D01*
X252334Y136145D01*
X252241Y136103D01*
X252147Y136061D01*
X252074Y136020D01*
X252022Y135989D01*
X251980Y135968D01*
X251970Y135957D01*
X251866Y135884D01*
X251751Y135780D01*
X251637Y135676D01*
X251543Y135572D01*
X251449Y135478D01*
X251387Y135395D01*
X251345Y135343D01*
X251324Y135332D01*
Y135322D01*
X251178Y135135D01*
X251022Y134926D01*
X250876Y134708D01*
X250730Y134489D01*
X250606Y134302D01*
X250543Y134218D01*
X250501Y134145D01*
X250460Y134083D01*
X250429Y134041D01*
X250418Y134010D01*
X250408Y134000D01*
X249137Y132000D01*
X247544D01*
X249210Y134614D01*
X249398Y134885D01*
X249585Y135135D01*
X249762Y135353D01*
X249918Y135541D01*
X250054Y135687D01*
X250116Y135749D01*
X250168Y135801D01*
X250210Y135843D01*
X250241Y135874D01*
X250252Y135884D01*
X250262Y135895D01*
X250366Y135978D01*
X250491Y136072D01*
X250616Y136145D01*
X250741Y136218D01*
X250856Y136280D01*
X250949Y136332D01*
X251012Y136363D01*
X251022Y136374D01*
X251033D01*
X250783Y136416D01*
X250543Y136468D01*
X250324Y136530D01*
X250126Y136593D01*
X249939Y136665D01*
X249772Y136738D01*
X249627Y136811D01*
X249491Y136884D01*
X249366Y136957D01*
X249262Y137030D01*
X249179Y137092D01*
X249106Y137144D01*
X249054Y137197D01*
X249012Y137228D01*
X248991Y137249D01*
X248981Y137259D01*
X248866Y137394D01*
X248762Y137530D01*
X248668Y137676D01*
X248596Y137821D01*
X248533Y137967D01*
X248481Y138113D01*
X248398Y138384D01*
X248367Y138509D01*
X248346Y138623D01*
X248335Y138727D01*
X248325Y138821D01*
X248314Y138884D01*
Y138946D01*
Y138977D01*
Y138988D01*
X248335Y139279D01*
X248377Y139550D01*
X248439Y139790D01*
X248512Y140008D01*
X248554Y140102D01*
X248596Y140185D01*
X248627Y140258D01*
X248658Y140321D01*
X248679Y140373D01*
X248700Y140404D01*
X248721Y140425D01*
Y140435D01*
X248877Y140664D01*
X249054Y140852D01*
X249231Y141018D01*
X249408Y141144D01*
X249554Y141237D01*
X249679Y141300D01*
X249731Y141320D01*
X249762Y141341D01*
X249783Y141352D01*
X249793D01*
X249929Y141393D01*
X250064Y141435D01*
X250376Y141498D01*
X250699Y141550D01*
X251012Y141581D01*
X251168Y141591D01*
X251303Y141602D01*
X251418D01*
X251532Y141612D01*
X256000D01*
Y132000D01*
D02*
G37*
G36*
X247200Y135385D02*
Y134302D01*
X243014D01*
Y132000D01*
X241837D01*
Y134302D01*
X240535D01*
Y135385D01*
X241837D01*
Y141612D01*
X242806D01*
X247200Y135385D01*
D02*
G37*
G36*
X256000Y59000D02*
X254729D01*
Y63270D01*
X253095D01*
X252949Y63259D01*
X252824Y63249D01*
X252720D01*
X252647Y63239D01*
X252595Y63228D01*
X252563Y63218D01*
X252553D01*
X252438Y63186D01*
X252334Y63145D01*
X252241Y63103D01*
X252147Y63061D01*
X252074Y63020D01*
X252022Y62989D01*
X251980Y62968D01*
X251970Y62957D01*
X251866Y62884D01*
X251751Y62780D01*
X251637Y62676D01*
X251543Y62572D01*
X251449Y62478D01*
X251387Y62395D01*
X251345Y62343D01*
X251324Y62333D01*
Y62322D01*
X251178Y62135D01*
X251022Y61926D01*
X250876Y61708D01*
X250730Y61489D01*
X250606Y61301D01*
X250543Y61218D01*
X250501Y61145D01*
X250460Y61083D01*
X250429Y61041D01*
X250418Y61010D01*
X250408Y60999D01*
X249137Y59000D01*
X247544D01*
X249210Y61614D01*
X249398Y61885D01*
X249585Y62135D01*
X249762Y62353D01*
X249918Y62541D01*
X250054Y62687D01*
X250116Y62749D01*
X250168Y62801D01*
X250210Y62843D01*
X250241Y62874D01*
X250252Y62884D01*
X250262Y62895D01*
X250366Y62978D01*
X250491Y63072D01*
X250616Y63145D01*
X250741Y63218D01*
X250856Y63280D01*
X250949Y63332D01*
X251012Y63363D01*
X251022Y63374D01*
X251033D01*
X250783Y63415D01*
X250543Y63468D01*
X250324Y63530D01*
X250126Y63593D01*
X249939Y63665D01*
X249772Y63738D01*
X249627Y63811D01*
X249491Y63884D01*
X249366Y63957D01*
X249262Y64030D01*
X249179Y64092D01*
X249106Y64145D01*
X249054Y64197D01*
X249012Y64228D01*
X248991Y64249D01*
X248981Y64259D01*
X248866Y64394D01*
X248762Y64530D01*
X248668Y64676D01*
X248596Y64821D01*
X248533Y64967D01*
X248481Y65113D01*
X248398Y65384D01*
X248367Y65509D01*
X248346Y65623D01*
X248335Y65728D01*
X248325Y65821D01*
X248314Y65884D01*
Y65946D01*
Y65977D01*
Y65988D01*
X248335Y66279D01*
X248377Y66550D01*
X248439Y66790D01*
X248512Y67008D01*
X248554Y67102D01*
X248596Y67185D01*
X248627Y67258D01*
X248658Y67321D01*
X248679Y67373D01*
X248700Y67404D01*
X248721Y67425D01*
Y67435D01*
X248877Y67664D01*
X249054Y67852D01*
X249231Y68018D01*
X249408Y68144D01*
X249554Y68237D01*
X249679Y68300D01*
X249731Y68320D01*
X249762Y68341D01*
X249783Y68352D01*
X249793D01*
X249929Y68393D01*
X250064Y68435D01*
X250376Y68498D01*
X250699Y68550D01*
X251012Y68581D01*
X251168Y68591D01*
X251303Y68602D01*
X251418D01*
X251532Y68612D01*
X256000D01*
Y59000D01*
D02*
G37*
G36*
X68000Y50000D02*
X66729D01*
Y54270D01*
X65094D01*
X64949Y54259D01*
X64824Y54249D01*
X64720D01*
X64647Y54239D01*
X64595Y54228D01*
X64563Y54218D01*
X64553D01*
X64438Y54187D01*
X64334Y54145D01*
X64240Y54103D01*
X64147Y54061D01*
X64074Y54020D01*
X64022Y53989D01*
X63980Y53968D01*
X63970Y53957D01*
X63866Y53884D01*
X63751Y53780D01*
X63636Y53676D01*
X63543Y53572D01*
X63449Y53478D01*
X63387Y53395D01*
X63345Y53343D01*
X63324Y53333D01*
Y53322D01*
X63178Y53135D01*
X63022Y52926D01*
X62876Y52708D01*
X62730Y52489D01*
X62606Y52302D01*
X62543Y52218D01*
X62501Y52145D01*
X62460Y52083D01*
X62428Y52041D01*
X62418Y52010D01*
X62408Y52000D01*
X61137Y50000D01*
X59544D01*
X61210Y52614D01*
X61398Y52885D01*
X61585Y53135D01*
X61762Y53353D01*
X61918Y53541D01*
X62054Y53687D01*
X62116Y53749D01*
X62168Y53801D01*
X62210Y53843D01*
X62241Y53874D01*
X62252Y53884D01*
X62262Y53895D01*
X62366Y53978D01*
X62491Y54072D01*
X62616Y54145D01*
X62741Y54218D01*
X62856Y54280D01*
X62949Y54332D01*
X63012Y54363D01*
X63022Y54374D01*
X63032D01*
X62783Y54416D01*
X62543Y54468D01*
X62324Y54530D01*
X62126Y54593D01*
X61939Y54665D01*
X61772Y54738D01*
X61627Y54811D01*
X61491Y54884D01*
X61366Y54957D01*
X61262Y55030D01*
X61179Y55093D01*
X61106Y55145D01*
X61054Y55197D01*
X61012Y55228D01*
X60991Y55249D01*
X60981Y55259D01*
X60866Y55395D01*
X60762Y55530D01*
X60669Y55676D01*
X60596Y55821D01*
X60533Y55967D01*
X60481Y56113D01*
X60398Y56384D01*
X60367Y56509D01*
X60346Y56623D01*
X60335Y56727D01*
X60325Y56821D01*
X60314Y56884D01*
Y56946D01*
Y56977D01*
Y56988D01*
X60335Y57279D01*
X60377Y57550D01*
X60439Y57790D01*
X60512Y58008D01*
X60554Y58102D01*
X60596Y58185D01*
X60627Y58258D01*
X60658Y58321D01*
X60679Y58373D01*
X60700Y58404D01*
X60721Y58425D01*
Y58435D01*
X60877Y58664D01*
X61054Y58852D01*
X61231Y59019D01*
X61408Y59144D01*
X61554Y59237D01*
X61679Y59300D01*
X61731Y59321D01*
X61762Y59341D01*
X61783Y59352D01*
X61793D01*
X61929Y59394D01*
X62064Y59435D01*
X62376Y59498D01*
X62699Y59550D01*
X63012Y59581D01*
X63168Y59591D01*
X63303Y59602D01*
X63418D01*
X63532Y59612D01*
X68000D01*
Y50000D01*
D02*
G37*
G36*
X56868Y80633D02*
X57107Y80612D01*
X57326Y80581D01*
X57534Y80529D01*
X57732Y80477D01*
X57909Y80414D01*
X58076Y80352D01*
X58222Y80289D01*
X58357Y80216D01*
X58471Y80154D01*
X58576Y80091D01*
X58659Y80039D01*
X58721Y79987D01*
X58763Y79956D01*
X58794Y79935D01*
X58805Y79925D01*
X58951Y79789D01*
X59075Y79633D01*
X59190Y79477D01*
X59294Y79300D01*
X59377Y79133D01*
X59461Y78967D01*
X59523Y78790D01*
X59575Y78633D01*
X59627Y78477D01*
X59659Y78331D01*
X59690Y78196D01*
X59711Y78081D01*
X59721Y77988D01*
X59731Y77925D01*
X59742Y77884D01*
Y77863D01*
X58534Y77738D01*
X58524Y77905D01*
X58513Y78061D01*
X58451Y78331D01*
X58367Y78581D01*
X58326Y78685D01*
X58274Y78779D01*
X58232Y78863D01*
X58180Y78935D01*
X58138Y78998D01*
X58107Y79050D01*
X58065Y79092D01*
X58045Y79123D01*
X58034Y79133D01*
X58024Y79144D01*
X57920Y79237D01*
X57815Y79321D01*
X57701Y79383D01*
X57586Y79446D01*
X57357Y79539D01*
X57138Y79602D01*
X56951Y79633D01*
X56868Y79654D01*
X56795D01*
X56732Y79665D01*
X56503D01*
X56357Y79644D01*
X56097Y79592D01*
X55878Y79508D01*
X55680Y79425D01*
X55535Y79331D01*
X55472Y79290D01*
X55420Y79248D01*
X55378Y79217D01*
X55347Y79196D01*
X55337Y79185D01*
X55326Y79175D01*
X55233Y79081D01*
X55160Y78987D01*
X55087Y78894D01*
X55035Y78790D01*
X54941Y78592D01*
X54879Y78404D01*
X54847Y78248D01*
X54826Y78175D01*
Y78113D01*
X54816Y78071D01*
Y78029D01*
Y78009D01*
Y77998D01*
X54826Y77873D01*
X54837Y77748D01*
X54899Y77498D01*
X54993Y77259D01*
X55097Y77040D01*
X55201Y76853D01*
X55243Y76780D01*
X55295Y76707D01*
X55326Y76655D01*
X55358Y76613D01*
X55368Y76592D01*
X55378Y76582D01*
X55493Y76436D01*
X55628Y76280D01*
X55785Y76113D01*
X55951Y75947D01*
X56295Y75603D01*
X56649Y75280D01*
X56816Y75124D01*
X56982Y74989D01*
X57128Y74864D01*
X57253Y74759D01*
X57357Y74666D01*
X57430Y74603D01*
X57482Y74551D01*
X57503Y74541D01*
X57690Y74385D01*
X57857Y74239D01*
X58024Y74103D01*
X58169Y73968D01*
X58315Y73843D01*
X58440Y73718D01*
X58555Y73614D01*
X58659Y73510D01*
X58753Y73416D01*
X58825Y73333D01*
X58898Y73260D01*
X58951Y73208D01*
X59002Y73156D01*
X59034Y73124D01*
X59044Y73104D01*
X59055Y73093D01*
X59242Y72864D01*
X59398Y72635D01*
X59534Y72416D01*
X59638Y72218D01*
X59721Y72052D01*
X59752Y71979D01*
X59784Y71927D01*
X59804Y71875D01*
X59815Y71844D01*
X59825Y71823D01*
Y71812D01*
X59877Y71666D01*
X59909Y71521D01*
X59940Y71385D01*
X59950Y71260D01*
X59961Y71156D01*
Y71073D01*
Y71021D01*
Y71000D01*
X53598D01*
Y72135D01*
X58336D01*
X58169Y72364D01*
X58086Y72468D01*
X58003Y72562D01*
X57930Y72645D01*
X57878Y72708D01*
X57836Y72750D01*
X57826Y72760D01*
X57763Y72822D01*
X57680Y72906D01*
X57586Y72989D01*
X57482Y73083D01*
X57263Y73291D01*
X57034Y73489D01*
X56816Y73676D01*
X56722Y73760D01*
X56628Y73833D01*
X56566Y73895D01*
X56503Y73937D01*
X56472Y73968D01*
X56462Y73978D01*
X56232Y74176D01*
X56014Y74364D01*
X55816Y74530D01*
X55639Y74697D01*
X55472Y74843D01*
X55326Y74989D01*
X55191Y75114D01*
X55066Y75228D01*
X54962Y75322D01*
X54879Y75416D01*
X54806Y75488D01*
X54743Y75551D01*
X54702Y75603D01*
X54660Y75634D01*
X54650Y75655D01*
X54639Y75665D01*
X54441Y75895D01*
X54285Y76103D01*
X54150Y76301D01*
X54035Y76478D01*
X53952Y76624D01*
X53889Y76738D01*
X53868Y76780D01*
X53858Y76811D01*
X53848Y76821D01*
Y76832D01*
X53764Y77040D01*
X53712Y77248D01*
X53671Y77436D01*
X53639Y77613D01*
X53618Y77759D01*
X53608Y77873D01*
Y77915D01*
Y77946D01*
Y77957D01*
Y77967D01*
X53618Y78175D01*
X53639Y78373D01*
X53681Y78561D01*
X53733Y78748D01*
X53795Y78915D01*
X53868Y79071D01*
X53941Y79217D01*
X54014Y79342D01*
X54087Y79467D01*
X54160Y79571D01*
X54233Y79665D01*
X54295Y79737D01*
X54348Y79789D01*
X54389Y79841D01*
X54410Y79862D01*
X54420Y79873D01*
X54577Y80008D01*
X54743Y80123D01*
X54920Y80227D01*
X55108Y80321D01*
X55285Y80393D01*
X55472Y80456D01*
X55649Y80508D01*
X55826Y80550D01*
X55982Y80581D01*
X56139Y80602D01*
X56274Y80623D01*
X56389Y80633D01*
X56482Y80643D01*
X56618D01*
X56868Y80633D01*
D02*
G37*
G36*
X56003Y59633D02*
X56201Y59612D01*
X56388Y59581D01*
X56576Y59539D01*
X56743Y59487D01*
X56899Y59435D01*
X57045Y59373D01*
X57169Y59321D01*
X57294Y59258D01*
X57399Y59196D01*
X57482Y59144D01*
X57565Y59091D01*
X57617Y59050D01*
X57669Y59019D01*
X57690Y58998D01*
X57701Y58987D01*
X57836Y58862D01*
X57961Y58717D01*
X58075Y58571D01*
X58180Y58425D01*
X58273Y58269D01*
X58346Y58123D01*
X58482Y57821D01*
X58534Y57686D01*
X58575Y57561D01*
X58607Y57446D01*
X58638Y57352D01*
X58659Y57269D01*
X58669Y57207D01*
X58679Y57165D01*
Y57154D01*
X57503Y56946D01*
X57440Y57248D01*
X57357Y57509D01*
X57263Y57738D01*
X57159Y57915D01*
X57076Y58060D01*
X56992Y58154D01*
X56940Y58217D01*
X56919Y58238D01*
X56732Y58383D01*
X56545Y58487D01*
X56347Y58571D01*
X56170Y58623D01*
X56003Y58654D01*
X55941Y58664D01*
X55878D01*
X55826Y58675D01*
X55764D01*
X55514Y58654D01*
X55295Y58612D01*
X55097Y58540D01*
X54930Y58467D01*
X54805Y58383D01*
X54712Y58310D01*
X54649Y58269D01*
X54628Y58248D01*
X54545Y58165D01*
X54483Y58081D01*
X54368Y57894D01*
X54285Y57717D01*
X54233Y57550D01*
X54201Y57394D01*
X54191Y57279D01*
X54181Y57227D01*
Y57196D01*
Y57175D01*
Y57165D01*
X54191Y57019D01*
X54212Y56884D01*
X54233Y56748D01*
X54274Y56634D01*
X54378Y56425D01*
X54483Y56259D01*
X54597Y56123D01*
X54701Y56030D01*
X54743Y55999D01*
X54764Y55978D01*
X54785Y55957D01*
X54795D01*
X55024Y55821D01*
X55264Y55728D01*
X55493Y55655D01*
X55701Y55613D01*
X55878Y55582D01*
X55951Y55571D01*
X56024D01*
X56076Y55561D01*
X56211D01*
X56274Y55571D01*
X56326Y55582D01*
X56347D01*
X56472Y54551D01*
X56295Y54593D01*
X56128Y54624D01*
X55993Y54645D01*
X55868Y54665D01*
X55774D01*
X55701Y54676D01*
X55639D01*
X55493Y54665D01*
X55347Y54655D01*
X55087Y54593D01*
X54858Y54509D01*
X54660Y54416D01*
X54503Y54311D01*
X54441Y54270D01*
X54389Y54228D01*
X54347Y54197D01*
X54316Y54166D01*
X54306Y54155D01*
X54295Y54145D01*
X54201Y54041D01*
X54118Y53937D01*
X54045Y53832D01*
X53983Y53718D01*
X53889Y53499D01*
X53816Y53280D01*
X53785Y53093D01*
X53774Y53020D01*
X53764Y52947D01*
X53754Y52895D01*
Y52843D01*
Y52822D01*
Y52812D01*
X53764Y52656D01*
X53774Y52510D01*
X53847Y52229D01*
X53931Y51989D01*
X54035Y51781D01*
X54097Y51687D01*
X54149Y51614D01*
X54191Y51541D01*
X54233Y51489D01*
X54274Y51448D01*
X54306Y51416D01*
X54316Y51396D01*
X54326Y51385D01*
X54441Y51281D01*
X54556Y51198D01*
X54670Y51125D01*
X54785Y51052D01*
X55024Y50948D01*
X55253Y50885D01*
X55441Y50844D01*
X55534Y50833D01*
X55597Y50823D01*
X55659Y50812D01*
X55743D01*
X55993Y50833D01*
X56232Y50885D01*
X56430Y50948D01*
X56607Y51031D01*
X56753Y51114D01*
X56857Y51177D01*
X56888Y51208D01*
X56919Y51229D01*
X56930Y51250D01*
X56940D01*
X57024Y51343D01*
X57107Y51437D01*
X57253Y51656D01*
X57367Y51895D01*
X57461Y52135D01*
X57534Y52354D01*
X57555Y52447D01*
X57576Y52531D01*
X57596Y52604D01*
X57607Y52656D01*
X57617Y52687D01*
Y52697D01*
X58794Y52541D01*
X58763Y52322D01*
X58721Y52114D01*
X58659Y51916D01*
X58596Y51729D01*
X58523Y51552D01*
X58440Y51396D01*
X58357Y51239D01*
X58273Y51114D01*
X58190Y50989D01*
X58117Y50885D01*
X58044Y50792D01*
X57982Y50719D01*
X57919Y50656D01*
X57878Y50615D01*
X57857Y50594D01*
X57846Y50583D01*
X57690Y50448D01*
X57513Y50333D01*
X57347Y50240D01*
X57169Y50146D01*
X56992Y50073D01*
X56815Y50021D01*
X56649Y49969D01*
X56482Y49927D01*
X56326Y49896D01*
X56191Y49875D01*
X56066Y49854D01*
X55951Y49844D01*
X55868D01*
X55795Y49833D01*
X55743D01*
X55482Y49844D01*
X55243Y49875D01*
X55014Y49917D01*
X54795Y49969D01*
X54587Y50031D01*
X54399Y50104D01*
X54222Y50188D01*
X54066Y50271D01*
X53920Y50344D01*
X53795Y50427D01*
X53681Y50500D01*
X53597Y50562D01*
X53524Y50615D01*
X53472Y50656D01*
X53441Y50687D01*
X53431Y50698D01*
X53264Y50864D01*
X53129Y51041D01*
X53004Y51219D01*
X52900Y51406D01*
X52806Y51583D01*
X52733Y51760D01*
X52671Y51927D01*
X52618Y52093D01*
X52577Y52249D01*
X52556Y52385D01*
X52535Y52510D01*
X52514Y52624D01*
Y52708D01*
X52504Y52781D01*
Y52822D01*
Y52833D01*
Y52999D01*
X52525Y53166D01*
X52577Y53468D01*
X52660Y53728D01*
X52702Y53843D01*
X52744Y53947D01*
X52785Y54051D01*
X52827Y54134D01*
X52868Y54207D01*
X52910Y54259D01*
X52941Y54311D01*
X52962Y54343D01*
X52973Y54363D01*
X52983Y54374D01*
X53170Y54593D01*
X53389Y54770D01*
X53608Y54905D01*
X53816Y55020D01*
X54014Y55103D01*
X54097Y55134D01*
X54160Y55155D01*
X54222Y55176D01*
X54264Y55186D01*
X54295Y55197D01*
X54306D01*
X54076Y55322D01*
X53879Y55447D01*
X53702Y55582D01*
X53566Y55717D01*
X53452Y55832D01*
X53379Y55926D01*
X53327Y55988D01*
X53316Y55999D01*
Y56009D01*
X53202Y56207D01*
X53118Y56405D01*
X53056Y56592D01*
X53014Y56769D01*
X52993Y56915D01*
X52973Y57040D01*
Y57081D01*
Y57113D01*
Y57134D01*
Y57144D01*
X52983Y57384D01*
X53025Y57613D01*
X53087Y57821D01*
X53150Y58008D01*
X53212Y58165D01*
X53243Y58227D01*
X53275Y58279D01*
X53295Y58321D01*
X53316Y58362D01*
X53327Y58373D01*
Y58383D01*
X53472Y58592D01*
X53639Y58769D01*
X53806Y58925D01*
X53972Y59060D01*
X54118Y59164D01*
X54233Y59237D01*
X54285Y59268D01*
X54316Y59289D01*
X54337Y59300D01*
X54347D01*
X54597Y59414D01*
X54847Y59498D01*
X55097Y59560D01*
X55316Y59602D01*
X55514Y59623D01*
X55587Y59633D01*
X55659Y59643D01*
X55795D01*
X56003Y59633D01*
D02*
G37*
G36*
X195551Y324722D02*
X195864Y324710D01*
X196164Y324672D01*
X196439Y324622D01*
X196714Y324572D01*
X196964Y324510D01*
X197201Y324447D01*
X197413Y324385D01*
X197601Y324310D01*
X197776Y324247D01*
X197926Y324185D01*
X198051Y324135D01*
X198151Y324085D01*
X198226Y324047D01*
X198276Y324035D01*
X198288Y324022D01*
X198526Y323885D01*
X198751Y323722D01*
X198963Y323560D01*
X199151Y323385D01*
X199338Y323197D01*
X199500Y323022D01*
X199650Y322848D01*
X199788Y322673D01*
X199900Y322498D01*
X200013Y322348D01*
X200100Y322210D01*
X200175Y322085D01*
X200225Y321985D01*
X200263Y321910D01*
X200288Y321860D01*
X200300Y321848D01*
X200425Y321573D01*
X200525Y321298D01*
X200625Y321023D01*
X200700Y320748D01*
X200825Y320223D01*
X200875Y319973D01*
X200912Y319736D01*
X200938Y319523D01*
X200963Y319323D01*
X200975Y319148D01*
X200987Y318999D01*
X201000Y318874D01*
Y318786D01*
Y318736D01*
Y318711D01*
X200987Y318399D01*
X200975Y318086D01*
X200938Y317799D01*
X200888Y317511D01*
X200837Y317249D01*
X200775Y316987D01*
X200713Y316749D01*
X200650Y316537D01*
X200588Y316337D01*
X200525Y316162D01*
X200463Y316012D01*
X200413Y315874D01*
X200363Y315774D01*
X200325Y315699D01*
X200313Y315649D01*
X200300Y315637D01*
X200163Y315387D01*
X200000Y315149D01*
X199838Y314937D01*
X199675Y314725D01*
X199500Y314537D01*
X199325Y314375D01*
X199151Y314212D01*
X198988Y314075D01*
X198826Y313950D01*
X198676Y313837D01*
X198538Y313750D01*
X198426Y313675D01*
X198338Y313612D01*
X198263Y313575D01*
X198213Y313550D01*
X198201Y313537D01*
X197938Y313412D01*
X197663Y313300D01*
X197401Y313200D01*
X197139Y313125D01*
X196864Y313050D01*
X196614Y312987D01*
X196364Y312938D01*
X196139Y312900D01*
X195926Y312875D01*
X195726Y312850D01*
X195551Y312838D01*
X195401Y312825D01*
X195277Y312813D01*
X195114D01*
X194652Y312838D01*
X194202Y312887D01*
X193789Y312950D01*
X193602Y313000D01*
X193414Y313037D01*
X193252Y313075D01*
X193114Y313125D01*
X192977Y313162D01*
X192877Y313188D01*
X192777Y313225D01*
X192715Y313237D01*
X192677Y313262D01*
X192665D01*
X192215Y313450D01*
X191790Y313662D01*
X191402Y313887D01*
X191215Y314000D01*
X191053Y314100D01*
X190903Y314200D01*
X190765Y314300D01*
X190640Y314375D01*
X190540Y314450D01*
X190453Y314512D01*
X190390Y314562D01*
X190353Y314587D01*
X190340Y314600D01*
Y318886D01*
X195226D01*
Y317524D01*
X191840D01*
Y315362D01*
X192040Y315199D01*
X192265Y315062D01*
X192502Y314925D01*
X192740Y314799D01*
X192952Y314700D01*
X193039Y314650D01*
X193114Y314612D01*
X193190Y314587D01*
X193239Y314562D01*
X193265Y314550D01*
X193277D01*
X193627Y314425D01*
X193977Y314337D01*
X194302Y314262D01*
X194589Y314225D01*
X194727Y314212D01*
X194839Y314200D01*
X194939Y314187D01*
X195026D01*
X195102Y314175D01*
X195201D01*
X195626Y314200D01*
X196026Y314250D01*
X196389Y314337D01*
X196564Y314375D01*
X196714Y314425D01*
X196851Y314475D01*
X196976Y314512D01*
X197089Y314562D01*
X197188Y314600D01*
X197264Y314625D01*
X197313Y314650D01*
X197351Y314675D01*
X197363D01*
X197551Y314775D01*
X197726Y314887D01*
X198026Y315124D01*
X198288Y315387D01*
X198513Y315637D01*
X198676Y315862D01*
X198751Y315962D01*
X198801Y316037D01*
X198851Y316112D01*
X198876Y316162D01*
X198888Y316199D01*
X198901Y316212D01*
X199076Y316624D01*
X199200Y317062D01*
X199300Y317486D01*
X199363Y317899D01*
X199375Y318086D01*
X199400Y318261D01*
X199413Y318411D01*
Y318549D01*
X199425Y318649D01*
Y318736D01*
Y318786D01*
Y318799D01*
X199400Y319261D01*
X199350Y319698D01*
X199288Y320086D01*
X199251Y320273D01*
X199200Y320436D01*
X199163Y320586D01*
X199125Y320723D01*
X199088Y320835D01*
X199051Y320936D01*
X199025Y321023D01*
X199000Y321073D01*
X198988Y321110D01*
Y321123D01*
X198888Y321348D01*
X198776Y321560D01*
X198651Y321760D01*
X198538Y321923D01*
X198438Y322060D01*
X198351Y322173D01*
X198301Y322235D01*
X198276Y322260D01*
X198088Y322448D01*
X197876Y322610D01*
X197676Y322760D01*
X197476Y322885D01*
X197301Y322985D01*
X197164Y323047D01*
X197113Y323072D01*
X197076Y323097D01*
X197051Y323110D01*
X197038D01*
X196739Y323222D01*
X196439Y323297D01*
X196126Y323360D01*
X195851Y323397D01*
X195714Y323410D01*
X195601Y323422D01*
X195489D01*
X195401Y323435D01*
X195226D01*
X194914Y323422D01*
X194614Y323385D01*
X194352Y323335D01*
X194114Y323285D01*
X193927Y323222D01*
X193839Y323197D01*
X193777Y323172D01*
X193727Y323147D01*
X193689Y323135D01*
X193664Y323122D01*
X193652D01*
X193402Y322997D01*
X193177Y322873D01*
X192990Y322735D01*
X192827Y322610D01*
X192715Y322485D01*
X192627Y322398D01*
X192565Y322335D01*
X192552Y322310D01*
X192415Y322110D01*
X192290Y321885D01*
X192177Y321660D01*
X192077Y321435D01*
X192002Y321235D01*
X191977Y321148D01*
X191952Y321085D01*
X191927Y321023D01*
X191915Y320973D01*
X191902Y320948D01*
Y320936D01*
X190515Y321310D01*
X190640Y321723D01*
X190778Y322098D01*
X190853Y322260D01*
X190928Y322423D01*
X190990Y322560D01*
X191065Y322685D01*
X191127Y322810D01*
X191190Y322910D01*
X191252Y322997D01*
X191290Y323072D01*
X191340Y323122D01*
X191365Y323160D01*
X191378Y323185D01*
X191390Y323197D01*
X191627Y323460D01*
X191877Y323685D01*
X192140Y323872D01*
X192402Y324035D01*
X192627Y324160D01*
X192727Y324210D01*
X192815Y324247D01*
X192877Y324285D01*
X192927Y324310D01*
X192965Y324322D01*
X192977D01*
X193365Y324460D01*
X193752Y324560D01*
X194139Y324635D01*
X194489Y324684D01*
X194652Y324697D01*
X194789Y324710D01*
X194914Y324722D01*
X195026Y324734D01*
X195239D01*
X195551Y324722D01*
D02*
G37*
G36*
X256000Y107000D02*
X254729D01*
Y111270D01*
X253095D01*
X252949Y111259D01*
X252824Y111249D01*
X252720D01*
X252647Y111238D01*
X252595Y111228D01*
X252563Y111218D01*
X252553D01*
X252438Y111186D01*
X252334Y111145D01*
X252241Y111103D01*
X252147Y111061D01*
X252074Y111020D01*
X252022Y110989D01*
X251980Y110968D01*
X251970Y110957D01*
X251866Y110884D01*
X251751Y110780D01*
X251637Y110676D01*
X251543Y110572D01*
X251449Y110478D01*
X251387Y110395D01*
X251345Y110343D01*
X251324Y110332D01*
Y110322D01*
X251178Y110135D01*
X251022Y109926D01*
X250876Y109708D01*
X250730Y109489D01*
X250606Y109302D01*
X250543Y109218D01*
X250501Y109145D01*
X250460Y109083D01*
X250429Y109041D01*
X250418Y109010D01*
X250408Y109000D01*
X249137Y107000D01*
X247544D01*
X249210Y109614D01*
X249398Y109885D01*
X249585Y110135D01*
X249762Y110353D01*
X249918Y110541D01*
X250054Y110687D01*
X250116Y110749D01*
X250168Y110801D01*
X250210Y110843D01*
X250241Y110874D01*
X250252Y110884D01*
X250262Y110895D01*
X250366Y110978D01*
X250491Y111072D01*
X250616Y111145D01*
X250741Y111218D01*
X250856Y111280D01*
X250949Y111332D01*
X251012Y111363D01*
X251022Y111374D01*
X251033D01*
X250783Y111416D01*
X250543Y111468D01*
X250324Y111530D01*
X250126Y111593D01*
X249939Y111665D01*
X249772Y111738D01*
X249627Y111811D01*
X249491Y111884D01*
X249366Y111957D01*
X249262Y112030D01*
X249179Y112092D01*
X249106Y112144D01*
X249054Y112197D01*
X249012Y112228D01*
X248991Y112249D01*
X248981Y112259D01*
X248866Y112394D01*
X248762Y112530D01*
X248668Y112676D01*
X248596Y112821D01*
X248533Y112967D01*
X248481Y113113D01*
X248398Y113384D01*
X248367Y113509D01*
X248346Y113623D01*
X248335Y113727D01*
X248325Y113821D01*
X248314Y113884D01*
Y113946D01*
Y113977D01*
Y113988D01*
X248335Y114279D01*
X248377Y114550D01*
X248439Y114790D01*
X248512Y115008D01*
X248554Y115102D01*
X248596Y115185D01*
X248627Y115258D01*
X248658Y115321D01*
X248679Y115373D01*
X248700Y115404D01*
X248721Y115425D01*
Y115435D01*
X248877Y115664D01*
X249054Y115852D01*
X249231Y116018D01*
X249408Y116144D01*
X249554Y116237D01*
X249679Y116300D01*
X249731Y116320D01*
X249762Y116341D01*
X249783Y116352D01*
X249793D01*
X249929Y116393D01*
X250064Y116435D01*
X250376Y116498D01*
X250699Y116550D01*
X251012Y116581D01*
X251168Y116591D01*
X251303Y116602D01*
X251418D01*
X251532Y116612D01*
X256000D01*
Y107000D01*
D02*
G37*
G36*
X243680Y92633D02*
X243941Y92591D01*
X244191Y92539D01*
X244420Y92466D01*
X244638Y92383D01*
X244836Y92289D01*
X245024Y92196D01*
X245190Y92091D01*
X245336Y91987D01*
X245461Y91894D01*
X245576Y91800D01*
X245659Y91716D01*
X245732Y91644D01*
X245784Y91592D01*
X245815Y91550D01*
X245826Y91539D01*
X246003Y91290D01*
X246169Y91008D01*
X246305Y90696D01*
X246419Y90373D01*
X246523Y90040D01*
X246607Y89707D01*
X246669Y89373D01*
X246731Y89040D01*
X246773Y88728D01*
X246804Y88436D01*
X246825Y88176D01*
X246836Y87947D01*
X246846Y87843D01*
Y87759D01*
X246856Y87676D01*
Y87613D01*
Y87561D01*
Y87520D01*
Y87499D01*
Y87488D01*
X246846Y87041D01*
X246815Y86624D01*
X246773Y86239D01*
X246711Y85885D01*
X246638Y85562D01*
X246565Y85270D01*
X246482Y85010D01*
X246388Y84781D01*
X246305Y84572D01*
X246221Y84396D01*
X246148Y84250D01*
X246075Y84135D01*
X246013Y84041D01*
X245971Y83979D01*
X245940Y83937D01*
X245930Y83927D01*
X245753Y83739D01*
X245555Y83573D01*
X245367Y83427D01*
X245159Y83302D01*
X244961Y83198D01*
X244763Y83104D01*
X244565Y83042D01*
X244378Y82979D01*
X244201Y82937D01*
X244045Y82906D01*
X243899Y82875D01*
X243774Y82865D01*
X243670Y82854D01*
X243587Y82844D01*
X243524D01*
X243212Y82865D01*
X242920Y82906D01*
X242649Y82969D01*
X242420Y83052D01*
X242326Y83083D01*
X242233Y83125D01*
X242160Y83156D01*
X242097Y83188D01*
X242045Y83208D01*
X242004Y83229D01*
X241983Y83250D01*
X241972D01*
X241733Y83417D01*
X241514Y83614D01*
X241327Y83812D01*
X241181Y84000D01*
X241056Y84177D01*
X241014Y84250D01*
X240973Y84312D01*
X240941Y84364D01*
X240921Y84406D01*
X240900Y84427D01*
Y84437D01*
X240764Y84739D01*
X240671Y85031D01*
X240598Y85312D01*
X240556Y85572D01*
X240535Y85687D01*
X240525Y85801D01*
X240514Y85895D01*
Y85968D01*
X240504Y86041D01*
Y86083D01*
Y86114D01*
Y86124D01*
X240514Y86374D01*
X240535Y86614D01*
X240577Y86843D01*
X240629Y87051D01*
X240702Y87249D01*
X240764Y87436D01*
X240848Y87603D01*
X240921Y87759D01*
X240993Y87895D01*
X241077Y88020D01*
X241139Y88124D01*
X241202Y88207D01*
X241264Y88280D01*
X241306Y88322D01*
X241327Y88353D01*
X241337Y88363D01*
X241493Y88519D01*
X241660Y88655D01*
X241826Y88769D01*
X242004Y88874D01*
X242170Y88957D01*
X242337Y89030D01*
X242504Y89082D01*
X242649Y89134D01*
X242795Y89165D01*
X242930Y89196D01*
X243045Y89207D01*
X243149Y89228D01*
X243232D01*
X243295Y89238D01*
X243347D01*
X243597Y89228D01*
X243836Y89186D01*
X244055Y89134D01*
X244253Y89082D01*
X244420Y89019D01*
X244482Y88988D01*
X244545Y88967D01*
X244586Y88946D01*
X244618Y88926D01*
X244638Y88915D01*
X244649D01*
X244867Y88780D01*
X245065Y88634D01*
X245242Y88478D01*
X245399Y88322D01*
X245513Y88176D01*
X245607Y88061D01*
X245638Y88020D01*
X245659Y87988D01*
X245679Y87968D01*
X245669Y88217D01*
X245659Y88467D01*
X245648Y88696D01*
X245628Y88905D01*
X245596Y89103D01*
X245565Y89290D01*
X245544Y89457D01*
X245513Y89602D01*
X245482Y89727D01*
X245451Y89842D01*
X245419Y89946D01*
X245399Y90019D01*
X245378Y90082D01*
X245357Y90134D01*
X245347Y90154D01*
Y90165D01*
X245211Y90436D01*
X245076Y90675D01*
X244930Y90883D01*
X244784Y91050D01*
X244659Y91185D01*
X244565Y91279D01*
X244524Y91310D01*
X244492Y91331D01*
X244482Y91352D01*
X244472D01*
X244305Y91456D01*
X244138Y91539D01*
X243972Y91592D01*
X243816Y91633D01*
X243680Y91654D01*
X243566Y91675D01*
X243472D01*
X243347Y91664D01*
X243222Y91654D01*
X242993Y91592D01*
X242785Y91519D01*
X242618Y91425D01*
X242472Y91331D01*
X242368Y91248D01*
X242337Y91217D01*
X242306Y91185D01*
X242295Y91175D01*
X242285Y91165D01*
X242181Y91029D01*
X242097Y90873D01*
X242014Y90706D01*
X241952Y90540D01*
X241899Y90394D01*
X241868Y90269D01*
X241858Y90217D01*
X241847Y90186D01*
X241837Y90165D01*
Y90154D01*
X240660Y90248D01*
X240691Y90456D01*
X240744Y90644D01*
X240796Y90821D01*
X240858Y90988D01*
X240931Y91144D01*
X241004Y91290D01*
X241077Y91425D01*
X241150Y91539D01*
X241222Y91644D01*
X241295Y91737D01*
X241358Y91821D01*
X241420Y91883D01*
X241462Y91935D01*
X241504Y91966D01*
X241525Y91987D01*
X241535Y91998D01*
X241681Y92112D01*
X241826Y92206D01*
X241972Y92300D01*
X242129Y92373D01*
X242295Y92435D01*
X242441Y92487D01*
X242743Y92560D01*
X242878Y92591D01*
X243003Y92612D01*
X243118Y92622D01*
X243212Y92633D01*
X243284Y92643D01*
X243399D01*
X243680Y92633D01*
D02*
G37*
G36*
X184404Y324285D02*
X184592Y324010D01*
X184804Y323747D01*
X185017Y323522D01*
X185204Y323310D01*
X185292Y323235D01*
X185354Y323160D01*
X185417Y323097D01*
X185466Y323060D01*
X185492Y323035D01*
X185504Y323022D01*
X185841Y322735D01*
X186204Y322485D01*
X186554Y322248D01*
X186879Y322048D01*
X187016Y321973D01*
X187153Y321898D01*
X187278Y321823D01*
X187379Y321773D01*
X187466Y321735D01*
X187528Y321698D01*
X187566Y321685D01*
X187578Y321673D01*
Y320311D01*
X187328Y320411D01*
X187066Y320523D01*
X186816Y320648D01*
X186591Y320760D01*
X186391Y320873D01*
X186304Y320910D01*
X186229Y320961D01*
X186166Y320985D01*
X186129Y321011D01*
X186104Y321035D01*
X186091D01*
X185791Y321223D01*
X185529Y321398D01*
X185292Y321560D01*
X185104Y321710D01*
X184942Y321835D01*
X184829Y321923D01*
X184767Y321985D01*
X184742Y322010D01*
Y313000D01*
X183330D01*
Y324572D01*
X184242D01*
X184404Y324285D01*
D02*
G37*
G36*
X69000Y71000D02*
X67730D01*
Y75270D01*
X66094D01*
X65949Y75259D01*
X65824Y75249D01*
X65720D01*
X65647Y75238D01*
X65595Y75228D01*
X65563Y75218D01*
X65553D01*
X65438Y75186D01*
X65334Y75145D01*
X65241Y75103D01*
X65147Y75061D01*
X65074Y75020D01*
X65022Y74989D01*
X64980Y74968D01*
X64970Y74957D01*
X64866Y74884D01*
X64751Y74780D01*
X64637Y74676D01*
X64543Y74572D01*
X64449Y74478D01*
X64387Y74395D01*
X64345Y74343D01*
X64324Y74332D01*
Y74322D01*
X64178Y74135D01*
X64022Y73926D01*
X63876Y73708D01*
X63731Y73489D01*
X63605Y73302D01*
X63543Y73218D01*
X63501Y73145D01*
X63460Y73083D01*
X63429Y73041D01*
X63418Y73010D01*
X63408Y73000D01*
X62137Y71000D01*
X60544D01*
X62210Y73614D01*
X62397Y73885D01*
X62585Y74135D01*
X62762Y74353D01*
X62918Y74541D01*
X63054Y74687D01*
X63116Y74749D01*
X63168Y74801D01*
X63210Y74843D01*
X63241Y74874D01*
X63252Y74884D01*
X63262Y74895D01*
X63366Y74978D01*
X63491Y75072D01*
X63616Y75145D01*
X63741Y75218D01*
X63856Y75280D01*
X63949Y75332D01*
X64012Y75363D01*
X64022Y75374D01*
X64033D01*
X63783Y75416D01*
X63543Y75468D01*
X63324Y75530D01*
X63127Y75593D01*
X62939Y75665D01*
X62772Y75738D01*
X62627Y75811D01*
X62491Y75884D01*
X62366Y75957D01*
X62262Y76030D01*
X62179Y76093D01*
X62106Y76144D01*
X62054Y76197D01*
X62012Y76228D01*
X61991Y76249D01*
X61981Y76259D01*
X61866Y76395D01*
X61762Y76530D01*
X61669Y76676D01*
X61596Y76821D01*
X61533Y76967D01*
X61481Y77113D01*
X61398Y77384D01*
X61367Y77509D01*
X61346Y77623D01*
X61335Y77727D01*
X61325Y77821D01*
X61315Y77884D01*
Y77946D01*
Y77977D01*
Y77988D01*
X61335Y78279D01*
X61377Y78550D01*
X61439Y78790D01*
X61512Y79008D01*
X61554Y79102D01*
X61596Y79185D01*
X61627Y79258D01*
X61658Y79321D01*
X61679Y79373D01*
X61700Y79404D01*
X61721Y79425D01*
Y79435D01*
X61877Y79665D01*
X62054Y79852D01*
X62231Y80019D01*
X62408Y80143D01*
X62554Y80237D01*
X62679Y80300D01*
X62731Y80321D01*
X62762Y80341D01*
X62783Y80352D01*
X62793D01*
X62929Y80393D01*
X63064Y80435D01*
X63376Y80498D01*
X63699Y80550D01*
X64012Y80581D01*
X64168Y80591D01*
X64303Y80602D01*
X64418D01*
X64532Y80612D01*
X69000D01*
Y71000D01*
D02*
G37*
%LPC*%
G36*
X254729Y91550D02*
X251491D01*
X251314Y91529D01*
X251147Y91508D01*
X250991Y91477D01*
X250856Y91446D01*
X250730Y91404D01*
X250616Y91373D01*
X250512Y91331D01*
X250418Y91290D01*
X250345Y91248D01*
X250272Y91206D01*
X250220Y91175D01*
X250179Y91144D01*
X250147Y91123D01*
X250137Y91112D01*
X250126Y91102D01*
X250043Y91019D01*
X249960Y90925D01*
X249835Y90748D01*
X249752Y90561D01*
X249689Y90384D01*
X249648Y90227D01*
X249637Y90154D01*
Y90102D01*
X249627Y90050D01*
Y90019D01*
Y89998D01*
Y89988D01*
X249637Y89821D01*
X249668Y89655D01*
X249710Y89509D01*
X249752Y89384D01*
X249804Y89269D01*
X249845Y89196D01*
X249877Y89144D01*
X249887Y89123D01*
X249991Y88988D01*
X250116Y88863D01*
X250241Y88769D01*
X250356Y88686D01*
X250470Y88624D01*
X250553Y88582D01*
X250616Y88561D01*
X250626Y88551D01*
X250637D01*
X250835Y88488D01*
X251053Y88447D01*
X251283Y88415D01*
X251501Y88394D01*
X251699Y88384D01*
X251782D01*
X251855Y88374D01*
X254729D01*
Y91550D01*
D02*
G37*
G36*
X192729Y67477D02*
X190511D01*
X190324Y67467D01*
X190147Y67456D01*
X189980Y67446D01*
X189834Y67435D01*
X189699Y67414D01*
X189574Y67394D01*
X189470Y67383D01*
X189376Y67362D01*
X189293Y67342D01*
X189230Y67321D01*
X189168Y67310D01*
X189126Y67300D01*
X189095Y67290D01*
X189085Y67279D01*
X189074D01*
X188939Y67217D01*
X188814Y67154D01*
X188585Y66988D01*
X188376Y66810D01*
X188199Y66623D01*
X188064Y66456D01*
X188001Y66384D01*
X187960Y66321D01*
X187918Y66259D01*
X187887Y66217D01*
X187877Y66196D01*
X187866Y66186D01*
X187783Y66030D01*
X187700Y65852D01*
X187575Y65488D01*
X187491Y65103D01*
X187429Y64728D01*
X187408Y64551D01*
X187387Y64394D01*
X187377Y64249D01*
Y64124D01*
X187366Y64020D01*
Y63936D01*
Y63895D01*
Y63874D01*
X187377Y63478D01*
X187408Y63124D01*
X187429Y62957D01*
X187450Y62811D01*
X187470Y62666D01*
X187491Y62541D01*
X187523Y62426D01*
X187543Y62322D01*
X187564Y62228D01*
X187585Y62155D01*
X187606Y62093D01*
X187616Y62051D01*
X187627Y62031D01*
Y62020D01*
X187731Y61749D01*
X187845Y61510D01*
X187960Y61301D01*
X188064Y61125D01*
X188168Y60989D01*
X188251Y60885D01*
X188304Y60823D01*
X188314Y60812D01*
X188324Y60802D01*
X188449Y60687D01*
X188595Y60583D01*
X188741Y60500D01*
X188876Y60427D01*
X189001Y60375D01*
X189095Y60333D01*
X189137Y60323D01*
X189168Y60312D01*
X189178Y60302D01*
X189189D01*
X189407Y60250D01*
X189647Y60208D01*
X189897Y60177D01*
X190136Y60156D01*
X190345Y60146D01*
X190438D01*
X190522Y60135D01*
X192729D01*
Y67477D01*
D02*
G37*
G36*
X254729Y140550D02*
X251491D01*
X251314Y140529D01*
X251147Y140508D01*
X250991Y140477D01*
X250856Y140446D01*
X250730Y140404D01*
X250616Y140373D01*
X250512Y140331D01*
X250418Y140289D01*
X250345Y140248D01*
X250272Y140206D01*
X250220Y140175D01*
X250179Y140144D01*
X250147Y140123D01*
X250137Y140112D01*
X250126Y140102D01*
X250043Y140019D01*
X249960Y139925D01*
X249835Y139748D01*
X249752Y139561D01*
X249689Y139383D01*
X249648Y139227D01*
X249637Y139154D01*
Y139102D01*
X249627Y139050D01*
Y139019D01*
Y138998D01*
Y138988D01*
X249637Y138821D01*
X249668Y138654D01*
X249710Y138509D01*
X249752Y138384D01*
X249804Y138269D01*
X249845Y138196D01*
X249877Y138144D01*
X249887Y138123D01*
X249991Y137988D01*
X250116Y137863D01*
X250241Y137769D01*
X250356Y137686D01*
X250470Y137624D01*
X250553Y137582D01*
X250616Y137561D01*
X250626Y137551D01*
X250637D01*
X250835Y137488D01*
X251053Y137446D01*
X251283Y137415D01*
X251501Y137394D01*
X251699Y137384D01*
X251782D01*
X251855Y137374D01*
X254729D01*
Y140550D01*
D02*
G37*
G36*
X243014Y139717D02*
Y135385D01*
X246044D01*
X243014Y139717D01*
D02*
G37*
G36*
X254729Y67550D02*
X251491D01*
X251314Y67529D01*
X251147Y67508D01*
X250991Y67477D01*
X250856Y67446D01*
X250730Y67404D01*
X250616Y67373D01*
X250512Y67331D01*
X250418Y67290D01*
X250345Y67248D01*
X250272Y67206D01*
X250220Y67175D01*
X250179Y67144D01*
X250147Y67123D01*
X250137Y67112D01*
X250126Y67102D01*
X250043Y67019D01*
X249960Y66925D01*
X249835Y66748D01*
X249752Y66561D01*
X249689Y66384D01*
X249648Y66227D01*
X249637Y66154D01*
Y66102D01*
X249627Y66050D01*
Y66019D01*
Y65998D01*
Y65988D01*
X249637Y65821D01*
X249668Y65655D01*
X249710Y65509D01*
X249752Y65384D01*
X249804Y65269D01*
X249845Y65196D01*
X249877Y65144D01*
X249887Y65123D01*
X249991Y64988D01*
X250116Y64863D01*
X250241Y64769D01*
X250356Y64686D01*
X250470Y64624D01*
X250553Y64582D01*
X250616Y64561D01*
X250626Y64551D01*
X250637D01*
X250835Y64488D01*
X251053Y64447D01*
X251283Y64415D01*
X251501Y64394D01*
X251699Y64384D01*
X251782D01*
X251855Y64374D01*
X254729D01*
Y67550D01*
D02*
G37*
G36*
X66729Y58550D02*
X63491D01*
X63314Y58529D01*
X63147Y58508D01*
X62991Y58477D01*
X62856Y58446D01*
X62730Y58404D01*
X62616Y58373D01*
X62512Y58331D01*
X62418Y58290D01*
X62345Y58248D01*
X62272Y58206D01*
X62220Y58175D01*
X62179Y58144D01*
X62147Y58123D01*
X62137Y58113D01*
X62126Y58102D01*
X62043Y58019D01*
X61960Y57925D01*
X61835Y57748D01*
X61752Y57561D01*
X61689Y57384D01*
X61648Y57227D01*
X61637Y57154D01*
Y57102D01*
X61627Y57050D01*
Y57019D01*
Y56998D01*
Y56988D01*
X61637Y56821D01*
X61668Y56655D01*
X61710Y56509D01*
X61752Y56384D01*
X61804Y56269D01*
X61845Y56196D01*
X61877Y56144D01*
X61887Y56123D01*
X61991Y55988D01*
X62116Y55863D01*
X62241Y55769D01*
X62356Y55686D01*
X62470Y55624D01*
X62554Y55582D01*
X62616Y55561D01*
X62626Y55551D01*
X62637D01*
X62835Y55488D01*
X63053Y55447D01*
X63282Y55415D01*
X63501Y55395D01*
X63699Y55384D01*
X63782D01*
X63855Y55374D01*
X66729D01*
Y58550D01*
D02*
G37*
G36*
X254729Y115550D02*
X251491D01*
X251314Y115529D01*
X251147Y115508D01*
X250991Y115477D01*
X250856Y115446D01*
X250730Y115404D01*
X250616Y115373D01*
X250512Y115331D01*
X250418Y115289D01*
X250345Y115248D01*
X250272Y115206D01*
X250220Y115175D01*
X250179Y115144D01*
X250147Y115123D01*
X250137Y115112D01*
X250126Y115102D01*
X250043Y115019D01*
X249960Y114925D01*
X249835Y114748D01*
X249752Y114561D01*
X249689Y114383D01*
X249648Y114227D01*
X249637Y114154D01*
Y114102D01*
X249627Y114050D01*
Y114019D01*
Y113998D01*
Y113988D01*
X249637Y113821D01*
X249668Y113654D01*
X249710Y113509D01*
X249752Y113384D01*
X249804Y113269D01*
X249845Y113196D01*
X249877Y113144D01*
X249887Y113123D01*
X249991Y112988D01*
X250116Y112863D01*
X250241Y112769D01*
X250356Y112686D01*
X250470Y112624D01*
X250553Y112582D01*
X250616Y112561D01*
X250626Y112551D01*
X250637D01*
X250835Y112488D01*
X251053Y112446D01*
X251283Y112415D01*
X251501Y112394D01*
X251699Y112384D01*
X251782D01*
X251855Y112374D01*
X254729D01*
Y115550D01*
D02*
G37*
G36*
X245679Y87968D02*
X245680Y87957D01*
Y87968D01*
X245679Y87968D01*
D02*
G37*
G36*
X243659Y88197D02*
X243587D01*
X243441Y88186D01*
X243295Y88176D01*
X243035Y88103D01*
X242806Y88009D01*
X242608Y87905D01*
X242451Y87801D01*
X242389Y87749D01*
X242337Y87707D01*
X242295Y87666D01*
X242264Y87634D01*
X242253Y87624D01*
X242243Y87613D01*
X242149Y87499D01*
X242066Y87384D01*
X241993Y87259D01*
X241931Y87124D01*
X241837Y86864D01*
X241775Y86614D01*
X241754Y86499D01*
X241743Y86395D01*
X241733Y86301D01*
X241722Y86218D01*
X241712Y86145D01*
Y86093D01*
Y86062D01*
Y86051D01*
X241722Y85864D01*
X241733Y85687D01*
X241764Y85510D01*
X241795Y85354D01*
X241837Y85208D01*
X241879Y85072D01*
X241931Y84947D01*
X241983Y84843D01*
X242035Y84739D01*
X242087Y84656D01*
X242129Y84583D01*
X242170Y84521D01*
X242201Y84468D01*
X242233Y84437D01*
X242243Y84416D01*
X242253Y84406D01*
X242358Y84302D01*
X242462Y84208D01*
X242566Y84135D01*
X242680Y84062D01*
X242785Y84010D01*
X242899Y83958D01*
X243097Y83885D01*
X243274Y83843D01*
X243347Y83833D01*
X243420Y83823D01*
X243472Y83812D01*
X243545D01*
X243732Y83823D01*
X243920Y83854D01*
X244086Y83906D01*
X244232Y83958D01*
X244357Y84010D01*
X244451Y84062D01*
X244513Y84094D01*
X244524Y84104D01*
X244534D01*
X244701Y84229D01*
X244836Y84364D01*
X244961Y84500D01*
X245065Y84635D01*
X245149Y84760D01*
X245201Y84854D01*
X245222Y84895D01*
X245242Y84927D01*
X245253Y84937D01*
Y84947D01*
X245336Y85156D01*
X245399Y85364D01*
X245440Y85562D01*
X245471Y85739D01*
X245492Y85895D01*
Y85958D01*
X245503Y86010D01*
Y86051D01*
Y86083D01*
Y86103D01*
Y86114D01*
X245492Y86280D01*
X245482Y86447D01*
X245419Y86739D01*
X245326Y86999D01*
X245274Y87114D01*
X245222Y87207D01*
X245180Y87301D01*
X245128Y87384D01*
X245076Y87457D01*
X245034Y87509D01*
X245003Y87551D01*
X244972Y87582D01*
X244961Y87603D01*
X244951Y87613D01*
X244847Y87718D01*
X244732Y87811D01*
X244618Y87884D01*
X244503Y87947D01*
X244274Y88051D01*
X244055Y88124D01*
X243868Y88165D01*
X243784Y88176D01*
X243722Y88186D01*
X243659Y88197D01*
D02*
G37*
G36*
X67730Y79550D02*
X64491D01*
X64314Y79529D01*
X64147Y79508D01*
X63991Y79477D01*
X63856Y79446D01*
X63731Y79404D01*
X63616Y79373D01*
X63512Y79331D01*
X63418Y79290D01*
X63345Y79248D01*
X63272Y79206D01*
X63220Y79175D01*
X63179Y79144D01*
X63147Y79123D01*
X63137Y79113D01*
X63127Y79102D01*
X63043Y79019D01*
X62960Y78925D01*
X62835Y78748D01*
X62752Y78561D01*
X62689Y78383D01*
X62647Y78227D01*
X62637Y78154D01*
Y78102D01*
X62627Y78050D01*
Y78019D01*
Y77998D01*
Y77988D01*
X62637Y77821D01*
X62668Y77655D01*
X62710Y77509D01*
X62752Y77384D01*
X62804Y77269D01*
X62845Y77196D01*
X62877Y77144D01*
X62887Y77123D01*
X62991Y76988D01*
X63116Y76863D01*
X63241Y76769D01*
X63356Y76686D01*
X63470Y76624D01*
X63554Y76582D01*
X63616Y76561D01*
X63626Y76551D01*
X63637D01*
X63835Y76488D01*
X64053Y76446D01*
X64282Y76415D01*
X64501Y76395D01*
X64699Y76384D01*
X64782D01*
X64855Y76374D01*
X67730D01*
Y79550D01*
D02*
G37*
%LPD*%
D26*
X301763Y160647D02*
X302489Y162823D01*
X304666Y164274D01*
X308293Y165000D01*
X310470D01*
X314098Y164274D01*
X316274Y162823D01*
X317000Y160647D01*
Y159195D01*
X316274Y157019D01*
X314098Y155568D01*
X310470Y154842D01*
X308293D01*
X304666Y155568D01*
X302489Y157019D01*
X301763Y159195D01*
Y160647D01*
X304666Y151432D02*
X303940Y149981D01*
X301763Y147804D01*
X317000D01*
X305391Y139533D02*
X304666D01*
X303214Y138807D01*
X302489Y138082D01*
X301763Y136631D01*
Y133728D01*
X302489Y132277D01*
X303214Y131552D01*
X304666Y130826D01*
X306117D01*
X307568Y131552D01*
X309744Y133003D01*
X317000Y140258D01*
Y130101D01*
X301763Y122337D02*
X302489Y124514D01*
X304666Y125965D01*
X308293Y126691D01*
X310470D01*
X314098Y125965D01*
X316274Y124514D01*
X317000Y122337D01*
Y120886D01*
X316274Y118709D01*
X314098Y117258D01*
X310470Y116533D01*
X308293D01*
X304666Y117258D01*
X302489Y118709D01*
X301763Y120886D01*
Y122337D01*
X315549Y112397D02*
X316274Y113123D01*
X317000Y112397D01*
X316274Y111671D01*
X315549Y112397D01*
X301763Y103981D02*
X302489Y106157D01*
X304666Y107608D01*
X308293Y108334D01*
X310470D01*
X314098Y107608D01*
X316274Y106157D01*
X317000Y103981D01*
Y102529D01*
X316274Y100353D01*
X314098Y98902D01*
X310470Y98176D01*
X308293D01*
X304666Y98902D01*
X302489Y100353D01*
X301763Y102529D01*
Y103981D01*
Y90413D02*
X302489Y92589D01*
X304666Y94040D01*
X308293Y94766D01*
X310470D01*
X314098Y94040D01*
X316274Y92589D01*
X317000Y90413D01*
Y88961D01*
X316274Y86785D01*
X314098Y85334D01*
X310470Y84608D01*
X308293D01*
X304666Y85334D01*
X302489Y86785D01*
X301763Y88961D01*
Y90413D01*
X305391Y80472D02*
X304666D01*
X303214Y79747D01*
X302489Y79021D01*
X301763Y77570D01*
Y74668D01*
X302489Y73217D01*
X303214Y72491D01*
X304666Y71766D01*
X306117D01*
X307568Y72491D01*
X309744Y73942D01*
X317000Y81198D01*
Y71040D01*
X306842Y55658D02*
X317000D01*
X311196D02*
X309019Y54933D01*
X307568Y53482D01*
X306842Y52031D01*
Y49854D01*
X311196Y48475D02*
Y39769D01*
X309744D01*
X308293Y40494D01*
X307568Y41220D01*
X306842Y42671D01*
Y44847D01*
X307568Y46299D01*
X309019Y47750D01*
X311196Y48475D01*
X312647D01*
X314823Y47750D01*
X316274Y46299D01*
X317000Y44847D01*
Y42671D01*
X316274Y41220D01*
X314823Y39769D01*
X306842Y36504D02*
X317000Y32150D01*
X306842Y27797D02*
X317000Y32150D01*
X315549Y24604D02*
X316274Y25330D01*
X317000Y24604D01*
X316274Y23879D01*
X315549Y24604D01*
X301763Y16188D02*
X302489Y18365D01*
X304666Y19816D01*
X308293Y20541D01*
X310470D01*
X314098Y19816D01*
X316274Y18365D01*
X317000Y16188D01*
Y14737D01*
X316274Y12560D01*
X314098Y11109D01*
X310470Y10383D01*
X308293D01*
X304666Y11109D01*
X302489Y12560D01*
X301763Y14737D01*
Y16188D01*
D40*
X225000Y60000D02*
X233000D01*
X201000Y61000D02*
X202000Y60000D01*
X225000Y74000D02*
X233000D01*
Y60000D02*
Y74000D01*
X202000D02*
X211000D01*
X202000Y60000D02*
X211000D01*
X201000Y61000D02*
Y73000D01*
X202000Y74000D01*
X163450Y92750D02*
X210250D01*
Y138250D01*
Y258250D02*
Y303750D01*
X163450D02*
X210250D01*
X55250Y92750D02*
X106050D01*
X55250D02*
Y143250D01*
Y253250D02*
Y303750D01*
X106050D01*
D41*
X11500Y45000D02*
X46500D01*
X11500Y65000D02*
X46500D01*
X11500Y45000D02*
Y65000D01*
X46500Y45000D02*
Y65000D01*
X11500Y68000D02*
X46500D01*
X11500Y88000D02*
X46500D01*
X11500Y68000D02*
Y88000D01*
X46500Y68000D02*
Y88000D01*
X258500Y83000D02*
X293500D01*
X258500Y103000D02*
X293500D01*
X258500Y83000D02*
Y103000D01*
X293500Y83000D02*
Y103000D01*
X258500Y59000D02*
X293500D01*
X258500Y79000D02*
X293500D01*
X258500Y59000D02*
Y79000D01*
X293500Y59000D02*
Y79000D01*
X258500Y132000D02*
X293500D01*
X258500Y152000D02*
X293500D01*
X258500Y132000D02*
Y152000D01*
X293500Y132000D02*
Y152000D01*
X258500Y107000D02*
X293500D01*
X258500Y127000D02*
X293500D01*
X258500Y107000D02*
Y127000D01*
X293500Y107000D02*
Y127000D01*
D66*
X200070Y67000D02*
D03*
M02*
