M48
;Layer_Color=9474304
;FILE_FORMAT=4:4
METRIC,LZ
;TYPE=PLATED
T1F00S00C0.3000
T2F00S00C0.4000
T3F00S00C0.5000
T4F00S00C0.8000
T5F00S00C1.1000
%
T01
X0007Y0012
T02
X00035Y00104
X00086Y00074
X00098Y00062
X00215Y00088
X00221Y0013
X00235Y00118
X0027125Y001695
X00223Y0026
X00228Y00294
X00215Y00337
X00051Y00293
X0000725Y0024
X00301Y00025
X00193Y00366
X00172Y00349
X00136
X00108Y00357
X00123Y00383
T03
X00042Y00032
T04
X0007Y0003025
X0009
X0011
X0013
X0015
X0017
X0019
X0021
X0023
X0025
T05
X0030625Y0021795
Y0024335
Y0026875
Y0029415
Y0031955
M30
